<?xml version="1.0" standalone="no"?>
<!DOCTYPE svg PUBLIC "-//W3C//DTD SVG 1.1//EN" "http://www.w3.org/Graphics/SVG/1.1/DTD/svg11.dtd" >
<svg xmlns="http://www.w3.org/2000/svg" xmlns:xlink="http://www.w3.org/1999/xlink" version="1.1">
<metadata>
Created by FontForge 20170910 at Tue Apr 24 10:21:23 2012
 By Jimmy Wärting
Copyright (c) 2003 - 2012 Linotype GmbH, www.linotype.com. All rights reserved. This font software may not be reproduced, modified, disclosed or transferred without the express written approval of Linotype GmbH. Avenir is a trademark of Linotype GmbH registered in the U.S. Patent and Trademark Office and may be registered in certain other jurisdictions. This typeface is original artwork of Adrian Frutiger and Akira Kobayashi. The design may be protected in certain jurisdictions.
</metadata>
<defs>
<font id="AvenirNextCyr-BoldItalic" horiz-adv-x="300" >
  <font-face 
    font-family="Avenir Next Cyr Medium"
    font-weight="750"
    font-style="italic"
    font-stretch="normal"
    units-per-em="1000"
    panose-1="2 11 8 3 2 2 2 9 2 4"
    ascent="756"
    descent="-244"
    x-height="498"
    cap-height="708"
    bbox="-252 -250 1215 961"
    underline-thickness="50"
    underline-position="-200"
    slope="-12"
    unicode-range="U+000D-FB04"
  />
<missing-glyph horiz-adv-x="512" 
d="M278 117h-56v67h56v-67zM271 234h-46l-2 17q0 56 13 81q15 28 46 59q31 29 40.5 46t9.5 37q0 36 -22.5 60.5t-53.5 24.5q-71 0 -82 -95l-50 8q7 69 43 103t92 34q54 0 89 -36t35 -95q0 -34 -13 -60t-50 -60q-37 -33 -43 -52q-6 -20 -6 -72zM50 50h412v617h-412v-617z
M0 718h512v-718h-512v718z" />
    <glyph glyph-name="napostrophe" unicode="&#x22;n" horiz-adv-x="701" 
d="M325 426h2q56 85 156 85q79 0 119 -43t40 -108q0 -33 -5 -54l-54 -306h-160l47 270q5 23 5 42q0 67 -66 67q-42 0 -69.5 -31t-35.5 -78l-48 -270h-160l69 395q10 50 15 103h153l-4 -36zM290 708l-130 -195h-123l111 195h142z" />
    <glyph glyph-name="f_f" unicode="ff" horiz-adv-x="704" 
d="M786 765l-29 -128q-19 8 -42 8q-69 0 -85 -94l-9 -53h112l-21 -120h-110l-67 -378h-157l67 378h-186l-67 -378h-157l67 378h-91l21 120h88l10 51q9 48 24 85t41.5 70.5t70 52t102.5 18.5q46 0 75 -10l-29 -128q-19 8 -42 8q-69 0 -85 -94l-9 -53h185l10 51q9 48 24 85
t41.5 70.5t70 52t102.5 18.5q46 0 75 -10z" />
    <glyph glyph-name="fi" unicode="fi" horiz-adv-x="659" 
d="M658 665q0 -40 -26.5 -68t-66.5 -28q-37 0 -61.5 22.5t-24.5 57.5q0 41 27 68.5t67 27.5q37 0 61 -23t24 -57zM624 498l-88 -498h-160l87 498h161zM443 765l-29 -128q-19 8 -42 8q-67 0 -85 -94l-9 -53h112l-21 -120h-110l-67 -378h-157l67 378h-91l21 120h88l10 51
q9 48 24 84.5t41.5 70.5t70 52.5t102.5 18.5q46 0 75 -10z" />
    <glyph glyph-name="fl" unicode="fl" horiz-adv-x="659" 
d="M537 0h-162l133 756h162zM443 765l-29 -128q-19 8 -42 8q-67 0 -85 -94l-9 -53h112l-21 -120h-110l-67 -378h-157l67 378h-91l21 120h88l10 51q9 48 24 85t41.5 70.5t70 52t102.5 18.5q46 0 75 -10z" />
    <glyph glyph-name="f_f_i" unicode="ffi" horiz-adv-x="1002" 
d="M786 765l-29 -128q-19 8 -42 8q-69 0 -85 -94l-9 -53h112l-21 -120h-110l-67 -378h-157l67 378h-186l-67 -378h-157l67 378h-91l21 120h88l10 51q9 48 24 85t41.5 70.5t70 52t102.5 18.5q46 0 75 -10l-29 -128q-19 8 -42 8q-69 0 -85 -94l-9 -53h185l10 51q9 48 24 85
t41.5 70.5t70 52t102.5 18.5q46 0 75 -10zM878 0h-159l87 498h161zM1001 665q0 -40 -26.5 -68t-66.5 -28q-38 0 -62.5 23t-24.5 57q0 40 27.5 68t67.5 28q37 0 61 -23t24 -57z" />
    <glyph glyph-name="f_f_l" unicode="ffl" horiz-adv-x="1002" 
d="M786 765l-29 -128q-19 8 -42 8q-69 0 -85 -94l-9 -53h112l-21 -120h-110l-67 -378h-157l67 378h-186l-67 -378h-157l67 378h-91l21 120h88l10 51q9 48 24 85t41.5 70.5t70 52t102.5 18.5q46 0 75 -10l-29 -128q-19 8 -42 8q-69 0 -85 -94l-9 -53h185l10 51q9 48 24 85
t41.5 70.5t70 52t102.5 18.5q46 0 75 -10zM879 0h-162l133 756h163z" />
    <glyph glyph-name=".notdef" horiz-adv-x="512" 
d="M278 117h-56v67h56v-67zM271 234h-46l-2 17q0 56 13 81q15 28 46 59q31 29 40.5 46t9.5 37q0 36 -22.5 60.5t-53.5 24.5q-71 0 -82 -95l-50 8q7 69 43 103t92 34q54 0 89 -36t35 -95q0 -34 -13 -60t-50 -60q-37 -33 -43 -52q-6 -20 -6 -72zM50 50h412v617h-412v-617z
M0 718h512v-718h-512v718z" />
    <glyph glyph-name=".null" horiz-adv-x="500" 
 />
    <glyph glyph-name=".null" horiz-adv-x="500" 
 />
    <glyph glyph-name="nonmarkingreturn" horiz-adv-x="333" 
 />
    <glyph glyph-name="CR" unicode="&#xd;" horiz-adv-x="0" 
 />
    <glyph glyph-name="space" unicode=" " horiz-adv-x="250" 
 />
    <glyph glyph-name="exclam" unicode="!" horiz-adv-x="353" 
d="M243 236h-163l83 472h164zM236 92q0 -42 -27.5 -71t-69.5 -29q-40 0 -65 23.5t-25 60.5q0 42 28.5 71t69.5 29q39 0 64 -24t25 -60z" />
    <glyph glyph-name="quotedbl" unicode="&#x22;" horiz-adv-x="490" 
d="M418 438h-127l48 270h127zM225 438h-127l48 270h128z" />
    <glyph glyph-name="numbersign" unicode="#" horiz-adv-x="601" 
d="M571 405h-100l-32 -102h85l-18 -102h-98l-65 -201h-108l64 201h-81l-64 -201h-108l64 201h-85l18 102h98l34 102h-85l17 102h100l64 201h108l-63 -201h80l64 201h108l-64 -201h85zM364 405h-81l-33 -102h81z" />
    <glyph glyph-name="dollar" unicode="$" horiz-adv-x="644" 
d="M615 638l-107 -98q-39 48 -107 50l-29 -167q93 -31 142.5 -76t49.5 -128q0 -101 -77 -162.5t-191 -66.5l-13 -74h-70l12 74q-64 3 -126 29.5t-97 71.5l119 100q20 -29 56.5 -49t71.5 -21l31 179q-84 24 -134 67t-50 123q0 100 75.5 162.5t179.5 65.5l13 72h71l-13 -72
q130 -10 193 -80zM330 589q-37 -2 -60.5 -22.5t-23.5 -56.5q0 -49 58 -67zM408 206q0 52 -60 75l-29 -160q39 2 64 25t25 60z" />
    <glyph glyph-name="percent" unicode="%" horiz-adv-x="908" 
d="M865 202q0 -90 -59 -151.5t-150 -61.5q-74 0 -122 43.5t-48 114.5q0 89 59.5 150.5t149.5 61.5q75 0 122.5 -43.5t47.5 -113.5zM751 189q0 28 -17.5 47.5t-46.5 19.5q-38 0 -62.5 -27.5t-24.5 -68.5q0 -29 17.5 -48.5t45.5 -19.5q40 0 64 27.5t24 69.5zM442 563
q0 -90 -59.5 -151.5t-149.5 -61.5q-74 0 -122 43.5t-48 114.5q0 89 59.5 150.5t150.5 61.5q75 0 122 -43.5t47 -113.5zM329 550q0 28 -17.5 47.5t-47.5 19.5q-38 0 -62.5 -27.5t-24.5 -68.5q0 -29 17.5 -48.5t46.5 -19.5q39 0 63.5 27.5t24.5 69.5zM771 694l-547 -729
l-71 46l546 729z" />
    <glyph glyph-name="ampersand" unicode="&#x26;" horiz-adv-x="777" 
d="M741 379l-167 -202l151 -177h-198l-57 72q-96 -86 -213 -86q-104 0 -170.5 49t-66.5 144q0 78 50.5 133.5t136.5 86.5q-46 58 -46 130q0 85 62 141.5t157 56.5q90 0 146 -45.5t56 -125.5q0 -122 -173 -195l73 -87l76 105h183zM441 549q0 28 -16.5 45t-44.5 17
q-33 0 -54.5 -22t-21.5 -55q0 -49 36 -85q45 16 73 42t28 58zM384 174l-105 129q-99 -33 -99 -109q0 -34 26 -56t63 -22q65 0 115 58z" />
    <glyph glyph-name="quotesingle" unicode="'" horiz-adv-x="296" 
d="M225 438h-127l47 270h127z" />
    <glyph glyph-name="parenleft" unicode="(" horiz-adv-x="342" 
d="M208 -121l-114 -44q-82 145 -82 335q0 152 61 299t177 273l98 -61q-103 -115 -156.5 -248t-53.5 -262q0 -166 70 -292z" />
    <glyph glyph-name="parenright" unicode=")" horiz-adv-x="342" 
d="M125 698l114 44q82 -144 82 -335q0 -152 -61 -299t-177 -272l-98 60q103 116 156.5 248.5t53.5 261.5q0 166 -70 292z" />
    <glyph glyph-name="asterisk" unicode="*" horiz-adv-x="486" 
d="M338 708v-132l129 41l33 -97l-129 -40l81 -109l-88 -61l-82 110l-79 -107l-86 62l82 105l-131 44l34 97l129 -44v131h107z" />
    <glyph glyph-name="plus" unicode="+" horiz-adv-x="666" 
d="M611 240h-212v-209h-130v209h-213v126h212v209h130v-209h213v-126z" />
    <glyph glyph-name="comma" unicode="," 
d="M220 158l-146 -282h-131l124 282h153z" />
    <glyph glyph-name="hyphen" unicode="-" horiz-adv-x="326" 
d="M268 197h-253l23 127h252z" />
    <glyph glyph-name="period" unicode="." 
d="M203 94q0 -42 -28.5 -71.5t-70.5 -29.5q-41 0 -66.5 24t-25.5 61q0 43 29 72.5t72 29.5q39 0 64.5 -24.5t25.5 -61.5z" />
    <glyph glyph-name="slash" unicode="/" horiz-adv-x="413" 
d="M484 723l-446 -774l-103 36l445 775z" />
    <glyph glyph-name="zero" unicode="0" horiz-adv-x="644" 
d="M379 726q63 0 110.5 -21t74.5 -57.5t40 -80.5t13 -96q0 -64 -10.5 -128.5t-35.5 -130.5t-62 -116.5t-95.5 -82t-130.5 -31.5q-123 0 -182 71.5t-59 180.5q0 82 18.5 164t56 157.5t105.5 123t157 47.5zM366 590q-46 0 -84 -51t-57 -126t-19 -154q0 -62 21 -100t65 -38
q67 0 112 102.5t45 228.5q0 138 -83 138z" />
    <glyph glyph-name="one" unicode="1" horiz-adv-x="644" 
d="M390 0h-164l93 525l-150 -98l-61 124l253 157h154z" />
    <glyph glyph-name="two" unicode="2" horiz-adv-x="644" 
d="M263 142h288l-25 -142h-515l24 138l319 249q85 70 85 123q0 35 -22 55.5t-63 20.5q-42 0 -71.5 -26.5t-43.5 -74.5l-150 31q30 100 104 155.5t175 55.5q105 0 173 -53t68 -144q0 -42 -11.5 -76t-38 -65.5t-49.5 -51.5t-67 -54z" />
    <glyph glyph-name="three" unicode="3" horiz-adv-x="644" 
d="M290 426q67 0 103 25t36 72q0 32 -21.5 51t-58.5 19q-77 0 -110 -70l-134 54q35 75 103.5 112.5t153.5 37.5q96 0 163 -48t67 -140q0 -68 -41.5 -111t-98.5 -57v-2q50 -14 79.5 -54t29.5 -93q0 -114 -82 -177.5t-200 -63.5q-99 0 -168 46.5t-92 133.5l152 41
q22 -82 114 -82q49 0 79.5 25.5t30.5 68.5q0 92 -132 92h-44l20 120h51z" />
    <glyph glyph-name="four" unicode="4" horiz-adv-x="644" 
d="M579 139h-97l-24 -139h-152l23 139h-332l25 141l352 428h205l-77 -436h100zM351 272l50 276h-4l-219 -276h173z" />
    <glyph glyph-name="five" unicode="5" horiz-adv-x="644" 
d="M298 568l-26 -116q32 7 67 7q42 0 80 -11t71 -34.5t53 -65t20 -97.5q0 -67 -25 -120t-65.5 -85t-89.5 -48.5t-101 -16.5q-99 0 -169.5 46.5t-94.5 123.5l150 49q11 -36 41 -57.5t70 -21.5q53 0 85.5 31t32.5 83t-35.5 77t-91.5 25q-79 0 -174 -35l86 406h418l-26 -140
h-276z" />
    <glyph glyph-name="six" unicode="6" horiz-adv-x="644" 
d="M578 258q0 -116 -81 -196t-218 -80q-113 0 -185.5 59.5t-72.5 167.5q0 110 107 237l222 262h206l-219 -246l-6 -8q15 5 36 5q98 0 154.5 -59t56.5 -142zM412 247q0 45 -29 71.5t-68 26.5q-59 0 -95 -37.5t-36 -94.5q0 -44 30 -71t72 -27q58 0 92 36t34 96z" />
    <glyph glyph-name="seven" unicode="7" horiz-adv-x="644" 
d="M619 577l-385 -577h-199l400 567h-323l24 141h506z" />
    <glyph glyph-name="eight" unicode="8" horiz-adv-x="644" 
d="M201 199q0 -43 26 -65t63 -22q56 0 86.5 30t30.5 78q0 39 -25 63t-64 24q-52 0 -84.5 -30.5t-32.5 -77.5zM457 369l1 -3q44 -16 75 -57t31 -93q0 -109 -77.5 -171.5t-203.5 -62.5q-43 0 -82.5 10t-75.5 31.5t-58 61.5t-22 94q0 77 48.5 131t115.5 69v3q-38 18 -61.5 53.5
t-23.5 78.5q0 101 76.5 156.5t180.5 55.5q92 0 155.5 -45t63.5 -132q0 -73 -42 -117.5t-101 -62.5zM271 506q0 -33 21.5 -54t56.5 -21q41 0 69 25.5t28 67.5q0 35 -22 55t-58 20q-42 0 -68.5 -26.5t-26.5 -66.5z" />
    <glyph glyph-name="nine" unicode="9" horiz-adv-x="644" 
d="M625 499q0 -110 -107 -237l-222 -262h-206l219 246l6 8q-15 -5 -36 -5q-98 0 -154.5 59t-56.5 142q0 116 81 196t218 80q113 0 185.5 -59.5t72.5 -167.5zM462 495q0 44 -30 71t-72 27q-58 0 -92 -36t-34 -96q0 -45 29 -71.5t68 -26.5q59 0 95 37.5t36 94.5z" />
    <glyph glyph-name="colon" unicode=":" horiz-adv-x="330" 
d="M216 94q0 -40 -28 -69t-69 -29q-39 0 -64 23.5t-25 59.5q0 41 28.5 69.5t69.5 28.5q38 0 63 -24t25 -59zM272 419q0 -41 -27.5 -70t-68.5 -29q-39 0 -64 23.5t-25 59.5q0 42 28 70t69 28q38 0 63 -23.5t25 -58.5z" />
    <glyph glyph-name="semicolon" unicode=";" horiz-adv-x="330" 
d="M240 158l-145 -282h-135l124 282h156zM272 419q0 -41 -27.5 -70t-68.5 -29q-39 0 -64 23.5t-25 59.5q0 42 28 70t69 28q38 0 63 -23.5t25 -58.5z" />
    <glyph glyph-name="less" unicode="&#x3c;" horiz-adv-x="666" 
d="M587 37l-508 214v103l508 214v-136l-306 -131l306 -127v-137z" />
    <glyph glyph-name="equal" unicode="=" horiz-adv-x="666" 
d="M598 335h-530v123h530v-123zM598 150h-530v123h530v-123z" />
    <glyph glyph-name="greater" unicode="&#x3e;" horiz-adv-x="666" 
d="M587 251l-508 -214v137l306 127l-306 131v136l508 -214v-103z" />
    <glyph glyph-name="question" unicode="?" horiz-adv-x="543" 
d="M418 345q-39 -26 -54 -44.5t-20 -50.5l-4 -26h-152l6 39q9 50 32.5 82.5t72.5 68.5l40 30q28 21 42.5 39.5t14.5 44.5q0 61 -69 61q-40 0 -66.5 -27t-34.5 -68l-148 26q21 96 94.5 151.5t173.5 55.5q96 0 156.5 -43.5t60.5 -137.5q0 -65 -34 -108.5t-111 -92.5zM345 92
q0 -42 -27.5 -71t-69.5 -29q-40 0 -65 23.5t-25 60.5q0 42 28.5 71t69.5 29q39 0 64 -24t25 -60z" />
    <glyph glyph-name="at" unicode="@" horiz-adv-x="800" 
d="M545 160q-40 0 -64 17.5t-24 46.5h-3q-18 -26 -50 -45t-70 -19q-61 0 -94.5 34t-33.5 92q0 62 27.5 123t82 103t120.5 42q38 0 62.5 -16t28.5 -38h1l13 34h106l-60 -159q-27 -76 -27 -94q0 -14 5.5 -19t19.5 -5q45 0 76.5 52.5t31.5 128.5q0 97 -62.5 147.5t-167.5 50.5
q-142 0 -233.5 -95t-91.5 -234q0 -110 71 -172t192 -62q123 0 227 83l50 -68q-116 -106 -289 -106q-166 0 -263.5 85.5t-97.5 231.5q0 182 126.5 304.5t310.5 122.5q145 0 237 -74.5t92 -204.5q0 -120 -69 -203.5t-180 -83.5zM479 405q0 54 -50 54q-37 0 -71 -49.5
t-34 -100.5t48 -51q43 0 75 49t32 98z" />
    <glyph glyph-name="A" unicode="A" horiz-adv-x="710" 
d="M664 0h-175l-24 141h-273l-85 -141h-190l451 708h162zM448 275l-37 251l-148 -251h185z" />
    <glyph glyph-name="B" unicode="B" horiz-adv-x="664" 
d="M420 708q85 0 146 -38t61 -117q0 -69 -41 -116t-110 -65v-2q56 -9 91.5 -49.5t35.5 -101.5q0 -105 -83 -162t-220 -57h-282l125 708h277zM368 575h-91l-26 -152h102q43 0 76.5 20.5t33.5 66.5q0 65 -95 65zM337 303h-108l-29 -169h97q62 0 101 23t39 74q0 34 -26 53
t-74 19z" />
    <glyph glyph-name="C" unicode="C" horiz-adv-x="684" 
d="M556 209l93 -110q-107 -118 -283 -118q-149 0 -237 84.5t-88 223.5q0 184 121 311t300 127q82 0 149.5 -29t102.5 -76l-123 -110q-43 66 -134 66q-103 0 -170.5 -80.5t-67.5 -188.5q0 -76 46 -126.5t128 -50.5q95 0 163 77z" />
    <glyph glyph-name="D" unicode="D" horiz-adv-x="769" 
d="M18 0l125 708h262q62 0 119.5 -17t106.5 -51t78.5 -93.5t29.5 -136.5q0 -184 -121.5 -297t-310.5 -113h-289zM281 567l-74 -423h107q118 0 185 72.5t67 173.5q0 78 -49 127.5t-145 49.5h-91z" />
    <glyph glyph-name="E" unicode="E" horiz-adv-x="587" 
d="M500 0h-482l125 708h453l-25 -142h-294l-24 -137h280l-24 -134h-280l-26 -152h322z" />
    <glyph glyph-name="F" unicode="F" horiz-adv-x="561" 
d="M563 566h-281l-27 -151h265l-24 -137h-265l-49 -278h-164l125 708h445z" />
    <glyph glyph-name="G" unicode="G" horiz-adv-x="749" 
d="M401 126q63 2 103 21l23 133h-138l25 137h291l-65 -374q-119 -62 -261 -62q-153 0 -245.5 83.5t-92.5 224.5q0 184 120 311t299 127q85 0 153.5 -27t106.5 -78l-121 -109q-47 68 -142 68q-102 0 -172.5 -80.5t-70.5 -192.5q0 -81 49.5 -131.5t137.5 -50.5z" />
    <glyph glyph-name="H" unicode="H" horiz-adv-x="757" 
d="M626 0h-166l52 298h-275l-53 -298h-166l125 708h166l-48 -269h276l47 269h167z" />
    <glyph glyph-name="I" unicode="I" horiz-adv-x="315" 
d="M185 0h-167l125 708h167z" />
    <glyph glyph-name="J" unicode="J" horiz-adv-x="525" 
d="M442 239q-7 -40 -16 -71.5t-28 -68.5t-45 -61t-69 -40.5t-97 -16.5q-89 0 -147 44t-74 121l154 50q4 -28 21.5 -46.5t44.5 -18.5q41 0 61 28t29 81l82 468h168z" />
    <glyph glyph-name="K" unicode="K" horiz-adv-x="679" 
d="M654 0h-207l-205 333h-3l-58 -333h-163l125 708h163l-53 -297h3l281 297h212l-347 -337z" />
    <glyph glyph-name="L" unicode="L" horiz-adv-x="525" 
d="M462 0h-444l125 708h167l-100 -563h278z" />
    <glyph glyph-name="M" unicode="M" horiz-adv-x="953" 
d="M823 0h-163l93 507h-4l-275 -507h-117l-94 507h-4l-85 -507h-156l125 708h233l82 -459h4l239 459h247z" />
    <glyph glyph-name="N" unicode="N" horiz-adv-x="789" 
d="M645 0h-185l-195 470h-3l-80 -470h-164l125 708h187l194 -467h2l80 467h164z" />
    <glyph glyph-name="O" unicode="O" horiz-adv-x="831" 
d="M460 726q159 0 250.5 -85t91.5 -228q0 -182 -117.5 -306.5t-298.5 -124.5q-160 0 -252.5 85t-92.5 228q0 181 119 306t300 125zM395 132q106 0 170 80t64 188q0 77 -48 127.5t-132 50.5q-104 0 -169.5 -80.5t-65.5 -187.5q0 -77 48 -127.5t133 -50.5z" />
    <glyph glyph-name="P" unicode="P" horiz-adv-x="637" 
d="M376 708q124 0 191 -52t67 -145q0 -123 -82.5 -182.5t-229.5 -59.5h-91l-48 -269h-165l125 708h233zM325 401q142 0 142 93q0 44 -29.5 61.5t-84.5 17.5h-68l-31 -172h71z" />
    <glyph glyph-name="Q" unicode="Q" horiz-adv-x="837" 
d="M791 427q0 -111 -43.5 -184.5t-98.5 -109.5l-1 -3l150 3l-24 -133h-397q-152 0 -244 81t-92 219q0 179 118.5 302.5t295.5 123.5q152 0 244 -81t92 -218zM619 406q0 75 -45.5 124t-126.5 49q-103 0 -168.5 -78t-65.5 -182q0 -75 46 -125t128 -50q101 0 166.5 78.5
t65.5 183.5z" />
    <glyph glyph-name="R" unicode="R" horiz-adv-x="656" 
d="M459 305l144 -305h-188l-119 285h-68l-48 -285h-162l125 708h242q116 0 182 -50t66 -138q0 -84 -46.5 -139.5t-127.5 -75.5zM324 404q141 0 141 92q0 76 -114 76h-71l-30 -168h74z" />
    <glyph glyph-name="S" unicode="S" horiz-adv-x="585" 
d="M585 636l-113 -100q-40 55 -117 55q-40 0 -73.5 -21.5t-33.5 -63.5q0 -28 21.5 -46t67.5 -34q97 -34 145.5 -82.5t48.5 -125.5q0 -61 -26 -108.5t-69.5 -74.5t-93.5 -40.5t-103 -13.5q-79 0 -151.5 28.5t-113.5 81.5l123 100q21 -32 62 -52t83 -20q48 0 81 21.5t33 64.5
q0 34 -27.5 56t-82.5 41q-80 27 -124 69.5t-44 120.5q0 106 82 170.5t204 64.5q64 0 125.5 -24.5t95.5 -66.5z" />
    <glyph glyph-name="T" unicode="T" horiz-adv-x="553" 
d="M598 565h-194l-100 -565h-166l99 565h-198l26 143h558z" />
    <glyph glyph-name="U" unicode="U" horiz-adv-x="737" 
d="M658 260q-23 -131 -104.5 -204.5t-222.5 -73.5q-128 0 -203.5 59.5t-75.5 161.5q0 28 5 61l78 444h165l-76 -429q-3 -19 -3 -41q0 -48 29 -79.5t90 -31.5q75 0 109 42t46 108l77 431h164z" />
    <glyph glyph-name="V" unicode="V" horiz-adv-x="674" 
d="M767 708l-422 -708h-175l-108 708h177l55 -506h4l276 506h193z" />
    <glyph glyph-name="W" unicode="W" horiz-adv-x="1014" 
d="M1090 708l-340 -708h-166l-48 484h-3l-235 -484h-165l-62 708h176l21 -476h3l220 476h172l38 -476h3l211 476h175z" />
    <glyph glyph-name="X" unicode="X" horiz-adv-x="687" 
d="M630 0h-191l-105 253l-206 -253h-206l332 374l-156 334h187l89 -224l180 224h201l-300 -338z" />
    <glyph glyph-name="Y" unicode="Y" horiz-adv-x="613" 
d="M727 708l-344 -407l-54 -301h-166l53 301l-181 407h186l101 -268l203 268h202z" />
    <glyph glyph-name="Z" unicode="Z" horiz-adv-x="620" 
d="M532 0h-563l25 144l412 422h-307l25 142h524l-24 -134l-417 -429h351z" />
    <glyph glyph-name="bracketleft" unicode="[" horiz-adv-x="342" 
d="M177 -156h-214l156 888h215l-18 -99h-89l-121 -690h89z" />
    <glyph glyph-name="backslash" unicode="\" horiz-adv-x="415" 
d="M422 -15l-113 -37l-308 775l113 39z" />
    <glyph glyph-name="bracketright" unicode="]" horiz-adv-x="342" 
d="M203 -156h-213l17 99h89l122 690h-89l17 99h214z" />
    <glyph glyph-name="asciicircum" unicode="^" horiz-adv-x="690" 
d="M616 343h-148l-124 213l-123 -213h-148l213 365h118z" />
    <glyph glyph-name="underscore" unicode="_" horiz-adv-x="500" 
d="M500 -164h-500v89h500v-89z" />
    <glyph glyph-name="grave" unicode="`" 
d="M173 716l109 -144h-120l-152 144h163z" />
    <glyph glyph-name="a" unicode="a" horiz-adv-x="559" 
d="M503 352q0 -31 -6 -61l-34 -194q-10 -57 -10 -97h-142q0 19 4 53h-2q-55 -65 -152 -65q-62 0 -108 32t-46 100q0 194 342 194q2 12 2 23q0 56 -78 56q-69 0 -131 -47l-66 92q44 35 102.5 55t116.5 20q94 0 151 -40.5t57 -120.5zM340 218h-14q-173 0 -173 -72
q0 -51 66 -51q45 0 76.5 28t39.5 71z" />
    <glyph glyph-name="b" unicode="b" horiz-adv-x="659" 
d="M245 434h2q26 36 68.5 56.5t90.5 20.5q95 0 150.5 -59.5t55.5 -154.5q0 -130 -78.5 -219.5t-196.5 -89.5q-53 0 -98 22t-67 61h-2l-12 -71h-148l133 756h161zM453 276q0 47 -27 76.5t-76 29.5q-59 0 -100 -47.5t-41 -112.5q0 -46 28.5 -75.5t76.5 -29.5q62 0 100.5 45.5
t38.5 113.5z" />
    <glyph glyph-name="c" unicode="c" horiz-adv-x="500" 
d="M510 436l-101 -96q-11 18 -35 30.5t-52 12.5q-63 0 -105 -46.5t-42 -110.5q0 -46 27.5 -76.5t80.5 -30.5q61 0 104 45l76 -102q-86 -76 -201 -76q-109 0 -175.5 60t-66.5 159q0 126 86 217t220 91q59 0 108 -19.5t76 -57.5z" />
    <glyph glyph-name="d" unicode="d" horiz-adv-x="656" 
d="M452 434l55 322h160l-134 -756h-147l12 68h-3q-56 -80 -169 -80q-95 0 -150.5 59.5t-55.5 154.5q0 129 78.5 219t196.5 90q111 0 155 -77h2zM179 223q0 -46 27 -75.5t76 -29.5q60 0 100.5 47t40.5 112q0 46 -28.5 75.5t-75.5 29.5q-62 0 -101 -45.5t-39 -113.5z" />
    <glyph glyph-name="e" unicode="e" horiz-adv-x="587" 
d="M527 206h-357q-1 -4 -1 -9q0 -40 33 -64.5t77 -24.5q70 0 119 52l101 -79q-90 -96 -234 -96q-107 0 -176 59.5t-69 164.5q0 129 85 216.5t215 87.5q100 0 160 -55.5t60 -154.5q0 -45 -13 -97zM397 304q1 7 1 20q0 34 -24.5 55.5t-66.5 21.5q-49 0 -83 -30.5t-43 -66.5
h216z" />
    <glyph glyph-name="f" unicode="f" horiz-adv-x="361" 
d="M443 765l-29 -128q-19 8 -42 8q-67 0 -85 -94l-9 -53h112l-21 -120h-110l-67 -378h-157l67 378h-91l21 120h88l10 51q9 48 24 85t41.5 70.5t70 52t102.5 18.5q46 0 75 -10z" />
    <glyph glyph-name="g" unicode="g" horiz-adv-x="656" 
d="M456 432h3l11 66h151l-79 -452q-25 -143 -100.5 -214.5t-218.5 -71.5q-69 0 -138 22t-110 62l90 113q61 -67 157 -67q74 0 111 36.5t50 102.5l7 33h-3q-22 -29 -63 -48t-90 -19q-97 0 -153.5 57.5t-56.5 150.5q0 129 78 218.5t198 89.5q112 0 156 -79zM182 223
q0 -45 26.5 -75t76.5 -30q61 0 102 47.5t41 112.5q0 47 -28.5 76t-76.5 29q-63 0 -102 -47t-39 -113z" />
    <glyph glyph-name="h" unicode="h" horiz-adv-x="615" 
d="M497 0h-160l47 270q5 23 5 42q0 67 -66 67q-42 0 -69.5 -31.5t-35.5 -79.5l-48 -268h-160l133 756h161l-57 -323h2q23 33 62 55.5t86 22.5q79 0 119 -43t40 -108q0 -33 -5 -54z" />
    <glyph glyph-name="i" unicode="i" horiz-adv-x="294" 
d="M170 0h-159l87 498h161zM293 665q0 -40 -26.5 -68t-66.5 -28q-38 0 -62.5 23t-24.5 57q0 40 27.5 68t67.5 28q37 0 61 -23t24 -57z" />
    <glyph glyph-name="j" unicode="j" horiz-adv-x="297" 
d="M171 -19q-9 -51 -23 -87.5t-39 -69.5t-67.5 -50.5t-100.5 -17.5q-37 0 -69 9l29 133q15 -5 34 -5q34 0 51 22.5t24 65.5l91 517h161zM296 665q0 -40 -26.5 -68t-66.5 -28q-38 0 -62.5 23t-24.5 57q0 40 27.5 68t67.5 28q37 0 61 -23t24 -57z" />
    <glyph glyph-name="k" unicode="k" horiz-adv-x="572" 
d="M533 0h-191l-127 239h-3l-42 -239h-160l133 756h161l-82 -460h3l189 202h202l-240 -233z" />
    <glyph glyph-name="l" unicode="l" horiz-adv-x="295" 
d="M172 0h-162l133 756h163z" />
    <glyph glyph-name="m" unicode="m" horiz-adv-x="925" 
d="M79 395q10 50 15 103h153q-1 -9 -4 -37t-4 -35h2q57 85 151 85q57 0 93.5 -23.5t50.5 -64.5q64 88 165 88q81 0 123 -45.5t42 -111.5q0 -27 -4 -47l-55 -307h-160l47 270q5 23 5 42q0 68 -65 68q-40 0 -66.5 -32.5t-34.5 -79.5l-47 -268h-161l50 285q3 15 3 28
q0 31 -15 49t-45 18q-39 0 -65.5 -31.5t-34.5 -78.5l-48 -270h-160z" />
    <glyph glyph-name="n" unicode="n" horiz-adv-x="615" 
d="M239 426h2q56 85 156 85q79 0 119 -43t40 -108q0 -33 -5 -54l-54 -306h-160l47 270q5 23 5 42q0 67 -66 67q-42 0 -69.5 -31t-35.5 -78l-48 -270h-160l69 395q10 50 15 103h153l-4 -36z" />
    <glyph glyph-name="o" unicode="o" horiz-adv-x="626" 
d="M273 -14q-110 0 -181.5 60t-71.5 159q0 128 83.5 218t220.5 90q112 0 184 -59.5t72 -159.5q0 -130 -84 -219t-223 -89zM422 277q0 46 -28.5 75.5t-76.5 29.5q-62 0 -101 -47t-39 -113q0 -46 28 -75t76 -29q63 0 102 46.5t39 112.5z" />
    <glyph glyph-name="p" unicode="p" horiz-adv-x="657" 
d="M178 62l-52 -302h-160l130 738h152l-12 -69h3q59 81 163 81q96 0 152.5 -60t56.5 -154q0 -130 -78.5 -220t-197.5 -90q-111 0 -155 76h-2zM451 275q0 46 -27 76t-75 30q-60 0 -101 -47.5t-41 -112.5q0 -46 28.5 -75.5t76.5 -29.5q62 0 100.5 45.5t38.5 113.5z" />
    <glyph glyph-name="q" unicode="q" horiz-adv-x="655" 
d="M387 62h-2q-55 -74 -158 -74q-95 0 -151.5 59.5t-56.5 154.5q0 129 78.5 219t197.5 90q51 0 94.5 -22.5t65.5 -62.5h2l13 72h151l-129 -738h-160zM178 223q0 -46 27.5 -75.5t75.5 -29.5q60 0 101 47t41 112q0 46 -29 75.5t-76 29.5q-62 0 -101 -45.5t-39 -113.5z" />
    <glyph glyph-name="r" unicode="r" horiz-adv-x="379" 
d="M237 425h2q55 86 138 86q18 0 34 -4l-26 -142q-17 5 -40 5q-62 0 -93.5 -36t-38.5 -78l-45 -256h-160l71 395q10 50 15 103h152q-2 -31 -9 -73z" />
    <glyph glyph-name="s" unicode="s" horiz-adv-x="464" 
d="M-32 68l100 91q39 -57 115 -57q32 0 51.5 12t19.5 33q0 19 -16.5 30.5t-54.5 22.5q-74 22 -108 53t-34 87q0 79 65.5 126t159.5 47q59 0 109.5 -20t79.5 -57l-101 -85q-34 46 -97 46q-29 0 -49 -11t-20 -33q0 -16 15 -25.5t50 -19.5q75 -20 113 -54.5t38 -95.5
q0 -85 -66.5 -130.5t-158.5 -45.5q-138 0 -211 86z" />
    <glyph glyph-name="t" unicode="t" horiz-adv-x="364" 
d="M92 377h-82l22 121h79l23 132h156l-23 -132h106l-22 -121h-103l-36 -195q-2 -18 -2 -27q0 -43 52 -43q20 0 44 6l-15 -115q-36 -15 -88 -15q-155 0 -155 121q0 30 6 57z" />
    <glyph glyph-name="u" unicode="u" horiz-adv-x="614" 
d="M345 72h-3q-24 -38 -65 -61.5t-91 -23.5q-78 0 -118 43t-40 109q0 31 5 54l53 305h161l-48 -270q-4 -28 -4 -42q0 -67 66 -67q41 0 68.5 31.5t36.5 78.5l48 269h160l-70 -395q-10 -50 -15 -103h-152q1 9 4 37t4 35z" />
    <glyph glyph-name="v" unicode="v" horiz-adv-x="554" 
d="M587 498l-294 -498h-174l-92 498h169l41 -327h3l173 327h174z" />
    <glyph glyph-name="w" unicode="w" horiz-adv-x="856" 
d="M892 498l-272 -498h-161l-37 313h-2l-162 -313h-161l-68 498h167l24 -318h3l154 318h161l30 -318h3l153 318h168z" />
    <glyph glyph-name="x" unicode="x" horiz-adv-x="562" 
d="M507 0h-177l-78 153l-136 -153h-193l252 261l-133 237h175l69 -136l119 136h187l-229 -240z" />
    <glyph glyph-name="y" unicode="y" horiz-adv-x="556" 
d="M594 498l-326 -573q-48 -87 -95.5 -126t-130.5 -39q-47 0 -82 11l24 132q22 -9 47 -9q32 0 52 16t40 51l24 41l-115 496h175l50 -326h2l165 326h170z" />
    <glyph glyph-name="z" unicode="z" horiz-adv-x="509" 
d="M418 0h-441l22 125l283 251h-225l21 122h422l-21 -120l-288 -254h249z" />
    <glyph glyph-name="braceleft" unicode="{" horiz-adv-x="342" 
d="M214 -156h-82q-53 0 -83.5 29.5t-30.5 81.5q0 17 3 37l29 167q13 74 -54 74l20 110q67 0 79 70l30 171q12 67 56.5 107.5t106.5 40.5h82l-18 -105h-47q-47 0 -57 -60l-29 -167q-9 -52 -44.5 -79.5t-68.5 -31.5v-2q28 -3 51.5 -24t23.5 -65q0 -17 -2 -26l-29 -163
q-2 -18 -2 -25q0 -35 37 -35h47z" />
    <glyph glyph-name="bar" unicode="|" horiz-adv-x="241" 
d="M186 -250h-130l-1 1000h131v-1000z" />
    <glyph glyph-name="braceright" unicode="}" horiz-adv-x="342" 
d="M122 732h82q53 0 83.5 -29.5t30.5 -81.5q0 -17 -3 -37l-29 -167q-13 -74 54 -74l-20 -110q-67 0 -79 -70l-30 -171q-12 -67 -56.5 -107.5t-106.5 -40.5h-82l18 105h47q47 0 57 60l29 167q9 52 44.5 79.5t68.5 31.5v2q-28 3 -51.5 24t-23.5 65q0 17 2 26l29 163q2 18 2 25
q0 35 -37 35h-47z" />
    <glyph glyph-name="asciitilde" unicode="~" horiz-adv-x="666" 
d="M593 287v-2q-27 -46 -59 -73t-80 -27q-52 0 -112 38q-61 38 -107 38q-50 0 -84 -70l-66 104q51 99 137 99q58 0 120 -37q69 -40 99 -40q25 0 44.5 18.5t42.5 52.5z" />
    <glyph glyph-name="uni00A0" unicode="&#xa0;" horiz-adv-x="250" 
 />
    <glyph glyph-name="exclamdown" unicode="&#xa1;" horiz-adv-x="353" 
d="M88 272h164l-84 -472h-163zM95 416q0 42 28 71t69 29q40 0 65.5 -23.5t25.5 -60.5q0 -42 -29 -71t-70 -29q-39 0 -64 24t-25 60z" />
    <glyph glyph-name="cent" unicode="&#xa2;" horiz-adv-x="644" 
d="M424 509q90 -10 135 -66l-96 -101q-17 31 -62 39l-46 -265q48 6 85 42l70 -99q-76 -67 -178 -73l-12 -65h-74l12 67q-89 14 -140 70t-51 145q0 122 79 211t204 96l11 64h75zM328 379q-48 -8 -80.5 -52t-32.5 -105q0 -38 16.5 -66.5t49.5 -35.5z" />
    <glyph glyph-name="sterling" unicode="&#xa3;" horiz-adv-x="644" 
d="M654 661l-95 -108q-30 37 -87 37q-98 0 -120 -123l-10 -52h159l-20 -113h-156l-29 -164h259l-24 -138h-516l24 138h95l30 164h-96l20 113h93l12 64q9 45 27 84.5t48.5 78.5t82.5 62t119 23q57 0 106 -18t78 -48z" />
    <glyph glyph-name="currency" unicode="&#xa4;" horiz-adv-x="950" 
d="M713 459q42 -65 42 -150q0 -90 -45 -155l93 -93l-84 -84l-97 96q-64 -39 -146 -39q-78 0 -147 41l-99 -98l-84 84l96 96q-42 62 -42 152q0 83 39 147l-93 93l85 84l95 -94q68 41 150 41q83 0 150 -39l92 92l85 -84zM476 441q-55 0 -90.5 -38.5t-35.5 -93.5
q0 -57 35.5 -95.5t90.5 -38.5q56 0 91.5 38.5t35.5 95.5q0 54 -36 93t-91 39z" />
    <glyph glyph-name="yen" unicode="&#xa5;" horiz-adv-x="644" 
d="M699 708l-228 -294h124l-18 -101h-180l-12 -66h180l-17 -101h-179l-25 -146h-153l25 146h-179l17 101h178l12 66h-178l18 101h133l-129 294h170l88 -262l175 262h178z" />
    <glyph glyph-name="brokenbar" unicode="&#xa6;" horiz-adv-x="241" 
d="M186 313h-131v362h131v-362zM186 -175h-131v362h131v-362z" />
    <glyph glyph-name="section" unicode="&#xa7;" horiz-adv-x="616" 
d="M596 630l-120 -85q-33 52 -106 52q-30 0 -54 -13.5t-24 -42.5q0 -25 20 -38.5t84 -39.5q72 -29 110.5 -65t38.5 -102q0 -100 -103 -147q41 -35 41 -92q0 -56 -23.5 -98t-61.5 -64t-78.5 -32.5t-82.5 -10.5q-76 0 -148.5 31t-105.5 87l122 84q18 -33 56.5 -50.5
t77.5 -17.5q79 0 79 53q0 29 -24.5 46.5t-94.5 43.5q-70 27 -107.5 62t-37.5 99q0 53 33 93t79 57q-36 32 -36 87q0 69 42 116t95.5 65t110.5 18q74 0 132 -26t86 -70zM265 245l89 -37q48 15 48 60q0 27 -17 44t-50 32l-82 36q-25 -6 -40 -24t-15 -41q0 -26 16 -41t51 -29z
" />
    <glyph glyph-name="dieresis" unicode="&#xa8;" 
d="M179 664q0 -36 -24 -61t-60 -25q-34 0 -56 20.5t-22 52.5q0 37 24.5 61.5t60.5 24.5q34 0 55.5 -20.5t21.5 -52.5zM398 664q0 -36 -24 -61t-60 -25q-34 0 -56 20.5t-22 52.5q0 37 24.5 61.5t61.5 24.5q33 0 54.5 -20.5t21.5 -52.5z" />
    <glyph glyph-name="copyright" unicode="&#xa9;" horiz-adv-x="800" 
d="M780 353q0 -156 -111 -265.5t-268 -109.5q-158 0 -269.5 109.5t-111.5 265.5q0 157 111.5 267t269.5 110q157 0 268 -110t111 -267zM720 353q0 133 -93.5 227t-225.5 94q-133 0 -227 -94t-94 -227q0 -132 93 -225.5t226 -93.5q132 0 226.5 93.5t94.5 225.5zM585 510
l-77 -70q-31 39 -90 39q-53 0 -83.5 -37.5t-30.5 -88.5q0 -52 32 -90t88 -38q57 0 88 36l72 -76q-60 -63 -165 -63q-101 0 -169 61.5t-68 168.5q0 104 68.5 166.5t168.5 62.5q50 0 94.5 -19t71.5 -52z" />
    <glyph glyph-name="ordfeminine" unicode="&#xaa;" horiz-adv-x="380" 
d="M274 554h-7q-94 0 -94 -38q0 -28 35 -28q24 0 41 15t21 38zM261 459h-1q-30 -35 -83 -35q-40 0 -65 20.5t-25 55.5q0 112 191 112q1 3 1 10q0 29 -41 29q-38 0 -72 -26l-39 55q55 43 123 43q59 0 88.5 -25.5t29.5 -67.5q0 -11 -4 -37l-18 -106q-5 -32 -5 -56h-82
q0 6 2 28z" />
    <glyph glyph-name="guillemotleft" unicode="&#xab;" horiz-adv-x="544" 
d="M17 257l201 230l84 -64l-150 -174l86 -170l-101 -56zM241 252l202 230l85 -64l-150 -174l84 -165l-101 -56z" />
    <glyph glyph-name="logicalnot" unicode="&#xac;" horiz-adv-x="666" 
d="M606 145h-130v183h-425v123h555v-306z" />
    <glyph glyph-name="uni00AD" unicode="&#xad;" horiz-adv-x="326" 
d="M268 197h-253l23 127h252z" />
    <glyph glyph-name="registered" unicode="&#xae;" horiz-adv-x="600" 
d="M319 521h26q12 0 20 6.5t8 16.5q0 8 -8.5 13t-19.5 5h-26v-41zM479 365h-100l-44 94h-16v-94h-88v266h114q50 0 85.5 -20t35.5 -66q0 -55 -48 -74zM112 492q0 94 67 160.5t162 66.5q94 0 160.5 -66.5t66.5 -160.5t-66.5 -159.5t-160.5 -65.5q-95 0 -162 65.5t-67 159.5z
M148 492q0 -79 56.5 -135.5t136.5 -56.5q79 0 135 56.5t56 135.5q0 80 -56 136t-135 56q-80 0 -136.5 -56t-56.5 -136z" />
    <glyph glyph-name="macron" unicode="&#xaf;" 
d="M365 601h-333l14 84h334z" />
    <glyph glyph-name="degree" unicode="&#xb0;" horiz-adv-x="416" 
d="M408 558q0 -70 -49 -119t-119 -49t-119 49t-49 119t48.5 118.5t119.5 48.5t119.5 -48.5t48.5 -118.5zM328 558q0 36 -25.5 62t-62.5 26t-62.5 -26t-25.5 -62q0 -37 25.5 -62.5t62.5 -25.5t62.5 25.5t25.5 62.5z" />
    <glyph glyph-name="plusminus" unicode="&#xb1;" horiz-adv-x="666" 
d="M616 331h-212v-132h-130v132h-213v127h213v132h130v-132h212v-127zM616 31h-555v127h555v-127z" />
    <glyph glyph-name="twosuperior" unicode="&#xb2;" horiz-adv-x="420" 
d="M120 760q19 61 65.5 95t109.5 34q64 0 105.5 -32t41.5 -89q0 -49 -24 -80.5t-78 -71.5l-101 -73h166l-17 -97h-314l16 92l191 147q50 37 50 69q0 41 -46 41q-48 0 -64 -57z" />
    <glyph glyph-name="threesuperior" unicode="&#xb3;" horiz-adv-x="420" 
d="M241 710q76 0 76 54q0 35 -41 35q-43 0 -62 -40l-90 36q47 94 159 94q62 0 102.5 -31.5t40.5 -84.5q0 -38 -23.5 -65t-57.5 -36q62 -22 62 -87q0 -71 -50.5 -109t-120.5 -38q-62 0 -104.5 29t-57.5 83l101 27q11 -46 63 -46q27 0 43 13.5t16 36.5q0 49 -72 49h-30l13 80
h33z" />
    <glyph glyph-name="acute" unicode="&#xb4;" 
d="M416 716l-170 -144h-122l129 144h163z" />
    <glyph glyph-name="mu" unicode="&#xb5;" horiz-adv-x="651" 
d="M584 116l-15 -113q-43 -15 -85 -15q-99 0 -106 84h-3q-18 -33 -52.5 -59t-74.5 -26q-55 0 -72 32h-2l-46 -259h-162l130 738h163l-47 -264q-5 -35 -5 -45q0 -70 67 -70q41 0 68.5 32t36.5 83l47 264h160l-60 -339q-2 -12 -2 -19q0 -28 32 -28q15 0 28 4z" />
    <glyph glyph-name="paragraph" unicode="&#xb6;" horiz-adv-x="617" 
d="M474 -129h-114l131 739h-87l-131 -739h-113l81 463q-87 2 -136 42.5t-49 107.5q0 95 68.5 159.5t211.5 64.5h285z" />
    <glyph glyph-name="periodcentered" unicode="&#xb7;" 
d="M245 301q0 -42 -28.5 -71.5t-70.5 -29.5q-41 0 -66.5 24t-25.5 61q0 43 29 72.5t72 29.5q39 0 64.5 -24.5t25.5 -61.5z" />
    <glyph glyph-name="cedilla" unicode="&#xb8;" 
d="M200 -135q0 -54 -46 -79.5t-106 -25.5q-70 0 -120 25l32 59q34 -18 81 -18q55 0 55 33q0 29 -42 29q-22 0 -41 -6l-25 29l82 89h80l-58 -61q8 2 19 2q33 0 61 -18t28 -58z" />
    <glyph glyph-name="onesuperior" unicode="&#xb9;" horiz-adv-x="420" 
d="M316 446h-114l55 308l-84 -55l-42 81l160 101h102z" />
    <glyph glyph-name="ordmasculine" unicode="&#xba;" horiz-adv-x="380" 
d="M390 599q0 -77 -48.5 -125.5t-124.5 -48.5q-64 0 -103.5 34.5t-39.5 90.5q0 76 48 125t124 49q63 0 103.5 -34t40.5 -91zM294 589q0 23 -14.5 37.5t-39.5 14.5q-31 0 -50.5 -23.5t-19.5 -56.5q0 -24 14 -38.5t39 -14.5q31 0 51 23.5t20 57.5z" />
    <glyph glyph-name="guillemotright" unicode="&#xbb;" horiz-adv-x="544" 
d="M506 250l-201 -230l-85 64l150 174l-85 170l100 55zM281 255l-201 -230l-85 64l150 173l-84 166l101 55z" />
    <glyph glyph-name="onequarter" unicode="&#xbc;" horiz-adv-x="940" 
d="M762 695l-522 -729l-72 45l522 729zM362 708l-77 -435h-114l55 308l-84 -55l-42 81l160 101h102zM852 174l-16 -89h-59l-15 -85h-102l15 85h-201l16 90l218 260h129l-45 -261h60zM715 315h-3l-113 -141h91z" />
    <glyph glyph-name="onehalf" unicode="&#xbd;" horiz-adv-x="940" 
d="M884 322q0 -49 -24 -80.5t-78 -71.5l-101 -73h166l-17 -97h-314l16 92l191 147q50 37 50 69q0 41 -47 41t-63 -57l-101 22q19 61 65.5 95t108.5 34q65 0 106.5 -32t41.5 -89zM762 695l-522 -729l-72 45l522 729zM362 708l-77 -435h-114l55 308l-84 -55l-42 81l160 101
h102z" />
    <glyph glyph-name="threequarters" unicode="&#xbe;" horiz-adv-x="940" 
d="M762 695l-522 -729l-72 45l522 729zM852 174l-16 -89h-59l-15 -85h-102l15 85h-201l16 90l218 260h129l-45 -261h60zM715 315h-3l-113 -141h91zM209 541q76 0 76 54q0 35 -41 35q-43 0 -62 -40l-90 36q47 94 159 94q62 0 102.5 -31.5t40.5 -84.5q0 -38 -23.5 -65
t-57.5 -36q62 -22 62 -87q0 -71 -50.5 -109t-120.5 -38q-62 0 -104.5 29t-57.5 83l101 27q11 -46 63 -46q27 0 43 13.5t16 36.5q0 49 -72 49h-30l13 80h33z" />
    <glyph glyph-name="questiondown" unicode="&#xbf;" horiz-adv-x="543" 
d="M115 164q38 26 53 44.5t20 49.5l4 26h152l-6 -38q-8 -50 -32 -82t-73 -69l-40 -30q-57 -42 -57 -85q0 -61 70 -61q40 0 66 27t34 68l148 -26q-21 -95 -94.5 -150.5t-173.5 -55.5q-95 0 -155.5 43t-60.5 138q0 65 34 108.5t111 92.5zM187 417q0 41 28 70t69 29
q40 0 65.5 -23.5t25.5 -60.5q0 -41 -29 -70t-70 -29q-39 0 -64 24t-25 60z" />
    <glyph glyph-name="Agrave" unicode="&#xc0;" horiz-adv-x="710" 
d="M664 0h-175l-24 141h-273l-85 -141h-190l451 708h162zM448 275l-37 251l-148 -251h185zM415 908l109 -144h-120l-152 144h163z" />
    <glyph glyph-name="Aacute" unicode="&#xc1;" horiz-adv-x="710" 
d="M664 0h-175l-24 141h-273l-85 -141h-190l451 708h162zM448 275l-37 251l-148 -251h185zM678 908l-170 -144h-122l129 144h163z" />
    <glyph glyph-name="Acircumflex" unicode="&#xc2;" horiz-adv-x="710" 
d="M664 0h-175l-24 141h-273l-85 -141h-190l451 708h162zM448 275l-37 251l-148 -251h185zM650 764h-125l-55 82l-83 -82h-127l148 144h146z" />
    <glyph glyph-name="Atilde" unicode="&#xc3;" horiz-adv-x="710" 
d="M664 0h-175l-24 141h-273l-85 -141h-190l451 708h162zM448 275l-37 251l-148 -251h185zM656 900q-17 -58 -51 -94.5t-85 -36.5q-37 0 -72 19q-42 22 -65 22q-31 0 -50 -42h-71q17 57 51 93t85 36q36 0 76 -20q38 -20 62 -20q31 0 49 43h71z" />
    <glyph glyph-name="Adieresis" unicode="&#xc4;" horiz-adv-x="710" 
d="M664 0h-175l-24 141h-273l-85 -141h-190l451 708h162zM448 275l-37 251l-148 -251h185zM439 856q0 -36 -24 -61t-60 -25q-34 0 -56 20.5t-22 52.5q0 37 24.5 61.5t60.5 24.5q34 0 55.5 -20.5t21.5 -52.5zM658 856q0 -36 -24 -61t-60 -25q-34 0 -56 20.5t-22 52.5
q0 37 24.5 61.5t61.5 24.5q33 0 54.5 -20.5t21.5 -52.5z" />
    <glyph glyph-name="Aring" unicode="&#xc5;" horiz-adv-x="710" 
d="M664 0h-175l-24 141h-273l-85 -141h-190l451 708h162zM448 275l-37 251l-148 -251h185zM456 749q-41 0 -67 25t-26 64q0 52 34 87.5t85 35.5q41 0 67 -25t26 -63q0 -52 -34 -88t-85 -36zM526 866q0 21 -13.5 35.5t-35.5 14.5q-28 0 -46.5 -21t-18.5 -51q0 -22 13 -36
t35 -14q29 0 47.5 21t18.5 51z" />
    <glyph glyph-name="AE" unicode="&#xc6;" horiz-adv-x="1025" 
d="M1033 708l-25 -142h-294l-24 -137h281l-25 -134h-279l-27 -152h322l-25 -143h-478l26 156h-224l-114 -156h-189l525 708h550zM509 288l49 278h-11l-200 -278h162z" />
    <glyph glyph-name="Ccedilla" unicode="&#xc7;" horiz-adv-x="684" 
d="M448 -135q0 -54 -46 -79.5t-106 -25.5q-70 0 -120 25l32 59q34 -18 81 -18q55 0 55 33q0 29 -42 29q-22 0 -41 -6l-25 29l68 74q-122 17 -192.5 98.5t-70.5 205.5q0 184 121 311t300 127q82 0 149.5 -29t102.5 -76l-123 -110q-43 66 -134 66q-103 0 -170.5 -80.5
t-67.5 -188.5q0 -76 46 -126.5t128 -50.5q95 0 163 77l93 -110q-101 -113 -269 -118l-40 -42q8 2 19 2q33 0 61 -18t28 -58z" />
    <glyph glyph-name="Egrave" unicode="&#xc8;" horiz-adv-x="587" 
d="M500 0h-482l125 708h453l-25 -142h-294l-24 -137h280l-24 -134h-280l-26 -152h322zM368 908l109 -144h-120l-152 144h163z" />
    <glyph glyph-name="Eacute" unicode="&#xc9;" horiz-adv-x="587" 
d="M500 0h-482l125 708h453l-25 -142h-294l-24 -137h280l-24 -134h-280l-26 -152h322zM576 908l-170 -144h-122l129 144h163z" />
    <glyph glyph-name="Ecircumflex" unicode="&#xca;" horiz-adv-x="587" 
d="M500 0h-482l125 708h453l-25 -142h-294l-24 -137h280l-24 -134h-280l-26 -152h322zM572 764h-125l-55 82l-83 -82h-127l148 144h146z" />
    <glyph glyph-name="Edieresis" unicode="&#xcb;" horiz-adv-x="587" 
d="M500 0h-482l125 708h453l-25 -142h-294l-24 -137h280l-24 -134h-280l-26 -152h322zM362 856q0 -36 -24 -61t-60 -25q-34 0 -56 20.5t-22 52.5q0 37 24.5 61.5t60.5 24.5q34 0 55.5 -20.5t21.5 -52.5zM581 856q0 -36 -24 -61t-60 -25q-34 0 -56 20.5t-22 52.5
q0 37 24.5 61.5t61.5 24.5q33 0 54.5 -20.5t21.5 -52.5z" />
    <glyph glyph-name="Igrave" unicode="&#xcc;" horiz-adv-x="315" 
d="M185 0h-167l125 708h167zM195 908l109 -144h-120l-152 144h163z" />
    <glyph glyph-name="Iacute" unicode="&#xcd;" horiz-adv-x="315" 
d="M185 0h-167l125 708h167zM442 908l-170 -144h-122l129 144h163z" />
    <glyph glyph-name="Icircumflex" unicode="&#xce;" horiz-adv-x="315" 
d="M185 0h-167l125 708h167zM424 764h-125l-55 82l-83 -82h-127l148 144h146z" />
    <glyph glyph-name="Idieresis" unicode="&#xcf;" horiz-adv-x="315" 
d="M185 0h-167l125 708h167zM211 856q0 -36 -24 -61t-60 -25q-34 0 -56 20.5t-22 52.5q0 37 24.5 61.5t60.5 24.5q34 0 55.5 -20.5t21.5 -52.5zM430 856q0 -36 -24 -61t-60 -25q-34 0 -56 20.5t-22 52.5q0 37 24.5 61.5t61.5 24.5q33 0 54.5 -20.5t21.5 -52.5z" />
    <glyph glyph-name="Eth" unicode="&#xd0;" horiz-adv-x="769" 
d="M72 309h-57l19 107h57l52 292h262q62 0 119.5 -17t106.5 -51t78.5 -93.5t29.5 -136.5q0 -184 -121.5 -297t-310.5 -113h-289zM255 416h171l-19 -107h-171l-29 -165h107q118 0 185 72.5t67 173.5q0 78 -49 127.5t-145 49.5h-91z" />
    <glyph glyph-name="Ntilde" unicode="&#xd1;" horiz-adv-x="789" 
d="M645 0h-185l-195 470h-3l-80 -470h-164l125 708h187l194 -467h2l80 467h164zM669 900q-17 -58 -51 -94.5t-85 -36.5q-37 0 -72 19q-42 22 -65 22q-31 0 -50 -42h-71q17 57 51 93t85 36q36 0 76 -20q38 -20 62 -20q31 0 49 43h71z" />
    <glyph glyph-name="Ograve" unicode="&#xd2;" horiz-adv-x="831" 
d="M460 726q159 0 250.5 -85t91.5 -228q0 -182 -117.5 -306.5t-298.5 -124.5q-160 0 -252.5 85t-92.5 228q0 181 119 306t300 125zM395 132q106 0 170 80t64 188q0 77 -48 127.5t-132 50.5q-104 0 -169.5 -80.5t-65.5 -187.5q0 -77 48 -127.5t133 -50.5zM482 908l109 -144
h-120l-152 144h163z" />
    <glyph glyph-name="Oacute" unicode="&#xd3;" horiz-adv-x="831" 
d="M460 726q159 0 250.5 -85t91.5 -228q0 -182 -117.5 -306.5t-298.5 -124.5q-160 0 -252.5 85t-92.5 228q0 181 119 306t300 125zM395 132q106 0 170 80t64 188q0 77 -48 127.5t-132 50.5q-104 0 -169.5 -80.5t-65.5 -187.5q0 -77 48 -127.5t133 -50.5zM681 908l-170 -144
h-122l129 144h163z" />
    <glyph glyph-name="Ocircumflex" unicode="&#xd4;" horiz-adv-x="831" 
d="M460 726q159 0 250.5 -85t91.5 -228q0 -182 -117.5 -306.5t-298.5 -124.5q-160 0 -252.5 85t-92.5 228q0 181 119 306t300 125zM395 132q106 0 170 80t64 188q0 77 -48 127.5t-132 50.5q-104 0 -169.5 -80.5t-65.5 -187.5q0 -77 48 -127.5t133 -50.5zM689 764h-125
l-55 82l-83 -82h-127l148 144h146z" />
    <glyph glyph-name="Otilde" unicode="&#xd5;" horiz-adv-x="831" 
d="M460 726q159 0 250.5 -85t91.5 -228q0 -182 -117.5 -306.5t-298.5 -124.5q-160 0 -252.5 85t-92.5 228q0 181 119 306t300 125zM395 132q106 0 170 80t64 188q0 77 -48 127.5t-132 50.5q-104 0 -169.5 -80.5t-65.5 -187.5q0 -77 48 -127.5t133 -50.5zM695 900
q-17 -58 -51 -94.5t-85 -36.5q-37 0 -72 19q-42 22 -65 22q-31 0 -50 -42h-71q17 57 51 93t85 36q36 0 76 -20q38 -20 62 -20q31 0 49 43h71z" />
    <glyph glyph-name="Odieresis" unicode="&#xd6;" horiz-adv-x="831" 
d="M460 726q159 0 250.5 -85t91.5 -228q0 -182 -117.5 -306.5t-298.5 -124.5q-160 0 -252.5 85t-92.5 228q0 181 119 306t300 125zM395 132q106 0 170 80t64 188q0 77 -48 127.5t-132 50.5q-104 0 -169.5 -80.5t-65.5 -187.5q0 -77 48 -127.5t133 -50.5zM473 856
q0 -36 -24 -61t-60 -25q-34 0 -56 20.5t-22 52.5q0 37 24.5 61.5t60.5 24.5q34 0 55.5 -20.5t21.5 -52.5zM692 856q0 -36 -24 -61t-60 -25q-34 0 -56 20.5t-22 52.5q0 37 24.5 61.5t61.5 24.5q33 0 54.5 -20.5t21.5 -52.5z" />
    <glyph glyph-name="multiply" unicode="&#xd7;" horiz-adv-x="666" 
d="M604 130l-94 -93l-177 173l-176 -173l-93 89l177 175l-178 174l94 91l177 -173l174 172l91 -87l-174 -173z" />
    <glyph glyph-name="Oslash" unicode="&#xd8;" horiz-adv-x="831" 
d="M841 694l-99 -89q60 -78 60 -192q0 -182 -117.5 -306.5t-298.5 -124.5q-149 0 -241 76l-100 -91l-57 58l101 93q-48 74 -48 177q0 181 119 306t300 125q135 0 226 -65l97 91zM564 549q-45 34 -112 34q-111 0 -178 -83t-67 -193q0 -38 14 -71zM633 401q0 43 -19 83
l-344 -315q44 -42 120 -42q113 0 178 81.5t65 192.5z" />
    <glyph glyph-name="Ugrave" unicode="&#xd9;" horiz-adv-x="737" 
d="M658 260q-23 -131 -104.5 -204.5t-222.5 -73.5q-128 0 -203.5 59.5t-75.5 161.5q0 28 5 61l78 444h165l-76 -429q-3 -19 -3 -41q0 -48 29 -79.5t90 -31.5q75 0 109 42t46 108l77 431h164zM413 908l109 -144h-120l-152 144h163z" />
    <glyph glyph-name="Uacute" unicode="&#xda;" horiz-adv-x="737" 
d="M658 260q-23 -131 -104.5 -204.5t-222.5 -73.5q-128 0 -203.5 59.5t-75.5 161.5q0 28 5 61l78 444h165l-76 -429q-3 -19 -3 -41q0 -48 29 -79.5t90 -31.5q75 0 109 42t46 108l77 431h164zM641 908l-170 -144h-122l129 144h163z" />
    <glyph glyph-name="Ucircumflex" unicode="&#xdb;" horiz-adv-x="737" 
d="M658 260q-23 -131 -104.5 -204.5t-222.5 -73.5q-128 0 -203.5 59.5t-75.5 161.5q0 28 5 61l78 444h165l-76 -429q-3 -19 -3 -41q0 -48 29 -79.5t90 -31.5q75 0 109 42t46 108l77 431h164zM639 764h-125l-55 82l-83 -82h-127l148 144h146z" />
    <glyph glyph-name="Udieresis" unicode="&#xdc;" horiz-adv-x="737" 
d="M658 260q-23 -131 -104.5 -204.5t-222.5 -73.5q-128 0 -203.5 59.5t-75.5 161.5q0 28 5 61l78 444h165l-76 -429q-3 -19 -3 -41q0 -48 29 -79.5t90 -31.5q75 0 109 42t46 108l77 431h164zM429 856q0 -36 -24 -61t-60 -25q-34 0 -56 20.5t-22 52.5q0 37 24.5 61.5
t60.5 24.5q34 0 55.5 -20.5t21.5 -52.5zM648 856q0 -36 -24 -61t-60 -25q-34 0 -56 20.5t-22 52.5q0 37 24.5 61.5t61.5 24.5q33 0 54.5 -20.5t21.5 -52.5z" />
    <glyph glyph-name="Yacute" unicode="&#xdd;" horiz-adv-x="613" 
d="M727 708l-344 -407l-54 -301h-166l53 301l-181 407h186l101 -268l203 268h202zM602 908l-170 -144h-122l129 144h163z" />
    <glyph glyph-name="Thorn" unicode="&#xde;" horiz-adv-x="637" 
d="M355 584q123 0 190 -52.5t67 -145.5q0 -119 -82.5 -180t-228.5 -61h-92l-26 -145h-165l125 708h165l-21 -124h68zM303 277q143 0 143 93q0 79 -115 79h-68l-31 -172h71z" />
    <glyph glyph-name="germandbls" unicode="&#xdf;" horiz-adv-x="661" 
d="M317 -12q-53 0 -94 11l22 125q25 -9 61 -9q64 0 101.5 35t37.5 96q0 46 -34 73t-83 27h-11l21 125h13q43 0 74.5 23.5t31.5 71.5q0 32 -22 53t-58 21q-93 0 -117 -137l-89 -503h-162l90 509q10 55 28 98.5t50 81.5t85 58.5t124 20.5q93 0 160 -47t67 -134
q0 -69 -38.5 -112t-98.5 -58v-2q57 -15 94 -61t37 -111q0 -116 -78 -185.5t-212 -69.5z" />
    <glyph glyph-name="agrave" unicode="&#xe0;" horiz-adv-x="559" 
d="M503 352q0 -31 -6 -61l-34 -194q-10 -57 -10 -97h-142q0 19 4 53h-2q-55 -65 -152 -65q-62 0 -108 32t-46 100q0 194 342 194q2 12 2 23q0 56 -78 56q-69 0 -131 -47l-66 92q44 35 102.5 55t116.5 20q94 0 151 -40.5t57 -120.5zM340 218h-14q-173 0 -173 -72
q0 -51 66 -51q45 0 76.5 28t39.5 71zM284 716l109 -144h-120l-152 144h163z" />
    <glyph glyph-name="aacute" unicode="&#xe1;" horiz-adv-x="559" 
d="M503 352q0 -31 -6 -61l-34 -194q-10 -57 -10 -97h-142q0 19 4 53h-2q-55 -65 -152 -65q-62 0 -108 32t-46 100q0 194 342 194q2 12 2 23q0 56 -78 56q-69 0 -131 -47l-66 92q44 35 102.5 55t116.5 20q94 0 151 -40.5t57 -120.5zM340 218h-14q-173 0 -173 -72
q0 -51 66 -51q45 0 76.5 28t39.5 71zM533 716l-170 -144h-122l129 144h163z" />
    <glyph glyph-name="acircumflex" unicode="&#xe2;" horiz-adv-x="559" 
d="M503 352q0 -31 -6 -61l-34 -194q-10 -57 -10 -97h-142q0 19 4 53h-2q-55 -65 -152 -65q-62 0 -108 32t-46 100q0 194 342 194q2 12 2 23q0 56 -78 56q-69 0 -131 -47l-66 92q44 35 102.5 55t116.5 20q94 0 151 -40.5t57 -120.5zM340 218h-14q-173 0 -173 -72
q0 -51 66 -51q45 0 76.5 28t39.5 71zM517 572h-125l-55 82l-83 -82h-127l148 144h146z" />
    <glyph glyph-name="atilde" unicode="&#xe3;" horiz-adv-x="559" 
d="M503 352q0 -31 -6 -61l-34 -194q-10 -57 -10 -97h-142q0 19 4 53h-2q-55 -65 -152 -65q-62 0 -108 32t-46 100q0 194 342 194q2 12 2 23q0 56 -78 56q-69 0 -131 -47l-66 92q44 35 102.5 55t116.5 20q94 0 151 -40.5t57 -120.5zM340 218h-14q-173 0 -173 -72
q0 -51 66 -51q45 0 76.5 28t39.5 71zM529 708q-17 -58 -51 -94.5t-85 -36.5q-37 0 -72 19q-42 22 -65 22q-31 0 -50 -42h-71q17 57 51 93t85 36q36 0 76 -20q38 -20 62 -20q31 0 49 43h71z" />
    <glyph glyph-name="adieresis" unicode="&#xe4;" horiz-adv-x="559" 
d="M503 352q0 -31 -6 -61l-34 -194q-10 -57 -10 -97h-142q0 19 4 53h-2q-55 -65 -152 -65q-62 0 -108 32t-46 100q0 194 342 194q2 12 2 23q0 56 -78 56q-69 0 -131 -47l-66 92q44 35 102.5 55t116.5 20q94 0 151 -40.5t57 -120.5zM340 218h-14q-173 0 -173 -72
q0 -51 66 -51q45 0 76.5 28t39.5 71zM308 664q0 -36 -24 -61t-60 -25q-34 0 -56 20.5t-22 52.5q0 37 24.5 61.5t60.5 24.5q34 0 55.5 -20.5t21.5 -52.5zM527 664q0 -36 -24 -61t-60 -25q-34 0 -56 20.5t-22 52.5q0 37 24.5 61.5t61.5 24.5q33 0 54.5 -20.5t21.5 -52.5z" />
    <glyph glyph-name="aring" unicode="&#xe5;" horiz-adv-x="559" 
d="M503 352q0 -31 -6 -61l-34 -194q-10 -57 -10 -97h-142q0 19 4 53h-2q-55 -65 -152 -65q-62 0 -108 32t-46 100q0 194 342 194q2 12 2 23q0 56 -78 56q-69 0 -131 -47l-66 92q44 35 102.5 55t116.5 20q94 0 151 -40.5t57 -120.5zM340 218h-14q-173 0 -173 -72
q0 -51 66 -51q45 0 76.5 28t39.5 71zM322 557q-41 0 -67 25t-26 64q0 52 34 87.5t85 35.5q41 0 67 -25t26 -63q0 -52 -34 -88t-85 -36zM392 674q0 21 -13.5 35.5t-35.5 14.5q-28 0 -46.5 -21t-18.5 -51q0 -22 13 -36t35 -14q29 0 47.5 21t18.5 51z" />
    <glyph glyph-name="ae" unicode="&#xe6;" horiz-adv-x="897" 
d="M849 303q0 -49 -12 -97h-357q-1 -4 -1 -9q0 -40 33 -64.5t77 -24.5q69 0 119 52l100 -79q-90 -96 -233 -96q-64 0 -114.5 23t-73.5 68q-61 -88 -200 -88q-34 0 -64.5 6.5t-58.5 21.5t-44 42t-16 64q0 46 20 79.5t51.5 53t79 31t92.5 15t103 3.5q4 16 4 32q0 57 -78 57
q-70 0 -130 -47l-67 92q44 35 102.5 55t116.5 20q125 0 157 -74q63 74 175 74q99 0 159 -55.5t60 -154.5zM708 324q0 34 -24.5 55.5t-66.5 21.5q-49 0 -83 -30.5t-43 -66.5h216q1 7 1 20zM340 208h-25q-164 0 -164 -63q0 -49 67 -49q49 0 80 25.5t39 69.5z" />
    <glyph glyph-name="ccedilla" unicode="&#xe7;" horiz-adv-x="500" 
d="M344 -135q0 -54 -46 -79.5t-106 -25.5q-70 0 -120 25l32 59q34 -18 81 -18q55 0 55 33q0 29 -42 29q-22 0 -41 -6l-25 29l73 80q-85 14 -135 71.5t-50 142.5q0 126 86 217t220 91q59 0 108 -19.5t76 -57.5l-101 -96q-11 18 -35 30.5t-52 12.5q-63 0 -105 -46.5
t-42 -110.5q0 -46 27.5 -76.5t80.5 -30.5q61 0 104 45l76 -102q-78 -70 -182 -75l-45 -48q8 2 19 2q33 0 61 -18t28 -58z" />
    <glyph glyph-name="egrave" unicode="&#xe8;" horiz-adv-x="587" 
d="M527 206h-357q-1 -4 -1 -9q0 -40 33 -64.5t77 -24.5q70 0 119 52l101 -79q-90 -96 -234 -96q-107 0 -176 59.5t-69 164.5q0 129 85 216.5t215 87.5q100 0 160 -55.5t60 -154.5q0 -45 -13 -97zM397 304q1 7 1 20q0 34 -24.5 55.5t-66.5 21.5q-49 0 -83 -30.5t-43 -66.5
h216zM288 716l109 -144h-120l-152 144h163z" />
    <glyph glyph-name="eacute" unicode="&#xe9;" horiz-adv-x="587" 
d="M527 206h-357q-1 -4 -1 -9q0 -40 33 -64.5t77 -24.5q70 0 119 52l101 -79q-90 -96 -234 -96q-107 0 -176 59.5t-69 164.5q0 129 85 216.5t215 87.5q100 0 160 -55.5t60 -154.5q0 -45 -13 -97zM397 304q1 7 1 20q0 34 -24.5 55.5t-66.5 21.5q-49 0 -83 -30.5t-43 -66.5
h216zM536 716l-170 -144h-122l129 144h163z" />
    <glyph glyph-name="ecircumflex" unicode="&#xea;" horiz-adv-x="587" 
d="M527 206h-357q-1 -4 -1 -9q0 -40 33 -64.5t77 -24.5q70 0 119 52l101 -79q-90 -96 -234 -96q-107 0 -176 59.5t-69 164.5q0 129 85 216.5t215 87.5q100 0 160 -55.5t60 -154.5q0 -45 -13 -97zM397 304q1 7 1 20q0 34 -24.5 55.5t-66.5 21.5q-49 0 -83 -30.5t-43 -66.5
h216zM540 572h-125l-55 82l-83 -82h-127l148 144h146z" />
    <glyph glyph-name="edieresis" unicode="&#xeb;" horiz-adv-x="587" 
d="M527 206h-357q-1 -4 -1 -9q0 -40 33 -64.5t77 -24.5q70 0 119 52l101 -79q-90 -96 -234 -96q-107 0 -176 59.5t-69 164.5q0 129 85 216.5t215 87.5q100 0 160 -55.5t60 -154.5q0 -45 -13 -97zM397 304q1 7 1 20q0 34 -24.5 55.5t-66.5 21.5q-49 0 -83 -30.5t-43 -66.5
h216zM329 664q0 -36 -24 -61t-60 -25q-34 0 -56 20.5t-22 52.5q0 37 24.5 61.5t60.5 24.5q34 0 55.5 -20.5t21.5 -52.5zM548 664q0 -36 -24 -61t-60 -25q-34 0 -56 20.5t-22 52.5q0 37 24.5 61.5t61.5 24.5q33 0 54.5 -20.5t21.5 -52.5z" />
    <glyph glyph-name="igrave" unicode="&#xec;" horiz-adv-x="294" 
d="M170 0h-159l87 498h161zM152 716l109 -144h-120l-152 144h163z" />
    <glyph glyph-name="iacute" unicode="&#xed;" horiz-adv-x="294" 
d="M170 0h-159l87 498h161zM399 716l-170 -144h-122l129 144h163z" />
    <glyph glyph-name="icircumflex" unicode="&#xee;" horiz-adv-x="294" 
d="M170 0h-159l87 498h161zM389 572h-125l-55 82l-83 -82h-127l148 144h146z" />
    <glyph glyph-name="idieresis" unicode="&#xef;" horiz-adv-x="294" 
d="M170 0h-159l87 498h161zM172 664q0 -36 -24 -61t-60 -25q-34 0 -56 20.5t-22 52.5q0 37 24.5 61.5t60.5 24.5q34 0 55.5 -20.5t21.5 -52.5zM391 664q0 -36 -24 -61t-60 -25q-34 0 -56 20.5t-22 52.5q0 37 24.5 61.5t61.5 24.5q33 0 54.5 -20.5t21.5 -52.5z" />
    <glyph glyph-name="eth" unicode="&#xf0;" horiz-adv-x="626" 
d="M582 316q0 -139 -80.5 -234.5t-228.5 -95.5q-110 0 -181.5 60t-71.5 159q0 127 80 215.5t218 88.5q53 0 83 -21l2 2q-35 71 -76 110l-116 -48l-67 70l117 47q-19 23 -64 59l139 69q36 -31 71 -71l119 49l74 -71l-130 -52q112 -140 112 -336zM422 277q0 46 -28.5 75.5
t-76.5 29.5q-62 0 -101 -47t-39 -113q0 -46 28 -75t76 -29q63 0 102 46.5t39 112.5z" />
    <glyph glyph-name="ntilde" unicode="&#xf1;" horiz-adv-x="615" 
d="M239 426h2q56 85 156 85q79 0 119 -43t40 -108q0 -33 -5 -54l-54 -306h-160l47 270q5 23 5 42q0 67 -66 67q-42 0 -69.5 -31t-35.5 -78l-48 -270h-160l69 395q10 50 15 103h153l-4 -36zM553 708q-17 -58 -51 -94.5t-85 -36.5q-37 0 -72 19q-42 22 -65 22q-31 0 -50 -42
h-71q17 57 51 93t85 36q36 0 76 -20q38 -20 62 -20q31 0 49 43h71z" />
    <glyph glyph-name="ograve" unicode="&#xf2;" horiz-adv-x="626" 
d="M273 -14q-110 0 -181.5 60t-71.5 159q0 128 83.5 218t220.5 90q112 0 184 -59.5t72 -159.5q0 -130 -84 -219t-223 -89zM422 277q0 46 -28.5 75.5t-76.5 29.5q-62 0 -101 -47t-39 -113q0 -46 28 -75t76 -29q63 0 102 46.5t39 112.5zM326 716l109 -144h-120l-152 144h163z
" />
    <glyph glyph-name="oacute" unicode="&#xf3;" horiz-adv-x="626" 
d="M273 -14q-110 0 -181.5 60t-71.5 159q0 128 83.5 218t220.5 90q112 0 184 -59.5t72 -159.5q0 -130 -84 -219t-223 -89zM422 277q0 46 -28.5 75.5t-76.5 29.5q-62 0 -101 -47t-39 -113q0 -46 28 -75t76 -29q63 0 102 46.5t39 112.5zM543 716l-170 -144h-122l129 144h163z
" />
    <glyph glyph-name="ocircumflex" unicode="&#xf4;" horiz-adv-x="626" 
d="M273 -14q-110 0 -181.5 60t-71.5 159q0 128 83.5 218t220.5 90q112 0 184 -59.5t72 -159.5q0 -130 -84 -219t-223 -89zM422 277q0 46 -28.5 75.5t-76.5 29.5q-62 0 -101 -47t-39 -113q0 -46 28 -75t76 -29q63 0 102 46.5t39 112.5zM554 572h-125l-55 82l-83 -82h-127
l148 144h146z" />
    <glyph glyph-name="otilde" unicode="&#xf5;" horiz-adv-x="626" 
d="M273 -14q-110 0 -181.5 60t-71.5 159q0 128 83.5 218t220.5 90q112 0 184 -59.5t72 -159.5q0 -130 -84 -219t-223 -89zM422 277q0 46 -28.5 75.5t-76.5 29.5q-62 0 -101 -47t-39 -113q0 -46 28 -75t76 -29q63 0 102 46.5t39 112.5zM560 708q-17 -58 -51 -94.5t-85 -36.5
q-37 0 -72 19q-42 22 -65 22q-31 0 -50 -42h-71q17 57 51 93t85 36q36 0 76 -20q38 -20 62 -20q31 0 49 43h71z" />
    <glyph glyph-name="odieresis" unicode="&#xf6;" horiz-adv-x="626" 
d="M273 -14q-110 0 -181.5 60t-71.5 159q0 128 83.5 218t220.5 90q112 0 184 -59.5t72 -159.5q0 -130 -84 -219t-223 -89zM422 277q0 46 -28.5 75.5t-76.5 29.5q-62 0 -101 -47t-39 -113q0 -46 28 -75t76 -29q63 0 102 46.5t39 112.5zM339 664q0 -36 -24 -61t-60 -25
q-34 0 -56 20.5t-22 52.5q0 37 24.5 61.5t60.5 24.5q34 0 55.5 -20.5t21.5 -52.5zM558 664q0 -36 -24 -61t-60 -25q-34 0 -56 20.5t-22 52.5q0 37 24.5 61.5t61.5 24.5q33 0 54.5 -20.5t21.5 -52.5z" />
    <glyph glyph-name="divide" unicode="&#xf7;" horiz-adv-x="666" 
d="M246 489q0 34 26 59t61 25t60.5 -25t25.5 -59q0 -35 -25.5 -60t-60.5 -25t-61 25t-26 60zM246 117q0 34 26 59t61 25t60.5 -25t25.5 -59q0 -35 -25.5 -60t-60.5 -25t-61 25.5t-26 59.5zM586 240h-507v127h507v-127z" />
    <glyph glyph-name="oslash" unicode="&#xf8;" horiz-adv-x="626" 
d="M621 477l-77 -66q36 -50 36 -117q0 -130 -84 -219t-223 -89q-99 0 -165 49l-85 -73l-47 58l80 68q-36 50 -36 119q0 126 84 216t220 90q99 0 167 -49l81 69zM378 366q-24 19 -61 19q-64 0 -103 -46t-39 -109q0 -24 5 -36zM424 271q0 22 -6 37l-199 -171q24 -22 64 -22
q64 0 102.5 45.5t38.5 110.5z" />
    <glyph glyph-name="ugrave" unicode="&#xf9;" horiz-adv-x="614" 
d="M345 72h-3q-24 -38 -65 -61.5t-91 -23.5q-78 0 -118 43t-40 109q0 31 5 54l53 305h161l-48 -270q-4 -28 -4 -42q0 -67 66 -67q41 0 68.5 31.5t36.5 78.5l48 269h160l-70 -395q-10 -50 -15 -103h-152q1 9 4 37t4 35zM292 716l109 -144h-120l-152 144h163z" />
    <glyph glyph-name="uacute" unicode="&#xfa;" horiz-adv-x="614" 
d="M345 72h-3q-24 -38 -65 -61.5t-91 -23.5q-78 0 -118 43t-40 109q0 31 5 54l53 305h161l-48 -270q-4 -28 -4 -42q0 -67 66 -67q41 0 68.5 31.5t36.5 78.5l48 269h160l-70 -395q-10 -50 -15 -103h-152q1 9 4 37t4 35zM545 716l-170 -144h-122l129 144h163z" />
    <glyph glyph-name="ucircumflex" unicode="&#xfb;" horiz-adv-x="614" 
d="M345 72h-3q-24 -38 -65 -61.5t-91 -23.5q-78 0 -118 43t-40 109q0 31 5 54l53 305h161l-48 -270q-4 -28 -4 -42q0 -67 66 -67q41 0 68.5 31.5t36.5 78.5l48 269h160l-70 -395q-10 -50 -15 -103h-152q1 9 4 37t4 35zM538 572h-125l-55 82l-83 -82h-127l148 144h146z" />
    <glyph glyph-name="udieresis" unicode="&#xfc;" horiz-adv-x="614" 
d="M345 72h-3q-24 -38 -65 -61.5t-91 -23.5q-78 0 -118 43t-40 109q0 31 5 54l53 305h161l-48 -270q-4 -28 -4 -42q0 -67 66 -67q41 0 68.5 31.5t36.5 78.5l48 269h160l-70 -395q-10 -50 -15 -103h-152q1 9 4 37t4 35zM326 664q0 -36 -24 -61t-60 -25q-34 0 -56 20.5
t-22 52.5q0 37 24.5 61.5t60.5 24.5q34 0 55.5 -20.5t21.5 -52.5zM545 664q0 -36 -24 -61t-60 -25q-34 0 -56 20.5t-22 52.5q0 37 24.5 61.5t61.5 24.5q33 0 54.5 -20.5t21.5 -52.5z" />
    <glyph glyph-name="yacute" unicode="&#xfd;" horiz-adv-x="556" 
d="M594 498l-326 -573q-48 -87 -95.5 -126t-130.5 -39q-47 0 -82 11l24 132q22 -9 47 -9q32 0 52 16t40 51l24 41l-115 496h175l50 -326h2l165 326h170zM540 716l-170 -144h-122l129 144h163z" />
    <glyph glyph-name="thorn" unicode="&#xfe;" horiz-adv-x="659" 
d="M611 296q0 -130 -78.5 -220t-197.5 -90q-111 0 -155 76h-2l-52 -302h-160l176 996h160l-58 -322h2q26 35 68.5 55.5t89.5 20.5q95 0 151 -60t56 -154zM451 275q0 46 -27 76t-75 30q-60 0 -101 -47.5t-41 -112.5q0 -46 28.5 -75.5t76.5 -29.5q62 0 100.5 45.5t38.5 113.5z
" />
    <glyph glyph-name="ydieresis" unicode="&#xff;" horiz-adv-x="556" 
d="M594 498l-326 -573q-48 -87 -95.5 -126t-130.5 -39q-47 0 -82 11l24 132q22 -9 47 -9q32 0 52 16t40 51l24 41l-115 496h175l50 -326h2l165 326h170zM309 664q0 -36 -24 -61t-60 -25q-34 0 -56 20.5t-22 52.5q0 37 24.5 61.5t60.5 24.5q34 0 55.5 -20.5t21.5 -52.5z
M528 664q0 -36 -24 -61t-60 -25q-34 0 -56 20.5t-22 52.5q0 37 24.5 61.5t61.5 24.5q33 0 54.5 -20.5t21.5 -52.5z" />
    <glyph glyph-name="Amacron" unicode="&#x100;" horiz-adv-x="710" 
d="M664 0h-175l-24 141h-273l-85 -141h-190l451 708h162zM448 275l-37 251l-148 -251h185zM625 793h-333l14 84h334z" />
    <glyph glyph-name="amacron" unicode="&#x101;" horiz-adv-x="559" 
d="M503 352q0 -31 -6 -61l-34 -194q-10 -57 -10 -97h-142q0 19 4 53h-2q-55 -65 -152 -65q-62 0 -108 32t-46 100q0 194 342 194q2 12 2 23q0 56 -78 56q-69 0 -131 -47l-66 92q44 35 102.5 55t116.5 20q94 0 151 -40.5t57 -120.5zM340 218h-14q-173 0 -173 -72
q0 -51 66 -51q45 0 76.5 28t39.5 71zM491 601h-333l14 84h334z" />
    <glyph glyph-name="Abreve" unicode="&#x102;" horiz-adv-x="710" 
d="M664 0h-175l-24 141h-273l-85 -141h-190l451 708h162zM448 275l-37 251l-148 -251h185zM642 908q-16 -74 -66.5 -109t-122.5 -35q-157 0 -157 144h82q0 -57 80 -57q86 0 102 57h82z" />
    <glyph glyph-name="abreve" unicode="&#x103;" horiz-adv-x="559" 
d="M503 352q0 -31 -6 -61l-34 -194q-10 -57 -10 -97h-142q0 19 4 53h-2q-55 -65 -152 -65q-62 0 -108 32t-46 100q0 194 342 194q2 12 2 23q0 56 -78 56q-69 0 -131 -47l-66 92q44 35 102.5 55t116.5 20q94 0 151 -40.5t57 -120.5zM340 218h-14q-173 0 -173 -72
q0 -51 66 -51q45 0 76.5 28t39.5 71zM505 716q-16 -74 -66.5 -109t-122.5 -35q-157 0 -157 144h82q0 -30 25 -45q22 -12 55 -12q86 0 102 57h82z" />
    <glyph glyph-name="Aogonek" unicode="&#x104;" horiz-adv-x="710" 
d="M578 -196q-58 -40 -119 -40q-96 0 -96 83q0 71 126 153l-24 141h-273l-85 -141h-190l451 708h162l134 -708h-87q-110 -79 -110 -127q0 -27 33 -27q28 0 57 19zM448 275l-37 251l-148 -251h185z" />
    <glyph glyph-name="aogonek" unicode="&#x105;" horiz-adv-x="559" 
d="M398 -196q-58 -40 -119 -40q-96 0 -96 83q0 70 128 155q0 17 4 51h-2q-55 -65 -152 -65q-62 0 -108 32t-46 100q0 194 342 194q2 12 2 23q0 56 -78 56q-69 0 -131 -47l-66 92q44 35 102.5 55t116.5 20q94 0 151 -40.5t57 -120.5q0 -31 -6 -61l-34 -194q-10 -57 -10 -97
h-56q-110 -79 -110 -127q0 -27 33 -27q28 0 57 19zM340 218h-14q-173 0 -173 -72q0 -51 66 -51q45 0 76.5 28t39.5 71z" />
    <glyph glyph-name="Cacute" unicode="&#x106;" horiz-adv-x="684" 
d="M556 209l93 -110q-107 -118 -283 -118q-149 0 -237 84.5t-88 223.5q0 184 121 311t300 127q82 0 149.5 -29t102.5 -76l-123 -110q-43 66 -134 66q-103 0 -170.5 -80.5t-67.5 -188.5q0 -76 46 -126.5t128 -50.5q95 0 163 77zM674 908l-170 -144h-122l129 144h163z" />
    <glyph glyph-name="cacute" unicode="&#x107;" horiz-adv-x="500" 
d="M510 436l-101 -96q-11 18 -35 30.5t-52 12.5q-63 0 -105 -46.5t-42 -110.5q0 -46 27.5 -76.5t80.5 -30.5q61 0 104 45l76 -102q-86 -76 -201 -76q-109 0 -175.5 60t-66.5 159q0 126 86 217t220 91q59 0 108 -19.5t76 -57.5zM537 716l-170 -144h-122l129 144h163z" />
    <glyph glyph-name="Ccircumflex" unicode="&#x108;" horiz-adv-x="684" 
d="M556 209l93 -110q-107 -118 -283 -118q-149 0 -237 84.5t-88 223.5q0 184 121 311t300 127q82 0 149.5 -29t102.5 -76l-123 -110q-43 66 -134 66q-103 0 -170.5 -80.5t-67.5 -188.5q0 -76 46 -126.5t128 -50.5q95 0 163 77zM682 764h-125l-55 82l-83 -82h-127l148 144
h146z" />
    <glyph glyph-name="ccircumflex" unicode="&#x109;" horiz-adv-x="500" 
d="M510 436l-101 -96q-11 18 -35 30.5t-52 12.5q-63 0 -105 -46.5t-42 -110.5q0 -46 27.5 -76.5t80.5 -30.5q61 0 104 45l76 -102q-86 -76 -201 -76q-109 0 -175.5 60t-66.5 159q0 126 86 217t220 91q59 0 108 -19.5t76 -57.5zM541 572h-125l-55 82l-83 -82h-127l148 144
h146z" />
    <glyph glyph-name="Cdotaccent" unicode="&#x10a;" horiz-adv-x="684" 
d="M556 209l93 -110q-107 -118 -283 -118q-149 0 -237 84.5t-88 223.5q0 184 121 311t300 127q82 0 149.5 -29t102.5 -76l-123 -110q-43 66 -134 66q-103 0 -170.5 -80.5t-67.5 -188.5q0 -76 46 -126.5t128 -50.5q95 0 163 77zM576 856q0 -37 -25 -63.5t-63 -26.5
q-36 0 -59 21.5t-23 54.5q0 38 26 64t64 26q34 0 57 -22t23 -54z" />
    <glyph glyph-name="cdotaccent" unicode="&#x10b;" horiz-adv-x="500" 
d="M510 436l-101 -96q-11 18 -35 30.5t-52 12.5q-63 0 -105 -46.5t-42 -110.5q0 -46 27.5 -76.5t80.5 -30.5q61 0 104 45l76 -102q-86 -76 -201 -76q-109 0 -175.5 60t-66.5 159q0 126 86 217t220 91q59 0 108 -19.5t76 -57.5zM439 664q0 -37 -25 -63.5t-63 -26.5
q-36 0 -59 21.5t-23 54.5q0 38 26 64t64 26q34 0 57 -22t23 -54z" />
    <glyph glyph-name="Ccaron" unicode="&#x10c;" horiz-adv-x="684" 
d="M556 209l93 -110q-107 -118 -283 -118q-149 0 -237 84.5t-88 223.5q0 184 121 311t300 127q82 0 149.5 -29t102.5 -76l-123 -110q-43 66 -134 66q-103 0 -170.5 -80.5t-67.5 -188.5q0 -76 46 -126.5t128 -50.5q95 0 163 77zM699 908l-147 -144h-145l-98 144h126l54 -83
l83 83h127z" />
    <glyph glyph-name="ccaron" unicode="&#x10d;" horiz-adv-x="500" 
d="M510 436l-101 -96q-11 18 -35 30.5t-52 12.5q-63 0 -105 -46.5t-42 -110.5q0 -46 27.5 -76.5t80.5 -30.5q61 0 104 45l76 -102q-86 -76 -201 -76q-109 0 -175.5 60t-66.5 159q0 126 86 217t220 91q59 0 108 -19.5t76 -57.5zM557 716l-147 -144h-145l-98 144h126l54 -83
l83 83h127z" />
    <glyph glyph-name="Dcaron" unicode="&#x10e;" horiz-adv-x="769" 
d="M18 0l125 708h262q62 0 119.5 -17t106.5 -51t78.5 -93.5t29.5 -136.5q0 -184 -121.5 -297t-310.5 -113h-289zM281 567l-74 -423h107q118 0 185 72.5t67 173.5q0 78 -49 127.5t-145 49.5h-91zM639 908l-147 -144h-145l-98 144h126l54 -83l83 83h127z" />
    <glyph glyph-name="dcaron" unicode="&#x10f;" horiz-adv-x="776" 
d="M452 434l55 322h160l-134 -756h-147l12 68h-3q-56 -80 -169 -80q-95 0 -150.5 59.5t-55.5 154.5q0 129 78.5 219t196.5 90q111 0 155 -77h2zM179 223q0 -46 27 -75.5t76 -29.5q60 0 100.5 47t40.5 112q0 46 -28.5 75.5t-75.5 29.5q-62 0 -101 -45.5t-39 -113.5zM903 708
l-130 -195h-123l111 195h142z" />
    <glyph glyph-name="Dcroat" unicode="&#x110;" horiz-adv-x="769" 
d="M72 309h-57l19 107h57l52 292h262q62 0 119.5 -17t106.5 -51t78.5 -93.5t29.5 -136.5q0 -184 -121.5 -297t-310.5 -113h-289zM255 416h171l-19 -107h-171l-29 -165h107q118 0 185 72.5t67 173.5q0 78 -49 127.5t-145 49.5h-91z" />
    <glyph glyph-name="dcroat" unicode="&#x111;" horiz-adv-x="656" 
d="M686 570h-52l-101 -570h-147l12 68h-3q-56 -80 -169 -80q-95 0 -150.5 59.5t-55.5 154.5q0 129 78.5 219t196.5 90q111 0 155 -77h2l23 136h-148l16 89h147l17 97h160l-17 -97h52zM179 223q0 -46 27 -75.5t76 -29.5q60 0 100.5 47t40.5 112q0 46 -28.5 75.5t-75.5 29.5
q-62 0 -101 -45.5t-39 -113.5z" />
    <glyph glyph-name="Emacron" unicode="&#x112;" horiz-adv-x="587" 
d="M500 0h-482l125 708h453l-25 -142h-294l-24 -137h280l-24 -134h-280l-26 -152h322zM547 793h-333l14 84h334z" />
    <glyph glyph-name="emacron" unicode="&#x113;" horiz-adv-x="587" 
d="M527 206h-357q-1 -4 -1 -9q0 -40 33 -64.5t77 -24.5q70 0 119 52l101 -79q-90 -96 -234 -96q-107 0 -176 59.5t-69 164.5q0 129 85 216.5t215 87.5q100 0 160 -55.5t60 -154.5q0 -45 -13 -97zM397 304q1 7 1 20q0 34 -24.5 55.5t-66.5 21.5q-49 0 -83 -30.5t-43 -66.5
h216zM514 601h-333l14 84h334z" />
    <glyph glyph-name="Ebreve" unicode="&#x114;" horiz-adv-x="587" 
d="M500 0h-482l125 708h453l-25 -142h-294l-24 -137h280l-24 -134h-280l-26 -152h322zM565 908q-16 -74 -66.5 -109t-122.5 -35q-157 0 -157 144h82q0 -57 80 -57q86 0 102 57h82z" />
    <glyph glyph-name="ebreve" unicode="&#x115;" horiz-adv-x="587" 
d="M527 206h-357q-1 -4 -1 -9q0 -40 33 -64.5t77 -24.5q70 0 119 52l101 -79q-90 -96 -234 -96q-107 0 -176 59.5t-69 164.5q0 129 85 216.5t215 87.5q100 0 160 -55.5t60 -154.5q0 -45 -13 -97zM397 304q1 7 1 20q0 34 -24.5 55.5t-66.5 21.5q-49 0 -83 -30.5t-43 -66.5
h216zM527 716q-16 -74 -66.5 -109t-122.5 -35q-157 0 -157 144h82q0 -30 25 -45q23 -12 55 -12q86 0 102 57h82z" />
    <glyph glyph-name="Edotaccent" unicode="&#x116;" horiz-adv-x="587" 
d="M500 0h-482l125 708h453l-25 -142h-294l-24 -137h280l-24 -134h-280l-26 -152h322zM474 856q0 -37 -25 -63.5t-63 -26.5q-36 0 -59 21.5t-23 54.5q0 38 26 64t64 26q34 0 57 -22t23 -54z" />
    <glyph glyph-name="edotaccent" unicode="&#x117;" horiz-adv-x="587" 
d="M527 206h-357q-1 -4 -1 -9q0 -40 33 -64.5t77 -24.5q70 0 119 52l101 -79q-90 -96 -234 -96q-107 0 -176 59.5t-69 164.5q0 129 85 216.5t215 87.5q100 0 160 -55.5t60 -154.5q0 -45 -13 -97zM397 304q1 7 1 20q0 34 -24.5 55.5t-66.5 21.5q-49 0 -83 -30.5t-43 -66.5
h216zM440 664q0 -37 -25 -63.5t-63 -26.5q-36 0 -59 21.5t-23 54.5q0 38 26 64t64 26q34 0 57 -22t23 -54z" />
    <glyph glyph-name="Eogonek" unicode="&#x118;" horiz-adv-x="587" 
d="M472 -196q-58 -40 -119 -40q-96 0 -96 83q0 68 125 153h-364l125 708h453l-25 -142h-294l-24 -137h280l-24 -134h-280l-26 -152h322l-25 -143h-29q-110 -79 -110 -127q0 -27 33 -27q28 0 57 19z" />
    <glyph glyph-name="eogonek" unicode="&#x119;" horiz-adv-x="587" 
d="M349 -196q-58 -40 -119 -40q-96 0 -96 83q0 66 104 139q-97 8 -157.5 66t-60.5 157q0 129 85 216.5t215 87.5q100 0 160 -55.5t60 -154.5q0 -45 -13 -97h-357q-1 -4 -1 -9q0 -40 33 -64.5t77 -24.5q70 0 119 52l101 -79q-66 -70 -162 -89q-99 -72 -99 -119q0 -27 33 -27
q29 0 57 19zM397 304q1 7 1 20q0 34 -24.5 55.5t-66.5 21.5q-49 0 -83 -30.5t-43 -66.5h216z" />
    <glyph glyph-name="Ecaron" unicode="&#x11a;" horiz-adv-x="587" 
d="M500 0h-482l125 708h453l-25 -142h-294l-24 -137h280l-24 -134h-280l-26 -152h322zM592 908l-147 -144h-145l-98 144h126l54 -83l83 83h127z" />
    <glyph glyph-name="ecaron" unicode="&#x11b;" horiz-adv-x="587" 
d="M527 206h-357q-1 -4 -1 -9q0 -40 33 -64.5t77 -24.5q70 0 119 52l101 -79q-90 -96 -234 -96q-107 0 -176 59.5t-69 164.5q0 129 85 216.5t215 87.5q100 0 160 -55.5t60 -154.5q0 -45 -13 -97zM397 304q1 7 1 20q0 34 -24.5 55.5t-66.5 21.5q-49 0 -83 -30.5t-43 -66.5
h216zM562 716l-147 -144h-145l-98 144h126l54 -83l83 83h127z" />
    <glyph glyph-name="Gcircumflex" unicode="&#x11c;" horiz-adv-x="749" 
d="M401 126q63 2 103 21l23 133h-138l25 137h291l-65 -374q-119 -62 -261 -62q-153 0 -245.5 83.5t-92.5 224.5q0 184 120 311t299 127q85 0 153.5 -27t106.5 -78l-121 -109q-47 68 -142 68q-102 0 -172.5 -80.5t-70.5 -192.5q0 -81 49.5 -131.5t137.5 -50.5zM666 764h-125
l-55 82l-83 -82h-127l148 144h146z" />
    <glyph glyph-name="gcircumflex" unicode="&#x11d;" horiz-adv-x="656" 
d="M456 432h3l11 66h151l-79 -452q-25 -143 -100.5 -214.5t-218.5 -71.5q-69 0 -138 22t-110 62l90 113q61 -67 157 -67q74 0 111 36.5t50 102.5l7 33h-3q-22 -29 -63 -48t-90 -19q-97 0 -153.5 57.5t-56.5 150.5q0 129 78 218.5t198 89.5q112 0 156 -79zM182 223
q0 -45 26.5 -75t76.5 -30q61 0 102 47.5t41 112.5q0 47 -28.5 76t-76.5 29q-63 0 -102 -47t-39 -113zM568 572h-125l-55 82l-83 -82h-127l148 144h146z" />
    <glyph glyph-name="Gbreve" unicode="&#x11e;" horiz-adv-x="749" 
d="M401 126q63 2 103 21l23 133h-138l25 137h291l-65 -374q-119 -62 -261 -62q-153 0 -245.5 83.5t-92.5 224.5q0 184 120 311t299 127q85 0 153.5 -27t106.5 -78l-121 -109q-47 68 -142 68q-102 0 -172.5 -80.5t-70.5 -192.5q0 -81 49.5 -131.5t137.5 -50.5zM657 908
q-16 -74 -66.5 -109t-122.5 -35q-157 0 -157 144h82q0 -57 80 -57q86 0 102 57h82z" />
    <glyph glyph-name="gbreve" unicode="&#x11f;" horiz-adv-x="656" 
d="M456 432h3l11 66h151l-79 -452q-25 -143 -100.5 -214.5t-218.5 -71.5q-69 0 -138 22t-110 62l90 113q61 -67 157 -67q74 0 111 36.5t50 102.5l7 33h-3q-22 -29 -63 -48t-90 -19q-97 0 -153.5 57.5t-56.5 150.5q0 129 78 218.5t198 89.5q112 0 156 -79zM182 223
q0 -45 26.5 -75t76.5 -30q61 0 102 47.5t41 112.5q0 47 -28.5 76t-76.5 29q-63 0 -102 -47t-39 -113zM560 716q-16 -74 -66.5 -109t-122.5 -35q-157 0 -157 144h82q0 -30 25 -45q23 -12 55 -12q86 0 102 57h82z" />
    <glyph glyph-name="Gdotaccent" unicode="&#x120;" horiz-adv-x="749" 
d="M401 126q63 2 103 21l23 133h-138l25 137h291l-65 -374q-119 -62 -261 -62q-153 0 -245.5 83.5t-92.5 224.5q0 184 120 311t299 127q85 0 153.5 -27t106.5 -78l-121 -109q-47 68 -142 68q-102 0 -172.5 -80.5t-70.5 -192.5q0 -81 49.5 -131.5t137.5 -50.5zM574 856
q0 -37 -25 -63.5t-63 -26.5q-36 0 -59 21.5t-23 54.5q0 38 26 64t64 26q34 0 57 -22t23 -54z" />
    <glyph glyph-name="gdotaccent" unicode="&#x121;" horiz-adv-x="656" 
d="M456 432h3l11 66h151l-79 -452q-25 -143 -100.5 -214.5t-218.5 -71.5q-69 0 -138 22t-110 62l90 113q61 -67 157 -67q74 0 111 36.5t50 102.5l7 33h-3q-22 -29 -63 -48t-90 -19q-97 0 -153.5 57.5t-56.5 150.5q0 129 78 218.5t198 89.5q112 0 156 -79zM182 223
q0 -45 26.5 -75t76.5 -30q61 0 102 47.5t41 112.5q0 47 -28.5 76t-76.5 29q-63 0 -102 -47t-39 -113zM467 664q0 -37 -25 -63.5t-63 -26.5q-36 0 -59 21.5t-23 54.5q0 38 26 64t64 26q34 0 57 -22t23 -54z" />
    <glyph glyph-name="Gcommaaccent" unicode="&#x122;" horiz-adv-x="749" 
d="M401 126q63 2 103 21l23 133h-138l25 137h291l-65 -374q-119 -62 -261 -62q-153 0 -245.5 83.5t-92.5 224.5q0 184 120 311t299 127q85 0 153.5 -27t106.5 -78l-121 -109q-47 68 -142 68q-102 0 -172.5 -80.5t-70.5 -192.5q0 -81 49.5 -131.5t137.5 -50.5zM437 -45
l-130 -195h-123l111 195h142z" />
    <glyph glyph-name="gcommaaccent" unicode="&#x123;" horiz-adv-x="656" 
d="M456 432h3l11 66h151l-79 -452q-25 -143 -100.5 -214.5t-218.5 -71.5q-69 0 -138 22t-110 62l90 113q61 -67 157 -67q74 0 111 36.5t50 102.5l7 33h-3q-22 -29 -63 -48t-90 -19q-97 0 -153.5 57.5t-56.5 150.5q0 129 78 218.5t198 89.5q112 0 156 -79zM182 223
q0 -45 26.5 -75t76.5 -30q61 0 102 47.5t41 112.5q0 47 -28.5 76t-76.5 29q-63 0 -102 -47t-39 -113zM290 572l130 195h123l-111 -195h-142z" />
    <glyph glyph-name="Hcircumflex" unicode="&#x124;" horiz-adv-x="757" 
d="M626 0h-166l52 298h-275l-53 -298h-166l125 708h166l-48 -269h276l47 269h167zM649 764h-125l-55 82l-83 -82h-127l148 144h146z" />
    <glyph glyph-name="hcircumflex" unicode="&#x125;" horiz-adv-x="615" 
d="M497 0h-160l47 270q5 23 5 42q0 67 -66 67q-42 0 -69.5 -31.5t-35.5 -79.5l-48 -268h-160l133 756h161l-57 -323h2q23 33 62 55.5t86 22.5q79 0 119 -43t40 -108q0 -33 -5 -54zM575 796h-125l-55 82l-83 -82h-127l148 144h146z" />
    <glyph glyph-name="Hbar" unicode="&#x126;" horiz-adv-x="757" 
d="M626 0h-166l52 298h-275l-53 -298h-166l125 708h166l-21 -119h275l21 119h167zM261 439h276l10 61h-275z" />
    <glyph glyph-name="hbar" unicode="&#x127;" horiz-adv-x="615" 
d="M410 570h-139l-24 -137h2q23 33 62 55.5t86 22.5q79 0 119 -43t40 -108q0 -33 -5 -54l-54 -306h-160l47 270q5 23 5 42q0 67 -66 67q-42 0 -69.5 -31.5t-35.5 -79.5l-48 -268h-160l100 570h-59l16 89h59l17 97h161l-17 -97h139z" />
    <glyph glyph-name="Itilde" unicode="&#x128;" horiz-adv-x="315" 
d="M185 0h-167l125 708h167zM441 900q-17 -58 -51 -94.5t-85 -36.5q-37 0 -72 19q-42 22 -65 22q-31 0 -50 -42h-71q17 57 51 93t85 36q36 0 76 -20q38 -20 62 -20q31 0 49 43h71z" />
    <glyph glyph-name="itilde" unicode="&#x129;" horiz-adv-x="294" 
d="M170 0h-159l87 498h161zM396 708q-17 -58 -51 -94.5t-85 -36.5q-37 0 -72 19q-42 22 -65 22q-31 0 -50 -42h-71q17 57 51 93t85 36q36 0 76 -20q38 -20 62 -20q31 0 49 43h71z" />
    <glyph glyph-name="Imacron" unicode="&#x12a;" horiz-adv-x="315" 
d="M185 0h-167l125 708h167zM402 793h-333l14 84h334z" />
    <glyph glyph-name="imacron" unicode="&#x12b;" horiz-adv-x="294" 
d="M170 0h-159l87 498h161zM358 601h-333l14 84h334z" />
    <glyph glyph-name="Ibreve" unicode="&#x12c;" horiz-adv-x="315" 
d="M185 0h-167l125 708h167zM434 908q-16 -74 -66.5 -109t-122.5 -35q-157 0 -157 144h82q0 -57 80 -57q86 0 102 57h82z" />
    <glyph glyph-name="ibreve" unicode="&#x12d;" horiz-adv-x="294" 
d="M170 0h-159l87 498h161zM389 716q-16 -74 -66.5 -109t-122.5 -35q-157 0 -157 144h82q0 -30 25 -45q22 -12 55 -12q86 0 102 57h82z" />
    <glyph glyph-name="Iogonek" unicode="&#x12e;" horiz-adv-x="315" 
d="M178 -196q-58 -40 -119 -40q-96 0 -96 83q0 68 125 153h-70l125 708h167l-125 -708h-8q-110 -79 -110 -127q0 -27 33 -27q28 0 57 19z" />
    <glyph glyph-name="iogonek" unicode="&#x12f;" horiz-adv-x="294" 
d="M161 -196q-58 -40 -119 -40q-96 0 -96 83q0 68 125 153h-60l87 498h161l-89 -498h-10q-110 -79 -110 -127q0 -27 33 -27q29 0 57 19zM293 665q0 -40 -26.5 -68t-66.5 -28q-38 0 -62.5 23t-24.5 57q0 40 27.5 68t67.5 28q37 0 61 -23t24 -57z" />
    <glyph glyph-name="Idotaccent" unicode="&#x130;" horiz-adv-x="315" 
d="M185 0h-167l125 708h167zM330 856q0 -37 -25 -63.5t-63 -26.5q-36 0 -59 21.5t-23 54.5q0 38 26 64t64 26q34 0 57 -22t23 -54z" />
    <glyph glyph-name="dotlessi" unicode="&#x131;" horiz-adv-x="294" 
d="M170 0h-159l87 498h161z" />
    <glyph glyph-name="IJ" unicode="&#x132;" horiz-adv-x="832" 
d="M185 0h-167l125 708h167zM749 239q-7 -40 -16 -71.5t-28 -68.5t-45 -61t-69 -40.5t-97 -16.5q-89 0 -147 44t-74 121l154 50q4 -28 21.5 -46.5t44.5 -18.5q41 0 61 28t29 81l82 468h168z" />
    <glyph glyph-name="ij" unicode="&#x133;" horiz-adv-x="594" 
d="M170 0h-159l87 498h161zM293 665q0 -40 -26.5 -68t-66.5 -28q-38 0 -62.5 23t-24.5 57q0 40 27.5 68t67.5 28q37 0 61 -23t24 -57zM468 -19q-9 -51 -23 -87.5t-39 -69.5t-67.5 -50.5t-100.5 -17.5q-37 0 -69 9l29 133q15 -5 34 -5q34 0 51 22.5t24 65.5l91 517h161z
M593 665q0 -40 -26.5 -68t-66.5 -28q-38 0 -62.5 23t-24.5 57q0 40 27.5 68t67.5 28q37 0 61 -23t24 -57z" />
    <glyph glyph-name="Jcircumflex" unicode="&#x134;" horiz-adv-x="525" 
d="M442 239q-7 -40 -16 -71.5t-28 -68.5t-45 -61t-69 -40.5t-97 -16.5q-89 0 -147 44t-74 121l154 50q4 -28 21.5 -46.5t44.5 -18.5q41 0 61 28t29 81l82 468h168zM640 764h-125l-55 82l-83 -82h-127l148 144h146z" />
    <glyph glyph-name="jcircumflex" unicode="&#x135;" horiz-adv-x="297" 
d="M171 -19q-9 -51 -23 -87.5t-39 -69.5t-67.5 -50.5t-100.5 -17.5q-37 0 -69 9l29 133q15 -5 34 -5q34 0 51 22.5t24 65.5l91 517h161zM393 572h-125l-55 82l-83 -82h-127l148 144h146z" />
    <glyph glyph-name="Kcommaaccent" unicode="&#x136;" horiz-adv-x="679" 
d="M654 0h-207l-205 333h-3l-58 -333h-163l125 708h163l-53 -297h3l281 297h212l-347 -337zM370 -45l-130 -195h-123l111 195h142z" />
    <glyph glyph-name="kcommaaccent" unicode="&#x137;" horiz-adv-x="572" 
d="M533 0h-191l-127 239h-3l-42 -239h-160l133 756h161l-82 -460h3l189 202h202l-240 -233zM316 -45l-130 -195h-123l111 195h142z" />
    <glyph glyph-name="kgreenlandic" unicode="&#x138;" horiz-adv-x="572" 
d="M533 0h-191l-127 239h-3l-42 -239h-160l87 498h161l-36 -202h3l189 202h202l-240 -233z" />
    <glyph glyph-name="Lacute" unicode="&#x139;" horiz-adv-x="525" 
d="M462 0h-444l125 708h167l-100 -563h278zM461 908l-170 -144h-122l129 144h163z" />
    <glyph glyph-name="lacute" unicode="&#x13a;" horiz-adv-x="295" 
d="M172 0h-162l133 756h163zM441 936l-170 -144h-122l129 144h163z" />
    <glyph glyph-name="Lcommaaccent" unicode="&#x13b;" horiz-adv-x="525" 
d="M462 0h-444l125 708h167l-100 -563h278zM303 -45l-130 -195h-123l111 195h142z" />
    <glyph glyph-name="lcommaaccent" unicode="&#x13c;" horiz-adv-x="295" 
d="M172 0h-162l133 756h163zM158 -46l-130 -195h-123l111 195h142z" />
    <glyph glyph-name="Lcaron" unicode="&#x13d;" horiz-adv-x="525" 
d="M462 0h-444l125 708h167l-100 -563h278zM568 708l-130 -195h-123l111 195h142z" />
    <glyph glyph-name="lcaron" unicode="&#x13e;" horiz-adv-x="410" 
d="M172 0h-162l133 756h163zM547 708l-130 -195h-123l111 195h142z" />
    <glyph glyph-name="Ldot" unicode="&#x13f;" horiz-adv-x="525" 
d="M462 0h-444l125 708h167l-100 -563h278zM504 444q0 -37 -25 -63.5t-63 -26.5q-36 0 -59 21.5t-23 54.5q0 38 26 64t64 26q34 0 57 -22t23 -54z" />
    <glyph glyph-name="ldot" unicode="&#x140;" horiz-adv-x="451" 
d="M172 0h-162l133 756h163zM471 474q0 -37 -25 -63.5t-63 -26.5q-36 0 -59 21.5t-23 54.5q0 38 26 64t64 26q34 0 57 -22t23 -54z" />
    <glyph glyph-name="Lslash" unicode="&#x141;" horiz-adv-x="525" 
d="M462 0h-445l32 179l-74 -57l24 141l75 56l68 389h168l-46 -263l221 167l-25 -140l-221 -167l-29 -159h278z" />
    <glyph glyph-name="lslash" unicode="&#x142;" horiz-adv-x="295" 
d="M313 454l-68 -56l-71 -398h-164l47 268l-68 -57l25 142l68 58l61 345h165l-39 -218l69 57z" />
    <glyph glyph-name="Nacute" unicode="&#x143;" horiz-adv-x="789" 
d="M645 0h-185l-195 470h-3l-80 -470h-164l125 708h187l194 -467h2l80 467h164zM658 908l-170 -144h-122l129 144h163z" />
    <glyph glyph-name="nacute" unicode="&#x144;" horiz-adv-x="615" 
d="M239 426h2q56 85 156 85q79 0 119 -43t40 -108q0 -33 -5 -54l-54 -306h-160l47 270q5 23 5 42q0 67 -66 67q-42 0 -69.5 -31t-35.5 -78l-48 -270h-160l69 395q10 50 15 103h153l-4 -36zM539 716l-170 -144h-122l129 144h163z" />
    <glyph glyph-name="Ncommaaccent" unicode="&#x145;" horiz-adv-x="789" 
d="M645 0h-185l-195 470h-3l-80 -470h-164l125 708h187l194 -467h2l80 467h164zM408 -45l-130 -195h-123l111 195h142z" />
    <glyph glyph-name="ncommaaccent" unicode="&#x146;" horiz-adv-x="615" 
d="M239 426h2q56 85 156 85q79 0 119 -43t40 -108q0 -33 -5 -54l-54 -306h-160l47 270q5 23 5 42q0 67 -66 67q-42 0 -69.5 -31t-35.5 -78l-48 -270h-160l69 395q10 50 15 103h153l-4 -36zM317 -45l-130 -195h-123l111 195h142z" />
    <glyph glyph-name="Ncaron" unicode="&#x147;" horiz-adv-x="789" 
d="M645 0h-185l-195 470h-3l-80 -470h-164l125 708h187l194 -467h2l80 467h164zM677 908l-147 -144h-145l-98 144h126l54 -83l83 83h127z" />
    <glyph glyph-name="ncaron" unicode="&#x148;" horiz-adv-x="615" 
d="M239 426h2q56 85 156 85q79 0 119 -43t40 -108q0 -33 -5 -54l-54 -306h-160l47 270q5 23 5 42q0 67 -66 67q-42 0 -69.5 -31t-35.5 -78l-48 -270h-160l69 395q10 50 15 103h153l-4 -36zM560 716l-147 -144h-145l-98 144h126l54 -83l83 83h127z" />
    <glyph glyph-name="Eng" unicode="&#x14a;" horiz-adv-x="789" 
d="M642 -19q-9 -51 -23 -87.5t-39 -69.5t-67.5 -50.5t-100.5 -17.5q-37 0 -69 9l29 133q15 -5 34 -5q34 0 51 22.5t24 65.5l1 9l-217 480h-3l-80 -470h-164l125 708h187l197 -447h2l77 447h164z" />
    <glyph glyph-name="eng" unicode="&#x14b;" horiz-adv-x="615" 
d="M494 -19q-9 -51 -23 -87.5t-39 -69.5t-67.5 -50.5t-100.5 -17.5q-37 0 -69 9l29 133q15 -5 34 -5q34 0 51 22.5t24 65.5l51 289q5 23 5 42q0 67 -66 67q-42 0 -69.5 -31t-35.5 -78l-48 -270h-160l69 395q10 50 15 103h153l-4 -36l-4 -36h2q56 85 156 85q79 0 119 -43
t40 -108q0 -33 -5 -54z" />
    <glyph glyph-name="Omacron" unicode="&#x14c;" horiz-adv-x="831" 
d="M460 726q159 0 250.5 -85t91.5 -228q0 -182 -117.5 -306.5t-298.5 -124.5q-160 0 -252.5 85t-92.5 228q0 181 119 306t300 125zM395 132q106 0 170 80t64 188q0 77 -48 127.5t-132 50.5q-104 0 -169.5 -80.5t-65.5 -187.5q0 -77 48 -127.5t133 -50.5zM661 793h-333l14 84
h334z" />
    <glyph glyph-name="omacron" unicode="&#x14d;" horiz-adv-x="626" 
d="M273 -14q-110 0 -181.5 60t-71.5 159q0 128 83.5 218t220.5 90q112 0 184 -59.5t72 -159.5q0 -130 -84 -219t-223 -89zM422 277q0 46 -28.5 75.5t-76.5 29.5q-62 0 -101 -47t-39 -113q0 -46 28 -75t76 -29q63 0 102 46.5t39 112.5zM525 601h-333l14 84h334z" />
    <glyph glyph-name="Obreve" unicode="&#x14e;" horiz-adv-x="831" 
d="M460 726q159 0 250.5 -85t91.5 -228q0 -182 -117.5 -306.5t-298.5 -124.5q-160 0 -252.5 85t-92.5 228q0 181 119 306t300 125zM395 132q106 0 170 80t64 188q0 77 -48 127.5t-132 50.5q-104 0 -169.5 -80.5t-65.5 -187.5q0 -77 48 -127.5t133 -50.5zM675 908
q-16 -74 -66.5 -109t-122.5 -35q-157 0 -157 144h82q0 -57 80 -57q86 0 102 57h82z" />
    <glyph glyph-name="obreve" unicode="&#x14f;" horiz-adv-x="626" 
d="M273 -14q-110 0 -181.5 60t-71.5 159q0 128 83.5 218t220.5 90q112 0 184 -59.5t72 -159.5q0 -130 -84 -219t-223 -89zM422 277q0 46 -28.5 75.5t-76.5 29.5q-62 0 -101 -47t-39 -113q0 -46 28 -75t76 -29q63 0 102 46.5t39 112.5zM540 716q-16 -74 -66.5 -109
t-122.5 -35q-157 0 -157 144h82q0 -30 25 -45q22 -12 55 -12q86 0 102 57h82z" />
    <glyph glyph-name="Ohungarumlaut" unicode="&#x150;" horiz-adv-x="831" 
d="M460 726q159 0 250.5 -85t91.5 -228q0 -182 -117.5 -306.5t-298.5 -124.5q-160 0 -252.5 85t-92.5 228q0 181 119 306t300 125zM395 132q106 0 170 80t64 188q0 77 -48 127.5t-132 50.5q-104 0 -169.5 -80.5t-65.5 -187.5q0 -77 48 -127.5t133 -50.5zM827 908l-171 -144
h-121l129 144h163zM608 908l-171 -144h-121l128 144h164z" />
    <glyph glyph-name="ohungarumlaut" unicode="&#x151;" horiz-adv-x="626" 
d="M273 -14q-110 0 -181.5 60t-71.5 159q0 128 83.5 218t220.5 90q112 0 184 -59.5t72 -159.5q0 -130 -84 -219t-223 -89zM422 277q0 46 -28.5 75.5t-76.5 29.5q-62 0 -101 -47t-39 -113q0 -46 28 -75t76 -29q63 0 102 46.5t39 112.5zM690 716l-171 -144h-121l129 144h163z
M471 716l-171 -144h-121l128 144h164z" />
    <glyph glyph-name="OE" unicode="&#x152;" horiz-adv-x="1000" 
d="M1009 708l-25 -142h-294l-24 -137h280l-24 -134h-280l-26 -152h322l-25 -143h-538q-62 0 -119.5 17t-106.5 51t-78.5 93.5t-29.5 136.5q0 184 121.5 297t310.5 113h536zM534 565h-68q-118 0 -185 -72t-67 -173q0 -78 49.5 -127.5t145.5 -49.5h51z" />
    <glyph glyph-name="oe" unicode="&#x153;" horiz-adv-x="978" 
d="M931 303q0 -45 -13 -97h-357q-1 -4 -1 -9q0 -40 33 -64.5t77 -24.5q70 0 119 52l101 -79q-90 -96 -234 -96q-62 0 -112.5 21t-76.5 62q-63 -82 -196 -82q-110 0 -180.5 59.5t-70.5 159.5q0 129 85.5 218.5t221.5 89.5q129 0 185 -87q70 87 199 87q100 0 160 -55.5
t60 -154.5zM789 324q0 34 -24.5 55.5t-66.5 21.5q-49 0 -83 -30.5t-43 -66.5h216q1 7 1 20zM422 277q0 46 -28.5 75.5t-76.5 29.5q-60 0 -100 -47t-40 -113q0 -46 28 -75t76 -29q62 0 101.5 46.5t39.5 112.5z" />
    <glyph glyph-name="Racute" unicode="&#x154;" horiz-adv-x="656" 
d="M459 305l144 -305h-188l-119 285h-68l-48 -285h-162l125 708h242q116 0 182 -50t66 -138q0 -84 -46.5 -139.5t-127.5 -75.5zM324 404q141 0 141 92q0 76 -114 76h-71l-30 -168h74zM570 908l-170 -144h-122l129 144h163z" />
    <glyph glyph-name="racute" unicode="&#x155;" horiz-adv-x="379" 
d="M237 425h2q55 86 138 86q18 0 34 -4l-26 -142q-17 5 -40 5q-62 0 -93.5 -36t-38.5 -78l-45 -256h-160l71 395q10 50 15 103h152q-2 -31 -9 -73zM433 716l-170 -144h-122l129 144h163z" />
    <glyph glyph-name="Rcommaaccent" unicode="&#x156;" horiz-adv-x="656" 
d="M459 305l144 -305h-188l-119 285h-68l-48 -285h-162l125 708h242q116 0 182 -50t66 -138q0 -84 -46.5 -139.5t-127.5 -75.5zM324 404q141 0 141 92q0 76 -114 76h-71l-30 -168h74zM356 -45l-130 -195h-123l111 195h142z" />
    <glyph glyph-name="rcommaaccent" unicode="&#x157;" horiz-adv-x="379" 
d="M237 425h2q55 86 138 86q18 0 34 -4l-26 -142q-17 5 -40 5q-62 0 -93.5 -36t-38.5 -78l-45 -256h-160l71 395q10 50 15 103h152q-2 -31 -9 -73zM155 -46l-130 -195h-123l111 195h142z" />
    <glyph glyph-name="Rcaron" unicode="&#x158;" horiz-adv-x="656" 
d="M459 305l144 -305h-188l-119 285h-68l-48 -285h-162l125 708h242q116 0 182 -50t66 -138q0 -84 -46.5 -139.5t-127.5 -75.5zM324 404q141 0 141 92q0 76 -114 76h-71l-30 -168h74zM587 908l-147 -144h-145l-98 144h126l54 -83l83 83h127z" />
    <glyph glyph-name="rcaron" unicode="&#x159;" horiz-adv-x="379" 
d="M237 425h2q55 86 138 86q18 0 34 -4l-26 -142q-17 5 -40 5q-62 0 -93.5 -36t-38.5 -78l-45 -256h-160l71 395q10 50 15 103h152q-2 -31 -9 -73zM476 716l-147 -144h-145l-98 144h126l54 -83l83 83h127z" />
    <glyph glyph-name="Sacute" unicode="&#x15a;" horiz-adv-x="585" 
d="M585 636l-113 -100q-40 55 -117 55q-40 0 -73.5 -21.5t-33.5 -63.5q0 -28 21.5 -46t67.5 -34q97 -34 145.5 -82.5t48.5 -125.5q0 -61 -26 -108.5t-69.5 -74.5t-93.5 -40.5t-103 -13.5q-79 0 -151.5 28.5t-113.5 81.5l123 100q21 -32 62 -52t83 -20q48 0 81 21.5t33 64.5
q0 34 -27.5 56t-82.5 41q-80 27 -124 69.5t-44 120.5q0 106 82 170.5t204 64.5q64 0 125.5 -24.5t95.5 -66.5zM569 908l-170 -144h-122l129 144h163z" />
    <glyph glyph-name="sacute" unicode="&#x15b;" horiz-adv-x="464" 
d="M-32 68l100 91q39 -57 115 -57q32 0 51.5 12t19.5 33q0 19 -16.5 30.5t-54.5 22.5q-74 22 -108 53t-34 87q0 79 65.5 126t159.5 47q59 0 109.5 -20t79.5 -57l-101 -85q-34 46 -97 46q-29 0 -49 -11t-20 -33q0 -16 15 -25.5t50 -19.5q75 -20 113 -54.5t38 -95.5
q0 -85 -66.5 -130.5t-158.5 -45.5q-138 0 -211 86zM477 716l-170 -144h-122l129 144h163z" />
    <glyph glyph-name="Scircumflex" unicode="&#x15c;" horiz-adv-x="585" 
d="M585 636l-113 -100q-40 55 -117 55q-40 0 -73.5 -21.5t-33.5 -63.5q0 -28 21.5 -46t67.5 -34q97 -34 145.5 -82.5t48.5 -125.5q0 -61 -26 -108.5t-69.5 -74.5t-93.5 -40.5t-103 -13.5q-79 0 -151.5 28.5t-113.5 81.5l123 100q21 -32 62 -52t83 -20q48 0 81 21.5t33 64.5
q0 34 -27.5 56t-82.5 41q-80 27 -124 69.5t-44 120.5q0 106 82 170.5t204 64.5q64 0 125.5 -24.5t95.5 -66.5zM572 764h-125l-55 82l-83 -82h-127l148 144h146z" />
    <glyph glyph-name="scircumflex" unicode="&#x15d;" horiz-adv-x="464" 
d="M-32 68l100 91q39 -57 115 -57q32 0 51.5 12t19.5 33q0 19 -16.5 30.5t-54.5 22.5q-74 22 -108 53t-34 87q0 79 65.5 126t159.5 47q59 0 109.5 -20t79.5 -57l-101 -85q-34 46 -97 46q-29 0 -49 -11t-20 -33q0 -16 15 -25.5t50 -19.5q75 -20 113 -54.5t38 -95.5
q0 -85 -66.5 -130.5t-158.5 -45.5q-138 0 -211 86zM485 572h-125l-55 82l-83 -82h-127l148 144h146z" />
    <glyph glyph-name="Scedilla" unicode="&#x15e;" horiz-adv-x="585" 
d="M335 -135q0 -54 -46 -79.5t-106 -25.5q-70 0 -120 25l32 59q35 -18 81 -18q55 0 55 33q0 29 -42 29q-21 0 -41 -6l-25 29l67 73q-145 17 -216 107l123 100q21 -32 62 -52t83 -20q48 0 81 21.5t33 64.5q0 34 -27.5 56t-82.5 41q-80 27 -124 69.5t-44 120.5q0 106 82 170.5
t204 64.5q64 0 125.5 -24.5t95.5 -66.5l-113 -100q-40 55 -117 55q-40 0 -73.5 -21.5t-33.5 -63.5q0 -28 21.5 -46t67.5 -34q97 -34 145.5 -82.5t48.5 -125.5q0 -110 -77.5 -169t-185.5 -67l-41 -43q8 2 19 2q33 0 61 -18t28 -58z" />
    <glyph glyph-name="scedilla" unicode="&#x15f;" horiz-adv-x="464" 
d="M287 -135q0 -54 -46 -79.5t-106 -25.5q-70 0 -120 25l32 59q35 -18 81 -18q55 0 55 33q0 29 -42 29q-21 0 -41 -6l-25 29l67 73q-113 12 -174 84l100 91q39 -57 115 -57q32 0 51.5 12t19.5 33q0 19 -16.5 30.5t-54.5 22.5q-74 22 -108 53t-34 87q0 79 65.5 126t159.5 47
q59 0 109.5 -20t79.5 -57l-101 -85q-34 46 -97 46q-29 0 -49 -11t-20 -33q0 -16 15 -25.5t50 -19.5q75 -20 113 -54.5t38 -95.5q0 -75 -52 -119t-130 -54l-43 -46q8 2 19 2q33 0 61 -18t28 -58z" />
    <glyph glyph-name="Scaron" unicode="&#x160;" horiz-adv-x="585" 
d="M585 636l-113 -100q-40 55 -117 55q-40 0 -73.5 -21.5t-33.5 -63.5q0 -28 21.5 -46t67.5 -34q97 -34 145.5 -82.5t48.5 -125.5q0 -61 -26 -108.5t-69.5 -74.5t-93.5 -40.5t-103 -13.5q-79 0 -151.5 28.5t-113.5 81.5l123 100q21 -32 62 -52t83 -20q48 0 81 21.5t33 64.5
q0 34 -27.5 56t-82.5 41q-80 27 -124 69.5t-44 120.5q0 106 82 170.5t204 64.5q64 0 125.5 -24.5t95.5 -66.5zM581 908l-147 -144h-145l-98 144h126l54 -83l83 83h127z" />
    <glyph glyph-name="scaron" unicode="&#x161;" horiz-adv-x="464" 
d="M-32 68l100 91q39 -57 115 -57q32 0 51.5 12t19.5 33q0 19 -16.5 30.5t-54.5 22.5q-74 22 -108 53t-34 87q0 79 65.5 126t159.5 47q59 0 109.5 -20t79.5 -57l-101 -85q-34 46 -97 46q-29 0 -49 -11t-20 -33q0 -16 15 -25.5t50 -19.5q75 -20 113 -54.5t38 -95.5
q0 -85 -66.5 -130.5t-158.5 -45.5q-138 0 -211 86zM492 716l-147 -144h-145l-98 144h126l54 -83l83 83h127z" />
    <glyph glyph-name="uni0162" unicode="&#x162;" horiz-adv-x="553" 
d="M598 565h-194l-100 -565h-166l99 565h-198l26 143h558zM286 -45l-130 -195h-123l111 195h142z" />
    <glyph glyph-name="uni0163" unicode="&#x163;" horiz-adv-x="364" 
d="M92 377h-82l22 121h79l23 132h156l-23 -132h106l-22 -121h-103l-36 -195q-2 -18 -2 -27q0 -43 52 -43q20 0 44 6l-15 -115q-36 -15 -88 -15q-155 0 -155 121q0 30 6 57zM218 -45l-130 -195h-123l111 195h142z" />
    <glyph glyph-name="Tcaron" unicode="&#x164;" horiz-adv-x="553" 
d="M598 565h-194l-100 -565h-166l99 565h-198l26 143h558zM568 908l-147 -144h-145l-98 144h126l54 -83l83 83h127z" />
    <glyph glyph-name="tcaron" unicode="&#x165;" horiz-adv-x="424" 
d="M92 377h-82l22 121h79l23 132h156l-23 -132h106l-22 -121h-103l-36 -195q-2 -18 -2 -27q0 -43 52 -43q20 0 44 6l-15 -115q-36 -15 -88 -15q-155 0 -155 121q0 30 6 57zM557 731l-130 -195h-123l111 195h142z" />
    <glyph glyph-name="Tbar" unicode="&#x166;" horiz-adv-x="553" 
d="M504 388h-132l-68 -388h-166l68 388h-140l16 89h139l16 88h-198l26 143h558l-25 -143h-194l-16 -88h132z" />
    <glyph glyph-name="tbar" unicode="&#x167;" horiz-adv-x="364" 
d="M303 215h-85l-6 -33q-2 -18 -2 -27q0 -43 52 -43q20 0 44 6l-15 -115q-36 -15 -88 -15q-155 0 -155 121q0 30 6 57l9 49h-60l16 89h60l13 73h-82l22 121h79l23 132h156l-23 -132h106l-22 -121h-103l-14 -73h85z" />
    <glyph glyph-name="Utilde" unicode="&#x168;" horiz-adv-x="737" 
d="M658 260q-23 -131 -104.5 -204.5t-222.5 -73.5q-128 0 -203.5 59.5t-75.5 161.5q0 28 5 61l78 444h165l-76 -429q-3 -19 -3 -41q0 -48 29 -79.5t90 -31.5q75 0 109 42t46 108l77 431h164zM651 900q-17 -58 -51 -94.5t-85 -36.5q-37 0 -72 19q-42 22 -65 22q-31 0 -50 -42
h-71q17 57 51 93t85 36q36 0 76 -20q38 -20 62 -20q31 0 49 43h71z" />
    <glyph glyph-name="utilde" unicode="&#x169;" horiz-adv-x="614" 
d="M345 72h-3q-24 -38 -65 -61.5t-91 -23.5q-78 0 -118 43t-40 109q0 31 5 54l53 305h161l-48 -270q-4 -28 -4 -42q0 -67 66 -67q41 0 68.5 31.5t36.5 78.5l48 269h160l-70 -395q-10 -50 -15 -103h-152q1 9 4 37t4 35zM554 708q-17 -58 -51 -94.5t-85 -36.5q-37 0 -72 19
q-42 22 -65 22q-31 0 -50 -42h-71q17 57 51 93t85 36q36 0 76 -20q38 -20 62 -20q31 0 49 43h71z" />
    <glyph glyph-name="Umacron" unicode="&#x16a;" horiz-adv-x="737" 
d="M658 260q-23 -131 -104.5 -204.5t-222.5 -73.5q-128 0 -203.5 59.5t-75.5 161.5q0 28 5 61l78 444h165l-76 -429q-3 -19 -3 -41q0 -48 29 -79.5t90 -31.5q75 0 109 42t46 108l77 431h164zM615 793h-333l14 84h334z" />
    <glyph glyph-name="umacron" unicode="&#x16b;" horiz-adv-x="614" 
d="M345 72h-3q-24 -38 -65 -61.5t-91 -23.5q-78 0 -118 43t-40 109q0 31 5 54l53 305h161l-48 -270q-4 -28 -4 -42q0 -67 66 -67q41 0 68.5 31.5t36.5 78.5l48 269h160l-70 -395q-10 -50 -15 -103h-152q1 9 4 37t4 35zM512 601h-333l14 84h334z" />
    <glyph glyph-name="Ubreve" unicode="&#x16c;" horiz-adv-x="737" 
d="M658 260q-23 -131 -104.5 -204.5t-222.5 -73.5q-128 0 -203.5 59.5t-75.5 161.5q0 28 5 61l78 444h165l-76 -429q-3 -19 -3 -41q0 -48 29 -79.5t90 -31.5q75 0 109 42t46 108l77 431h164zM627 908q-16 -74 -66.5 -109t-122.5 -35q-157 0 -157 144h82q0 -57 80 -57
q86 0 102 57h82z" />
    <glyph glyph-name="ubreve" unicode="&#x16d;" horiz-adv-x="614" 
d="M345 72h-3q-24 -38 -65 -61.5t-91 -23.5q-78 0 -118 43t-40 109q0 31 5 54l53 305h161l-48 -270q-4 -28 -4 -42q0 -67 66 -67q41 0 68.5 31.5t36.5 78.5l48 269h160l-70 -395q-10 -50 -15 -103h-152q1 9 4 37t4 35zM528 716q-16 -74 -66.5 -109t-122.5 -35
q-157 0 -157 144h82q0 -30 25 -45q23 -12 55 -12q86 0 102 57h82z" />
    <glyph glyph-name="Uring" unicode="&#x16e;" horiz-adv-x="737" 
d="M658 260q-23 -131 -104.5 -204.5t-222.5 -73.5q-128 0 -203.5 59.5t-75.5 161.5q0 28 5 61l78 444h165l-76 -429q-3 -19 -3 -41q0 -48 29 -79.5t90 -31.5q75 0 109 42t46 108l77 431h164zM441 749q-41 0 -67 25t-26 64q0 52 34 87.5t85 35.5q41 0 67 -25t26 -63
q0 -52 -34 -88t-85 -36zM511 866q0 21 -13.5 35.5t-35.5 14.5q-28 0 -46.5 -21t-18.5 -51q0 -22 13 -36t35 -14q29 0 47.5 21t18.5 51z" />
    <glyph glyph-name="uring" unicode="&#x16f;" horiz-adv-x="614" 
d="M345 72h-3q-24 -38 -65 -61.5t-91 -23.5q-78 0 -118 43t-40 109q0 31 5 54l53 305h161l-48 -270q-4 -28 -4 -42q0 -67 66 -67q41 0 68.5 31.5t36.5 78.5l48 269h160l-70 -395q-10 -50 -15 -103h-152q1 9 4 37t4 35zM346 557q-41 0 -67 25t-26 64q0 52 34 87.5t85 35.5
q41 0 67 -25t26 -63q0 -52 -34 -88t-85 -36zM416 674q0 21 -13.5 35.5t-35.5 14.5q-28 0 -46.5 -21t-18.5 -51q0 -22 13 -36t35 -14q29 0 47.5 21t18.5 51z" />
    <glyph glyph-name="Uhungarumlaut" unicode="&#x170;" horiz-adv-x="737" 
d="M658 260q-23 -131 -104.5 -204.5t-222.5 -73.5q-128 0 -203.5 59.5t-75.5 161.5q0 28 5 61l78 444h165l-76 -429q-3 -19 -3 -41q0 -48 29 -79.5t90 -31.5q75 0 109 42t46 108l77 431h164zM782 908l-171 -144h-121l129 144h163zM563 908l-171 -144h-121l128 144h164z" />
    <glyph glyph-name="uhungarumlaut" unicode="&#x171;" horiz-adv-x="614" 
d="M345 72h-3q-24 -38 -65 -61.5t-91 -23.5q-78 0 -118 43t-40 109q0 31 5 54l53 305h161l-48 -270q-4 -28 -4 -42q0 -67 66 -67q41 0 68.5 31.5t36.5 78.5l48 269h160l-70 -395q-10 -50 -15 -103h-152q1 9 4 37t4 35zM683 716l-171 -144h-121l129 144h163zM464 716
l-171 -144h-121l128 144h164z" />
    <glyph glyph-name="Uogonek" unicode="&#x172;" horiz-adv-x="737" 
d="M421 -196q-58 -40 -119 -40q-96 0 -96 83q0 64 100 136q-117 6 -185.5 65t-68.5 155q0 28 5 61l78 444h165l-76 -429q-3 -19 -3 -41q0 -48 29 -79.5t90 -31.5q75 0 109 42t46 108l77 431h164l-78 -448q-19 -113 -83 -183.5t-172 -88.5q-93 -70 -93 -115q0 -27 33 -27
q28 0 57 19z" />
    <glyph glyph-name="uogonek" unicode="&#x173;" horiz-adv-x="614" 
d="M427 -196q-58 -40 -119 -40q-96 0 -96 83q0 68 125 153q1 9 4 37t4 35h-3q-24 -38 -65 -61.5t-91 -23.5q-78 0 -118 43t-40 109q0 31 5 54l53 305h161l-48 -270q-4 -28 -4 -42q0 -67 66 -67q41 0 68.5 31.5t36.5 78.5l48 269h160l-70 -395q-10 -50 -15 -103h-63
q-110 -79 -110 -127q0 -27 33 -27q28 0 57 19z" />
    <glyph glyph-name="Wcircumflex" unicode="&#x174;" horiz-adv-x="1014" 
d="M1090 708l-340 -708h-166l-48 484h-3l-235 -484h-165l-62 708h176l21 -476h3l220 476h172l38 -476h3l211 476h175zM782 764h-125l-55 82l-83 -82h-127l148 144h146z" />
    <glyph glyph-name="wcircumflex" unicode="&#x175;" horiz-adv-x="856" 
d="M892 498l-272 -498h-161l-37 313h-2l-162 -313h-161l-68 498h167l24 -318h3l154 318h161l30 -318h3l153 318h168zM665 572h-125l-55 82l-83 -82h-127l148 144h146z" />
    <glyph glyph-name="Ycircumflex" unicode="&#x176;" horiz-adv-x="613" 
d="M727 708l-344 -407l-54 -301h-166l53 301l-181 407h186l101 -268l203 268h202zM577 764h-125l-55 82l-83 -82h-127l148 144h146z" />
    <glyph glyph-name="ycircumflex" unicode="&#x177;" horiz-adv-x="556" 
d="M594 498l-326 -573q-48 -87 -95.5 -126t-130.5 -39q-47 0 -82 11l24 132q22 -9 47 -9q32 0 52 16t40 51l24 41l-115 496h175l50 -326h2l165 326h170zM522 572h-125l-55 82l-83 -82h-127l148 144h146z" />
    <glyph glyph-name="Ydieresis" unicode="&#x178;" horiz-adv-x="613" 
d="M727 708l-344 -407l-54 -301h-166l53 301l-181 407h186l101 -268l203 268h202zM365 856q0 -36 -24 -61t-60 -25q-34 0 -56 20.5t-22 52.5q0 37 24.5 61.5t60.5 24.5q34 0 55.5 -20.5t21.5 -52.5zM584 856q0 -36 -24 -61t-60 -25q-34 0 -56 20.5t-22 52.5q0 37 24.5 61.5
t61.5 24.5q33 0 54.5 -20.5t21.5 -52.5z" />
    <glyph glyph-name="Zacute" unicode="&#x179;" horiz-adv-x="620" 
d="M532 0h-563l25 144l412 422h-307l25 142h524l-24 -134l-417 -429h351zM591 908l-170 -144h-122l129 144h163z" />
    <glyph glyph-name="zacute" unicode="&#x17a;" horiz-adv-x="509" 
d="M418 0h-441l22 125l283 251h-225l21 122h422l-21 -120l-288 -254h249zM503 716l-170 -144h-122l129 144h163z" />
    <glyph glyph-name="Zdotaccent" unicode="&#x17b;" horiz-adv-x="620" 
d="M532 0h-563l25 144l412 422h-307l25 142h524l-24 -134l-417 -429h351zM485 856q0 -37 -25 -63.5t-63 -26.5q-36 0 -59 21.5t-23 54.5q0 38 26 64t64 26q34 0 57 -22t23 -54z" />
    <glyph glyph-name="zdotaccent" unicode="&#x17c;" horiz-adv-x="509" 
d="M418 0h-441l22 125l283 251h-225l21 122h422l-21 -120l-288 -254h249zM398 664q0 -37 -25 -63.5t-63 -26.5q-36 0 -59 21.5t-23 54.5q0 38 26 64t64 26q34 0 57 -22t23 -54z" />
    <glyph glyph-name="Zcaron" unicode="&#x17d;" horiz-adv-x="620" 
d="M532 0h-563l25 144l412 422h-307l25 142h524l-24 -134l-417 -429h351zM602 908l-147 -144h-145l-98 144h126l54 -83l83 83h127z" />
    <glyph glyph-name="zcaron" unicode="&#x17e;" horiz-adv-x="509" 
d="M418 0h-441l22 125l283 251h-225l21 122h422l-21 -120l-288 -254h249zM513 716l-147 -144h-145l-98 144h126l54 -83l83 83h127z" />
    <glyph glyph-name="florin" unicode="&#x192;" horiz-adv-x="644" 
d="M540 436l-20 -113h-148l-103 -274q-36 -95 -89 -141.5t-140 -46.5q-63 0 -113 28l66 120q20 -16 47 -16q31 0 50 22.5t35 66.5l92 241h-114l20 113h134l30 78q18 47 34.5 78t43.5 64.5t67 50t92 16.5q79 0 131 -34l-73 -119q-24 16 -55 16q-32 0 -52 -21.5t-36 -63.5
l-25 -65h126z" />
    <glyph glyph-name="Scommaaccent" unicode="&#x218;" horiz-adv-x="585" 
d="M585 636l-113 -100q-40 55 -117 55q-40 0 -73.5 -21.5t-33.5 -63.5q0 -28 21.5 -46t67.5 -34q97 -34 145.5 -82.5t48.5 -125.5q0 -61 -26 -108.5t-69.5 -74.5t-93.5 -40.5t-103 -13.5q-79 0 -151.5 28.5t-113.5 81.5l123 100q21 -32 62 -52t83 -20q48 0 81 21.5t33 64.5
q0 34 -27.5 56t-82.5 41q-80 27 -124 69.5t-44 120.5q0 106 82 170.5t204 64.5q64 0 125.5 -24.5t95.5 -66.5zM292 -45l-130 -195h-123l111 195h142z" />
    <glyph glyph-name="scommaaccent" unicode="&#x219;" horiz-adv-x="464" 
d="M-32 68l100 91q39 -57 115 -57q32 0 51.5 12t19.5 33q0 19 -16.5 30.5t-54.5 22.5q-74 22 -108 53t-34 87q0 79 65.5 126t159.5 47q59 0 109.5 -20t79.5 -57l-101 -85q-34 46 -97 46q-29 0 -49 -11t-20 -33q0 -16 15 -25.5t50 -19.5q75 -20 113 -54.5t38 -95.5
q0 -85 -66.5 -130.5t-158.5 -45.5q-138 0 -211 86zM224 -45l-130 -195h-123l111 195h142z" />
    <glyph glyph-name="uni021A" unicode="&#x21a;" horiz-adv-x="553" 
d="M598 565h-194l-100 -565h-166l99 565h-198l26 143h558zM286 -45l-130 -195h-123l111 195h142z" />
    <glyph glyph-name="uni021B" unicode="&#x21b;" horiz-adv-x="364" 
d="M92 377h-82l22 121h79l23 132h156l-23 -132h106l-22 -121h-103l-36 -195q-2 -18 -2 -27q0 -43 52 -43q20 0 44 6l-15 -115q-36 -15 -88 -15q-155 0 -155 121q0 30 6 57zM218 -45l-130 -195h-123l111 195h142z" />
    <glyph glyph-name="dotlessj" unicode="&#x237;" horiz-adv-x="297" 
d="M171 -19q-9 -51 -23 -87.5t-39 -69.5t-67.5 -50.5t-100.5 -17.5q-37 0 -69 9l29 133q15 -5 34 -5q34 0 51 22.5t24 65.5l91 517h161z" />
    <glyph glyph-name="circumflex" unicode="&#x2c6;" 
d="M388 572h-125l-55 82l-83 -82h-127l148 144h146z" />
    <glyph glyph-name="caron" unicode="&#x2c7;" 
d="M413 716l-147 -144h-145l-98 144h126l54 -83l83 83h127z" />
    <glyph glyph-name="uni02C9" unicode="&#x2c9;" 
d="M365 793h-333l14 84h334z" />
    <glyph glyph-name="breve" unicode="&#x2d8;" 
d="M391 716q-16 -74 -66.5 -109t-122.5 -35q-157 0 -157 144h82q0 -30 25 -45q22 -12 55 -12q86 0 102 57h82z" />
    <glyph glyph-name="dotaccent" unicode="&#x2d9;" 
d="M292 664q0 -37 -25 -63.5t-63 -26.5q-36 0 -59 21.5t-23 54.5q0 38 26 64t64 26q34 0 57 -22t23 -54z" />
    <glyph glyph-name="ring" unicode="&#x2da;" 
d="M197 557q-41 0 -67 25t-26 64q0 52 34 87.5t85 35.5q41 0 67 -25t26 -63q0 -52 -34 -88t-85 -36zM267 674q0 21 -13.5 35.5t-35.5 14.5q-28 0 -46.5 -21t-18.5 -51q0 -22 13 -36t35 -14q29 0 47.5 21t18.5 51z" />
    <glyph glyph-name="ogonek" unicode="&#x2db;" 
d="M147 -196q-58 -40 -119 -40q-96 0 -96 83q0 70 131 157h89q-116 -83 -116 -131q0 -27 33 -27q29 0 57 19z" />
    <glyph glyph-name="tilde" unicode="&#x2dc;" 
d="M403 708q-17 -58 -51 -94.5t-85 -36.5q-37 0 -72 19q-42 22 -65 22q-31 0 -50 -42h-71q17 57 51 93t85 36q36 0 76 -20q38 -20 62 -20q31 0 49 43h71z" />
    <glyph glyph-name="hungarumlaut" unicode="&#x2dd;" 
d="M521 716l-171 -144h-121l129 144h163zM302 716l-171 -144h-121l128 144h164z" />
    <glyph glyph-name="uni0394" unicode="&#x394;" horiz-adv-x="722" 
d="M-48 0l19 88l402 620h163l123 -607l-22 -101h-685zM417 526l-230 -385h294z" />
    <glyph glyph-name="uni03A9" unicode="&#x3a9;" horiz-adv-x="777" 
d="M675 0h-296l37 213q79 18 118.5 76.5t39.5 135.5q0 65 -39 109t-107 44q-87 0 -140.5 -62.5t-53.5 -151.5q0 -124 108 -150l-38 -214h-289l23 140h166l2 12q-65 19 -105 76t-40 143q0 65 25 127.5t71.5 113.5t121.5 82.5t167 31.5q139 0 220 -71t81 -186
q0 -112 -58.5 -200.5t-158.5 -116.5l-2 -12h172z" />
    <glyph glyph-name="uni03BC" unicode="&#x3bc;" horiz-adv-x="651" 
d="M584 116l-15 -113q-43 -15 -85 -15q-99 0 -106 84h-3q-18 -33 -52.5 -59t-74.5 -26q-55 0 -72 32h-2l-46 -259h-162l130 738h163l-47 -264q-5 -35 -5 -45q0 -70 67 -70q41 0 68.5 32t36.5 83l47 264h160l-60 -339q-2 -12 -2 -19q0 -28 32 -28q15 0 28 4z" />
    <glyph glyph-name="pi" unicode="&#x3c0;" horiz-adv-x="685" 
d="M365 172l37 198h-119l-110 -370h-158l117 370h-102l23 128h622l-23 -128h-99l-32 -172q-5 -28 -5 -43q0 -43 50 -43q14 0 30 3l-18 -114q-36 -13 -79 -13q-63 0 -102 29t-39 93q0 27 7 62z" />
    <glyph glyph-name="uni0400" unicode="&#x400;" horiz-adv-x="587" 
d="M18 0l125 708h453l-25 -142h-294l-24 -137h280l-24 -134h-280l-26 -152h322l-25 -143h-482zM368 908l109 -144h-120l-152 144h163z" />
    <glyph glyph-name="uni0401" unicode="&#x401;" horiz-adv-x="587" 
d="M18 0l125 708h453l-25 -142h-294l-24 -137h280l-24 -134h-280l-26 -152h322l-25 -143h-482zM362 856q0 -36 -24 -61t-60 -25q-34 0 -56 20.5t-22 52.5q0 37 24.5 61.5t60.5 24.5q34 0 55.5 -20.5t21.5 -52.5zM581 856q0 -36 -24 -61t-60 -25q-34 0 -56 20.5t-22 52.5
q0 37 24.5 61.5t61.5 24.5q33 0 54.5 -20.5t21.5 -52.5z" />
    <glyph glyph-name="uni0402" unicode="&#x402;" horiz-adv-x="791" 
d="M466 -10q-51 0 -91 10l24 129q23 -7 51 -7q58 0 92.5 24.5t34.5 75.5q0 72 -115 72q-63 0 -109 -17l-49 -277h-166l99 564h-198l26 144h558l-25 -144h-194l-29 -161q80 21 159 21q102 0 156 -51.5t54 -138.5q0 -244 -278 -244z" />
    <glyph glyph-name="uni0403" unicode="&#x403;" horiz-adv-x="508" 
d="M544 908l-170 -144h-122l129 144h163zM18 0l125 708h435l-26 -144h-269l-99 -564h-166z" />
    <glyph glyph-name="uni0404" unicode="&#x404;" horiz-adv-x="686" 
d="M366 -19q-149 0 -237 89t-88 238q0 176 118.5 297.5t302.5 121.5q82 0 151.5 -29t103.5 -76l-123 -110q-48 66 -137 66q-78 0 -134.5 -41t-84.5 -108h263l-24 -134h-263q4 -71 54 -118.5t125 -47.5q101 0 169 77l93 -107q-107 -118 -289 -118z" />
    <glyph glyph-name="uni0405" unicode="&#x405;" horiz-adv-x="585" 
d="M239 -19q-79 0 -151.5 28.5t-113.5 81.5l123 100q21 -32 62 -52t83 -20q48 0 81 21.5t33 64.5q0 34 -27.5 56t-82.5 41q-80 27 -124 69.5t-44 120.5q0 106 82 170.5t204 64.5q64 0 125.5 -24.5t95.5 -66.5l-113 -100q-40 55 -117 55q-40 0 -73.5 -21.5t-33.5 -63.5
q0 -28 21.5 -46t67.5 -34q97 -34 145.5 -82.5t48.5 -125.5q0 -61 -26 -108.5t-69.5 -74.5t-93.5 -40.5t-103 -13.5z" />
    <glyph glyph-name="uni0406" unicode="&#x406;" horiz-adv-x="315" 
d="M18 0l125 708h167l-125 -708h-167z" />
    <glyph glyph-name="uni0407" unicode="&#x407;" horiz-adv-x="315" 
d="M18 0l125 708h167l-125 -708h-167zM211 856q0 -36 -24 -61t-60 -25q-34 0 -56 20.5t-22 52.5q0 37 24.5 61.5t60.5 24.5q34 0 55.5 -20.5t21.5 -52.5zM430 856q0 -36 -24 -61t-60 -25q-34 0 -56 20.5t-22 52.5q0 37 24.5 61.5t61.5 24.5q33 0 54.5 -20.5t21.5 -52.5z" />
    <glyph glyph-name="uni0408" unicode="&#x408;" horiz-adv-x="525" 
d="M187 -19q-89 0 -147 44t-74 121l154 50q4 -28 21.5 -46.5t44.5 -18.5q41 0 61 28t29 81l82 468h168l-84 -469q-7 -40 -16 -71.5t-28 -68.5t-45 -61t-69 -40.5t-97 -16.5z" />
    <glyph glyph-name="uni0409" unicode="&#x409;" horiz-adv-x="1122" 
d="M56 -7q-49 0 -87 9l30 143q20 -7 41 -7q62 0 104.5 69t74.5 251l44 250h530l-46 -260h64q126 0 195 -53t69 -148q0 -126 -84 -186.5t-235 -60.5h-253l99 564h-203l-20 -115q-44 -254 -118.5 -355t-204.5 -101zM692 135h65q150 0 150 99q0 45 -31 63.5t-89 18.5h-63z" />
    <glyph glyph-name="uni040A" unicode="&#x40a;" horiz-adv-x="1095" 
d="M18 0l125 708h166l-48 -269h276l47 269h167l-48 -269h88q122 0 189.5 -53t67.5 -145q0 -123 -82 -182t-229 -59h-277l52 298h-275l-53 -298h-166zM650 136h90q137 0 137 91q0 75 -109 75h-89z" />
    <glyph glyph-name="uni040B" unicode="&#x40b;" horiz-adv-x="823" 
d="M138 0l99 565h-198l26 143h558l-25 -143h-194l-29 -163q84 22 162 22q196 0 196 -165q0 -30 -6 -63l-35 -196h-166l31 174q3 21 3 37q0 39 -22.5 56t-72.5 17q-71 0 -114 -18l-47 -266h-166z" />
    <glyph glyph-name="uni040C" unicode="&#x40c;" horiz-adv-x="679" 
d="M631 908l-170 -144h-122l129 144h163zM18 0l125 708h163l-53 -297h3l281 297h212l-347 -337l252 -371h-207l-205 333h-3l-58 -333h-163z" />
    <glyph glyph-name="uni040D" unicode="&#x40d;" horiz-adv-x="764" 
d="M18 0l125 708h164l-82 -466h4l354 466h175l-125 -708h-164l81 455h-3l-351 -455h-178zM414 908l109 -144h-120l-152 144h163z" />
    <glyph glyph-name="uni040E" unicode="&#x40e;" horiz-adv-x="671" 
d="M83 -12q-57 0 -90 11l24 139q24 -8 68 -8q43 0 70 21.5t63 72.5l5 7l-169 477h187l99 -331l215 331h200l-362 -504q-40 -56 -67 -88t-65.5 -65.5t-81.5 -48t-96 -14.5zM418 764q-75 0 -119.5 36t-48.5 104l88 17q10 -67 78 -67q37 0 64 18t37 49l83 -17
q-16 -69 -65.5 -104.5t-116.5 -35.5z" />
    <glyph glyph-name="uni040F" unicode="&#x40f;" horiz-adv-x="753" 
d="M216 -151l27 151h-225l125 708h166l-99 -563h272l99 563h166l-125 -708h-231l-27 -151h-148z" />
    <glyph glyph-name="uni0410" unicode="&#x410;" horiz-adv-x="710" 
d="M-83 0l451 708h162l134 -708h-175l-24 141h-273l-85 -141h-190zM263 275h185l-37 251z" />
    <glyph glyph-name="uni0411" unicode="&#x411;" horiz-adv-x="662" 
d="M18 0l125 708h483l-24 -139h-317l-24 -134h88q123 0 190 -51.5t67 -142.5q0 -123 -82 -182t-229 -59h-277zM208 136h90q137 0 137 91q0 75 -109 75h-88z" />
    <glyph glyph-name="uni0412" unicode="&#x412;" horiz-adv-x="664" 
d="M18 0l125 708h277q85 0 146 -38t61 -117q0 -69 -41 -116t-110 -65v-2q56 -9 91.5 -49.5t35.5 -101.5q0 -105 -83 -162t-220 -57h-282zM200 134h97q62 0 101 23t39 74q0 34 -26 53t-74 19h-108zM251 423h102q43 0 76.5 20.5t33.5 66.5q0 65 -95 65h-91z" />
    <glyph glyph-name="uni0413" unicode="&#x413;" horiz-adv-x="508" 
d="M18 0l125 708h435l-26 -144h-269l-99 -564h-166z" />
    <glyph glyph-name="uni0414" unicode="&#x414;" horiz-adv-x="798" 
d="M-67 -151l52 296h50q129 116 175 383l32 180h526l-99 -563h78l-53 -296h-149l27 151h-465l-27 -151h-147zM229 145h274l73 419h-198l-10 -58q-42 -241 -139 -361z" />
    <glyph glyph-name="uni0415" unicode="&#x415;" horiz-adv-x="587" 
d="M18 0l125 708h453l-25 -142h-294l-24 -137h280l-24 -134h-280l-26 -152h322l-25 -143h-482z" />
    <glyph glyph-name="uni0416" unicode="&#x416;" horiz-adv-x="1032" 
d="M-80 0l371 381l-214 327h198l176 -297h3l52 297h163l-53 -297h3l271 297h212l-337 -337l236 -371h-201l-195 333h-3l-58 -333h-163l59 333h-3l-305 -333h-212z" />
    <glyph glyph-name="uni0417" unicode="&#x417;" horiz-adv-x="591" 
d="M240 -18q-192 0 -280 113l115 103q49 -79 151 -79q58 0 93.5 25.5t35.5 74.5q0 76 -125 76h-52l24 134h53q135 0 135 87q0 33 -28 54t-68 21q-86 0 -149 -57l-78 103q107 89 246 89q120 0 180.5 -45.5t60.5 -131.5q0 -67 -40.5 -119t-99.5 -65v-3q110 -36 110 -137
q0 -62 -25.5 -110.5t-67.5 -76.5t-90.5 -42t-100.5 -14z" />
    <glyph glyph-name="uni0418" unicode="&#x418;" horiz-adv-x="764" 
d="M18 0l125 708h164l-82 -466h4l354 466h175l-125 -708h-164l81 455h-3l-351 -455h-178z" />
    <glyph glyph-name="uni0419" unicode="&#x419;" horiz-adv-x="764" 
d="M18 0l125 708h164l-82 -466h4l354 466h175l-125 -708h-164l81 455h-3l-351 -455h-178zM462 764q-75 0 -119.5 36t-48.5 104l88 17q10 -67 78 -67q37 0 64 18t37 49l83 -17q-16 -69 -65.5 -104.5t-116.5 -35.5z" />
    <glyph glyph-name="uni041A" unicode="&#x41a;" horiz-adv-x="679" 
d="M18 0l125 708h163l-53 -297h3l281 297h212l-347 -337l252 -371h-207l-205 333h-3l-58 -333h-163z" />
    <glyph glyph-name="uni041B" unicode="&#x41b;" horiz-adv-x="799" 
d="M56 -7q-49 0 -87 9l30 143q20 -7 41 -7q62 0 104.5 69t74.5 251l44 250h530l-124 -708h-166l99 564h-203l-20 -115q-44 -254 -118.5 -355t-204.5 -101z" />
    <glyph glyph-name="uni041C" unicode="&#x41c;" horiz-adv-x="953" 
d="M18 0l125 708h233l82 -459h4l239 459h247l-125 -708h-163l93 507h-4l-275 -507h-117l-94 507h-4l-85 -507h-156z" />
    <glyph glyph-name="uni041D" unicode="&#x41d;" horiz-adv-x="757" 
d="M18 0l125 708h166l-48 -269h276l47 269h167l-125 -708h-166l52 298h-275l-53 -298h-166z" />
    <glyph glyph-name="uni041E" unicode="&#x41e;" horiz-adv-x="831" 
d="M386 -18q-160 0 -252.5 85t-92.5 228q0 181 119 306t300 125q159 0 250.5 -85t91.5 -228q0 -182 -117.5 -306.5t-298.5 -124.5zM395 132q106 0 170 80t64 188q0 77 -48 127.5t-132 50.5q-104 0 -169.5 -80.5t-65.5 -187.5q0 -77 48 -127.5t133 -50.5z" />
    <glyph glyph-name="uni041F" unicode="&#x41f;" horiz-adv-x="753" 
d="M18 0l125 708h604l-125 -708h-166l100 564h-272l-100 -564h-166z" />
    <glyph glyph-name="uni0420" unicode="&#x420;" horiz-adv-x="637" 
d="M18 0l125 708h233q124 0 191 -52t67 -145q0 -123 -82.5 -182.5t-229.5 -59.5h-91l-48 -269h-165zM254 401h71q142 0 142 93q0 44 -29.5 61.5t-84.5 17.5h-68z" />
    <glyph glyph-name="uni0421" unicode="&#x421;" horiz-adv-x="684" 
d="M366 -19q-149 0 -237 84.5t-88 223.5q0 184 121 311t300 127q82 0 149.5 -29t102.5 -76l-123 -110q-43 66 -134 66q-103 0 -170.5 -80.5t-67.5 -188.5q0 -76 46 -126.5t128 -50.5q95 0 163 77l93 -110q-107 -118 -283 -118z" />
    <glyph glyph-name="uni0422" unicode="&#x422;" horiz-adv-x="553" 
d="M138 0l99 564h-198l26 144h558l-25 -144h-194l-100 -564h-166z" />
    <glyph glyph-name="uni0423" unicode="&#x423;" horiz-adv-x="671" 
d="M83 -12q-57 0 -90 11l24 139q24 -8 68 -8q43 0 70 21.5t63 72.5l5 7l-169 477h187l99 -331l215 331h200l-362 -504q-40 -56 -67 -88t-65.5 -65.5t-81.5 -48t-96 -14.5z" />
    <glyph glyph-name="uni0424" unicode="&#x424;" horiz-adv-x="891" 
d="M302 -19l15 86q-276 32 -276 278q0 131 97 221t284 100l11 61h166l-12 -65q142 -16 209.5 -87t67.5 -185q0 -134 -97 -225t-285 -101l-14 -83h-166zM342 212l54 308q-52 -5 -90 -22t-58 -41.5t-29 -51t-9 -57.5q0 -58 35 -93t97 -43zM508 209q101 11 144 60.5t43 120.5
q0 53 -36 86.5t-97 41.5z" />
    <glyph glyph-name="uni0425" unicode="&#x425;" horiz-adv-x="687" 
d="M-78 0l332 374l-156 334h187l89 -224l180 224h201l-300 -338l175 -370h-191l-105 253l-206 -253h-206z" />
    <glyph glyph-name="uni0426" unicode="&#x426;" horiz-adv-x="777" 
d="M524 -151l27 151h-533l125 708h166l-99 -563h272l99 563h166l-99 -563h77l-53 -296h-148z" />
    <glyph glyph-name="uni0427" unicode="&#x427;" horiz-adv-x="688" 
d="M391 0l46 262q-81 -22 -161 -22q-197 0 -197 166q0 28 6 61l42 241h164l-38 -218q-4 -26 -4 -36q0 -40 23.5 -57t74.5 -17q75 0 114 18l55 310h166l-125 -708h-166z" />
    <glyph glyph-name="uni0428" unicode="&#x428;" horiz-adv-x="1093" 
d="M18 0l125 708h166l-99 -563h223l99 563h166l-99 -563h223l99 563h166l-125 -708h-944z" />
    <glyph glyph-name="uni0429" unicode="&#x429;" horiz-adv-x="1117" 
d="M864 -151l27 151h-873l125 708h166l-99 -563h223l99 563h166l-99 -563h223l99 563h166l-99 -563h77l-53 -296h-148z" />
    <glyph glyph-name="uni042A" unicode="&#x42a;" horiz-adv-x="715" 
d="M96 0l99 564h-156l25 144h323l-46 -260h63q126 0 195 -53t69 -148q0 -126 -84 -186.5t-235 -60.5h-253zM286 135h64q150 0 150 99q0 45 -31 63.5t-89 18.5h-62z" />
    <glyph glyph-name="uni042B" unicode="&#x42b;" horiz-adv-x="926" 
d="M18 0l125 708h166l-46 -260h63q126 0 195 -53t69 -148q0 -126 -84 -186.5t-235 -60.5h-253zM208 135h64q150 0 150 99q0 45 -31 63.5t-89 18.5h-62zM629 0l124 708h167l-125 -708h-166z" />
    <glyph glyph-name="uni042C" unicode="&#x42c;" horiz-adv-x="637" 
d="M18 0l125 708h166l-46 -260h63q126 0 195 -53t69 -148q0 -126 -84 -186.5t-235 -60.5h-253zM208 135h64q150 0 150 99q0 45 -31 63.5t-89 18.5h-62z" />
    <glyph glyph-name="uni042D" unicode="&#x42d;" horiz-adv-x="686" 
d="M251 -19q-92 0 -163.5 29t-106.5 76l123 110q48 -66 150 -66q74 0 132.5 46.5t79.5 118.5h-261l24 134h253q-7 66 -55 108t-122 42q-101 0 -169 -77l-93 107q107 118 289 118q150 0 237.5 -92t87.5 -254q0 -106 -49.5 -197t-143.5 -147t-213 -56z" />
    <glyph glyph-name="uni042E" unicode="&#x42e;" horiz-adv-x="1104" 
d="M675 -18q-153 0 -238.5 82t-85.5 219v15h-114l-53 -298h-166l125 708h166l-48 -269h114q42 127 142.5 207t236.5 80q151 0 236 -82.5t85 -218.5q0 -87 -28.5 -167t-79 -141.5t-126.5 -98t-166 -36.5zM684 130q99 0 159 84t60 196q0 74 -42 122t-119 48q-97 0 -158.5 -85
t-61.5 -195q0 -74 42.5 -122t119.5 -48z" />
    <glyph glyph-name="uni042F" unicode="&#x42f;" horiz-adv-x="658" 
d="M-44 0l233 289q-110 50 -110 172q0 126 84 186.5t235 60.5h253l-124 -708h-166l46 260h-58l-193 -260h-200zM367 392h62l32 181h-64q-150 0 -150 -99q0 -45 31 -63.5t89 -18.5z" />
    <glyph glyph-name="uni0430" unicode="&#x430;" horiz-adv-x="559" 
d="M161 -12q-62 0 -108 32t-46 100q0 194 342 194q2 12 2 23q0 56 -78 56q-69 0 -131 -47l-66 92q44 35 102.5 55t116.5 20q94 0 151 -40.5t57 -120.5q0 -31 -6 -61l-34 -194q-10 -57 -10 -97h-142q0 19 4 53h-2q-55 -65 -152 -65zM219 95q45 0 76.5 28t39.5 71l5 24h-14
q-173 0 -173 -72q0 -51 66 -51z" />
    <glyph glyph-name="uni0431" unicode="&#x431;" horiz-adv-x="632" 
d="M283 -14q-119 0 -184 63q-64 64 -64 182q0 80 25 186.5t65 169.5q67 107 215 126l110 14q48 6 68 15.5t31 32.5l110 -33q-27 -72 -68.5 -105t-108.5 -41l-130 -17q-75 -10 -114.5 -44.5t-63.5 -135.5h2q78 102 210 102q88 0 146 -56.5t58 -150.5q0 -141 -89 -224.5
t-218 -83.5zM291 118q62 0 101.5 51t39.5 108q0 43 -25.5 72t-72.5 29q-61 0 -101.5 -47.5t-40.5 -104.5q0 -45 25.5 -76.5t73.5 -31.5z" />
    <glyph glyph-name="uni0432" unicode="&#x432;" horiz-adv-x="585" 
d="M10 0l87 498h285q59 0 102 -26.5t43 -82.5q0 -49 -28.5 -82t-77.5 -45v-2q39 -6 64 -34.5t25 -71.5q0 -74 -58.5 -114t-154.5 -40h-287zM185 101h75q90 0 90 63q0 48 -63 48h-82zM220 297h77q28 0 50.5 13.5t22.5 44.5q0 43 -64 43h-68z" />
    <glyph glyph-name="uni0433" unicode="&#x433;" horiz-adv-x="439" 
d="M10 0l87 498h347l-21 -122h-187l-66 -376h-160z" />
    <glyph glyph-name="uni0434" unicode="&#x434;" horiz-adv-x="655" 
d="M-67 -125l42 249h47q75 77 105 244l23 130h443l-67 -374h69l-43 -249h-134l22 125h-352l-22 -125h-133zM188 124h178l46 252h-132l-10 -49q-28 -135 -82 -203z" />
    <glyph glyph-name="uni0435" unicode="&#x435;" horiz-adv-x="587" 
d="M265 -15q-107 0 -176 59.5t-69 164.5q0 129 85 216.5t215 87.5q100 0 160 -55.5t60 -154.5q0 -45 -13 -97h-357q-1 -4 -1 -9q0 -40 33 -64.5t77 -24.5q70 0 119 52l101 -79q-90 -96 -234 -96zM181 304h216q1 7 1 20q0 34 -24.5 55.5t-66.5 21.5q-49 0 -83 -30.5
t-43 -66.5z" />
    <glyph glyph-name="uni0436" unicode="&#x436;" horiz-adv-x="822" 
d="M-92 0l245 269l-128 229h182l110 -211h3l37 211h160l-37 -211h3l180 211h203l-232 -247l146 -251h-190l-118 225h-3l-39 -225h-160l39 225h-3l-192 -225h-206z" />
    <glyph glyph-name="uni0437" unicode="&#x437;" horiz-adv-x="504" 
d="M200 -19q-143 0 -216 73l82 102q52 -52 125 -52q86 0 86 56q0 44 -97 44h-30l19 102h37q88 0 88 55q0 33 -62 33q-77 0 -125 -42l-60 93q80 68 221 68q88 0 135 -32.5t47 -96.5q0 -42 -30 -77t-75 -45v-3q92 -23 92 -114q0 -76 -68.5 -120t-168.5 -44z" />
    <glyph glyph-name="uni0438" unicode="&#x438;" horiz-adv-x="639" 
d="M10 0l87 498h157l-51 -290h2l224 290h169l-87 -498h-155l49 283h-3l-219 -283h-173z" />
    <glyph glyph-name="uni0439" unicode="&#x439;" horiz-adv-x="639" 
d="M363 572q-67 0 -110.5 33.5t-46.5 97.5l82 16q9 -59 78 -59q74 0 91 59l78 -16q-32 -131 -172 -131zM10 0l87 498h157l-51 -290h2l224 290h169l-87 -498h-155l49 283h-3l-219 -283h-173z" />
    <glyph glyph-name="uni043A" unicode="&#x43a;" horiz-adv-x="575" 
d="M10 0l87 498h160l-37 -211h3l193 211h203l-245 -247l159 -251h-190l-131 225h-3l-39 -225h-160z" />
    <glyph glyph-name="uni043B" unicode="&#x43b;" horiz-adv-x="640" 
d="M44 -6q-61 0 -85 8l21 120q12 -4 31 -4q40 0 68.5 42.5t48.5 152.5l33 185h438l-88 -498h-160l66 376h-123l-16 -93q-29 -159 -83.5 -224t-150.5 -65z" />
    <glyph glyph-name="uni043C" unicode="&#x43c;" horiz-adv-x="801" 
d="M10 0l87 498h209l69 -297h2l166 297h217l-87 -498h-153l57 327h-3l-185 -327h-100l-70 328h-3l-57 -328h-149z" />
    <glyph glyph-name="uni043D" unicode="&#x43d;" horiz-adv-x="620" 
d="M10 0l87 498h160l-31 -178h162l31 178h160l-87 -498h-160l34 198h-162l-34 -198h-160z" />
    <glyph glyph-name="uni043E" unicode="&#x43e;" horiz-adv-x="626" 
d="M273 -14q-110 0 -181.5 60t-71.5 159q0 128 83.5 218t220.5 90q112 0 184 -59.5t72 -159.5q0 -130 -84 -219t-223 -89zM281 118q63 0 102 46.5t39 112.5q0 46 -28.5 75.5t-76.5 29.5q-62 0 -101 -47t-39 -113q0 -46 28 -75t76 -29z" />
    <glyph glyph-name="uni043F" unicode="&#x43f;" horiz-adv-x="620" 
d="M10 0l87 498h482l-87 -498h-160l66 376h-162l-66 -376h-160z" />
    <glyph glyph-name="uni0440" unicode="&#x440;" horiz-adv-x="657" 
d="M-34 -240l130 738h152l-12 -69h3q59 81 163 81q96 0 152.5 -60t56.5 -154q0 -130 -78.5 -220t-197.5 -90q-111 0 -155 76h-2l-52 -302h-160zM312 116q62 0 100.5 45.5t38.5 113.5q0 46 -27 76t-75 30q-60 0 -101 -47.5t-41 -112.5q0 -46 28.5 -75.5t76.5 -29.5z" />
    <glyph glyph-name="uni0441" unicode="&#x441;" horiz-adv-x="500" 
d="M262 -14q-109 0 -175.5 60t-66.5 159q0 126 86 217t220 91q59 0 108 -19.5t76 -57.5l-101 -96q-11 18 -35 30.5t-52 12.5q-63 0 -105 -46.5t-42 -110.5q0 -46 27.5 -76.5t80.5 -30.5q61 0 104 45l76 -102q-86 -76 -201 -76z" />
    <glyph glyph-name="uni0442" unicode="&#x442;" horiz-adv-x="503" 
d="M115 0l66 376h-149l21 122h455l-21 -122h-146l-66 -376h-160z" />
    <glyph glyph-name="uni0443" unicode="&#x443;" horiz-adv-x="556" 
d="M42 -240q-47 0 -82 11l24 132q22 -9 47 -9q32 0 52 16t40 51l24 41l-115 496h175l50 -326h2l165 326h170l-326 -573q-50 -88 -97 -126.5t-129 -38.5z" />
    <glyph glyph-name="uni0444" unicode="&#x444;" horiz-adv-x="812" 
d="M227 -240l40 230q-119 17 -183 77t-64 162q0 120 96 197.5t244 85.5l43 244h160l-44 -249q247 -32 247 -239q0 -121 -95 -198.5t-245 -85.5l-39 -224h-160zM291 121l45 258q-74 -9 -114 -46.5t-40 -95.5q0 -49 24 -77.5t85 -38.5zM450 117q73 8 113.5 46.5t40.5 96.5
q0 48 -24 76t-85 39z" />
    <glyph glyph-name="uni0445" unicode="&#x445;" horiz-adv-x="562" 
d="M-77 0l252 261l-133 237h175l69 -136l119 136h187l-229 -240l144 -258h-177l-78 153l-136 -153h-193z" />
    <glyph glyph-name="uni0446" unicode="&#x446;" horiz-adv-x="642" 
d="M405 -125l22 125h-417l88 498h160l-66 -374h162l66 374h160l-66 -374h69l-44 -249h-134z" />
    <glyph glyph-name="uni0447" unicode="&#x447;" horiz-adv-x="589" 
d="M301 0l30 172q-52 -13 -129 -13q-75 0 -112.5 34t-37.5 96q0 23 4 43l29 166h156l-23 -135q-3 -18 -3 -30q0 -30 15.5 -41t46.5 -11q39 0 75 9l36 208h160l-87 -498h-160z" />
    <glyph glyph-name="uni0448" unicode="&#x448;" horiz-adv-x="900" 
d="M10 0l87 498h160l-65 -374h141l65 374h160l-65 -374h141l65 374h160l-87 -498h-762z" />
    <glyph glyph-name="uni0449" unicode="&#x449;" horiz-adv-x="922" 
d="M685 -125l22 125h-697l88 498h160l-66 -374h141l66 374h160l-66 -374h141l66 374h160l-66 -374h69l-44 -249h-134z" />
    <glyph glyph-name="uni044A" unicode="&#x44a;" horiz-adv-x="638" 
d="M84 0l65 376h-117l21 122h278l-28 -163h83q94 0 146 -40t52 -110q0 -94 -63 -139.5t-176 -45.5h-261zM263 108h62q100 0 100 66q0 55 -80 55h-61z" />
    <glyph glyph-name="uni044B" unicode="&#x44b;" horiz-adv-x="835" 
d="M10 0l87 498h160l-28 -163h78q94 0 146 -40t52 -110q0 -94 -63 -139.5t-176 -45.5h-256zM189 108h57q100 0 100 66q0 55 -80 55h-56zM547 0l87 498h160l-87 -498h-160z" />
    <glyph glyph-name="uni044C" unicode="&#x44c;" horiz-adv-x="564" 
d="M10 0l87 498h160l-28 -163h83q94 0 146 -40t52 -110q0 -94 -63 -139.5t-176 -45.5h-261zM189 108h62q100 0 100 66q0 55 -80 55h-61z" />
    <glyph glyph-name="uni044D" unicode="&#x44d;" horiz-adv-x="508" 
d="M163 -18q-129 0 -195 71l82 102q41 -44 111 -44q43 0 82 24.5t51 68.5h-172l18 104h164q-6 36 -36.5 59t-74.5 23q-70 0 -118 -46l-63 106q36 28 91 46t110 18q117 0 183 -62t66 -172q0 -129 -84 -213.5t-215 -84.5z" />
    <glyph glyph-name="uni044E" unicode="&#x44e;" horiz-adv-x="863" 
d="M522 -14q-103 0 -171.5 58t-70.5 154h-76l-34 -198h-160l87 498h160l-31 -178h74q32 87 104 140.5t168 53.5q107 0 176 -62t69 -157q0 -125 -80.5 -217t-214.5 -92zM659 278q0 46 -24.5 75.5t-70.5 29.5q-54 0 -91 -47.5t-37 -113.5q0 -43 24.5 -73.5t69.5 -30.5
q58 0 93.5 49.5t35.5 110.5z" />
    <glyph glyph-name="uni044F" unicode="&#x44f;" horiz-adv-x="601" 
d="M-15 0l155 185q-80 38 -80 128q0 94 63 139.5t176 45.5h261l-87 -498h-160l29 163h-45l-123 -163h-189zM292 268h68l22 126h-70q-104 0 -104 -69q0 -57 84 -57z" />
    <glyph glyph-name="uni0450" unicode="&#x450;" horiz-adv-x="587" 
d="M288 716l109 -144h-120l-152 144h163zM265 -15q-107 0 -176 59.5t-69 164.5q0 129 85 216.5t215 87.5q100 0 160 -55.5t60 -154.5q0 -45 -13 -97h-357q-1 -4 -1 -9q0 -40 33 -64.5t77 -24.5q70 0 119 52l101 -79q-90 -96 -234 -96zM181 304h216q1 7 1 20q0 34 -24.5 55.5
t-66.5 21.5q-49 0 -83 -30.5t-43 -66.5z" />
    <glyph glyph-name="uni0451" unicode="&#x451;" horiz-adv-x="587" 
d="M329 664q0 -36 -24 -61t-60 -25q-34 0 -56 20.5t-22 52.5q0 37 24.5 61.5t60.5 24.5q34 0 55.5 -20.5t21.5 -52.5zM548 664q0 -36 -24 -61t-60 -25q-34 0 -56 20.5t-22 52.5q0 37 24.5 61.5t61.5 24.5q33 0 54.5 -20.5t21.5 -52.5zM265 -15q-107 0 -176 59.5t-69 164.5
q0 129 85 216.5t215 87.5q100 0 160 -55.5t60 -154.5q0 -45 -13 -97h-357q-1 -4 -1 -9q0 -40 33 -64.5t77 -24.5q70 0 119 52l101 -79q-90 -96 -234 -96zM181 304h216q1 7 1 20q0 34 -24.5 55.5t-66.5 21.5q-49 0 -83 -30.5t-43 -66.5z" />
    <glyph glyph-name="uni0452" unicode="&#x452;" horiz-adv-x="615" 
d="M256 -240q-46 0 -75 10l29 128q19 -8 42 -8q39 0 57 25.5t25 68.5l50 286q5 35 5 42q0 67 -66 67q-42 0 -69 -31t-36 -80l-48 -268h-160l99 564h-65l16 95h66l17 97h161l-17 -97h137l-16 -95h-138l-23 -131h2q23 33 62 55.5t86 22.5q79 0 119 -43t40 -108q0 -33 -5 -54
l-57 -320q-9 -48 -24 -85t-41.5 -70.5t-70 -52t-102.5 -18.5z" />
    <glyph glyph-name="uni0453" unicode="&#x453;" horiz-adv-x="439" 
d="M498 716l-170 -144h-122l129 144h163zM10 0l87 498h347l-21 -122h-187l-66 -376h-160z" />
    <glyph glyph-name="uni0454" unicode="&#x454;" horiz-adv-x="508" 
d="M269 -18q-117 0 -183 62t-66 172q0 129 84 213.5t215 84.5q129 0 195 -71l-82 -100q-41 44 -111 44q-46 0 -80.5 -22t-47.5 -57h171l-18 -104h-170q3 -42 33 -67t80 -25q65 0 113 46l68 -112q-36 -28 -91 -46t-110 -18z" />
    <glyph glyph-name="uni0455" unicode="&#x455;" horiz-adv-x="464" 
d="M179 -18q-138 0 -211 86l100 91q39 -57 115 -57q32 0 51.5 12t19.5 33q0 19 -16.5 30.5t-54.5 22.5q-74 22 -108 53t-34 87q0 79 65.5 126t159.5 47q59 0 109.5 -20t79.5 -57l-101 -85q-34 46 -97 46q-29 0 -49 -11t-20 -33q0 -16 15 -25.5t50 -19.5q75 -20 113 -54.5
t38 -95.5q0 -85 -66.5 -130.5t-158.5 -45.5z" />
    <glyph glyph-name="uni0456" unicode="&#x456;" horiz-adv-x="294" 
d="M11 0l87 498h161l-89 -498h-159zM200 569q-38 0 -62.5 23t-24.5 57q0 40 27.5 68t67.5 28q37 0 61 -23t24 -57q0 -40 -26.5 -68t-66.5 -28z" />
    <glyph glyph-name="uni0457" unicode="&#x457;" horiz-adv-x="294" 
d="M172 664q0 -36 -24 -61t-60 -25q-34 0 -56 20.5t-22 52.5q0 37 24.5 61.5t60.5 24.5q34 0 55.5 -20.5t21.5 -52.5zM391 664q0 -36 -24 -61t-60 -25q-34 0 -56 20.5t-22 52.5q0 37 24.5 61.5t61.5 24.5q33 0 54.5 -20.5t21.5 -52.5zM172 0h-159l87 498h161z" />
    <glyph glyph-name="uni0458" unicode="&#x458;" horiz-adv-x="297" 
d="M-59 -244q-37 0 -69 9l29 133q15 -5 34 -5q34 0 51 22.5t24 65.5l91 517h161l-91 -517q-9 -51 -23 -87.5t-39 -69.5t-67.5 -50.5t-100.5 -17.5zM203 569q-38 0 -62.5 23t-24.5 57q0 40 27.5 68t67.5 28q37 0 61 -23t24 -57q0 -40 -26.5 -68t-66.5 -28z" />
    <glyph glyph-name="uni0459" unicode="&#x459;" horiz-adv-x="905" 
d="M44 -6q-61 0 -85 8l21 120q12 -4 31 -4q40 0 68.5 42.5t48.5 152.5l33 185h438l-29 -163h83q94 0 146 -40t52 -110q0 -94 -63 -139.5t-176 -45.5h-261l66 376h-123l-16 -93q-29 -159 -83.5 -224t-150.5 -65zM530 108h62q100 0 100 66q0 55 -80 55h-61z" />
    <glyph glyph-name="uni045A" unicode="&#x45a;" horiz-adv-x="886" 
d="M10 0l87 498h160l-30 -173h162l30 173h160l-30 -173h91q92 0 142 -38.5t50 -106.5q0 -180 -232 -180h-268l36 208h-162l-36 -208h-160zM511 111h69q93 0 93 62q0 51 -75 51h-67z" />
    <glyph glyph-name="uni045B" unicode="&#x45b;" horiz-adv-x="615" 
d="M10 0l99 564h-65l16 95h66l17 97h161l-17 -97h137l-16 -95h-138l-23 -131h2q23 33 62 55.5t86 22.5q79 0 119 -43t40 -108q0 -33 -5 -54l-54 -306h-160l47 270q5 23 5 42q0 67 -66 67q-42 0 -69 -31t-36 -80l-48 -268h-160z" />
    <glyph glyph-name="uni045C" unicode="&#x45c;" horiz-adv-x="575" 
d="M560 716l-170 -144h-122l129 144h163zM10 0l87 498h160l-37 -211h3l193 211h203l-245 -247l159 -251h-190l-131 225h-3l-39 -225h-160z" />
    <glyph glyph-name="uni045D" unicode="&#x45d;" horiz-adv-x="639" 
d="M329 716l109 -144h-120l-152 144h163zM10 0l87 498h157l-51 -290h2l224 290h169l-87 -498h-155l49 283h-3l-219 -283h-173z" />
    <glyph glyph-name="uni045E" unicode="&#x45e;" horiz-adv-x="556" 
d="M323 572q-67 0 -110.5 33.5t-46.5 97.5l82 16q9 -59 78 -59q74 0 91 59l78 -16q-32 -131 -172 -131zM42 -240q-47 0 -82 11l24 132q22 -9 47 -9q32 0 52 16t40 51l24 41l-115 496h175l50 -326h2l165 326h170l-326 -573q-50 -88 -97 -126.5t-129 -38.5z" />
    <glyph glyph-name="uni045F" unicode="&#x45f;" horiz-adv-x="620" 
d="M162 -125l22 125h-174l88 498h160l-66 -374h162l66 374h160l-88 -498h-174l-22 -125h-134z" />
    <glyph glyph-name="uni0490" unicode="&#x490;" horiz-adv-x="508" 
d="M18 0l125 708h299l24 132h136l-50 -276h-269l-99 -564h-166z" />
    <glyph glyph-name="uni0491" unicode="&#x491;" horiz-adv-x="439" 
d="M10 0l87 498h228l21 115h119l-43 -241h-187l-65 -372h-160z" />
    <glyph glyph-name="Wgrave" unicode="&#x1e80;" horiz-adv-x="1014" 
d="M1090 708l-340 -708h-166l-48 484h-3l-235 -484h-165l-62 708h176l21 -476h3l220 476h172l38 -476h3l211 476h175zM549 908l109 -144h-120l-152 144h163z" />
    <glyph glyph-name="wgrave" unicode="&#x1e81;" horiz-adv-x="856" 
d="M892 498l-272 -498h-161l-37 313h-2l-162 -313h-161l-68 498h167l24 -318h3l154 318h161l30 -318h3l153 318h168zM428 716l109 -144h-120l-152 144h163z" />
    <glyph glyph-name="Wacute" unicode="&#x1e82;" horiz-adv-x="1014" 
d="M1090 708l-340 -708h-166l-48 484h-3l-235 -484h-165l-62 708h176l21 -476h3l220 476h172l38 -476h3l211 476h175zM806 908l-170 -144h-122l129 144h163z" />
    <glyph glyph-name="wacute" unicode="&#x1e83;" horiz-adv-x="856" 
d="M892 498l-272 -498h-161l-37 313h-2l-162 -313h-161l-68 498h167l24 -318h3l154 318h161l30 -318h3l153 318h168zM694 716l-170 -144h-122l129 144h163z" />
    <glyph glyph-name="Wdieresis" unicode="&#x1e84;" horiz-adv-x="1014" 
d="M1090 708l-340 -708h-166l-48 484h-3l-235 -484h-165l-62 708h176l21 -476h3l220 476h172l38 -476h3l211 476h175zM571 856q0 -36 -24 -61t-60 -25q-34 0 -56 20.5t-22 52.5q0 37 24.5 61.5t60.5 24.5q34 0 55.5 -20.5t21.5 -52.5zM790 856q0 -36 -24 -61t-60 -25
q-34 0 -56 20.5t-22 52.5q0 37 24.5 61.5t61.5 24.5q33 0 54.5 -20.5t21.5 -52.5z" />
    <glyph glyph-name="wdieresis" unicode="&#x1e85;" horiz-adv-x="856" 
d="M892 498l-272 -498h-161l-37 313h-2l-162 -313h-161l-68 498h167l24 -318h3l154 318h161l30 -318h3l153 318h168zM453 664q0 -36 -24 -61t-60 -25q-34 0 -56 20.5t-22 52.5q0 37 24.5 61.5t60.5 24.5q34 0 55.5 -20.5t21.5 -52.5zM672 664q0 -36 -24 -61t-60 -25
q-34 0 -56 20.5t-22 52.5q0 37 24.5 61.5t61.5 24.5q33 0 54.5 -20.5t21.5 -52.5z" />
    <glyph glyph-name="Ygrave" unicode="&#x1ef2;" horiz-adv-x="613" 
d="M727 708l-344 -407l-54 -301h-166l53 301l-181 407h186l101 -268l203 268h202zM343 908l109 -144h-120l-152 144h163z" />
    <glyph glyph-name="ygrave" unicode="&#x1ef3;" horiz-adv-x="556" 
d="M594 498l-326 -573q-48 -87 -95.5 -126t-130.5 -39q-47 0 -82 11l24 132q22 -9 47 -9q32 0 52 16t40 51l24 41l-115 496h175l50 -326h2l165 326h170zM285 716l109 -144h-120l-152 144h163z" />
    <glyph glyph-name="uni2010" unicode="&#x2010;" horiz-adv-x="326" 
d="M268 197h-253l23 127h252z" />
    <glyph glyph-name="endash" unicode="&#x2013;" horiz-adv-x="400" 
d="M361 210h-340l18 103h340z" />
    <glyph glyph-name="emdash" unicode="&#x2014;" horiz-adv-x="600" 
d="M561 209h-540l18 104h540z" />
    <glyph glyph-name="quoteleft" unicode="&#x2018;" horiz-adv-x="294" 
d="M324 708l-119 -270h-142l138 270h123z" />
    <glyph glyph-name="quoteright" unicode="&#x2019;" horiz-adv-x="294" 
d="M324 708l-138 -270h-123l119 270h142z" />
    <glyph glyph-name="quotesinglbase" unicode="&#x201a;" horiz-adv-x="301" 
d="M228 144l-138 -271h-123l119 271h142z" />
    <glyph glyph-name="quotedblleft" unicode="&#x201c;" horiz-adv-x="500" 
d="M530 708l-119 -270h-141l136 270h124zM324 708l-121 -270h-140l138 270h123z" />
    <glyph glyph-name="quotedblright" unicode="&#x201d;" horiz-adv-x="500" 
d="M530 708l-138 -270h-123l121 270h140zM322 708l-136 -270h-123l120 270h139z" />
    <glyph glyph-name="quotedblbase" unicode="&#x201e;" horiz-adv-x="501" 
d="M430 144l-137 -271h-124l121 271h140zM223 144l-136 -271h-123l119 271h140z" />
    <glyph glyph-name="dagger" unicode="&#x2020;" horiz-adv-x="601" 
d="M575 385h-195l-90 -514h-139l91 514h-193l22 122h191l36 201h139l-35 -201h194z" />
    <glyph glyph-name="daggerdbl" unicode="&#x2021;" horiz-adv-x="601" 
d="M513 51h-190l-32 -180h-139l32 180h-189l21 121h189l42 236h-189l21 121h188l32 179h139l-32 -179h190l-20 -121h-191l-42 -236h190z" />
    <glyph glyph-name="bullet" unicode="&#x2022;" horiz-adv-x="500" 
d="M427 354q0 -74 -51.5 -125.5t-125.5 -51.5t-125.5 51.5t-51.5 125.5t51.5 125.5t125.5 51.5t125.5 -51.5t51.5 -125.5z" />
    <glyph glyph-name="ellipsis" unicode="&#x2026;" horiz-adv-x="1000" 
d="M229 94q0 -42 -29 -71.5t-71 -29.5q-41 0 -66.5 24t-25.5 61q0 43 29 72.5t72 29.5q39 0 65 -24.5t26 -61.5zM563 94q0 -42 -29 -71.5t-71 -29.5q-41 0 -66.5 24t-25.5 61q0 43 29 72.5t72 29.5q39 0 65 -24.5t26 -61.5zM897 94q0 -42 -29 -71.5t-71 -29.5
q-41 0 -66.5 24t-25.5 61q0 43 29 72.5t72 29.5q39 0 65 -24.5t26 -61.5z" />
    <glyph glyph-name="perthousand" unicode="&#x2030;" horiz-adv-x="1250" 
d="M1215 192q0 -87 -57 -146t-143 -59q-72 0 -117.5 42t-45.5 110q0 86 57 144.5t144 58.5q72 0 117 -41.5t45 -108.5zM1107 179q0 27 -17 45.5t-46 18.5q-37 0 -60.5 -26.5t-23.5 -65.5q0 -27 17 -46t45 -19q38 0 61.5 26.5t23.5 66.5zM818 192q0 -87 -57 -146t-143 -59
q-72 0 -117.5 42t-45.5 110q0 86 57 144.5t144 58.5q72 0 117 -41.5t45 -108.5zM710 179q0 27 -17 45.5t-46 18.5q-37 0 -60.5 -26.5t-23.5 -65.5q0 -27 17 -46t45 -19q38 0 61.5 26.5t23.5 66.5zM429 570q0 -87 -57 -146t-143 -59q-72 0 -117.5 42t-45.5 110q0 86 57 144.5
t144 58.5q72 0 117 -41.5t45 -108.5zM321 556q0 28 -17 46.5t-46 18.5q-37 0 -60.5 -26.5t-23.5 -65.5q0 -28 17 -46.5t45 -18.5q38 0 61.5 26.5t23.5 65.5zM718 694l-496 -729l-71 46l495 729z" />
    <glyph glyph-name="guilsinglleft" unicode="&#x2039;" horiz-adv-x="317" 
d="M238 84l-102 -59l-119 233l201 229l83 -62l-148 -171z" />
    <glyph glyph-name="guilsinglright" unicode="&#x203a;" horiz-adv-x="317" 
d="M281 253l-202 -230l-84 64l150 174l-86 170l101 56z" />
    <glyph glyph-name="interrobang" unicode="&#x203d;" horiz-adv-x="543" 
d="M331 224h-149l47 280h131l-25 -113h1q46 42 63.5 72.5t17.5 64.5q0 33 -22 53.5t-64 20.5q-43 0 -72 -24.5t-39 -62.5l-143 26q22 84 94 135t175 51q97 0 157 -45t60 -137q0 -67 -38.5 -117.5t-114.5 -100.5q-69 -45 -76 -86zM338 92q0 -42 -28 -71t-69 -29
q-40 0 -65.5 23.5t-25.5 60.5q0 42 29 71t70 29q39 0 64 -24t25 -60z" />
    <glyph glyph-name="fraction" unicode="&#x2044;" horiz-adv-x="100" 
d="M342 695l-522 -729l-72 45l522 729z" />
    <glyph glyph-name="zero.superior" unicode="&#x2070;" horiz-adv-x="420" 
d="M299 889q77 0 112.5 -44.5t35.5 -112.5q0 -50 -11 -98.5t-34 -94t-65 -73.5t-97 -28q-77 0 -114 44t-37 112q0 50 11.5 99t35 94.5t66 73.5t97.5 28zM291 794q-39 0 -63.5 -57t-24.5 -129q0 -75 44 -75q37 0 61.5 57t24.5 131q0 73 -42 73z" />
    <glyph glyph-name="four.superior" unicode="&#x2074;" horiz-adv-x="420" 
d="M442 620l-16 -89h-59l-15 -85h-102l15 85h-201l16 90l218 260h129l-45 -261h60zM305 761h-3l-113 -141h91z" />
    <glyph glyph-name="five.superior" unicode="&#x2075;" horiz-adv-x="420" 
d="M422 603q0 -80 -52.5 -122.5t-121.5 -42.5q-62 0 -106 28t-60 79l101 33q15 -47 63 -47q30 0 47.5 16.5t17.5 45.5q0 56 -70 56q-49 0 -112 -24l55 256h261l-18 -95h-165l-12 -56q16 3 33 3q56 0 97.5 -32t41.5 -98z" />
    <glyph glyph-name="six.superior" unicode="&#x2076;" horiz-adv-x="420" 
d="M429 609q0 -71 -49.5 -121t-134.5 -50q-71 0 -116 37t-45 104q0 69 65 145l135 157h139l-137 -149l1 -1q10 2 16 2q58 0 92 -36.5t34 -87.5zM318 602q0 24 -15 38.5t-37 14.5q-33 0 -52.5 -20.5t-19.5 -52.5q0 -24 16 -38t39 -14q32 0 50.5 19.5t18.5 52.5z" />
    <glyph glyph-name="seven.superior" unicode="&#x2077;" horiz-adv-x="420" 
d="M222 446h-132l239 340h-190l17 95h314l-15 -85z" />
    <glyph glyph-name="eight.superior" unicode="&#x2078;" horiz-adv-x="420" 
d="M438 779q0 -42 -24 -69t-59 -38v-2q26 -12 43 -35t17 -53q0 -67 -48 -105.5t-126 -38.5q-59 0 -104.5 29.5t-45.5 92.5q0 45 28 76t69 42v2q-50 28 -50 79q0 62 48 96t113 34q58 0 98.5 -28t40.5 -82zM281 712q22 0 37 14t15 37q0 18 -12 28.5t-31 10.5
q-23 0 -37.5 -13.5t-14.5 -35.5q0 -18 12 -29.5t31 -11.5zM247 526q29 0 46 16t17 41q0 21 -14 34t-36 13q-27 0 -45 -16.5t-18 -40.5q0 -23 15 -35t35 -12z" />
    <glyph glyph-name="nine.superior" unicode="&#x2079;" horiz-adv-x="420" 
d="M255 446h-139l137 148l-1 1q-4 -1 -16 -1q-58 0 -92 36.5t-34 87.5q0 72 50 121.5t134 49.5q70 0 115.5 -37.5t45.5 -104.5q0 -69 -65 -144zM345 745q0 24 -17 38t-39 14q-32 0 -50 -20t-18 -52q0 -24 15 -38t37 -14q33 0 52.5 20t19.5 52z" />
    <glyph glyph-name="zero.inferior" unicode="&#x2080;" horiz-adv-x="420" 
d="M195 298q77 0 112.5 -44.5t35.5 -112.5q0 -50 -11 -98.5t-34 -94t-65 -73.5t-97 -28q-77 0 -114 44t-37 112q0 50 11.5 99t35 94.5t66 73.5t97.5 28zM187 203q-39 0 -63.5 -57t-24.5 -129q0 -75 44 -75q37 0 61.5 57t24.5 131q0 73 -42 73z" />
    <glyph glyph-name="one.inferior" unicode="&#x2081;" horiz-adv-x="420" 
d="M212 -145h-114l55 308l-84 -55l-42 81l160 101h102z" />
    <glyph glyph-name="two.inferior" unicode="&#x2082;" horiz-adv-x="420" 
d="M16 169q19 61 65.5 95t109.5 34q64 0 105.5 -32t41.5 -89q0 -49 -24 -80.5t-78 -71.5l-101 -73h166l-17 -97h-314l16 92l191 147q50 37 50 69q0 41 -46 41q-48 0 -64 -57z" />
    <glyph glyph-name="three.inferior" unicode="&#x2083;" horiz-adv-x="420" 
d="M137 119q76 0 76 54q0 35 -41 35q-43 0 -62 -40l-90 36q47 94 159 94q62 0 102.5 -31.5t40.5 -84.5q0 -38 -23.5 -65t-57.5 -36q62 -22 62 -87q0 -71 -50.5 -109t-120.5 -38q-62 0 -104.5 29t-57.5 83l101 27q11 -46 63 -46q27 0 43 13.5t16 36.5q0 49 -72 49h-30l13 80
h33z" />
    <glyph glyph-name="four.inferior" unicode="&#x2084;" horiz-adv-x="420" 
d="M338 29l-16 -89h-59l-15 -85h-102l15 85h-201l16 90l218 260h129l-45 -261h60zM201 170h-3l-113 -141h91z" />
    <glyph glyph-name="five.inferior" unicode="&#x2085;" horiz-adv-x="420" 
d="M318 12q0 -80 -52.5 -122.5t-121.5 -42.5q-62 0 -106 28t-60 79l101 33q15 -47 63 -47q30 0 47.5 16.5t17.5 45.5q0 56 -70 56q-49 0 -112 -24l55 256h261l-18 -95h-165l-12 -56q16 3 33 3q56 0 97.5 -32t41.5 -98z" />
    <glyph glyph-name="six.inferior" unicode="&#x2086;" horiz-adv-x="420" 
d="M325 18q0 -72 -49.5 -121.5t-134.5 -49.5q-71 0 -116 37t-45 104q0 69 65 145l135 157h139l-137 -149l1 -1q10 2 16 2q58 0 92 -36.5t34 -87.5zM214 11q0 24 -15 38.5t-37 14.5q-33 0 -52.5 -20.5t-19.5 -52.5q0 -24 16 -38t39 -14q32 0 50.5 19.5t18.5 52.5z" />
    <glyph glyph-name="seven.inferior" unicode="&#x2087;" horiz-adv-x="420" 
d="M118 -145h-132l239 340h-190l17 95h314l-15 -85z" />
    <glyph glyph-name="eight.inferior" unicode="&#x2088;" horiz-adv-x="420" 
d="M334 188q0 -42 -24 -69t-59 -38v-2q26 -12 43 -35t17 -53q0 -67 -48 -105.5t-126 -38.5q-59 0 -104.5 29.5t-45.5 92.5q0 45 28 76t69 42v2q-50 28 -50 79q0 62 48 96t113 34q58 0 98.5 -28t40.5 -82zM177 121q22 0 37 14t15 37q0 18 -12 28.5t-31 10.5
q-23 0 -37.5 -13.5t-14.5 -35.5q0 -18 12 -29.5t31 -11.5zM143 -65q29 0 46 16t17 41q0 21 -14 34t-36 13q-27 0 -45 -16.5t-18 -40.5q0 -23 15 -35t35 -12z" />
    <glyph glyph-name="nine.inferior" unicode="&#x2089;" horiz-adv-x="420" 
d="M151 -145h-139l137 148l-1 1q-4 -1 -16 -1q-58 0 -92 36.5t-34 87.5q0 71 50 121t134 50q70 0 115.5 -37.5t45.5 -104.5q0 -69 -65 -144zM241 154q0 24 -17 38t-39 14q-32 0 -50 -20t-18 -52q0 -24 15 -38t37 -14q33 0 52.5 20t19.5 52z" />
    <glyph glyph-name="Euro" unicode="&#x20ac;" horiz-adv-x="644" 
d="M549 143l21 -123q-67 -39 -170 -39q-126 0 -200 65.5t-84 169.5h-97l52 103h45q2 30 13 71h-78l55 104h53q44 105 134.5 169t214.5 64q96 0 156 -30l-58 -123q-42 24 -110 24q-54 0 -100 -28t-71 -76h249l-50 -104h-241q-11 -28 -13 -71h229l-50 -103h-177
q6 -46 47.5 -75.5t102.5 -29.5q68 0 127 32z" />
    <glyph glyph-name="afii61248" unicode="&#x2105;" horiz-adv-x="934" 
d="M240 352q-77 0 -125 43t-48 113q0 88 61 152t156 64q89 0 135 -59l-79 -74q-22 30 -60 30q-40 0 -66 -29t-26 -70q0 -28 16.5 -46t50.5 -18q41 0 71 32l61 -79q-64 -59 -147 -59zM221 -35l-71 46l546 729l72 -46zM878 206q0 -92 -58 -154.5t-156 -62.5q-78 0 -129 42
t-51 113q0 92 58 154.5t155 62.5q79 0 130 -42.5t51 -112.5zM759 194q0 29 -18 46.5t-50 17.5q-40 0 -64 -29t-24 -72q0 -29 17.5 -47t48.5 -18q41 0 65.5 29.5t24.5 72.5z" />
    <glyph glyph-name="afii61289" unicode="&#x2113;" horiz-adv-x="500" 
d="M513 586q0 -82 -61.5 -157.5t-202.5 -165.5q-25 -100 -25 -123q0 -41 40 -41q35 0 97 39h2l38 -90q-91 -62 -185 -62q-71 0 -109.5 34.5t-38.5 91.5q0 11 7 50l-58 -40h-2l-41 88l128 82l48 229q20 92 79.5 146t143.5 54q61 0 100.5 -39t39.5 -96zM384 579q0 17 -8 28.5
t-20 11.5q-30 0 -43 -59l-35 -162q47 39 76.5 87.5t29.5 93.5z" />
    <glyph glyph-name="uni2116" unicode="&#x2116;" horiz-adv-x="1058" 
d="M18 0l125 708h176l150 -433h3l77 433h160l-125 -708h-179l-149 422h-4l-74 -422h-160zM724 286l15 85h289l-15 -85h-289zM903 419q-64 0 -103.5 34.5t-39.5 90.5q0 76 48 125t124 49q63 0 103.5 -34t40.5 -91q0 -77 -48.5 -125.5t-124.5 -48.5zM909 502q31 0 51 23.5
t20 57.5q0 23 -14.5 37.5t-39.5 14.5q-31 0 -50.5 -23.5t-19.5 -56.5q0 -24 14 -38.5t39 -14.5z" />
    <glyph glyph-name="published" unicode="&#x2117;" horiz-adv-x="800" 
d="M20 353q0 157 111.5 267t269.5 110q157 0 268 -110t111 -267q0 -156 -111 -265.5t-268 -109.5q-158 0 -269.5 109.5t-111.5 265.5zM80 353q0 -132 93 -225.5t226 -93.5q132 0 226.5 93.5t94.5 225.5q0 133 -93.5 227t-225.5 94q-133 0 -227 -94t-94 -227zM260 125v444
h178q80 0 128.5 -37t48.5 -111t-50 -112.5t-127 -38.5h-59v-145h-119zM379 366h55q64 0 64 54q0 53 -62 53h-57v-107z" />
    <glyph glyph-name="trademark" unicode="&#x2122;" horiz-adv-x="1000" 
d="M1028 296h-106v259h-2l-97 -259h-79l-96 259h-2v-259h-105v412h150l95 -260l92 260h150v-412zM466 613h-118v-317h-110v317h-118v95h346v-95z" />
    <glyph glyph-name="Omega" unicode="&#x2126;" horiz-adv-x="777" 
d="M675 0h-296l37 213q79 18 118.5 76.5t39.5 135.5q0 65 -39 109t-107 44q-87 0 -140.5 -62.5t-53.5 -151.5q0 -124 108 -150l-38 -214h-289l23 140h166l2 12q-65 19 -105 76t-40 143q0 65 25 127.5t71.5 113.5t121.5 82.5t167 31.5q139 0 220 -71t81 -186
q0 -112 -58.5 -200.5t-158.5 -116.5l-2 -12h172z" />
    <glyph glyph-name="estimated" unicode="&#x212e;" horiz-adv-x="500" 
d="M561 259h-404v-181q59 -59 145 -59q122 0 193 120l35 -21q-46 -72 -98 -103.5t-130 -31.5q-115 0 -186.5 79t-71.5 197q0 119 71 197.5t187 78.5q115 0 186.5 -77t72.5 -199zM157 295h291v145q-63 60 -147 60t-144 -60v-145z" />
    <glyph glyph-name="partialdiff" unicode="&#x2202;" horiz-adv-x="666" 
d="M427 428q-1 61 -34 107.5t-95 46.5q-80 0 -137 -66l-77 112q93 93 215 93q64 0 115.5 -22t83.5 -57t53 -83t29.5 -97.5t8.5 -102.5t-6 -100t-24.5 -98.5t-47.5 -88.5t-79 -61t-116 -24q-109 0 -178 67.5t-69 174.5q0 101 64.5 164.5t175.5 63.5q65 0 118 -29zM420 292
q-47 36 -92 36t-69 -29t-24 -77q0 -45 23.5 -73.5t60.5 -28.5q51 0 76 47t25 112v13z" />
    <glyph glyph-name="Delta" unicode="&#x2206;" horiz-adv-x="722" 
d="M-48 0l19 88l402 620h163l123 -607l-22 -101h-685zM417 526l-230 -385h294z" />
    <glyph glyph-name="product" unicode="&#x220f;" horiz-adv-x="753" 
d="M695 -214h-152v867h-333v-867h-151v1000h636v-1000z" />
    <glyph glyph-name="summation" unicode="&#x2211;" horiz-adv-x="666" 
d="M644 -214h-618v111l292 395l-280 383v111h594v-133h-402l256 -360l-273 -374h431v-133z" />
    <glyph glyph-name="minus" unicode="&#x2212;" horiz-adv-x="666" 
d="M598 242h-530v123h530v-123z" />
    <glyph glyph-name="uni2215" unicode="&#x2215;" horiz-adv-x="100" 
d="M342 695l-522 -729l-72 45l522 729z" />
    <glyph glyph-name="uni2219" unicode="&#x2219;" 
d="M245 301q0 -42 -28.5 -71.5t-70.5 -29.5q-41 0 -66.5 24t-25.5 61q0 43 29 72.5t72 29.5q39 0 64.5 -24.5t25.5 -61.5z" />
    <glyph glyph-name="radical" unicode="&#x221a;" horiz-adv-x="569" 
d="M579 786l-214 -1000h-126l-145 300l-51 -24l-54 114l175 79l112 -239l158 770h145z" />
    <glyph glyph-name="infinity" unicode="&#x221e;" horiz-adv-x="837" 
d="M792 266q0 -82 -49.5 -136.5t-133.5 -54.5q-97 0 -190 103q-47 -50 -88.5 -76t-99.5 -26q-84 0 -135 53.5t-51 135.5q0 80 49.5 133.5t132.5 53.5q59 0 103.5 -28.5t88.5 -80.5q43 51 87.5 80.5t103.5 29.5q83 0 132.5 -53.5t49.5 -133.5zM674 263q0 31 -18 51t-49 20
q-47 0 -114 -72q62 -68 117 -68q29 0 46.5 19.5t17.5 49.5zM344 262q-71 71 -117 71q-28 0 -46 -20.5t-18 -49.5q0 -31 18 -49.5t49 -18.5q51 0 114 67z" />
    <glyph glyph-name="integral" unicode="&#x222b;" horiz-adv-x="633" 
d="M519 696q0 -28 -18.5 -47.5t-47.5 -19.5q-23 0 -36 13t-21 28.5t-16 18.5q-11 -10 -11 -53q0 -14 1 -41.5t1 -41.5v-440q0 -76 -2 -113q-2 -44 -9.5 -78.5t-24.5 -67t-50.5 -50.5t-81.5 -18q-46 0 -85 23t-39 69q0 10 5 18q5 20 22.5 33t39.5 13t35 -13t20 -27.5
t15 -17.5q12 6 12 47q1 15 -0.5 42.5t-1.5 37.5v496q0 32 0.5 53t4 53t10 53.5t19 46t30.5 39t45 24t61 9.5q43 0 83 -22.5t40 -66.5z" />
    <glyph glyph-name="approxequal" unicode="&#x2248;" horiz-adv-x="666" 
d="M580 468q-8 -91 -50.5 -141.5t-110.5 -50.5q-42 0 -130 32t-116 32q-20 0 -33 -16t-18 -39h-96q7 78 46.5 130.5t115.5 52.5q41 0 123.5 -29.5t121.5 -29.5q42 0 50 59h97zM579 247q-6 -49 -20.5 -87t-50.5 -67.5t-88 -29.5q-43 0 -132 32.5t-116 32.5q-20 0 -33.5 -17
t-18.5 -45h-96q7 79 46 135t112 56q42 0 126 -30.5t125 -30.5q37 0 49 51h97z" />
    <glyph glyph-name="notequal" unicode="&#x2260;" horiz-adv-x="666" 
d="M569 110h-273l-74 -146l-115 56l47 90h-102v127h167l43 84h-210v127h275l75 145l115 -55l-47 -90h99v-127h-164l-43 -84h207v-127z" />
    <glyph glyph-name="lessequal" unicode="&#x2264;" horiz-adv-x="666" 
d="M587 18h-508v123h508v-123zM587 154l-508 214v103l508 214v-136l-306 -131l306 -127v-137z" />
    <glyph glyph-name="greaterequal" unicode="&#x2265;" horiz-adv-x="666" 
d="M79 18v123h508v-123h-508zM79 154v137l306 127l-306 131v136l508 -214v-103z" />
    <glyph glyph-name="lozenge" unicode="&#x25ca;" horiz-adv-x="606" 
d="M546 356l-184 -391h-120l-181 391l182 391h119zM405 356l-103 241l-101 -241l101 -241z" />
    <glyph glyph-name="f_i" unicode="&#xf001;" horiz-adv-x="659" 
d="M443 765l-29 -128q-19 8 -42 8q-67 0 -85 -94l-9 -53h112l-21 -120h-110l-67 -378h-157l67 378h-91l21 120h88l10 51q9 48 24 85t41.5 70.5t70 52t102.5 18.5q46 0 75 -10zM535 0h-159l87 498h161zM658 665q0 -40 -26.5 -68t-66.5 -28q-38 0 -62.5 23t-24.5 57
q0 40 27.5 68t67.5 28q37 0 61 -23t24 -57z" />
    <glyph glyph-name="f_l" unicode="&#xf002;" horiz-adv-x="659" 
d="M443 765l-29 -128q-19 8 -42 8q-67 0 -85 -94l-9 -53h112l-21 -120h-110l-67 -378h-157l67 378h-91l21 120h88l10 51q9 48 24 85t41.5 70.5t70 52t102.5 18.5q46 0 75 -10zM536 0h-162l133 756h163z" />
    <glyph glyph-name="uniF8FF" unicode="&#xf8ff;" horiz-adv-x="512" 
d="M278 117h-56v67h56v-67zM271 234h-46l-2 17q0 56 13 81q15 28 46 59q31 29 40.5 46t9.5 37q0 36 -22.5 60.5t-53.5 24.5q-71 0 -82 -95l-50 8q7 69 43 103t92 34q54 0 89 -36t35 -95q0 -34 -13 -60t-50 -60q-37 -33 -43 -52q-6 -20 -6 -72zM50 50h412v617h-412v-617z
M0 718h512v-718h-512v718z" />
    <glyph glyph-name="grave.cap" 
d="M173 908l109 -144h-120l-152 144h163z" />
    <glyph glyph-name="acute.cap" 
d="M416 908l-170 -144h-122l129 144h163z" />
    <glyph glyph-name="circumflex.cap" 
d="M388 764h-125l-55 82l-83 -82h-127l148 144h146z" />
    <glyph glyph-name="caron.cap" 
d="M413 908l-147 -144h-145l-98 144h126l54 -83l83 83h127z" />
    <glyph glyph-name="caron.alt" 
d="M307 708l-130 -195h-123l111 195h142z" />
    <glyph glyph-name="tilde.cap" 
d="M403 900q-17 -58 -51 -94.5t-85 -36.5q-37 0 -72 19q-42 22 -65 22q-31 0 -50 -42h-71q17 57 51 93t85 36q36 0 76 -20q38 -20 62 -20q31 0 49 43h71z" />
    <glyph glyph-name="dieresis.cap" 
d="M179 856q0 -36 -24 -61t-60 -25q-34 0 -56 20.5t-22 52.5q0 37 24.5 61.5t60.5 24.5q34 0 55.5 -20.5t21.5 -52.5zM398 856q0 -36 -24 -61t-60 -25q-34 0 -56 20.5t-22 52.5q0 37 24.5 61.5t61.5 24.5q33 0 54.5 -20.5t21.5 -52.5z" />
    <glyph glyph-name="macron.cap" 
d="M365 793h-333l14 84h334z" />
    <glyph glyph-name="breve.cap" 
d="M391 908q-16 -74 -66.5 -109t-122.5 -35q-157 0 -157 144h82q0 -57 80 -57q86 0 102 57h82z" />
    <glyph glyph-name="ring.cap" 
d="M197 749q-41 0 -67 25t-26 64q0 52 34 87.5t85 35.5q41 0 67 -25t26 -63q0 -52 -34 -88t-85 -36zM267 866q0 21 -13.5 35.5t-35.5 14.5q-28 0 -46.5 -21t-18.5 -51q0 -22 13 -36t35 -14q29 0 47.5 21t18.5 51z" />
    <glyph glyph-name="hungarumlaut.cap" 
d="M521 908l-171 -144h-121l129 144h163zM302 908l-171 -144h-121l128 144h164z" />
    <glyph glyph-name="dotaccent.cap" 
d="M292 856q0 -37 -25 -63.5t-63 -26.5q-36 0 -59 21.5t-23 54.5q0 38 26 64t64 26q34 0 57 -22t23 -54z" />
    <glyph glyph-name="commaaccent" 
d="M237 -45l-130 -195h-123l111 195h142z" />
    <glyph glyph-name="commaaccent.alt" 
d="M102 572l130 195h123l-111 -195h-142z" />
    <glyph glyph-name="zero.denominator" horiz-adv-x="420" 
d="M221 443q77 0 112.5 -44.5t35.5 -112.5q0 -50 -11 -98.5t-34 -94t-65 -73.5t-97 -28q-77 0 -114 44t-37 112q0 50 11.5 99t35 94.5t66 73.5t97.5 28zM213 348q-39 0 -63.5 -57t-24.5 -129q0 -75 44 -75q37 0 61.5 57t24.5 131q0 73 -42 73z" />
    <glyph glyph-name="one.denominator" horiz-adv-x="420" 
d="M238 0h-114l55 308l-84 -55l-42 81l160 101h102z" />
    <glyph glyph-name="two.denominator" horiz-adv-x="420" 
d="M42 314q19 61 65.5 95t109.5 34q64 0 105.5 -32t41.5 -89q0 -49 -24 -80.5t-78 -71.5l-101 -73h166l-17 -97h-314l16 92l191 147q50 37 50 69q0 41 -46 41q-48 0 -64 -57z" />
    <glyph glyph-name="three.denominator" horiz-adv-x="420" 
d="M163 264q76 0 76 54q0 35 -41 35q-43 0 -62 -40l-90 36q47 94 159 94q62 0 102.5 -31.5t40.5 -84.5q0 -38 -23.5 -65t-57.5 -36q62 -22 62 -87q0 -71 -50.5 -109t-120.5 -38q-62 0 -104.5 29t-57.5 83l101 27q11 -46 63 -46q27 0 43 13.5t16 36.5q0 49 -72 49h-30l13 80
h33z" />
    <glyph glyph-name="four.denominator" horiz-adv-x="420" 
d="M364 174l-16 -89h-59l-15 -85h-102l15 85h-201l16 90l218 260h129l-45 -261h60zM227 315h-3l-113 -141h91z" />
    <glyph glyph-name="five.denominator" horiz-adv-x="420" 
d="M344 157q0 -80 -52.5 -122.5t-121.5 -42.5q-62 0 -106 28t-60 79l101 33q15 -47 63 -47q30 0 47.5 16.5t17.5 45.5q0 56 -70 56q-49 0 -112 -24l55 256h261l-18 -95h-165l-12 -56q16 3 33 3q56 0 97.5 -32t41.5 -98z" />
    <glyph glyph-name="six.denominator" horiz-adv-x="420" 
d="M351 163q0 -71 -49.5 -121t-134.5 -50q-71 0 -116 37t-45 104q0 69 65 145l135 157h139l-137 -149l1 -1q10 2 16 2q58 0 92 -36.5t34 -87.5zM240 156q0 24 -15 38.5t-37 14.5q-33 0 -52.5 -20.5t-19.5 -52.5q0 -24 16 -38t39 -14q32 0 50.5 19.5t18.5 52.5z" />
    <glyph glyph-name="seven.denominator" horiz-adv-x="420" 
d="M144 0h-132l239 340h-190l17 95h314l-15 -85z" />
    <glyph glyph-name="eight.denominator" horiz-adv-x="420" 
d="M360 333q0 -42 -24 -69t-59 -38v-2q26 -12 43 -35t17 -53q0 -67 -48 -105.5t-126 -38.5q-59 0 -104.5 29.5t-45.5 92.5q0 45 28 76t69 42v2q-50 28 -50 79q0 62 48 96t113 34q58 0 98.5 -28t40.5 -82zM203 266q22 0 37 14t15 37q0 18 -12 28.5t-31 10.5
q-23 0 -37.5 -13.5t-14.5 -35.5q0 -18 12 -29.5t31 -11.5zM169 80q29 0 46 16t17 41q0 21 -14 34t-36 13q-27 0 -45 -16.5t-18 -40.5q0 -23 15 -35t35 -12z" />
    <glyph glyph-name="nine.denominator" horiz-adv-x="420" 
d="M177 0h-139l137 148l-1 1q-4 -1 -16 -1q-58 0 -92 36.5t-34 87.5q0 72 50 121.5t134 49.5q70 0 115.5 -37.5t45.5 -104.5q0 -69 -65 -144zM267 299q0 24 -17 38t-39 14q-32 0 -50 -20t-18 -52q0 -24 15 -38t37 -14q33 0 52.5 20t19.5 52z" />
    <glyph glyph-name="zero.numerator" horiz-adv-x="420" 
d="M269 716q77 0 112.5 -44.5t35.5 -112.5q0 -50 -11 -98.5t-34 -94t-65 -73.5t-97 -28q-77 0 -114 44t-37 112q0 50 11.5 99t35 94.5t66 73.5t97.5 28zM261 621q-39 0 -63.5 -57t-24.5 -129q0 -75 44 -75q37 0 61.5 57t24.5 131q0 73 -42 73z" />
    <glyph glyph-name="one.numerator" horiz-adv-x="420" 
d="M286 273h-114l55 308l-84 -55l-42 81l160 101h102z" />
    <glyph glyph-name="two.numerator" horiz-adv-x="420" 
d="M90 587q19 61 65.5 95t109.5 34q64 0 105.5 -32t41.5 -89q0 -49 -24 -80.5t-78 -71.5l-101 -73h166l-17 -97h-314l16 92l191 147q50 37 50 69q0 41 -46 41q-48 0 -64 -57z" />
    <glyph glyph-name="three.numerator" horiz-adv-x="420" 
d="M211 537q76 0 76 54q0 35 -41 35q-43 0 -62 -40l-90 36q47 94 159 94q62 0 102.5 -31.5t40.5 -84.5q0 -38 -23.5 -65t-57.5 -36q62 -22 62 -87q0 -71 -50.5 -109t-120.5 -38q-62 0 -104.5 29t-57.5 83l101 27q11 -46 63 -46q27 0 43 13.5t16 36.5q0 49 -72 49h-30l13 80
h33z" />
    <glyph glyph-name="four.numerator" horiz-adv-x="420" 
d="M412 447l-16 -89h-59l-15 -85h-102l15 85h-201l16 90l218 260h129l-45 -261h60zM275 588h-3l-113 -141h91z" />
    <glyph glyph-name="five.numerator" horiz-adv-x="420" 
d="M392 430q0 -80 -52.5 -122.5t-121.5 -42.5q-62 0 -106 28t-60 79l101 33q15 -47 63 -47q30 0 47.5 16.5t17.5 45.5q0 56 -70 56q-49 0 -112 -24l55 256h261l-18 -95h-165l-12 -56q16 3 33 3q56 0 97.5 -32t41.5 -98z" />
    <glyph glyph-name="six.numerator" horiz-adv-x="420" 
d="M399 436q0 -72 -49.5 -121.5t-134.5 -49.5q-71 0 -116 37t-45 104q0 69 65 145l135 157h139l-137 -149l1 -1q10 2 16 2q58 0 92 -36.5t34 -87.5zM288 429q0 24 -15 38.5t-37 14.5q-33 0 -52.5 -20.5t-19.5 -52.5q0 -24 16 -38t39 -14q32 0 50.5 19.5t18.5 52.5z" />
    <glyph glyph-name="seven.numerator" horiz-adv-x="420" 
d="M192 273h-132l239 340h-190l17 95h314l-15 -85z" />
    <glyph glyph-name="eight.numerator" horiz-adv-x="420" 
d="M408 606q0 -42 -24 -69t-59 -38v-2q26 -12 43 -35t17 -53q0 -67 -48 -105.5t-126 -38.5q-59 0 -104.5 29.5t-45.5 92.5q0 45 28 76t69 42v2q-50 28 -50 79q0 62 48 96t113 34q58 0 98.5 -28t40.5 -82zM251 539q22 0 37 14t15 37q0 18 -12 28.5t-31 10.5
q-23 0 -37.5 -13.5t-14.5 -35.5q0 -18 12 -29.5t31 -11.5zM217 353q29 0 46 16t17 41q0 21 -14 34t-36 13q-27 0 -45 -16.5t-18 -40.5q0 -23 15 -35t35 -12z" />
    <glyph glyph-name="nine.numerator" horiz-adv-x="420" 
d="M225 273h-139l137 148l-1 1q-4 -1 -16 -1q-58 0 -92 36.5t-34 87.5q0 71 50 121t134 50q70 0 115.5 -37.5t45.5 -104.5q0 -69 -65 -144zM315 572q0 24 -17 38t-39 14q-32 0 -50 -20t-18 -52q0 -24 15 -38t37 -14q33 0 52.5 20t19.5 52z" />
    <glyph glyph-name="cyrbreve" 
d="M209 572q-67 0 -110.5 33.5t-46.5 97.5l82 16q9 -59 78 -59q74 0 91 59l78 -16q-32 -131 -172 -131z" />
    <glyph glyph-name="cyrbreve.cap" 
d="M209 764q-75 0 -119.5 36t-48.5 104l88 17q10 -67 78 -67q37 0 64 18t37 49l83 -17q-16 -69 -65.5 -104.5t-116.5 -35.5z" />
    <glyph glyph-name="exclam.sc" horiz-adv-x="330" 
d="M224 220h-160l60 343h161zM221 87q0 -42 -27 -70.5t-69 -28.5q-40 0 -64.5 23t-24.5 60q0 42 28 70.5t69 28.5q39 0 63.5 -23.5t24.5 -59.5z" />
    <glyph glyph-name="dollar.sc" horiz-adv-x="570" 
d="M374 617l-9 -54q100 -12 156 -61l-107 -99q-25 29 -70 36l-16 -94q78 -24 116.5 -61t38.5 -98q0 -88 -61.5 -137.5t-161.5 -51.5l-10 -57h-70l10 57q-48 2 -98.5 25.5t-76.5 55.5l111 93q33 -44 86 -49l18 107q-81 29 -115 62t-34 93q0 79 59.5 128t154.5 52l8 53h71z
M263 362l14 79q-52 -4 -52 -42q0 -14 9 -22.5t29 -14.5zM297 212l-17 -93q25 2 39.5 15.5t14.5 31.5q0 32 -37 46z" />
    <glyph glyph-name="percent.sc" horiz-adv-x="800" 
d="M262 434q0 20 -11.5 33t-33.5 13q-24 0 -39 -18.5t-15 -45.5q0 -20 11.5 -32.5t32.5 -12.5q25 0 40 18t15 45zM196 274q-68 0 -105.5 36t-37.5 95q0 73 48.5 122t126.5 49q68 0 105.5 -35.5t37.5 -94.5q0 -73 -48.5 -122.5t-126.5 -49.5zM631 148q0 20 -11.5 33t-33.5 13
q-24 0 -39 -18.5t-15 -45.5q0 -20 11.5 -32.5t32.5 -12.5q25 0 40 18t15 45zM565 -12q-68 0 -105.5 36t-37.5 95q0 73 48.5 122t126.5 49q68 0 105.5 -35.5t37.5 -94.5q0 -73 -48.5 -122.5t-126.5 -49.5zM646 547l-435 -581l-70 45l438 586z" />
    <glyph glyph-name="ampersand.sc" horiz-adv-x="671" 
d="M635 299l-148 -159l119 -140h-191l-35 42q-68 -58 -163 -58q-87 0 -140.5 41t-53.5 115q0 127 137 179q-32 42 -32 99q0 70 54 115.5t134 45.5q74 0 122 -36t48 -99q0 -109 -127 -163l41 -48l57 66h178zM348 427q0 16 -9.5 26.5t-25.5 10.5q-20 0 -32.5 -12.5
t-12.5 -32.5q0 -29 23 -54q57 22 57 62zM300 138l-70 86q-24 -8 -38 -25t-14 -38q0 -24 15.5 -37t39.5 -13q37 0 67 27z" />
    <glyph glyph-name="parenleft.sc" horiz-adv-x="291" 
d="M196 -38l-113 -45q-70 126 -70 273q0 117 50 234.5t145 219.5l96 -61q-164 -191 -164 -393q0 -118 56 -228z" />
    <glyph glyph-name="parenright.sc" horiz-adv-x="291" 
d="M81 599l113 45q70 -126 70 -273q0 -117 -50 -234.5t-145 -219.5l-96 61q164 191 164 393q0 118 -56 228z" />
    <glyph glyph-name="bracketleft.sc" horiz-adv-x="291" 
d="M163 -70h-196l123 701h196l-17 -97h-73l-89 -507h73z" />
    <glyph glyph-name="backslash.sc" horiz-adv-x="352" 
d="M346 -7l-111 -37l-244 613l111 39z" />
    <glyph glyph-name="bracketright.sc" horiz-adv-x="291" 
d="M114 631h196l-123 -701h-197l18 97h73l89 507h-73z" />
    <glyph glyph-name="braceleft.sc" horiz-adv-x="291" 
d="M191 -70h-76q-47 0 -74 25t-27 68q0 9 4 33l20 116q2 12 2 21q0 36 -46 36l18 102q55 2 63 49l23 131q10 56 44.5 88t87.5 32h84l-17 -98h-43q-32 0 -38 -35l-22 -123q-14 -81 -100 -94l-1 -2q31 -8 49.5 -30t18.5 -55q0 -6 -3 -26l-17 -97q-2 -14 -2 -18q0 -25 26 -25
h43z" />
    <glyph glyph-name="slash.sc" horiz-adv-x="352" 
d="M397 568l-352 -612l-104 40l351 612z" />
    <glyph glyph-name="braceright.sc" horiz-adv-x="291" 
d="M85 631h76q47 0 74 -25t27 -68q0 -9 -4 -33l-20 -116q-2 -12 -2 -21q0 -36 46 -36l-18 -102q-55 -2 -63 -49l-23 -131q-10 -56 -44.5 -88t-87.5 -32h-84l17 98h43q32 0 38 35l22 123q14 81 100 94l1 2q-31 8 -49.5 30t-18.5 55q0 7 3 26l17 97q2 14 2 18q0 25 -26 25h-43
z" />
    <glyph glyph-name="zero.sc" horiz-adv-x="570" 
d="M319 579q102 0 152 -59t50 -153q0 -64 -16 -128.5t-47.5 -123t-87 -95t-126.5 -36.5q-104 0 -156 57t-52 150q0 64 17 130t49.5 125t89 96t127.5 37zM306 438q-41 0 -74 -75.5t-33 -158.5q0 -78 52 -78q41 0 74 74t33 159q0 79 -52 79z" />
    <glyph glyph-name="one.sc" horiz-adv-x="570" 
d="M350 0h-163l67 375l-117 -74l-61 121l221 141h152z" />
    <glyph glyph-name="two.sc" horiz-adv-x="570" 
d="M454 0h-429l21 125l245 188q33 26 47 44t14 40q0 21 -14.5 32.5t-37.5 11.5q-57 0 -78 -71l-145 29q27 87 91.5 133.5t147.5 46.5q90 0 145 -45.5t55 -122.5q0 -61 -31 -103.5t-99 -90.5l-117 -84h210z" />
    <glyph glyph-name="three.sc" horiz-adv-x="570" 
d="M503 426q0 -52 -32.5 -85.5t-73.5 -45.5v-2q35 -11 58 -42.5t23 -70.5q0 -90 -67 -143t-166 -53q-80 0 -138 37t-77 110l146 44q14 -55 74 -55q33 0 51.5 17t18.5 44q0 59 -86 59h-30l18 109h35q44 0 65.5 16t21.5 42q0 41 -48 41t-71 -44l-129 54q30 60 87.5 90.5
t126.5 30.5q90 0 141.5 -42.5t51.5 -110.5z" />
    <glyph glyph-name="four.sc" horiz-adv-x="570" 
d="M498 104h-75l-18 -104h-150l19 104h-266l24 129l269 330h201l-58 -336h75zM294 227l38 187h-3l-142 -187h107z" />
    <glyph glyph-name="five.sc" horiz-adv-x="570" 
d="M483 203q0 -105 -70.5 -162t-164.5 -57q-82 0 -139 38.5t-81 108.5l147 48q22 -61 75 -61q31 0 51 19.5t20 53.5q0 32 -22.5 49.5t-57.5 17.5q-64 0 -156 -35l72 340h354l-24 -130h-213l-16 -71q24 6 49 6q74 0 125 -40t51 -125z" />
    <glyph glyph-name="six.sc" horiz-adv-x="570" 
d="M334 203q0 29 -20 47t-46 18q-40 0 -64 -25.5t-24 -63.5q0 -29 20 -47t48 -18q39 0 62.5 24.5t23.5 64.5zM495 205q0 -39 -14.5 -77t-43 -71t-78 -53t-112.5 -20q-102 0 -164.5 47.5t-62.5 149.5q0 59 27.5 109.5t77.5 106.5l147 166h211l-194 -193l1 -3q9 4 37 4
q76 0 122 -48t46 -118z" />
    <glyph glyph-name="seven.sc" horiz-adv-x="570" 
d="M515 436l-293 -436h-185l306 430h-242l23 133h414z" />
    <glyph glyph-name="eight.sc" horiz-adv-x="570" 
d="M192 162q0 -28 17 -42t41 -14q36 0 55.5 20t19.5 50q0 25 -16 40.5t-41 15.5q-34 0 -55 -19.5t-21 -50.5zM401 291v-2q35 -11 61.5 -43.5t26.5 -74.5q0 -87 -67.5 -137t-178.5 -50q-39 0 -75 8t-69 25t-53 49t-20 75q0 62 40 105t93 55v3q-69 36 -69 106q0 81 66.5 125
t158.5 44q83 0 141.5 -36t58.5 -106q0 -58 -33.5 -95t-80.5 -51zM243 400q0 -21 13.5 -34.5t37.5 -13.5q27 0 45.5 16.5t18.5 44.5q0 22 -14.5 35t-38.5 13q-27 0 -44.5 -17.5t-17.5 -43.5z" />
    <glyph glyph-name="nine.sc" horiz-adv-x="570" 
d="M218 360q0 -29 20 -47t46 -18q40 0 64 25.5t24 63.5q0 29 -20 47t-48 18q-39 0 -62.5 -24.5t-23.5 -64.5zM57 358q0 39 14.5 77t43 71t78 53t112.5 20q98 0 161.5 -50.5t63.5 -144.5q0 -58 -24.5 -106.5t-75.5 -106.5l-150 -171h-211l191 193l-1 3q-9 -4 -37 -4
q-76 0 -120.5 47.5t-44.5 118.5z" />
    <glyph glyph-name="question.sc" horiz-adv-x="500" 
d="M315 90q0 -42 -27.5 -71t-69.5 -29q-40 0 -65 23.5t-25 60.5q0 42 28.5 71t69.5 29q39 0 64 -24t25 -60zM310 220h-152l4 28q5 33 19.5 55t48.5 42l17 10q34 20 44 32t10 28q0 15 -11 23t-27 8q-38 0 -50 -46l-145 25q16 71 70 112.5t144 41.5q79 0 128.5 -45.5
t49.5 -109.5q0 -89 -84 -137q-40 -23 -52 -33.5t-13 -24.5z" />
    <glyph glyph-name="a.sc" horiz-adv-x="614" 
d="M569 0h-170l-16 102h-204l-61 -102h-178l357 563h165zM367 222l-24 176l-96 -176h120z" />
    <glyph glyph-name="b.sc" horiz-adv-x="564" 
d="M114 563h227q81 0 129.5 -33.5t48.5 -99.5q0 -102 -106 -135v-3q90 -24 90 -112q0 -85 -68.5 -132.5t-181.5 -47.5h-238zM213 235l-21 -114h57q95 0 95 66q0 22 -17 35t-46 13h-68zM249 440l-18 -100h64q29 0 50 14.5t21 42.5q0 43 -59 43h-58z" />
    <glyph glyph-name="c.sc" horiz-adv-x="579" 
d="M441 185l88 -111q-87 -90 -230 -90q-121 0 -194 68.5t-73 180.5q0 147 97.5 246.5t243.5 99.5q138 0 216 -88l-119 -108q-33 53 -101 53q-71 0 -117.5 -55t-46.5 -130q0 -53 30.5 -87.5t81.5 -34.5q73 0 124 56z" />
    <glyph glyph-name="d.sc" horiz-adv-x="645" 
d="M15 0l96 563h223q115 0 193 -60t78 -180q0 -146 -96.5 -234.5t-247.5 -88.5h-246zM248 432l-51 -300h62q85 0 132 50t47 125q0 57 -32.5 91t-96.5 34h-61z" />
    <glyph glyph-name="e.sc" horiz-adv-x="518" 
d="M421 0h-406l99 563h386l-23 -127h-228l-16 -90h216l-21 -120h-216l-18 -97h250z" />
    <glyph glyph-name="f.sc" horiz-adv-x="498" 
d="M472 436h-219l-18 -104h205l-21 -122h-206l-36 -210h-162l99 563h380z" />
    <glyph glyph-name="g.sc" horiz-adv-x="633" 
d="M307 217l20 112h250l-52 -294q-96 -51 -218 -51q-124 0 -199.5 67t-75.5 180q0 149 97.5 248.5t241.5 99.5q148 0 218 -84l-117 -110q-39 51 -104 51q-68 0 -117 -55t-49 -134q0 -53 31.5 -87t87.5 -34q43 0 69 13l14 78h-97z" />
    <glyph glyph-name="h.sc" horiz-adv-x="649" 
d="M523 0h-163l40 226h-182l-40 -226h-163l99 563h163l-37 -210h182l37 210h163z" />
    <glyph glyph-name="i.sc" horiz-adv-x="307" 
d="M180 0h-165l100 563h165z" />
    <glyph glyph-name="j.sc" horiz-adv-x="474" 
d="M452 563l-65 -371q-7 -44 -20.5 -77.5t-37 -65t-63 -48.5t-93.5 -17q-78 0 -127.5 37.5t-61.5 107.5l144 51q5 -52 46 -52q44 0 54 65l62 370h162z" />
    <glyph glyph-name="k.sc" horiz-adv-x="607" 
d="M570 0h-195l-154 250h-3l-42 -250h-161l100 563h160l-41 -225h3l210 225h209l-287 -273z" />
    <glyph glyph-name="l.sc" horiz-adv-x="476" 
d="M392 0h-377l99 563h165l-75 -429h212z" />
    <glyph glyph-name="m.sc" horiz-adv-x="799" 
d="M673 0h-161l65 348h-3l-178 -348h-115l-54 350h-2l-56 -350h-154l99 563h207l57 -340h3l167 340h224z" />
    <glyph glyph-name="n.sc" horiz-adv-x="670" 
d="M544 0h-179l-132 331h-3l-56 -331h-159l99 563h177l134 -333h3l57 333h158z" />
    <glyph glyph-name="o.sc" horiz-adv-x="690" 
d="M309 -16q-129 0 -203 69.5t-74 182.5q0 143 98.5 243t244.5 100q126 0 200.5 -70.5t74.5 -183.5q0 -143 -97.5 -242t-243.5 -99zM480 316q0 53 -31 86t-86 33q-70 0 -115.5 -55.5t-45.5 -129.5q0 -53 30.5 -86.5t85.5 -33.5q72 0 117 55.5t45 130.5z" />
    <glyph glyph-name="p.sc" horiz-adv-x="549" 
d="M212 190l-34 -190h-163l99 563h204q105 0 159 -45.5t54 -123.5q0 -96 -64 -150t-173 -54h-82zM233 312h44q45 0 67.5 19.5t22.5 50.5q0 24 -18 39t-50 15h-45z" />
    <glyph glyph-name="q.sc" horiz-adv-x="690" 
d="M638 329q0 -126 -91 -198v-3l101 4l-23 -132h-324q-125 0 -197 64t-72 176q0 144 96.5 240.5t238.5 96.5q125 0 198 -67t73 -181zM470 317q0 53 -30.5 85.5t-85.5 32.5q-67 0 -110.5 -56t-43.5 -128q0 -55 31 -88t85 -33q67 0 110.5 56.5t43.5 130.5z" />
    <glyph glyph-name="r.sc" horiz-adv-x="575" 
d="M516 0h-179l-81 200h-47l-34 -200h-160l99 563h209q103 0 155.5 -41t52.5 -118q0 -132 -125 -170zM250 436l-20 -116h43q94 0 94 65q0 51 -70 51h-47z" />
    <glyph glyph-name="s.sc" horiz-adv-x="504" 
d="M-18 82l110 101q19 -29 51.5 -45t64.5 -16q34 0 52 13t18 33q0 21 -16 34t-55 24q-82 24 -116 60t-34 98q0 86 68 140.5t169 54.5q136 0 200 -88l-110 -97q-33 51 -97 51q-31 0 -50 -13t-19 -35q0 -17 13.5 -26t51.5 -21q86 -24 122.5 -63.5t36.5 -103.5q0 -89 -67 -144
t-171 -55q-144 0 -222 98z" />
    <glyph glyph-name="t.sc" horiz-adv-x="481" 
d="M488 431h-144l-77 -431h-163l75 431h-144l22 132h454z" />
    <glyph glyph-name="u.sc" horiz-adv-x="626" 
d="M605 563l-62 -348q-19 -108 -91 -169.5t-190 -61.5q-101 0 -161.5 51t-60.5 135q0 26 4 50l63 343h163l-59 -336q-3 -15 -3 -32q0 -29 19 -47.5t51 -18.5q86 0 106 110l58 324h163z" />
    <glyph glyph-name="v.sc" horiz-adv-x="569" 
d="M629 563l-339 -563h-163l-85 563h170l37 -361h4l200 361h176z" />
    <glyph glyph-name="w.sc" horiz-adv-x="880" 
d="M930 563l-275 -563h-173l-36 353h-3l-160 -353h-171l-71 563h170l29 -360h3l152 360h168l32 -360h4l149 360h182z" />
    <glyph glyph-name="x.sc" horiz-adv-x="606" 
d="M547 0h-189l-79 175l-143 -175h-204l265 296l-136 267h186l69 -159l125 159h199l-243 -272z" />
    <glyph glyph-name="y.sc" horiz-adv-x="516" 
d="M585 563l-269 -342l-38 -221h-163l40 224l-134 339h174l64 -210l136 210h190z" />
    <glyph glyph-name="z.sc" horiz-adv-x="540" 
d="M443 0h-464l23 127l300 303h-225l24 133h433l-21 -122l-302 -307h256z" />
    <glyph glyph-name="agrave.sc" horiz-adv-x="614" 
d="M569 0h-170l-16 102h-204l-61 -102h-178l357 563h165zM367 222l-24 176l-96 -176h120zM343 766l109 -144h-120l-152 144h163z" />
    <glyph glyph-name="aacute.sc" horiz-adv-x="614" 
d="M569 0h-170l-16 102h-204l-61 -102h-178l357 563h165zM367 222l-24 176l-96 -176h120zM603 766l-170 -144h-122l129 144h163z" />
    <glyph glyph-name="acircumflex.sc" horiz-adv-x="614" 
d="M569 0h-170l-16 102h-204l-61 -102h-178l357 563h165zM367 222l-24 176l-96 -176h120zM579 622h-125l-55 82l-83 -82h-127l148 144h146z" />
    <glyph glyph-name="atilde.sc" horiz-adv-x="614" 
d="M569 0h-170l-16 102h-204l-61 -102h-178l357 563h165zM367 222l-24 176l-96 -176h120zM588 758q-17 -58 -51 -94.5t-85 -36.5q-37 0 -72 19q-42 22 -65 22q-31 0 -50 -42h-71q17 57 51 93t85 36q36 0 76 -20q38 -20 62 -20q31 0 49 43h71z" />
    <glyph glyph-name="adieresis.sc" horiz-adv-x="614" 
d="M569 0h-170l-16 102h-204l-61 -102h-178l357 563h165zM367 222l-24 176l-96 -176h120zM366 714q0 -36 -24 -61t-60 -25q-34 0 -56 20.5t-22 52.5q0 37 24.5 61.5t60.5 24.5q34 0 55.5 -20.5t21.5 -52.5zM585 714q0 -36 -24 -61t-60 -25q-34 0 -56 20.5t-22 52.5
q0 37 24.5 61.5t61.5 24.5q33 0 54.5 -20.5t21.5 -52.5z" />
    <glyph glyph-name="amacron.sc" horiz-adv-x="614" 
d="M569 0h-170l-16 102h-204l-61 -102h-178l357 563h165zM367 222l-24 176l-96 -176h120zM554 651h-333l14 84h334z" />
    <glyph glyph-name="abreve.sc" horiz-adv-x="614" 
d="M569 0h-170l-16 102h-204l-61 -102h-178l357 563h165zM367 222l-24 176l-96 -176h120zM571 766q-16 -74 -66.5 -109t-122.5 -35q-157 0 -157 144h82q0 -57 80 -57q86 0 102 57h82z" />
    <glyph glyph-name="aring.sc" horiz-adv-x="614" 
d="M569 0h-170l-16 102h-204l-61 -102h-178l357 563h165zM367 222l-24 176l-96 -176h120zM383 607q-41 0 -67 25t-26 64q0 52 34 87.5t85 35.5q41 0 67 -25t26 -63q0 -52 -34 -88t-85 -36zM453 724q0 21 -13.5 35.5t-35.5 14.5q-28 0 -46.5 -21t-18.5 -51q0 -22 13 -36
t35 -14q29 0 47.5 21t18.5 51z" />
    <glyph glyph-name="aogonek.sc" horiz-adv-x="614" 
d="M483 -200q-58 -40 -119 -40q-96 0 -96 83q0 70 131 157l-16 102h-204l-61 -102h-178l357 563h165l107 -563h-81q-116 -83 -116 -131q0 -27 33 -27q29 0 57 19zM367 222l-24 176l-96 -176h120z" />
    <glyph glyph-name="ae.sc" horiz-adv-x="890" 
d="M793 0h-406l19 112h-175l-81 -112h-185l417 563h490l-23 -127h-228l-16 -90h216l-21 -120h-216l-18 -97h250zM455 436l-146 -204h118l36 203z" />
    <glyph glyph-name="cacute.sc" horiz-adv-x="579" 
d="M441 185l88 -111q-87 -90 -230 -90q-121 0 -194 68.5t-73 180.5q0 147 97.5 246.5t243.5 99.5q138 0 216 -88l-119 -108q-33 53 -101 53q-71 0 -117.5 -55t-46.5 -130q0 -53 30.5 -87.5t81.5 -34.5q73 0 124 56zM564 766l-170 -144h-122l129 144h163z" />
    <glyph glyph-name="ccircumflex.sc" horiz-adv-x="579" 
d="M441 185l88 -111q-87 -90 -230 -90q-121 0 -194 68.5t-73 180.5q0 147 97.5 246.5t243.5 99.5q138 0 216 -88l-119 -108q-33 53 -101 53q-71 0 -117.5 -55t-46.5 -130q0 -53 30.5 -87.5t81.5 -34.5q73 0 124 56zM578 622h-125l-55 82l-83 -82h-127l148 144h146z" />
    <glyph glyph-name="ccaron.sc" horiz-adv-x="579" 
d="M441 185l88 -111q-87 -90 -230 -90q-121 0 -194 68.5t-73 180.5q0 147 97.5 246.5t243.5 99.5q138 0 216 -88l-119 -108q-33 53 -101 53q-71 0 -117.5 -55t-46.5 -130q0 -53 30.5 -87.5t81.5 -34.5q73 0 124 56zM601 766l-147 -144h-145l-98 144h126l54 -83l83 83h127z
" />
    <glyph glyph-name="cdotaccent.sc" horiz-adv-x="579" 
d="M441 185l88 -111q-87 -90 -230 -90q-121 0 -194 68.5t-73 180.5q0 147 97.5 246.5t243.5 99.5q138 0 216 -88l-119 -108q-33 53 -101 53q-71 0 -117.5 -55t-46.5 -130q0 -53 30.5 -87.5t81.5 -34.5q73 0 124 56zM481 714q0 -37 -25 -63.5t-63 -26.5q-36 0 -59 21.5
t-23 54.5q0 38 26 64t64 26q34 0 57 -22t23 -54z" />
    <glyph glyph-name="ccedilla.sc" horiz-adv-x="579" 
d="M382 -135q0 -54 -46 -79.5t-106 -25.5q-70 0 -120 25l32 59q34 -18 81 -18q55 0 55 33q0 29 -42 29q-22 0 -41 -6l-25 29l71 78q-97 15 -153 80.5t-56 163.5q0 147 97.5 246.5t243.5 99.5q138 0 216 -88l-119 -108q-33 53 -101 53q-71 0 -117.5 -55t-46.5 -130
q0 -53 30.5 -87.5t81.5 -34.5q73 0 124 56l88 -111q-81 -84 -212 -90l-43 -45q8 2 19 2q33 0 61 -18t28 -58z" />
    <glyph glyph-name="dcaron.sc" horiz-adv-x="645" 
d="M15 0l96 563h223q115 0 193 -60t78 -180q0 -146 -96.5 -234.5t-247.5 -88.5h-246zM248 432l-51 -300h62q85 0 132 50t47 125q0 57 -32.5 91t-96.5 34h-61zM554 766l-147 -144h-145l-98 144h126l54 -83l83 83h127z" />
    <glyph glyph-name="dcroat.sc" horiz-adv-x="645" 
d="M16 340h57l38 223h223q115 0 193 -60t78 -180q0 -146 -96.5 -234.5t-247.5 -88.5h-246l40 235h-58zM248 432l-16 -92h101l-19 -105h-100l-17 -103h67q85 0 131 50t46 125q0 57 -32.5 91t-96.5 34h-64z" />
    <glyph glyph-name="eth.sc" horiz-adv-x="645" 
d="M16 340h57l38 223h223q115 0 193 -60t78 -180q0 -146 -96.5 -234.5t-247.5 -88.5h-246l40 235h-58zM248 432l-16 -92h101l-19 -105h-100l-17 -103h67q85 0 131 50t46 125q0 57 -32.5 91t-96.5 34h-64z" />
    <glyph glyph-name="egrave.sc" horiz-adv-x="518" 
d="M421 0h-406l99 563h386l-23 -127h-228l-16 -90h216l-21 -120h-216l-18 -97h250zM272 766l109 -144h-120l-152 144h163z" />
    <glyph glyph-name="eacute.sc" horiz-adv-x="518" 
d="M421 0h-406l99 563h386l-23 -127h-228l-16 -90h216l-21 -120h-216l-18 -97h250zM538 766l-170 -144h-122l129 144h163z" />
    <glyph glyph-name="ecircumflex.sc" horiz-adv-x="518" 
d="M421 0h-406l99 563h386l-23 -127h-228l-16 -90h216l-21 -120h-216l-18 -97h250zM509 622h-125l-55 82l-83 -82h-127l148 144h146z" />
    <glyph glyph-name="ecaron.sc" horiz-adv-x="518" 
d="M421 0h-406l99 563h386l-23 -127h-228l-16 -90h216l-21 -120h-216l-18 -97h250zM531 766l-147 -144h-145l-98 144h126l54 -83l83 83h127z" />
    <glyph glyph-name="edieresis.sc" horiz-adv-x="518" 
d="M421 0h-406l99 563h386l-23 -127h-228l-16 -90h216l-21 -120h-216l-18 -97h250zM293 714q0 -36 -24 -61t-60 -25q-34 0 -56 20.5t-22 52.5q0 37 24.5 61.5t60.5 24.5q34 0 55.5 -20.5t21.5 -52.5zM512 714q0 -36 -24 -61t-60 -25q-34 0 -56 20.5t-22 52.5q0 37 24.5 61.5
t61.5 24.5q33 0 54.5 -20.5t21.5 -52.5z" />
    <glyph glyph-name="emacron.sc" horiz-adv-x="518" 
d="M421 0h-406l99 563h386l-23 -127h-228l-16 -90h216l-21 -120h-216l-18 -97h250zM480 651h-333l14 84h334z" />
    <glyph glyph-name="ebreve.sc" horiz-adv-x="518" 
d="M421 0h-406l99 563h386l-23 -127h-228l-16 -90h216l-21 -120h-216l-18 -97h250zM498 766q-16 -74 -66.5 -109t-122.5 -35q-157 0 -157 144h82q0 -57 80 -57q86 0 102 57h82z" />
    <glyph glyph-name="edotaccent.sc" horiz-adv-x="518" 
d="M421 0h-406l99 563h386l-23 -127h-228l-16 -90h216l-21 -120h-216l-18 -97h250zM407 714q0 -37 -25 -63.5t-63 -26.5q-36 0 -59 21.5t-23 54.5q0 38 26 64t64 26q34 0 57 -22t23 -54z" />
    <glyph glyph-name="eogonek.sc" horiz-adv-x="518" 
d="M393 -200q-58 -40 -119 -40q-96 0 -96 83q0 70 131 157h-294l99 563h386l-23 -127h-228l-16 -90h216l-21 -120h-216l-18 -97h250l-23 -129h-23q-116 -83 -116 -131q0 -27 33 -27q29 0 57 19z" />
    <glyph glyph-name="gcircumflex.sc" horiz-adv-x="633" 
d="M307 217l20 112h250l-52 -294q-96 -51 -218 -51q-124 0 -199.5 67t-75.5 180q0 149 97.5 248.5t241.5 99.5q148 0 218 -84l-117 -110q-39 51 -104 51q-68 0 -117 -55t-49 -134q0 -53 31.5 -87t87.5 -34q43 0 69 13l14 78h-97zM577 622h-125l-55 82l-83 -82h-127l148 144
h146z" />
    <glyph glyph-name="gbreve.sc" horiz-adv-x="633" 
d="M307 217l20 112h250l-52 -294q-96 -51 -218 -51q-124 0 -199.5 67t-75.5 180q0 149 97.5 248.5t241.5 99.5q148 0 218 -84l-117 -110q-39 51 -104 51q-68 0 -117 -55t-49 -134q0 -53 31.5 -87t87.5 -34q43 0 69 13l14 78h-97zM567 766q-16 -74 -66.5 -109t-122.5 -35
q-157 0 -157 144h82q0 -57 80 -57q86 0 102 57h82z" />
    <glyph glyph-name="gdotaccent.sc" horiz-adv-x="633" 
d="M307 217l20 112h250l-52 -294q-96 -51 -218 -51q-124 0 -199.5 67t-75.5 180q0 149 97.5 248.5t241.5 99.5q148 0 218 -84l-117 -110q-39 51 -104 51q-68 0 -117 -55t-49 -134q0 -53 31.5 -87t87.5 -34q43 0 69 13l14 78h-97zM478 714q0 -37 -25 -63.5t-63 -26.5
q-36 0 -59 21.5t-23 54.5q0 38 26 64t64 26q34 0 57 -22t23 -54z" />
    <glyph glyph-name="gcommaaccent.sc" horiz-adv-x="633" 
d="M307 217l20 112h250l-52 -294q-96 -51 -218 -51q-124 0 -199.5 67t-75.5 180q0 149 97.5 248.5t241.5 99.5q148 0 218 -84l-117 -110q-39 51 -104 51q-68 0 -117 -55t-49 -134q0 -53 31.5 -87t87.5 -34q43 0 69 13l14 78h-97zM376 -45l-130 -195h-123l111 195h142z" />
    <glyph glyph-name="kgreenlandic.sc" horiz-adv-x="607" 
d="M570 0h-195l-154 250h-3l-42 -250h-161l100 563h160l-41 -225h3l210 225h209l-287 -273z" />
    <glyph glyph-name="hcircumflex.sc" horiz-adv-x="649" 
d="M523 0h-163l40 226h-182l-40 -226h-163l99 563h163l-37 -210h182l37 210h163zM577 622h-125l-55 82l-83 -82h-127l148 144h146z" />
    <glyph glyph-name="hbar.sc" horiz-adv-x="649" 
d="M523 0h-163l38 216h-182l-38 -216h-163l99 563h163l-13 -75h182l13 75h163zM238 343h182l12 67h-182z" />
    <glyph glyph-name="igrave.sc" horiz-adv-x="307" 
d="M180 0h-165l100 563h165zM165 766l109 -144h-120l-152 144h163z" />
    <glyph glyph-name="iacute.sc" horiz-adv-x="307" 
d="M180 0h-165l100 563h165zM421 766l-170 -144h-122l129 144h163z" />
    <glyph glyph-name="ibreve.sc" horiz-adv-x="307" 
d="M180 0h-165l100 563h165zM406 766q-16 -74 -66.5 -109t-122.5 -35q-157 0 -157 144h82q0 -57 80 -57q86 0 102 57h82z" />
    <glyph glyph-name="icircumflex.sc" horiz-adv-x="307" 
d="M180 0h-165l100 563h165zM403 622h-125l-55 82l-83 -82h-127l148 144h146z" />
    <glyph glyph-name="itilde.sc" horiz-adv-x="307" 
d="M180 0h-165l100 563h165zM413 758q-17 -58 -51 -94.5t-85 -36.5q-37 0 -72 19q-42 22 -65 22q-31 0 -50 -42h-71q17 57 51 93t85 36q36 0 76 -20q38 -20 62 -20q31 0 49 43h71z" />
    <glyph glyph-name="idieresis.sc" horiz-adv-x="307" 
d="M180 0h-165l100 563h165zM189 714q0 -36 -24 -61t-60 -25q-34 0 -56 20.5t-22 52.5q0 37 24.5 61.5t60.5 24.5q34 0 55.5 -20.5t21.5 -52.5zM408 714q0 -36 -24 -61t-60 -25q-34 0 -56 20.5t-22 52.5q0 37 24.5 61.5t61.5 24.5q33 0 54.5 -20.5t21.5 -52.5z" />
    <glyph glyph-name="imacron.sc" horiz-adv-x="307" 
d="M180 0h-165l100 563h165zM376 651h-333l14 84h334z" />
    <glyph glyph-name="idotaccent.sc" horiz-adv-x="307" 
d="M180 0h-165l100 563h165zM302 714q0 -37 -25 -63.5t-63 -26.5q-36 0 -59 21.5t-23 54.5q0 38 26 64t64 26q34 0 57 -22t23 -54z" />
    <glyph glyph-name="iogonek.sc" horiz-adv-x="307" 
d="M175 -200q-58 -40 -119 -40q-96 0 -96 83q0 70 131 157h-76l100 563h165l-100 -563q-116 -83 -116 -131q0 -27 33 -27q28 0 57 19z" />
    <glyph glyph-name="jcircumflex.sc" horiz-adv-x="474" 
d="M452 563l-65 -371q-7 -44 -20.5 -77.5t-37 -65t-63 -48.5t-93.5 -17q-78 0 -127.5 37.5t-61.5 107.5l144 51q5 -52 46 -52q44 0 54 65l62 370h162zM577 622h-125l-55 82l-83 -82h-127l148 144h146z" />
    <glyph glyph-name="kcommaaccent.sc" horiz-adv-x="607" 
d="M570 0h-195l-154 250h-3l-42 -250h-161l100 563h160l-41 -225h3l210 225h209l-287 -273zM339 -45l-130 -195h-123l111 195h142z" />
    <glyph glyph-name="lacute.sc" horiz-adv-x="476" 
d="M392 0h-377l99 563h165l-75 -429h212zM434 766l-170 -144h-122l129 144h163z" />
    <glyph glyph-name="lcaron.sc" horiz-adv-x="476" 
d="M392 0h-377l99 563h165l-75 -429h212zM529 563l-130 -195h-123l111 195h142z" />
    <glyph glyph-name="lcommaaccent.sc" horiz-adv-x="476" 
d="M392 0h-377l99 563h165l-75 -429h212zM279 -45l-130 -195h-123l111 195h142z" />
    <glyph glyph-name="lslash.sc" horiz-adv-x="476" 
d="M392 0h-377l30 171l-72 -49l24 141l73 49l44 251h165l-22 -123l125 85l-25 -140l-124 -85l-29 -166h212z" />
    <glyph glyph-name="ldot.sc" horiz-adv-x="476" 
d="M392 0h-377l99 563h165l-75 -429h212zM445 354q0 -37 -25 -63.5t-63 -26.5q-36 0 -59 21.5t-23 54.5q0 38 26 64t64 26q34 0 57 -22t23 -54z" />
    <glyph glyph-name="nacute.sc" horiz-adv-x="670" 
d="M544 0h-179l-132 331h-3l-56 -331h-159l99 563h177l134 -333h3l57 333h158zM583 766l-170 -144h-122l129 144h163z" />
    <glyph glyph-name="ncaron.sc" horiz-adv-x="670" 
d="M544 0h-179l-132 331h-3l-56 -331h-159l99 563h177l134 -333h3l57 333h158zM598 766l-147 -144h-145l-98 144h126l54 -83l83 83h127z" />
    <glyph glyph-name="ntilde.sc" horiz-adv-x="670" 
d="M544 0h-179l-132 331h-3l-56 -331h-159l99 563h177l134 -333h3l57 333h158zM598 758q-17 -58 -51 -94.5t-85 -36.5q-37 0 -72 19q-42 22 -65 22q-31 0 -50 -42h-71q17 57 51 93t85 36q36 0 76 -20q38 -20 62 -20q31 0 49 43h71z" />
    <glyph glyph-name="ncommaaccent.sc" horiz-adv-x="670" 
d="M544 0h-179l-132 331h-3l-56 -331h-159l99 563h177l134 -333h3l57 333h158zM355 -45l-130 -195h-123l111 195h142z" />
    <glyph glyph-name="ograve.sc" horiz-adv-x="690" 
d="M309 -16q-129 0 -203 69.5t-74 182.5q0 143 98.5 243t244.5 100q126 0 200.5 -70.5t74.5 -183.5q0 -143 -97.5 -242t-243.5 -99zM480 316q0 53 -31 86t-86 33q-70 0 -115.5 -55.5t-45.5 -129.5q0 -53 30.5 -86.5t85.5 -33.5q72 0 117 55.5t45 130.5zM360 766l109 -144
h-120l-152 144h163z" />
    <glyph glyph-name="oacute.sc" horiz-adv-x="690" 
d="M309 -16q-129 0 -203 69.5t-74 182.5q0 143 98.5 243t244.5 100q126 0 200.5 -70.5t74.5 -183.5q0 -143 -97.5 -242t-243.5 -99zM480 316q0 53 -31 86t-86 33q-70 0 -115.5 -55.5t-45.5 -129.5q0 -53 30.5 -86.5t85.5 -33.5q72 0 117 55.5t45 130.5zM599 766l-170 -144
h-122l129 144h163z" />
    <glyph glyph-name="ocircumflex.sc" horiz-adv-x="690" 
d="M309 -16q-129 0 -203 69.5t-74 182.5q0 143 98.5 243t244.5 100q126 0 200.5 -70.5t74.5 -183.5q0 -143 -97.5 -242t-243.5 -99zM480 316q0 53 -31 86t-86 33q-70 0 -115.5 -55.5t-45.5 -129.5q0 -53 30.5 -86.5t85.5 -33.5q72 0 117 55.5t45 130.5zM586 622h-125l-55 82
l-83 -82h-127l148 144h146z" />
    <glyph glyph-name="otilde.sc" horiz-adv-x="690" 
d="M309 -16q-129 0 -203 69.5t-74 182.5q0 143 98.5 243t244.5 100q126 0 200.5 -70.5t74.5 -183.5q0 -143 -97.5 -242t-243.5 -99zM480 316q0 53 -31 86t-86 33q-70 0 -115.5 -55.5t-45.5 -129.5q0 -53 30.5 -86.5t85.5 -33.5q72 0 117 55.5t45 130.5zM609 758
q-17 -58 -51 -94.5t-85 -36.5q-37 0 -72 19q-42 22 -65 22q-31 0 -50 -42h-71q17 57 51 93t85 36q36 0 76 -20q38 -20 62 -20q31 0 49 43h71z" />
    <glyph glyph-name="odieresis.sc" horiz-adv-x="690" 
d="M309 -16q-129 0 -203 69.5t-74 182.5q0 143 98.5 243t244.5 100q126 0 200.5 -70.5t74.5 -183.5q0 -143 -97.5 -242t-243.5 -99zM480 316q0 53 -31 86t-86 33q-70 0 -115.5 -55.5t-45.5 -129.5q0 -53 30.5 -86.5t85.5 -33.5q72 0 117 55.5t45 130.5zM383 714
q0 -36 -24 -61t-60 -25q-34 0 -56 20.5t-22 52.5q0 37 24.5 61.5t60.5 24.5q34 0 55.5 -20.5t21.5 -52.5zM602 714q0 -36 -24 -61t-60 -25q-34 0 -56 20.5t-22 52.5q0 37 24.5 61.5t61.5 24.5q33 0 54.5 -20.5t21.5 -52.5z" />
    <glyph glyph-name="omacron.sc" horiz-adv-x="690" 
d="M309 -16q-129 0 -203 69.5t-74 182.5q0 143 98.5 243t244.5 100q126 0 200.5 -70.5t74.5 -183.5q0 -143 -97.5 -242t-243.5 -99zM480 316q0 53 -31 86t-86 33q-70 0 -115.5 -55.5t-45.5 -129.5q0 -53 30.5 -86.5t85.5 -33.5q72 0 117 55.5t45 130.5zM567 651h-333l14 84
h334z" />
    <glyph glyph-name="obreve.sc" horiz-adv-x="690" 
d="M309 -16q-129 0 -203 69.5t-74 182.5q0 143 98.5 243t244.5 100q126 0 200.5 -70.5t74.5 -183.5q0 -143 -97.5 -242t-243.5 -99zM480 316q0 53 -31 86t-86 33q-70 0 -115.5 -55.5t-45.5 -129.5q0 -53 30.5 -86.5t85.5 -33.5q72 0 117 55.5t45 130.5zM583 766
q-16 -74 -66.5 -109t-122.5 -35q-157 0 -157 144h82q0 -57 80 -57q86 0 102 57h82z" />
    <glyph glyph-name="ohungarumlaut.sc" horiz-adv-x="690" 
d="M309 -16q-129 0 -203 69.5t-74 182.5q0 143 98.5 243t244.5 100q126 0 200.5 -70.5t74.5 -183.5q0 -143 -97.5 -242t-243.5 -99zM480 316q0 53 -31 86t-86 33q-70 0 -115.5 -55.5t-45.5 -129.5q0 -53 30.5 -86.5t85.5 -33.5q72 0 117 55.5t45 130.5zM507 766l-171 -144
h-121l128 144h164zM726 766l-171 -144h-121l129 144h163z" />
    <glyph glyph-name="oslash.sc" horiz-adv-x="690" 
d="M309 -16q-114 0 -186 55l-83 -73l-47 58l79 70q-40 60 -40 142q0 143 98.5 243t244.5 100q107 0 180 -54l84 75l49 -56l-81 -73q43 -61 43 -146q0 -143 -97.5 -242t-243.5 -99zM491 318q0 24 -6 45l-249 -220q32 -24 80 -24q78 0 126.5 59t48.5 140zM191 247q0 -25 6 -46
l247 221q-31 23 -79 23q-76 0 -125 -59.5t-49 -138.5z" />
    <glyph glyph-name="oe.sc" horiz-adv-x="840" 
d="M321 0q-131 0 -205.5 62.5t-74.5 173.5q0 141 99 234.5t247 93.5h134v-1h301l-23 -127h-228l-16 -90h216l-21 -120h-216l-18 -97h250l-23 -129h-422zM211 249q0 -52 31 -80.5t87 -28.5h32l50 284h-36q-71 0 -117.5 -51t-46.5 -124z" />
    <glyph glyph-name="racute.sc" horiz-adv-x="575" 
d="M516 0h-179l-81 200h-47l-34 -200h-160l99 563h209q103 0 155.5 -41t52.5 -118q0 -132 -125 -170zM250 436l-20 -116h43q94 0 94 65q0 51 -70 51h-47zM519 766l-170 -144h-122l129 144h163z" />
    <glyph glyph-name="rcaron.sc" horiz-adv-x="575" 
d="M516 0h-179l-81 200h-47l-34 -200h-160l99 563h209q103 0 155.5 -41t52.5 -118q0 -132 -125 -170zM250 436l-20 -116h43q94 0 94 65q0 51 -70 51h-47zM540 766l-147 -144h-145l-98 144h126l54 -83l83 83h127z" />
    <glyph glyph-name="rcommaaccent.sc" horiz-adv-x="575" 
d="M516 0h-179l-81 200h-47l-34 -200h-160l99 563h209q103 0 155.5 -41t52.5 -118q0 -132 -125 -170zM250 436l-20 -116h43q94 0 94 65q0 51 -70 51h-47zM322 -45l-130 -195h-123l111 195h142z" />
    <glyph glyph-name="sacute.sc" horiz-adv-x="504" 
d="M-18 82l110 101q19 -29 51.5 -45t64.5 -16q34 0 52 13t18 33q0 21 -16 34t-55 24q-82 24 -116 60t-34 98q0 86 68 140.5t169 54.5q136 0 200 -88l-110 -97q-33 51 -97 51q-31 0 -50 -13t-19 -35q0 -17 13.5 -26t51.5 -21q86 -24 122.5 -63.5t36.5 -103.5q0 -89 -67 -144
t-171 -55q-144 0 -222 98zM500 766l-170 -144h-122l129 144h163z" />
    <glyph glyph-name="scircumflex.sc" horiz-adv-x="504" 
d="M-18 82l110 101q19 -29 51.5 -45t64.5 -16q34 0 52 13t18 33q0 21 -16 34t-55 24q-82 24 -116 60t-34 98q0 86 68 140.5t169 54.5q136 0 200 -88l-110 -97q-33 51 -97 51q-31 0 -50 -13t-19 -35q0 -17 13.5 -26t51.5 -21q86 -24 122.5 -63.5t36.5 -103.5q0 -89 -67 -144
t-171 -55q-144 0 -222 98zM509 622h-125l-55 82l-83 -82h-127l148 144h146z" />
    <glyph glyph-name="scaron.sc" horiz-adv-x="504" 
d="M-18 82l110 101q19 -29 51.5 -45t64.5 -16q34 0 52 13t18 33q0 21 -16 34t-55 24q-82 24 -116 60t-34 98q0 86 68 140.5t169 54.5q136 0 200 -88l-110 -97q-33 51 -97 51q-31 0 -50 -13t-19 -35q0 -17 13.5 -26t51.5 -21q86 -24 122.5 -63.5t36.5 -103.5q0 -89 -67 -144
t-171 -55q-144 0 -222 98zM526 766l-147 -144h-145l-98 144h126l54 -83l83 83h127z" />
    <glyph glyph-name="scedilla.sc" horiz-adv-x="504" 
d="M299 -135q0 -54 -46 -79.5t-106 -25.5q-70 0 -120 25l32 59q35 -18 81 -18q55 0 55 33q0 29 -42 29q-21 0 -41 -6l-25 29l70 76q-112 15 -175 95l110 101q19 -29 51.5 -45t64.5 -16q34 0 52 13t18 33q0 21 -16 34t-55 24q-82 24 -116 60t-34 98q0 86 68 140.5t169 54.5
q136 0 200 -88l-110 -97q-33 51 -97 51q-31 0 -50 -13t-19 -35q0 -17 13.5 -26t51.5 -21q86 -24 122.5 -63.5t36.5 -103.5q0 -82 -57.5 -135.5t-149.5 -61.5l-44 -47q8 2 19 2q33 0 61 -18t28 -58z" />
    <glyph glyph-name="scommaaccent.sc" horiz-adv-x="504" 
d="M-18 82l110 101q19 -29 51.5 -45t64.5 -16q34 0 52 13t18 33q0 21 -16 34t-55 24q-82 24 -116 60t-34 98q0 86 68 140.5t169 54.5q136 0 200 -88l-110 -97q-33 51 -97 51q-31 0 -50 -13t-19 -35q0 -17 13.5 -26t51.5 -21q86 -24 122.5 -63.5t36.5 -103.5q0 -89 -67 -144
t-171 -55q-144 0 -222 98zM291 -45l-130 -195h-123l111 195h142z" />
    <glyph glyph-name="tcaron.sc" horiz-adv-x="481" 
d="M488 431h-144l-77 -431h-163l75 431h-144l22 132h454zM508 766l-147 -144h-145l-98 144h126l54 -83l83 83h127z" />
    <glyph glyph-name="tcommaaccent.sc" horiz-adv-x="481" 
d="M488 431h-144l-77 -431h-163l75 431h-144l22 132h454zM261 -45l-130 -195h-123l111 195h142z" />
    <glyph glyph-name="tbar.sc" horiz-adv-x="481" 
d="M55 264l16 86h94l14 81h-144l22 132h454l-23 -132h-144l-15 -81h96l-16 -86h-95l-47 -264h-163l46 264h-95z" />
    <glyph glyph-name="thorn.sc" horiz-adv-x="555" 
d="M267 491h67q201 0 201 -163q0 -208 -260 -208h-75l-21 -120h-164l101 563h164zM244 364l-22 -116h58q92 0 92 64q0 52 -70 52h-58z" />
    <glyph glyph-name="ugrave.sc" horiz-adv-x="626" 
d="M605 563l-62 -348q-19 -108 -91 -169.5t-190 -61.5q-101 0 -161.5 51t-60.5 135q0 26 4 50l63 343h163l-59 -336q-3 -15 -3 -32q0 -29 19 -47.5t51 -18.5q86 0 106 110l58 324h163zM356 766l109 -144h-120l-152 144h163z" />
    <glyph glyph-name="uacute.sc" horiz-adv-x="626" 
d="M605 563l-62 -348q-19 -108 -91 -169.5t-190 -61.5q-101 0 -161.5 51t-60.5 135q0 26 4 50l63 343h163l-59 -336q-3 -15 -3 -32q0 -29 19 -47.5t51 -18.5q86 0 106 110l58 324h163zM561 766l-170 -144h-122l129 144h163z" />
    <glyph glyph-name="ucircumflex.sc" horiz-adv-x="626" 
d="M605 563l-62 -348q-19 -108 -91 -169.5t-190 -61.5q-101 0 -161.5 51t-60.5 135q0 26 4 50l63 343h163l-59 -336q-3 -15 -3 -32q0 -29 19 -47.5t51 -18.5q86 0 106 110l58 324h163zM562 622h-125l-55 82l-83 -82h-127l148 144h146z" />
    <glyph glyph-name="utilde.sc" horiz-adv-x="626" 
d="M605 563l-62 -348q-19 -108 -91 -169.5t-190 -61.5q-101 0 -161.5 51t-60.5 135q0 26 4 50l63 343h163l-59 -336q-3 -15 -3 -32q0 -29 19 -47.5t51 -18.5q86 0 106 110l58 324h163zM574 758q-17 -58 -51 -94.5t-85 -36.5q-37 0 -72 19q-42 22 -65 22q-31 0 -50 -42h-71
q17 57 51 93t85 36q36 0 76 -20q38 -20 62 -20q31 0 49 43h71z" />
    <glyph glyph-name="udieresis.sc" horiz-adv-x="626" 
d="M605 563l-62 -348q-19 -108 -91 -169.5t-190 -61.5q-101 0 -161.5 51t-60.5 135q0 26 4 50l63 343h163l-59 -336q-3 -15 -3 -32q0 -29 19 -47.5t51 -18.5q86 0 106 110l58 324h163zM353 714q0 -36 -24 -61t-60 -25q-34 0 -56 20.5t-22 52.5q0 37 24.5 61.5t60.5 24.5
q34 0 55.5 -20.5t21.5 -52.5zM572 714q0 -36 -24 -61t-60 -25q-34 0 -56 20.5t-22 52.5q0 37 24.5 61.5t61.5 24.5q33 0 54.5 -20.5t21.5 -52.5z" />
    <glyph glyph-name="umacron.sc" horiz-adv-x="626" 
d="M605 563l-62 -348q-19 -108 -91 -169.5t-190 -61.5q-101 0 -161.5 51t-60.5 135q0 26 4 50l63 343h163l-59 -336q-3 -15 -3 -32q0 -29 19 -47.5t51 -18.5q86 0 106 110l58 324h163zM536 651h-333l14 84h334z" />
    <glyph glyph-name="ubreve.sc" horiz-adv-x="626" 
d="M605 563l-62 -348q-19 -108 -91 -169.5t-190 -61.5q-101 0 -161.5 51t-60.5 135q0 26 4 50l63 343h163l-59 -336q-3 -15 -3 -32q0 -29 19 -47.5t51 -18.5q86 0 106 110l58 324h163zM550 766q-16 -74 -66.5 -109t-122.5 -35q-157 0 -157 144h82q0 -57 80 -57q86 0 102 57
h82z" />
    <glyph glyph-name="uring.sc" horiz-adv-x="626" 
d="M605 563l-62 -348q-19 -108 -91 -169.5t-190 -61.5q-101 0 -161.5 51t-60.5 135q0 26 4 50l63 343h163l-59 -336q-3 -15 -3 -32q0 -29 19 -47.5t51 -18.5q86 0 106 110l58 324h163zM368 607q-41 0 -67 25t-26 64q0 52 34 87.5t85 35.5q41 0 67 -25t26 -63q0 -52 -34 -88
t-85 -36zM438 724q0 21 -13.5 35.5t-35.5 14.5q-28 0 -46.5 -21t-18.5 -51q0 -22 13 -36t35 -14q29 0 47.5 21t18.5 51z" />
    <glyph glyph-name="uhungarumlaut.sc" horiz-adv-x="626" 
d="M605 563l-62 -348q-19 -108 -91 -169.5t-190 -61.5q-101 0 -161.5 51t-60.5 135q0 26 4 50l63 343h163l-59 -336q-3 -15 -3 -32q0 -29 19 -47.5t51 -18.5q86 0 106 110l58 324h163zM479 766l-171 -144h-121l128 144h164zM698 766l-171 -144h-121l129 144h163z" />
    <glyph glyph-name="uogonek.sc" horiz-adv-x="626" 
d="M338 -200q-58 -40 -119 -40q-96 0 -96 83q0 66 109 142q-89 8 -140.5 58t-51.5 127q0 26 4 50l63 343h163l-59 -336q-3 -15 -3 -32q0 -29 19 -47.5t51 -18.5q86 0 106 110l58 324h163l-62 -348q-17 -92 -71.5 -151t-143.5 -74q-101 -76 -101 -121q0 -27 33 -27
q28 0 57 19z" />
    <glyph glyph-name="wacute.sc" horiz-adv-x="880" 
d="M930 563l-275 -563h-173l-36 353h-3l-160 -353h-171l-71 563h170l29 -360h3l152 360h168l32 -360h4l149 360h182zM710 766l-170 -144h-122l129 144h163z" />
    <glyph glyph-name="wcircumflex.sc" horiz-adv-x="880" 
d="M930 563l-275 -563h-173l-36 353h-3l-160 -353h-171l-71 563h170l29 -360h3l152 360h168l32 -360h4l149 360h182zM690 622h-125l-55 82l-83 -82h-127l148 144h146z" />
    <glyph glyph-name="wdieresis.sc" horiz-adv-x="880" 
d="M930 563l-275 -563h-173l-36 353h-3l-160 -353h-171l-71 563h170l29 -360h3l152 360h168l32 -360h4l149 360h182zM478 714q0 -36 -24 -61t-60 -25q-34 0 -56 20.5t-22 52.5q0 37 24.5 61.5t60.5 24.5q34 0 55.5 -20.5t21.5 -52.5zM697 714q0 -36 -24 -61t-60 -25
q-34 0 -56 20.5t-22 52.5q0 37 24.5 61.5t61.5 24.5q33 0 54.5 -20.5t21.5 -52.5z" />
    <glyph glyph-name="wgrave.sc" horiz-adv-x="880" 
d="M930 563l-275 -563h-173l-36 353h-3l-160 -353h-171l-71 563h170l29 -360h3l152 360h168l32 -360h4l149 360h182zM451 766l109 -144h-120l-152 144h163z" />
    <glyph glyph-name="yacute.sc" horiz-adv-x="516" 
d="M585 563l-269 -342l-38 -221h-163l40 224l-134 339h174l64 -210l136 210h190zM502 766l-170 -144h-122l129 144h163z" />
    <glyph glyph-name="ycircumflex.sc" horiz-adv-x="516" 
d="M585 563l-269 -342l-38 -221h-163l40 224l-134 339h174l64 -210l136 210h190zM511 622h-125l-55 82l-83 -82h-127l148 144h146z" />
    <glyph glyph-name="ydieresis.sc" horiz-adv-x="516" 
d="M585 563l-269 -342l-38 -221h-163l40 224l-134 339h174l64 -210l136 210h190zM292 714q0 -36 -24 -61t-60 -25q-34 0 -56 20.5t-22 52.5q0 37 24.5 61.5t60.5 24.5q34 0 55.5 -20.5t21.5 -52.5zM511 714q0 -36 -24 -61t-60 -25q-34 0 -56 20.5t-22 52.5q0 37 24.5 61.5
t61.5 24.5q33 0 54.5 -20.5t21.5 -52.5z" />
    <glyph glyph-name="ygrave.sc" horiz-adv-x="516" 
d="M585 563l-269 -342l-38 -221h-163l40 224l-134 339h174l64 -210l136 210h190zM264 766l109 -144h-120l-152 144h163z" />
    <glyph glyph-name="zacute.sc" horiz-adv-x="540" 
d="M443 0h-464l23 127l300 303h-225l24 133h433l-21 -122l-302 -307h256zM516 766l-170 -144h-122l129 144h163z" />
    <glyph glyph-name="zcaron.sc" horiz-adv-x="540" 
d="M443 0h-464l23 127l300 303h-225l24 133h433l-21 -122l-302 -307h256zM550 766l-147 -144h-145l-98 144h126l54 -83l83 83h127z" />
    <glyph glyph-name="zdotaccent.sc" horiz-adv-x="540" 
d="M443 0h-464l23 127l300 303h-225l24 133h433l-21 -122l-302 -307h256zM421 714q0 -37 -25 -63.5t-63 -26.5q-36 0 -59 21.5t-23 54.5q0 38 26 64t64 26q34 0 57 -22t23 -54z" />
    <glyph glyph-name="ij.sc" horiz-adv-x="776" 
d="M180 0h-165l100 563h165zM754 563l-65 -371q-7 -44 -20.5 -77.5t-37 -65t-63 -48.5t-93.5 -17q-78 0 -127.5 37.5t-61.5 107.5l144 51q5 -52 46 -52q44 0 54 65l62 370h162z" />
    <glyph glyph-name="germandbls.sc" horiz-adv-x="1008" 
d="M-18 82l110 101q19 -29 51.5 -45t64.5 -16q34 0 52 13t18 33q0 21 -16 34t-55 24q-82 24 -116 60t-34 98q0 86 68 140.5t169 54.5q136 0 200 -88l-110 -97q-33 51 -97 51q-31 0 -50 -13t-19 -35q0 -17 13.5 -26t51.5 -21q86 -24 122.5 -63.5t36.5 -103.5q0 -89 -67 -144
t-171 -55q-144 0 -222 98zM486 82l110 101q19 -29 51.5 -45t64.5 -16q34 0 52 13t18 33q0 21 -16 34t-55 24q-82 24 -116 60t-34 98q0 86 68 140.5t169 54.5q136 0 200 -88l-110 -97q-33 51 -97 51q-31 0 -50 -13t-19 -35q0 -17 13.5 -26t51.5 -21q86 -24 122.5 -63.5
t36.5 -103.5q0 -89 -67 -144t-171 -55q-144 0 -222 98z" />
    <glyph glyph-name="eng.sc" horiz-adv-x="670" 
d="M541 -19q-9 -51 -23 -87.5t-39 -69.5t-67.5 -50.5t-100.5 -17.5q-37 0 -69 9l29 133q15 -5 34 -5q34 0 51 22t24 65l2 11l-149 340h-3l-56 -331h-159l99 563h177l136 -318h3l55 318h158z" />
    <glyph glyph-name="grave.sc" 
d="M173 766l109 -144h-120l-152 144h163z" />
    <glyph glyph-name="acute.sc" 
d="M416 766l-170 -144h-122l129 144h163z" />
    <glyph glyph-name="circumflex.sc" 
d="M388 622h-125l-55 82l-83 -82h-127l148 144h146z" />
    <glyph glyph-name="caron.sc" 
d="M413 766l-147 -144h-145l-98 144h126l54 -83l83 83h127z" />
    <glyph glyph-name="tilde.sc" 
d="M403 758q-17 -58 -51 -94.5t-85 -36.5q-37 0 -72 19q-42 22 -65 22q-31 0 -50 -42h-71q17 57 51 93t85 36q36 0 76 -20q38 -20 62 -20q31 0 49 43h71z" />
    <glyph glyph-name="dieresis.sc" 
d="M179 714q0 -36 -24 -61t-60 -25q-34 0 -56 20.5t-22 52.5q0 37 24.5 61.5t60.5 24.5q34 0 55.5 -20.5t21.5 -52.5zM398 714q0 -36 -24 -61t-60 -25q-34 0 -56 20.5t-22 52.5q0 37 24.5 61.5t61.5 24.5q33 0 54.5 -20.5t21.5 -52.5z" />
    <glyph glyph-name="macron.sc" 
d="M365 651h-333l14 84h334z" />
    <glyph glyph-name="breve.sc" 
d="M391 766q-16 -74 -66.5 -109t-122.5 -35q-157 0 -157 144h82q0 -57 80 -57q86 0 102 57h82z" />
    <glyph glyph-name="ring.sc" 
d="M197 607q-41 0 -67 25t-26 64q0 52 34 87.5t85 35.5q41 0 67 -25t26 -63q0 -52 -34 -88t-85 -36zM267 724q0 21 -13.5 35.5t-35.5 14.5q-28 0 -46.5 -21t-18.5 -51q0 -22 13 -36t35 -14q29 0 47.5 21t18.5 51z" />
    <glyph glyph-name="hungarumlaut.sc" 
d="M302 766l-171 -144h-121l128 144h164zM521 766l-171 -144h-121l129 144h163z" />
    <glyph glyph-name="dotaccent.sc" 
d="M292 714q0 -37 -25 -63.5t-63 -26.5q-36 0 -59 21.5t-23 54.5q0 38 26 64t64 26q34 0 57 -22t23 -54z" />
    <glyph glyph-name="exclamdown.sc" horiz-adv-x="330" 
d="M93 343h160l-60 -343h-161zM96 476q0 42 27 70.5t69 28.5q40 0 64.5 -23t24.5 -60q0 -42 -28 -70.5t-69 -28.5q-39 0 -63.5 23.5t-24.5 59.5z" />
    <glyph glyph-name="questiondown.sc" horiz-adv-x="500" 
d="M183 478q0 42 27.5 71t69.5 29q40 0 65 -23.5t25 -60.5q0 -42 -28.5 -71t-69.5 -29q-39 0 -64 24t-25 60zM188 348h152l-4 -28q-5 -33 -19.5 -55t-48.5 -42l-17 -10q-34 -20 -44 -32t-10 -28q0 -15 11 -23t27 -8q38 0 50 46l145 -25q-16 -71 -70 -112.5t-144 -41.5
q-79 0 -128.5 45.5t-49.5 109.5q0 89 84 137q40 23 52 33.5t13 24.5z" />
    <glyph glyph-name="Euro.sc" horiz-adv-x="570" 
d="M460 135l20 -123q-53 -28 -141 -28q-98 0 -158 53.5t-70 135.5h-85l43 90h44q0 12 7 42h-71l43 90h50q77 184 277 184q72 0 134 -27l-57 -120q-34 22 -88 22q-66 0 -102 -59h175l-43 -90h-165q-8 -24 -8 -42h161l-43 -90h-117q4 -27 31 -43t64 -16q56 0 99 21z" />
    <glyph glyph-name="cent.sc" horiz-adv-x="570" 
d="M409 509q90 -10 135 -66l-96 -101q-17 31 -62 39l-46 -265q48 6 85 42l70 -99q-76 -67 -178 -73l-12 -65h-74l12 67q-89 14 -140 70t-51 145q0 122 79 211t204 96l11 64h75zM313 379q-48 -8 -80.5 -52t-32.5 -105q0 -38 16.5 -66.5t49.5 -35.5z" />
    <glyph glyph-name="sterling.sc" horiz-adv-x="570" 
d="M535 524l-93 -108q-23 29 -57 29q-25 0 -42 -16.5t-22 -46.5l-6 -35h120l-21 -113h-119l-18 -102h202l-24 -132h-431l23 132h70l18 102h-69l19 113h70l8 47q14 85 70.5 135t153.5 50q86 0 148 -55z" />
    <glyph glyph-name="florin.sc" horiz-adv-x="570" 
d="M570 539l-74 -115q-26 18 -51 18q-38 0 -56 -50l-16 -43h134l-21 -111h-149l-57 -155q-33 -88 -82.5 -128.5t-123.5 -40.5q-69 0 -118 32l65 118q27 -20 54 -20q35 0 58 59l51 135h-114l21 111h129l30 79q56 147 202 147q65 0 118 -36z" />
    <glyph glyph-name="yen.sc" horiz-adv-x="570" 
d="M594 568l-186 -238h81l-18 -100h-131l-8 -44h131l-17 -100h-130l-15 -86h-151l15 86h-130l17 100h129l8 44h-129l18 100h90l-104 238h162l66 -194l129 194h173z" />
    <glyph glyph-name="perthousand.sc" horiz-adv-x="1164" 
d="M262 434q0 20 -11.5 33t-33.5 13q-24 0 -39 -18.5t-15 -45.5q0 -20 11.5 -32.5t32.5 -12.5q25 0 40 18t15 45zM196 274q-68 0 -105.5 36t-37.5 95q0 73 48.5 122t126.5 49q68 0 105.5 -35.5t37.5 -94.5q0 -73 -48.5 -122.5t-126.5 -49.5zM631 148q0 20 -11.5 33t-33.5 13
q-24 0 -39 -18.5t-15 -45.5q0 -20 11.5 -32.5t32.5 -12.5q25 0 40 18t15 45zM565 -12q-68 0 -105.5 36t-37.5 95q0 73 48.5 122t126.5 49q68 0 105.5 -35.5t37.5 -94.5q0 -73 -48.5 -122.5t-126.5 -49.5zM985 148q0 20 -11.5 33t-33.5 13q-24 0 -39 -18.5t-15 -45.5
q0 -20 11.5 -32.5t32.5 -12.5q25 0 40 18t15 45zM919 -12q-68 0 -105.5 36t-37.5 95q0 73 48.5 122t126.5 49q68 0 105.5 -35.5t37.5 -94.5q0 -73 -48.5 -122.5t-126.5 -49.5zM646 547l-435 -581l-70 45l438 586z" />
    <glyph glyph-name="zero.onum" horiz-adv-x="701" 
d="M652 329q0 -145 -96.5 -245.5t-246.5 -100.5q-128 0 -201 70t-73 185q0 145 97 245t246 100q128 0 201 -70t73 -184zM485 314q0 54 -32.5 89t-89.5 35q-72 0 -117 -54t-45 -130q0 -54 33 -89.5t89 -35.5q74 0 118 54t44 131z" />
    <glyph glyph-name="one.onum" horiz-adv-x="472" 
d="M393 566l-100 -566h-165l70 389l-112 -68l-59 121l209 124h157z" />
    <glyph glyph-name="two.onum" horiz-adv-x="597" 
d="M539 401q0 -46 -19 -84.5t-56.5 -69.5t-70 -50.5t-82.5 -43.5l-43 -21v-3h241l-23 -129h-486l23 126l59 30q169 85 230.5 127.5t61.5 92.5q0 38 -23 54.5t-53 16.5q-70 0 -106 -70l-127 54q34 68 100 110t152 42q56 0 104 -16t83 -59t35 -107z" />
    <glyph glyph-name="three.onum" horiz-adv-x="571" 
d="M539 566l-25 -142q-100 -68 -230 -142l-1 -3h1q16 2 27 2q67 0 121 -47.5t54 -131.5q0 -133 -96 -202.5t-253 -69.5q-72 0 -134 13l31 143q49 -11 100 -11q75 0 127 28.5t52 84.5q0 44 -35.5 65.5t-93.5 21.5q-52 0 -111 -14l-9 116q122 64 254 149l1 4h-237l24 136h433z
" />
    <glyph glyph-name="four.onum" horiz-adv-x="637" 
d="M593 135l-24 -135h-96l-30 -170h-155l30 170h-330l25 142l328 441h183l-341 -448h157l36 203h153l-36 -203h100z" />
    <glyph glyph-name="five.onum" horiz-adv-x="571" 
d="M549 566l-26 -144h-256l-33 -118q15 3 41 3q93 0 150.5 -51t57.5 -143q0 -129 -89 -206t-257 -77q-72 0 -136 12l28 142q47 -9 96 -9q184 0 184 122q0 91 -123 91q-57 0 -135 -17l92 395h406z" />
    <glyph glyph-name="six.onum" horiz-adv-x="649" 
d="M593 260q0 -118 -83 -198t-220 -80q-108 0 -181 58.5t-73 178.5q0 237 395 512l151 -73q-176 -112 -266 -214l2 -2q38 16 72 16q89 0 146 -53t57 -145zM427 247q0 43 -27.5 70.5t-67.5 27.5q-59 0 -96 -37.5t-37 -93.5q0 -43 29.5 -70.5t71.5 -27.5q58 0 92.5 36.5
t34.5 94.5z" />
    <glyph glyph-name="seven.onum" horiz-adv-x="571" 
d="M570 566l-23 -130q-242 -360 -389 -616l-169 37q178 282 373 565h-310l25 144h493z" />
    <glyph glyph-name="eight.onum" horiz-adv-x="649" 
d="M601 550q0 -71 -42 -116.5t-102 -62.5v-3q45 -15 76.5 -56t31.5 -94q0 -112 -78.5 -174t-204.5 -62q-61 0 -113.5 17.5t-90.5 63.5t-38 113q0 78 49 131.5t117 69.5v4q-40 18 -63.5 53t-23.5 79q0 98 77 155.5t183 57.5q95 0 158.5 -45t63.5 -131zM445 522q0 38 -22 59
t-59 21q-43 0 -70.5 -28t-27.5 -69q0 -32 21.5 -54.5t57.5 -22.5q43 0 71.5 28t28.5 66zM406 222q0 37 -25 62t-64 25q-51 0 -85 -32t-34 -79q0 -41 25.5 -64.5t63.5 -23.5q57 0 88 31.5t31 80.5z" />
    <glyph glyph-name="nine.onum" horiz-adv-x="649" 
d="M600 346q0 -73 -35.5 -147.5t-99 -143t-130 -123.5t-150.5 -113l-140 84q189 119 276 219l-2 2q-38 -16 -72 -16q-90 0 -147 52.5t-57 144.5q0 118 83 198t220 80q108 0 181 -58.5t73 -178.5zM437 351q0 43 -29 70.5t-71 27.5q-58 0 -93 -36.5t-35 -94.5
q0 -43 27.5 -70.5t68.5 -27.5q58 0 95 37.5t37 93.5z" />
    <glyph glyph-name="napostrophe.sc" horiz-adv-x="794" 
d="M668 0h-179l-132 331h-3l-56 -331h-159l99 563h177l134 -333h3l57 333h158zM220 563l-130 -195h-123l111 195h142z" />
    <glyph glyph-name="ordfeminine.sc" horiz-adv-x="380" 
d="M16 431l209 293h94l48 -293h-99l-5 51h-104l-34 -51h-109zM257 542l-7 92l-56 -92h63z" />
    <glyph glyph-name="fl.sc" horiz-adv-x="973" 
d="M472 436h-219l-18 -104h205l-21 -122h-206l-36 -210h-162l99 563h380zM890 0h-377l99 563h165l-76 -435h212z" />
    <glyph glyph-name="fi.sc" horiz-adv-x="805" 
d="M472 436h-219l-18 -104h205l-21 -122h-206l-36 -210h-162l99 563h380zM678 0h-165l100 563h165z" />
    </font>
</defs>
</svg>
