<svg width="25" height="25" viewBox="0 0 25 25" fill="none" xmlns="http://www.w3.org/2000/svg">
<g clip-path="url(#clip0)">
<path d="M20.8334 23.8542C20.7292 23.8542 20.625 23.8542 20.5209 23.8542C17.1875 23.4375 13.8542 22.2917 11.0417 20.5209C8.43754 18.8542 6.14587 16.5625 4.47921 13.9584C2.60421 11.1459 1.45837 7.81254 1.14587 4.47921C1.14587 3.64587 1.35421 2.81254 1.87504 2.18754C2.39587 1.56254 3.12504 1.14587 3.95837 1.04171C4.06254 1.04171 4.16671 1.04171 4.27087 1.04171H7.39587C8.95837 1.04171 10.3125 2.18754 10.5209 3.75004C10.625 4.68754 10.8334 5.62504 11.1459 6.45837C11.5625 7.60421 11.25 8.85421 10.4167 9.79171L9.68754 10.5209C10.9375 12.3959 12.5 14.0625 14.4792 15.3125L15.2084 14.5834C16.0417 13.75 17.3959 13.4375 18.5417 13.8542C19.375 14.1667 20.3125 14.375 21.25 14.4792C22.8125 14.6875 23.9584 16.0417 23.9584 17.6042V20.7292C23.9584 21.5625 23.6459 22.3959 23.0209 22.9167C22.3959 23.4375 21.6667 23.8542 20.8334 23.8542ZM7.39587 3.12504H4.27087C3.95837 3.12504 3.64587 3.33337 3.43754 3.54171C3.33337 3.75004 3.22921 3.95837 3.22921 4.27087C3.54171 7.29171 4.58337 10.2084 6.25004 12.8125C7.81254 15.2084 9.79171 17.2917 12.1875 18.75C14.7917 20.4167 17.7084 21.4584 20.7292 21.7709C21.1459 21.7709 21.3542 21.6667 21.5625 21.4584C21.7709 21.25 21.875 21.0417 21.875 20.7292V17.6042C21.875 17.0834 21.4584 16.6667 20.9375 16.5625C19.8959 16.4584 18.8542 16.1459 17.8125 15.7292C17.3959 15.625 16.9792 15.625 16.6667 15.9375L15.3125 17.2917C15 17.6042 14.4792 17.7084 14.0625 17.5C11.25 15.9375 8.95837 13.6459 7.39587 10.8334C7.29171 10.4167 7.39587 9.89587 7.70837 9.58337L9.06254 8.22921C9.27087 8.02087 9.37504 7.50004 9.27087 7.18754C8.85421 6.14587 8.64587 5.10421 8.43754 4.06254C8.43754 3.54171 7.91671 3.12504 7.39587 3.12504ZM19.7917 10.4167C19.2709 10.4167 18.8542 10.1042 18.75 9.58337C18.4375 7.91671 17.0834 6.66671 15.4167 6.25004C14.8959 6.14587 14.4792 5.62504 14.5834 5.00004C14.6875 4.47921 15.2084 4.06254 15.8334 4.16671C18.3334 4.68754 20.3125 6.56254 20.7292 9.06254C20.8334 9.58337 20.5209 10.2084 19.8959 10.3125C19.8959 10.3125 19.8959 10.4167 19.7917 10.4167ZM23.9584 10.3125C23.4375 10.3125 23.0209 9.89587 22.9167 9.37504C22.5 5.52087 19.4792 2.50004 15.5209 1.97921C15 1.87504 14.5834 1.35421 14.5834 0.833374C14.5834 0.312541 15.2084 -0.104126 15.7292 -0.104126C20.625 0.416707 24.375 4.16671 24.8959 9.06254C25 9.58337 24.5834 10.1042 23.9584 10.2084C24.0625 10.3125 23.9584 10.3125 23.9584 10.3125Z" fill="url(#paint0_linear)"/>
</g>
<defs>
<linearGradient id="paint0_linear" x1="-11.5204" y1="23.8542" x2="25.0309" y2="23.8542" gradientUnits="userSpaceOnUse">
<stop stop-color="#3E65E4"/>
<stop offset="1" stop-color="#2D8DE4"/>
</linearGradient>
<clipPath id="clip0">
<rect width="25" height="25" fill="white"/>
</clipPath>
</defs>
</svg>
