<svg width="25" height="18" viewBox="0 0 25 18" fill="none" xmlns="http://www.w3.org/2000/svg">
<path fill-rule="evenodd" clip-rule="evenodd" d="M0 8.75C0 8.05964 0.559644 7.5 1.25 7.5H23.75C24.4404 7.5 25 8.05964 25 8.75C25 9.44036 24.4404 10 23.75 10H1.25C0.559644 10 0 9.44036 0 8.75Z" fill="#333333"/>
<path fill-rule="evenodd" clip-rule="evenodd" d="M0 1.25C0 0.559644 0.559644 0 1.25 0H23.75C24.4404 0 25 0.559644 25 1.25C25 1.94036 24.4404 2.5 23.75 2.5H1.25C0.559644 2.5 0 1.94036 0 1.25Z" fill="#333333"/>
<path fill-rule="evenodd" clip-rule="evenodd" d="M0 16.25C0 15.5596 0.559644 15 1.25 15H23.75C24.4404 15 25 15.5596 25 16.25C25 16.9404 24.4404 17.5 23.75 17.5H1.25C0.559644 17.5 0 16.9404 0 16.25Z" fill="#333333"/>
</svg>
