<svg width="21" height="25" viewBox="0 0 21 25" fill="none" xmlns="http://www.w3.org/2000/svg">
<path fill-rule="evenodd" clip-rule="evenodd" d="M10.4167 2.08335C8.20659 2.08335 6.08696 2.96133 4.52414 4.52414C2.96133 6.08696 2.08335 8.20659 2.08335 10.4167C2.08335 13.6439 4.18309 16.7754 6.48542 19.2056C7.61528 20.3982 8.74868 21.3746 9.60078 22.0531C9.9179 22.3057 10.1949 22.516 10.4167 22.6799C10.6386 22.516 10.9156 22.3057 11.2327 22.0531C12.0848 21.3746 13.2182 20.3982 14.3481 19.2056C16.6504 16.7754 18.7501 13.6439 18.7501 10.4167C18.7501 8.20659 17.8722 6.08696 16.3093 4.52414C14.7465 2.96133 12.6269 2.08335 10.4167 2.08335ZM10.4167 23.9585C9.83893 24.8252 9.83866 24.8251 9.83836 24.8249L9.83539 24.8229L9.82844 24.8182L9.80457 24.8021C9.78429 24.7883 9.75536 24.7685 9.71836 24.7429C9.64437 24.6916 9.53805 24.617 9.40402 24.5202C9.13605 24.3266 8.75669 24.0442 8.303 23.6829C7.39728 22.9617 6.18691 21.9198 4.973 20.6384C2.58779 18.1207 0 14.4813 0 10.4167C6.20886e-08 7.65405 1.09748 5.00451 3.05099 3.05099C5.00451 1.09748 7.65405 0 10.4167 0C13.1794 0 15.829 1.09748 17.7825 3.05099C19.736 5.00451 20.8335 7.65405 20.8335 10.4167C20.8335 14.4813 18.2457 18.1207 15.8605 20.6384C14.6466 21.9198 13.4362 22.9617 12.5305 23.6829C12.0768 24.0442 11.6974 24.3266 11.4295 24.5202C11.2954 24.617 11.1891 24.6916 11.1151 24.7429C11.0781 24.7685 11.0492 24.7883 11.0289 24.8021L11.005 24.8182L10.9981 24.8229L10.9959 24.8243C10.9956 24.8245 10.9946 24.8252 10.4167 23.9585ZM10.4167 23.9585L10.9946 24.8252C10.6447 25.0585 10.1883 25.0581 9.83836 24.8249L10.4167 23.9585Z" fill="url(#paint0_linear)"/>
<path fill-rule="evenodd" clip-rule="evenodd" d="M10.4167 8.3334C9.26614 8.3334 8.3334 9.26614 8.3334 10.4167C8.3334 11.5673 9.26614 12.5001 10.4167 12.5001C11.5673 12.5001 12.5001 11.5673 12.5001 10.4167C12.5001 9.26614 11.5673 8.3334 10.4167 8.3334ZM6.25005 10.4167C6.25005 8.11554 8.11554 6.25005 10.4167 6.25005C12.7179 6.25005 14.5834 8.11554 14.5834 10.4167C14.5834 12.7179 12.7179 14.5834 10.4167 14.5834C8.11554 14.5834 6.25005 12.7179 6.25005 10.4167Z" fill="url(#paint1_linear)"/>
<defs>
<linearGradient id="paint0_linear" x1="-11.1034" y1="25" x2="20.9378" y2="25" gradientUnits="userSpaceOnUse">
<stop stop-color="#3E65E4"/>
<stop offset="1" stop-color="#2D8DE4"/>
</linearGradient>
<linearGradient id="paint1_linear" x1="-11.1034" y1="25" x2="20.9378" y2="25" gradientUnits="userSpaceOnUse">
<stop stop-color="#3E65E4"/>
<stop offset="1" stop-color="#2D8DE4"/>
</linearGradient>
</defs>
</svg>
