<svg width="25" height="21" viewBox="0 0 25 21" fill="none" xmlns="http://www.w3.org/2000/svg">
<path fill-rule="evenodd" clip-rule="evenodd" d="M3.40916 2.27271C2.78676 2.27271 2.27281 2.78667 2.27281 3.40906V17.0453C2.27281 17.6677 2.78676 18.1817 3.40916 18.1817H21.5908C22.2132 18.1817 22.7272 17.6677 22.7272 17.0453V3.40906C22.7272 2.78667 22.2132 2.27271 21.5908 2.27271H3.40916ZM9.76048e-05 3.40906C9.76048e-05 1.53148 1.53158 0 3.40916 0H21.5908C23.4684 0 24.9999 1.53148 24.9999 3.40906V17.0453C24.9999 18.9229 23.4684 20.4544 21.5908 20.4544H3.40916C1.53158 20.4544 9.76048e-05 18.9229 9.76048e-05 17.0453V3.40906Z" fill="url(#paint0_linear)"/>
<path fill-rule="evenodd" clip-rule="evenodd" d="M0.205514 2.75741C0.565414 2.24326 1.27397 2.11823 1.78811 2.47813L12.5 9.97645L23.2119 2.47813C23.726 2.11823 24.4346 2.24326 24.7945 2.75741C25.1544 3.27155 25.0293 3.9801 24.5152 4.34L13.1517 12.2945C12.7604 12.5684 12.2396 12.5684 11.8483 12.2945L0.484796 4.34C-0.0293473 3.9801 -0.154386 3.27155 0.205514 2.75741Z" fill="url(#paint1_linear)"/>
<defs>
<linearGradient id="paint0_linear" x1="-13.324" y1="20.4544" x2="25.1252" y2="20.4544" gradientUnits="userSpaceOnUse">
<stop stop-color="#3E65E4"/>
<stop offset="1" stop-color="#2D8DE4"/>
</linearGradient>
<linearGradient id="paint1_linear" x1="-13.324" y1="20.4544" x2="25.1252" y2="20.4544" gradientUnits="userSpaceOnUse">
<stop stop-color="#3E65E4"/>
<stop offset="1" stop-color="#2D8DE4"/>
</linearGradient>
</defs>
</svg>
