<svg width="21" height="25" viewBox="0 0 21 25" fill="none" xmlns="http://www.w3.org/2000/svg">
<path fill-rule="evenodd" clip-rule="evenodd" d="M10.4167 2.08323C8.20659 2.08323 6.08696 2.96121 4.52414 4.52402C2.96133 6.08684 2.08335 8.20647 2.08335 10.4166C2.08335 13.6438 4.18309 16.7753 6.48542 19.2055C7.61528 20.3981 8.74868 21.3745 9.60078 22.053C9.9179 22.3055 10.1949 22.5159 10.4167 22.6798C10.6386 22.5159 10.9156 22.3055 11.2327 22.053C12.0848 21.3745 13.2182 20.3981 14.3481 19.2055C16.6504 16.7753 18.7501 13.6438 18.7501 10.4166C18.7501 8.20647 17.8722 6.08684 16.3093 4.52402C14.7465 2.96121 12.6269 2.08323 10.4167 2.08323ZM10.4167 23.9584C9.83893 24.8251 9.83866 24.8249 9.83836 24.8247L9.83539 24.8228L9.82844 24.8181L9.80457 24.8019C9.78429 24.7882 9.75536 24.7684 9.71836 24.7428C9.64437 24.6915 9.53805 24.6169 9.40402 24.5201C9.13605 24.3265 8.75669 24.044 8.303 23.6828C7.39728 22.9615 6.18691 21.9197 4.973 20.6383C2.58779 18.1206 0 14.4812 0 10.4166C6.20886e-08 7.65393 1.09748 5.00439 3.05099 3.05087C5.00451 1.09735 7.65405 -0.00012207 10.4167 -0.00012207C13.1794 -0.00012207 15.829 1.09735 17.7825 3.05087C19.736 5.00439 20.8335 7.65393 20.8335 10.4166C20.8335 14.4812 18.2457 18.1206 15.8605 20.6383C14.6466 21.9197 13.4362 22.9615 12.5305 23.6828C12.0768 24.044 11.6974 24.3265 11.4295 24.5201C11.2954 24.6169 11.1891 24.6915 11.1151 24.7428C11.0781 24.7684 11.0492 24.7882 11.0289 24.8019L11.005 24.8181L10.9981 24.8228L10.9959 24.8242C10.9956 24.8244 10.9946 24.8251 10.4167 23.9584ZM10.4167 23.9584L10.9946 24.8251C10.6447 25.0584 10.1883 25.058 9.83836 24.8247L10.4167 23.9584Z" fill="url(#paint0_linear)"/>
<path fill-rule="evenodd" clip-rule="evenodd" d="M10.4167 8.33327C9.26614 8.33327 8.3334 9.26602 8.3334 10.4166C8.3334 11.5672 9.26614 12.5 10.4167 12.5C11.5673 12.5 12.5001 11.5672 12.5001 10.4166C12.5001 9.26602 11.5673 8.33327 10.4167 8.33327ZM6.25005 10.4166C6.25005 8.11542 8.11554 6.24992 10.4167 6.24992C12.7179 6.24992 14.5834 8.11542 14.5834 10.4166C14.5834 12.7178 12.7179 14.5833 10.4167 14.5833C8.11554 14.5833 6.25005 12.7178 6.25005 10.4166Z" fill="url(#paint1_linear)"/>
<defs>
<linearGradient id="paint0_linear" x1="-11.1034" y1="24.9999" x2="20.9378" y2="24.9999" gradientUnits="userSpaceOnUse">
<stop stop-color="#3E65E4"/>
<stop offset="1" stop-color="#2D8DE4"/>
</linearGradient>
<linearGradient id="paint1_linear" x1="-11.1034" y1="24.9999" x2="20.9378" y2="24.9999" gradientUnits="userSpaceOnUse">
<stop stop-color="#3E65E4"/>
<stop offset="1" stop-color="#2D8DE4"/>
</linearGradient>
</defs>
</svg>
