<svg width="24" height="24" viewBox="0 0 24 24" fill="none" xmlns="http://www.w3.org/2000/svg">
<path d="M19.6875 23.9583C19.5833 23.9583 19.4792 23.9583 19.375 23.9583C16.0417 23.5417 12.7083 22.3958 9.89583 20.625C7.29167 18.9583 5 16.6667 3.33333 14.0625C1.45833 11.25 0.3125 7.91667 0 4.58333C0 3.75 0.208333 2.91667 0.729167 2.29167C1.25 1.66667 1.97917 1.25 2.8125 1.14583C2.91667 1.14583 3.02083 1.14583 3.125 1.14583H6.25C7.8125 1.14583 9.16667 2.29167 9.375 3.85417C9.47917 4.79167 9.6875 5.72917 10 6.5625C10.4167 7.70833 10.1042 8.95833 9.27083 9.89583L8.54167 10.625C9.79167 12.5 11.3542 14.1667 13.3333 15.4167L14.0625 14.6875C14.8958 13.8542 16.25 13.5417 17.3958 13.9583C18.2292 14.2708 19.1667 14.4792 20.1042 14.5833C21.6667 14.7917 22.8125 16.1458 22.8125 17.7083V20.8333C22.8125 21.6667 22.5 22.5 21.875 23.0208C21.25 23.5417 20.5208 23.9583 19.6875 23.9583ZM6.25 3.22917H3.125C2.8125 3.22917 2.5 3.4375 2.29167 3.64583C2.1875 3.85417 2.08333 4.0625 2.08333 4.375C2.39583 7.39583 3.4375 10.3125 5.10417 12.9167C6.66667 15.3125 8.64583 17.3958 11.0417 18.8542C13.6458 20.5208 16.5625 21.5625 19.5833 21.875C20 21.875 20.2083 21.7708 20.4167 21.5625C20.625 21.3542 20.7292 21.1458 20.7292 20.8333V17.7083C20.7292 17.1875 20.3125 16.7708 19.7917 16.6667C18.75 16.5625 17.7083 16.25 16.6667 15.8333C16.25 15.7292 15.8333 15.7292 15.5208 16.0417L14.1667 17.3958C13.8542 17.7083 13.3333 17.8125 12.9167 17.6042C10.1042 16.0417 7.8125 13.75 6.25 10.9375C6.14583 10.5208 6.25 10 6.5625 9.6875L7.91667 8.33333C8.125 8.125 8.22917 7.60417 8.125 7.29167C7.70833 6.25 7.5 5.20833 7.29167 4.16667C7.29167 3.64583 6.77083 3.22917 6.25 3.22917ZM18.6458 10.5208C18.125 10.5208 17.7083 10.2083 17.6042 9.6875C17.2917 8.02083 15.9375 6.77083 14.2708 6.35417C13.75 6.25 13.3333 5.72917 13.4375 5.10417C13.5417 4.58333 14.0625 4.16667 14.6875 4.27083C17.1875 4.79167 19.1667 6.66667 19.5833 9.16667C19.6875 9.6875 19.375 10.3125 18.75 10.4167C18.75 10.4167 18.75 10.5208 18.6458 10.5208ZM22.8125 10.4167C22.2917 10.4167 21.875 10 21.7708 9.47917C21.3542 5.625 18.3333 2.60417 14.375 2.08333C13.8542 1.97917 13.4375 1.45833 13.4375 0.9375C13.4375 0.416667 14.0625 0 14.5833 0C19.4792 0.520833 23.2292 4.27083 23.75 9.16667C23.8542 9.6875 23.4375 10.2083 22.8125 10.3125C22.9167 10.4167 22.8125 10.4167 22.8125 10.4167Z" fill="url(#paint0_linear)"/>
<defs>
<linearGradient id="paint0_linear" x1="-12.6663" y1="23.9583" x2="23.885" y2="23.9583" gradientUnits="userSpaceOnUse">
<stop stop-color="#3E65E4"/>
<stop offset="1" stop-color="#2D8DE4"/>
</linearGradient>
</defs>
</svg>
