<svg width="36" height="50" viewBox="0 0 36 50" fill="none" xmlns="http://www.w3.org/2000/svg">
<path fill-rule="evenodd" clip-rule="evenodd" d="M18.2783 0.0276114C18.8858 1.49098 19.4932 2.95435 20.0454 4.3625C21.1498 7.09596 22.1162 9.52571 22.9445 11.21C24.3251 14.0539 25.7056 16.2903 27.9697 18.2783C30.0405 20.1006 35.5074 21.7021 35.4246 25.5676C35.2037 28.2458 33.5747 30.427 31.6695 32.2494C30.3718 33.5195 27.8592 36.0044 28.5771 37.9924C29.2122 39.8147 30.1509 43.266 30.2338 43.5698C30.289 43.7078 31.0069 45.9995 29.5435 47.5181C28.1353 48.9815 23.69 49.5889 23.6624 49.5889C23.5244 49.6165 22.6132 49.7546 21.0394 49.5613C19.4104 50.0583 17.8918 50.362 16.5388 49.1747C16.2075 48.871 15.8762 48.4845 15.6829 48.1255C15.5173 47.8218 15.4344 47.4905 15.4068 47.2144C15.3792 46.9383 15.4068 46.6622 15.462 46.4413C15.5448 46.1652 15.6829 45.9719 15.9038 45.8615C15.9866 45.8338 16.0418 45.8062 16.1247 45.8062C17.5328 45.751 17.8641 45.7234 18.3887 45.6682C18.6372 45.5025 19.4656 45.4749 19.9073 45.3092C20.3767 45.1436 20.7357 44.8951 20.9566 44.5085C21.2603 43.9563 21.3155 43.0452 20.9566 41.637C20.6528 40.4221 20.3215 39.3453 20.0178 38.2409C19.6865 37.0812 19.3551 35.9216 19.0238 34.6515C18.4992 32.6635 18.444 30.6755 17.9746 28.798C17.2567 25.9265 16.0695 24.049 14.5785 21.4812C13.4741 19.576 12.1764 17.4224 11.1271 15.6553C9.41528 12.7838 7.37206 10.1884 5.27365 7.53773C4.36249 6.37808 3.45136 5.21843 2.56781 4.05878C2.12604 3.47895 1.68425 2.87152 1.27009 2.29169C0.855926 1.68426 0.414161 1.07682 0 0.469383L0.662665 0C1.07683 0.607436 1.51859 1.21487 1.93275 1.82231C2.37452 2.42975 2.78871 3.00957 3.23048 3.5894C4.14163 4.80427 5.05277 5.93631 5.90871 7.04074C8.03473 9.71898 10.0779 12.3144 11.8174 15.2411C12.8666 17.0082 14.1643 19.1895 15.2688 21.067C16.7873 23.69 18.0298 25.6228 18.7477 28.5771C19.2447 30.5099 19.2999 32.5531 19.8245 34.5963C20.1282 35.7835 20.4596 36.888 20.7633 37.9924C21.0946 39.0968 21.3983 40.2013 21.7297 41.4161C22.1714 43.0452 22.061 44.1496 21.6468 44.8951C21.2051 45.6682 20.4596 46.0271 19.5484 46.248C18.8582 46.4137 18.5268 46.248 18.4992 46.4965C18.4716 46.4965 17.8642 48.0427 16.3456 47.6562C16.3732 47.7114 16.4008 47.7666 16.4008 47.7942C16.5388 48.0703 16.7873 48.374 17.0635 48.6225C18.1127 49.5613 19.4104 49.2576 20.6805 48.871C20.9013 48.8158 20.9566 48.7882 21.1775 48.8158C22.6961 48.9815 23.4968 48.8158 23.5244 48.8158H23.552C23.552 48.8158 27.7488 48.236 28.9637 46.9935C30.1233 45.8062 29.4607 43.8735 29.4607 43.8735V43.8459C29.4607 43.8459 28.4943 40.2289 27.804 38.3237C26.9481 35.894 29.5159 33.271 31.1173 31.7247C32.8844 30.0405 34.4306 28.0249 34.6239 25.5676C34.9276 22.6132 29.2122 20.5148 27.5003 18.9962C25.1534 16.953 23.69 14.5785 22.2543 11.6517C21.4259 9.99509 20.4596 7.53773 19.3275 4.74905C18.7753 3.36851 18.1955 1.93275 17.5604 0.414161L18.2783 0.0276114ZM17.9194 46.4689C17.6985 46.4689 17.5052 46.4965 17.2843 46.4965C16.953 46.4965 16.6217 46.5241 16.2351 46.5517C16.1799 46.5793 16.0694 46.745 16.1799 46.9935C16.8425 47.3524 17.5328 47.0487 17.9194 46.4689Z" fill="white"/>
</svg>
