<svg width="37" height="52" viewBox="0 0 37 52" fill="none" xmlns="http://www.w3.org/2000/svg">
<path fill-rule="evenodd" clip-rule="evenodd" d="M19.2783 1.02761C19.8858 2.49098 20.4932 3.95435 21.0454 5.3625C22.1498 8.09596 23.1162 10.5257 23.9445 12.21C25.3251 15.0539 26.7056 17.2903 28.9697 19.2783C31.0405 21.1006 36.5074 22.7021 36.4246 26.5676C36.2037 29.2458 34.5747 31.427 32.6695 33.2494C31.3718 34.5195 28.8592 37.0044 29.5771 38.9924C30.2122 40.8147 31.1509 44.266 31.2338 44.5698C31.289 44.7078 32.0069 46.9995 30.5435 48.5181C29.1353 49.9815 24.69 50.5889 24.6624 50.5889C24.5244 50.6165 23.6132 50.7546 22.0394 50.5613C20.4104 51.0583 18.8918 51.362 17.5388 50.1747C17.2075 49.871 16.8762 49.4845 16.6829 49.1255C16.5173 48.8218 16.4344 48.4905 16.4068 48.2144C16.3792 47.9383 16.4068 47.6622 16.462 47.4413C16.5448 47.1652 16.6829 46.9719 16.9038 46.8615C16.9866 46.8338 17.0418 46.8062 17.1247 46.8062C18.5328 46.751 18.8641 46.7234 19.3887 46.6682C19.6372 46.5025 20.4656 46.4749 20.9073 46.3092C21.3767 46.1436 21.7357 45.8951 21.9566 45.5085C22.2603 44.9563 22.3155 44.0452 21.9566 42.637C21.6528 41.4221 21.3215 40.3453 21.0178 39.2409C20.6865 38.0812 20.3551 36.9216 20.0238 35.6515C19.4992 33.6635 19.444 31.6755 18.9746 29.798C18.2567 26.9265 17.0695 25.049 15.5785 22.4812C14.4741 20.576 13.1764 18.4224 12.1271 16.6553C10.4153 13.7838 8.37206 11.1884 6.27365 8.53773C5.36249 7.37808 4.45136 6.21843 3.56781 5.05878C3.12604 4.47895 2.68425 3.87152 2.27009 3.29169C1.85593 2.68426 1.41416 2.07682 1 1.46938L1.66266 1C2.07683 1.60744 2.51859 2.21487 2.93275 2.82231C3.37452 3.42975 3.78871 4.00957 4.23048 4.5894C5.14163 5.80427 6.05277 6.93631 6.90871 8.04074C9.03473 10.719 11.0779 13.3144 12.8174 16.2411C13.8666 18.0082 15.1643 20.1895 16.2688 22.067C17.7873 24.69 19.0298 26.6228 19.7477 29.5771C20.2447 31.5099 20.2999 33.5531 20.8245 35.5963C21.1282 36.7835 21.4596 37.888 21.7633 38.9924C22.0946 40.0968 22.3983 41.2013 22.7297 42.4161C23.1714 44.0452 23.061 45.1496 22.6468 45.8951C22.2051 46.6682 21.4596 47.0271 20.5484 47.248C19.8582 47.4137 19.5268 47.248 19.4992 47.4965C19.4716 47.4965 18.8642 49.0427 17.3456 48.6562C17.3732 48.7114 17.4008 48.7666 17.4008 48.7942C17.5388 49.0703 17.7873 49.374 18.0635 49.6225C19.1127 50.5613 20.4104 50.2576 21.6805 49.871C21.9013 49.8158 21.9566 49.7882 22.1775 49.8158C23.6961 49.9815 24.4968 49.8158 24.5244 49.8158H24.552C24.552 49.8158 28.7488 49.236 29.9637 47.9935C31.1233 46.8062 30.4607 44.8735 30.4607 44.8735V44.8459C30.4607 44.8459 29.4943 41.2289 28.804 39.3237C27.9481 36.894 30.5159 34.271 32.1173 32.7247C33.8844 31.0405 35.4306 29.0249 35.6239 26.5676C35.9276 23.6132 30.2122 21.5148 28.5003 19.9962C26.1534 17.953 24.69 15.5785 23.2543 12.6517C22.4259 10.9951 21.4596 8.53773 20.3275 5.74905C19.7753 4.36851 19.1955 2.93275 18.5604 1.41416L19.2783 1.02761ZM18.9194 47.4689C18.6985 47.4689 18.5052 47.4965 18.2843 47.4965C17.953 47.4965 17.6217 47.5241 17.2351 47.5517C17.1799 47.5793 17.0694 47.745 17.1799 47.9935C17.8425 48.3524 18.5328 48.0487 18.9194 47.4689Z" fill="url(#paint0_linear)" stroke="url(#paint1_linear)" stroke-width="0.5"/>
<defs>
<linearGradient id="paint0_linear" x1="-17.8804" y1="51" x2="36.603" y2="51" gradientUnits="userSpaceOnUse">
<stop stop-color="#3E65E4"/>
<stop offset="1" stop-color="#2D8DE4"/>
</linearGradient>
<linearGradient id="paint1_linear" x1="-17.8804" y1="51" x2="36.603" y2="51" gradientUnits="userSpaceOnUse">
<stop stop-color="#3E65E4"/>
<stop offset="1" stop-color="#2D8DE4"/>
</linearGradient>
</defs>
</svg>
