<svg width="20" height="50" viewBox="0 0 20 50" fill="none" xmlns="http://www.w3.org/2000/svg">
<path fill-rule="evenodd" clip-rule="evenodd" d="M18.0093 2.01355C18.3063 2.60764 18.4683 3.25574 18.5493 3.90384C18.6303 4.52494 18.6033 5.17303 18.5493 5.76712C18.4953 6.38822 18.3873 6.8203 18.3333 7.19836C18.1713 8.00848 18.0903 8.35953 18.7114 9.97979C19.1704 11.195 19.5485 12.3562 19.6835 13.5713C19.8185 14.7865 19.7375 16.0557 19.3054 17.4869C18.9814 18.5401 18.4953 19.5393 18.0093 20.6194C17.1721 22.4017 16.227 24.427 15.7139 27.1544C14.9038 31.2591 14.9848 31.7452 15.4709 34.7426L15.5789 35.3367C15.7139 36.2008 15.8759 37.092 16.0379 37.9291C16.551 40.6565 17.0371 43.1949 16.578 44.9772C16.092 46.8675 15.1198 48.1907 13.8776 49.0278C12.9055 49.6759 11.7713 50 10.6101 50C9.44892 50 8.28774 49.6489 7.23458 49.0008C5.72234 48.0557 4.42614 46.4895 3.77804 44.2751C1.80673 37.6591 0.510534 25.2102 0.510534 25.1561C0.510534 25.1561 0.159479 22.0507 0.0244576 19.6203C-0.0565549 18.2701 0.0784652 17.703 0.213486 17.0819C0.321503 16.6498 0.402517 16.1637 0.402517 15.7047C0.402517 15.0836 0.0784656 14.2194 0.0514614 13.4093C0.0244572 12.6532 0.132474 11.8701 0.42952 11.168C0.699562 10.4929 1.48268 9.68273 2.26581 9.68273C2.26581 9.5207 2.26581 9.27767 2.29281 9.11565C2.42783 8.22451 2.99492 7.41439 3.88606 7.14435C4.23711 7.03633 4.58817 7.00933 4.93922 7.06334C4.91222 6.90131 4.91222 6.76629 4.91222 6.60426C4.91222 6.11819 5.07424 5.65911 5.31728 5.28105C5.80335 4.55194 6.55947 4.22788 7.3966 4.28189C7.34259 2.60763 8.90884 1.52746 10.4481 1.98654C10.9071 2.12156 11.3392 2.3646 11.6633 2.71565C11.9063 2.04055 12.2844 1.44646 12.7434 1.01439C13.2295 0.55532 13.7966 0.231263 14.4177 0.0962421C15.9569 -0.308821 17.2801 0.609332 18.0093 2.01355ZM3.07593 10.1148C3.29197 10.2768 3.48099 10.5199 3.61602 10.7899C3.75104 11.0329 3.85905 11.33 3.94007 11.627L4.02108 11.276C5.07424 11.519 5.69534 10.9249 5.93838 10.1958C6.1004 9.79075 6.12741 9.41269 6.1004 9.11565C6.04639 8.60257 5.80335 8.1975 5.4793 7.98147C4.93922 7.68442 4.39914 7.79244 4.07509 7.90046C3.39998 8.11649 3.04893 8.76459 3.02192 9.41269C2.99492 9.65573 3.04893 9.87177 3.07593 10.1148ZM3.96707 11.7351C4.07509 12.3021 4.02108 12.9232 3.77804 13.4903C3.80504 13.6254 3.77804 13.8954 3.80504 14.0034C3.64302 14.1654 3.508 14.1924 3.34597 14.3275C3.45399 13.9764 3.39998 13.7064 3.42699 13.4093C3.45399 13.2473 3.508 13.0042 3.56201 12.5722C3.61601 12.0321 3.48099 11.465 3.23796 11.0329C2.96791 10.5469 2.48184 10.1958 1.91475 10.5199C1.5907 10.7089 1.26665 11.168 1.13163 11.465C0.888591 12.0591 0.780575 12.7342 0.80758 13.3823C0.834584 13.9224 0.915596 14.5435 1.10463 15.1916C1.15863 15.3806 1.15863 15.4886 1.18564 15.7047C1.18564 16.2178 1.07762 16.7578 0.969604 17.2709C0.834583 17.811 0.726567 18.3241 0.80758 19.5933C0.915596 21.9966 1.29365 25.0751 1.29365 25.1021C1.29365 25.1291 2.58986 37.5241 4.53416 44.0861C5.12825 46.0844 6.28943 47.5156 7.63964 48.3527C8.55778 48.9198 9.58394 49.2169 10.5831 49.2169C11.5823 49.2169 12.5544 48.9468 13.4185 48.3798C14.4987 47.6776 15.3628 46.4895 15.7679 44.8152C16.173 43.2219 15.7139 40.7646 15.2278 38.1182C15.0658 37.254 14.9038 36.3899 14.7687 35.4987L14.6607 34.9047C14.1476 31.7722 14.0666 31.2591 14.9038 27.0464C15.4709 24.211 16.416 22.1587 17.2801 20.3224C17.7662 19.2692 18.2253 18.2971 18.5493 17.2979C18.9544 15.9747 19.0354 14.8135 18.9004 13.7064C18.7654 12.5722 18.4143 11.492 17.9822 10.3038C17.3611 8.62958 17.3611 8.11649 17.5232 7.30636C17.1721 7.65742 16.7671 7.90046 16.335 7.98147C15.1198 8.27852 13.9856 7.60342 13.3105 6.60426L13.7156 6.33422C14.2827 7.14435 15.2008 7.73844 16.227 7.4954C17.8472 7.11734 17.9552 5.38906 17.7932 4.01185C17.7392 3.44476 17.6042 2.90468 17.3341 2.3916C16.7941 1.31143 15.8219 0.555327 14.5797 0.852373C14.1206 0.960389 13.6616 1.20342 13.2835 1.55448C12.7434 2.06755 12.3384 2.82367 12.2304 3.74181V3.82283C12.2574 3.93085 12.2844 4.01186 12.3114 4.11987C12.3654 4.33591 12.4194 5.03802 12.3384 5.57811C12.5814 5.87515 13.4995 8.7376 12.5544 9.08865C11.7443 9.3857 11.6363 7.36038 11.6093 6.8743C11.6093 6.8473 11.6093 6.8203 11.6093 6.79329C11.0422 7.17135 10.205 7.27937 9.52993 6.8743L9.69196 6.44223C10.9071 6.95531 11.5282 6.38823 11.6903 5.57811C11.8523 4.903 11.6093 3.79583 11.1232 3.28275C10.8801 3.03971 10.5561 2.85068 10.232 2.74267C9.01685 2.39161 7.88268 3.33675 8.26074 4.55193C8.39576 4.63295 10.3131 6.30721 9.07086 8.60256C9.12487 9.27767 9.17888 9.68274 9.20588 9.79075L8.77382 10.0608C8.74681 9.81776 8.71981 9.27767 8.6658 9.06164C8.39576 9.22366 8.12572 9.33168 7.82867 9.41269C7.50462 9.4667 7.15356 9.46671 6.82951 9.35869L6.99154 8.89962C7.23458 8.98063 7.47761 8.98063 7.72065 8.95363C7.85567 8.92663 8.0177 8.87262 8.15272 8.81861C8.82782 8.33253 8.98985 7.60342 8.90884 6.73928C8.80082 5.82114 8.12571 5.11903 7.34259 5.06502C6.47846 5.01101 5.64133 5.79413 5.69534 6.68527C5.69534 7.19835 5.80336 7.46839 6.04639 7.84645C6.34344 8.14349 6.58648 8.57556 6.64048 9.11565C6.69449 9.49371 6.64049 9.95277 6.45146 10.4118C6.37044 10.6279 6.26243 10.8439 6.1274 11.06L6.28943 11.654C6.04639 11.8431 6.01939 11.9241 5.74935 12.1941C5.72234 12.0321 5.69534 11.8701 5.61432 11.681C5.39829 11.7621 5.12825 11.8431 4.85821 11.8701C4.53416 11.8161 4.23711 11.7891 3.96707 11.7351ZM12.0683 6.49624L12.0413 6.44223C12.0143 6.60425 12.0143 6.73927 12.0143 6.84729C12.0413 7.25235 12.0953 8.27852 12.3654 8.62958C12.5814 7.87346 12.3384 7.22535 12.0683 6.49624Z" fill="white"/>
<path fill-rule="evenodd" clip-rule="evenodd" d="M2.04977 16.0287C1.32066 15.5696 4.34513 13.0313 4.96622 12.4642C7.15356 10.4659 12.5544 7.19834 16.092 8.98062C16.713 9.30467 16.578 9.43969 16.389 9.70974C11.4742 7.81944 5.07424 12.8422 2.04977 16.0287Z" fill="white"/>
</svg>
