<svg width="21" height="52" viewBox="0 0 21 52" fill="none" xmlns="http://www.w3.org/2000/svg">
<path fill-rule="evenodd" clip-rule="evenodd" d="M19.0093 3.01355C19.3063 3.60764 19.4683 4.25574 19.5493 4.90384C19.6303 5.52494 19.6033 6.17303 19.5493 6.76712C19.4953 7.38822 19.3873 7.8203 19.3333 8.19836C19.1713 9.00848 19.0903 9.35953 19.7114 10.9798C20.1704 12.195 20.5485 13.3562 20.6835 14.5713C20.8185 15.7865 20.7375 17.0557 20.3054 18.4869C19.9814 19.5401 19.4953 20.5393 19.0093 21.6194C18.1721 23.4017 17.227 25.427 16.7139 28.1544C15.9038 32.2591 15.9848 32.7452 16.4709 35.7426L16.5789 36.3367C16.7139 37.2008 16.8759 38.092 17.0379 38.9291C17.551 41.6565 18.0371 44.1949 17.578 45.9772C17.092 47.8675 16.1198 49.1907 14.8776 50.0278C13.9055 50.6759 12.7713 51 11.6101 51C10.4489 51 9.28774 50.6489 8.23458 50.0008C6.72234 49.0557 5.42614 47.4895 4.77804 45.2751C2.80673 38.6591 1.51053 26.2102 1.51053 26.1561C1.51053 26.1561 1.15948 23.0507 1.02446 20.6203C0.943445 19.2701 1.07847 18.703 1.21349 18.0819C1.3215 17.6498 1.40252 17.1637 1.40252 16.7047C1.40252 16.0836 1.07847 15.2194 1.05146 14.4093C1.02446 13.6532 1.13247 12.8701 1.42952 12.168C1.69956 11.4929 2.48268 10.6827 3.26581 10.6827C3.26581 10.5207 3.26581 10.2777 3.29281 10.1156C3.42783 9.22451 3.99492 8.41439 4.88606 8.14435C5.23711 8.03633 5.58817 8.00933 5.93922 8.06334C5.91222 7.90131 5.91222 7.76629 5.91222 7.60426C5.91222 7.11819 6.07424 6.65911 6.31728 6.28105C6.80335 5.55194 7.55947 5.22788 8.3966 5.28189C8.34259 3.60763 9.90884 2.52746 11.4481 2.98654C11.9071 3.12156 12.3392 3.3646 12.6633 3.71565C12.9063 3.04055 13.2844 2.44646 13.7434 2.01439C14.2295 1.55532 14.7966 1.23126 15.4177 1.09624C16.9569 0.691179 18.2801 1.60933 19.0093 3.01355ZM4.07593 11.1148C4.29197 11.2768 4.48099 11.5199 4.61602 11.7899C4.75104 12.0329 4.85905 12.33 4.94007 12.627L5.02108 12.276C6.07424 12.519 6.69534 11.9249 6.93838 11.1958C7.1004 10.7908 7.12741 10.4127 7.1004 10.1156C7.04639 9.60257 6.80335 9.1975 6.4793 8.98147C5.93922 8.68442 5.39914 8.79244 5.07509 8.90046C4.39998 9.11649 4.04893 9.76459 4.02192 10.4127C3.99492 10.6557 4.04893 10.8718 4.07593 11.1148ZM4.96707 12.7351C5.07509 13.3021 5.02108 13.9232 4.77804 14.4903C4.80504 14.6254 4.77804 14.8954 4.80504 15.0034C4.64302 15.1654 4.508 15.1924 4.34597 15.3275C4.45399 14.9764 4.39998 14.7064 4.42699 14.4093C4.45399 14.2473 4.508 14.0042 4.56201 13.5722C4.61601 13.0321 4.48099 12.465 4.23796 12.0329C3.96791 11.5469 3.48184 11.1958 2.91475 11.5199C2.5907 11.7089 2.26665 12.168 2.13163 12.465C1.88859 13.0591 1.78058 13.7342 1.80758 14.3823C1.83458 14.9224 1.9156 15.5435 2.10463 16.1916C2.15863 16.3806 2.15863 16.4886 2.18564 16.7047C2.18564 17.2178 2.07762 17.7578 1.9696 18.2709C1.83458 18.811 1.72657 19.3241 1.80758 20.5933C1.9156 22.9966 2.29365 26.0751 2.29365 26.1021C2.29365 26.1291 3.58986 38.5241 5.53416 45.0861C6.12825 47.0844 7.28943 48.5156 8.63964 49.3527C9.55778 49.9198 10.5839 50.2169 11.5831 50.2169C12.5823 50.2169 13.5544 49.9468 14.4185 49.3797C15.4987 48.6776 16.3628 47.4895 16.7679 45.8152C17.173 44.2219 16.7139 41.7646 16.2278 39.1182C16.0658 38.254 15.9038 37.3899 15.7687 36.4987L15.6607 35.9047C15.1476 32.7722 15.0666 32.2591 15.9038 28.0464C16.4709 25.211 17.416 23.1587 18.2801 21.3224C18.7662 20.2692 19.2253 19.2971 19.5493 18.2979C19.9544 16.9747 20.0354 15.8135 19.9004 14.7064C19.7654 13.5722 19.4143 12.492 18.9822 11.3038C18.3611 9.62958 18.3611 9.11649 18.5232 8.30636C18.1721 8.65742 17.7671 8.90046 17.335 8.98147C16.1198 9.27852 14.9856 8.60342 14.3105 7.60426L14.7156 7.33422C15.2827 8.14435 16.2008 8.73843 17.227 8.4954C18.8472 8.11734 18.9552 6.38906 18.7932 5.01185C18.7392 4.44476 18.6042 3.90468 18.3341 3.3916C17.7941 2.31143 16.8219 1.55533 15.5797 1.85237C15.1206 1.96039 14.6616 2.20342 14.2835 2.55448C13.7434 3.06755 13.3384 3.82367 13.2304 4.74181V4.82283C13.2574 4.93085 13.2844 5.01186 13.3114 5.11987C13.3654 5.33591 13.4194 6.03802 13.3384 6.57811C13.5814 6.87515 14.4995 9.7376 13.5544 10.0887C12.7443 10.3857 12.6363 8.36038 12.6093 7.8743C12.6093 7.8473 12.6093 7.8203 12.6093 7.79329C12.0422 8.17135 11.205 8.27937 10.5299 7.8743L10.692 7.44223C11.9071 7.95531 12.5282 7.38823 12.6903 6.57811C12.8523 5.903 12.6093 4.79583 12.1232 4.28275C11.8801 4.03971 11.5561 3.85068 11.232 3.74267C10.0169 3.39161 8.88268 4.33675 9.26074 5.55193C9.39576 5.63295 11.3131 7.30721 10.0709 9.60256C10.1249 10.2777 10.1789 10.6827 10.2059 10.7908L9.77382 11.0608C9.74681 10.8178 9.71981 10.2777 9.6658 10.0616C9.39576 10.2237 9.12572 10.3317 8.82867 10.4127C8.50462 10.4667 8.15356 10.4667 7.82951 10.3587L7.99154 9.89962C8.23458 9.98063 8.47761 9.98063 8.72065 9.95363C8.85567 9.92663 9.0177 9.87262 9.15272 9.81861C9.82782 9.33253 9.98985 8.60342 9.90884 7.73928C9.80082 6.82114 9.12572 6.11903 8.34259 6.06502C7.47846 6.01101 6.64133 6.79413 6.69534 7.68527C6.69534 8.19835 6.80336 8.46839 7.04639 8.84645C7.34344 9.14349 7.58648 9.57556 7.64048 10.1156C7.69449 10.4937 7.64049 10.9528 7.45146 11.4118C7.37044 11.6279 7.26243 11.8439 7.1274 12.06L7.28943 12.654C7.04639 12.8431 7.01939 12.9241 6.74935 13.1941C6.72234 13.0321 6.69534 12.8701 6.61432 12.681C6.39829 12.7621 6.12825 12.8431 5.85821 12.8701C5.53416 12.8161 5.23711 12.7891 4.96707 12.7351ZM13.0683 7.49624L13.0413 7.44223C13.0143 7.60425 13.0143 7.73927 13.0143 7.84729C13.0413 8.25235 13.0953 9.27852 13.3654 9.62958C13.5814 8.87346 13.3384 8.22535 13.0683 7.49624Z" fill="url(#paint0_linear)"/>
<path fill-rule="evenodd" clip-rule="evenodd" d="M3.04977 17.0287C2.32066 16.5696 5.34513 14.0313 5.96622 13.4642C8.15356 11.4659 13.5544 8.19834 17.092 9.98062C17.713 10.3047 17.578 10.4397 17.389 10.7097C12.4742 8.81944 6.07424 13.8422 3.04977 17.0287Z" fill="url(#paint1_linear)"/>
<path d="M19.0093 3.01355L19.2329 2.90173L19.2311 2.89835L19.0093 3.01355ZM19.5493 4.90384L19.3013 4.93485L19.3014 4.93618L19.5493 4.90384ZM19.5493 6.76712L19.3004 6.74449L19.3003 6.74547L19.5493 6.76712ZM19.3333 8.19836L19.5788 8.24746L19.5808 8.23371L19.3333 8.19836ZM19.7114 10.9798L19.9452 10.8914L19.9448 10.8903L19.7114 10.9798ZM20.3054 18.4869L20.5444 18.5605L20.5448 18.5592L20.3054 18.4869ZM19.0093 21.6194L19.2356 21.7257L19.2372 21.722L19.0093 21.6194ZM16.7139 28.1544L16.9592 28.2029L16.9596 28.2007L16.7139 28.1544ZM16.4709 35.7426L16.224 35.7827L16.2249 35.7874L16.4709 35.7426ZM16.5789 36.3367L16.826 36.2981L16.8248 36.292L16.5789 36.3367ZM17.0379 38.9291L17.2836 38.8829L17.2834 38.8816L17.0379 38.9291ZM17.578 45.9772L17.3359 45.9149L17.3359 45.915L17.578 45.9772ZM14.8776 50.0278L15.0163 50.2359L15.0173 50.2352L14.8776 50.0278ZM8.23458 50.0008L8.10207 50.2128L8.10355 50.2138L8.23458 50.0008ZM4.77804 45.2751L5.01798 45.2049L5.01763 45.2037L4.77804 45.2751ZM1.51053 26.1561H1.76053V26.1421L1.75895 26.1281L1.51053 26.1561ZM1.02446 20.6203L1.27408 20.6064L1.27401 20.6053L1.02446 20.6203ZM1.21349 18.0819L0.970835 18.0212L0.969192 18.0288L1.21349 18.0819ZM1.05146 14.4093L1.30132 14.401L1.3013 14.4004L1.05146 14.4093ZM1.42952 12.168L1.65981 12.2654L1.66164 12.2608L1.42952 12.168ZM3.26581 10.6827V10.9327H3.51581V10.6827H3.26581ZM3.29281 10.1156L3.53944 10.1568L3.53999 10.1531L3.29281 10.1156ZM4.88606 8.14435L4.95856 8.3836L4.95958 8.38329L4.88606 8.14435ZM5.93922 8.06334L5.90121 8.31043L6.2426 8.36295L6.18582 8.02224L5.93922 8.06334ZM6.31728 6.28105L6.10924 6.14236L6.10698 6.14586L6.31728 6.28105ZM8.3966 5.28189L8.38051 5.53137L8.65535 5.54911L8.64647 5.27383L8.3966 5.28189ZM11.4481 2.98654L11.3766 3.22611L11.3775 3.22638L11.4481 2.98654ZM12.6633 3.71565L12.4796 3.88522L12.759 4.1879L12.8985 3.80033L12.6633 3.71565ZM13.7434 2.01439L13.9148 2.19644L13.9151 2.19614L13.7434 2.01439ZM15.4177 1.09624L15.4708 1.34077L15.4813 1.33801L15.4177 1.09624ZM4.07593 11.1148L3.82746 11.1424L3.83941 11.2499L3.92593 11.3148L4.07593 11.1148ZM4.61602 11.7899L4.3922 11.9018L4.39748 11.9113L4.61602 11.7899ZM4.94007 12.627L4.69887 12.6928L5.18366 12.6833L4.94007 12.627ZM5.02108 12.276L5.07729 12.0324L4.8337 11.9762L4.77748 12.2198L5.02108 12.276ZM6.93838 11.1958L6.70626 11.103L6.70353 11.1098L6.70121 11.1168L6.93838 11.1958ZM7.1004 10.1156L7.3494 10.093L7.34903 10.0895L7.1004 10.1156ZM6.4793 8.98147L6.61798 8.77346L6.60912 8.76755L6.59978 8.76242L6.4793 8.98147ZM5.07509 8.90046L5.15129 9.13858L5.15414 9.13763L5.07509 8.90046ZM4.02192 10.4127L4.27039 10.4403L4.27135 10.4317L4.27171 10.4231L4.02192 10.4127ZM4.96707 12.7351L5.0161 12.4899L4.65201 12.4171L4.72148 12.7818L4.96707 12.7351ZM4.77804 14.4903L4.54825 14.3919L4.51767 14.4632L4.5329 14.5394L4.77804 14.4903ZM4.80504 15.0034L4.98182 15.1802L5.08191 15.0801L5.04758 14.9428L4.80504 15.0034ZM4.34597 15.3275L4.10703 15.2539L3.85955 16.0582L4.50602 15.5195L4.34597 15.3275ZM4.42699 14.4093L4.18039 14.3682L4.17886 14.3774L4.17801 14.3867L4.42699 14.4093ZM4.56201 13.5722L4.81015 13.6032L4.81077 13.5971L4.56201 13.5722ZM4.23796 12.0329L4.01941 12.1544L4.02006 12.1555L4.23796 12.0329ZM2.91475 11.5199L2.79071 11.3028L2.78878 11.3039L2.91475 11.5199ZM2.13163 12.465L1.90387 12.3615L1.90024 12.3704L2.13163 12.465ZM1.80758 14.3823L1.55779 14.3927L1.55789 14.3948L1.80758 14.3823ZM2.10463 16.1916L2.34501 16.1229L2.34463 16.1216L2.10463 16.1916ZM2.18564 16.7047H2.43564V16.6891L2.43371 16.6737L2.18564 16.7047ZM1.9696 18.2709L2.21231 18.3316L2.21424 18.3224L1.9696 18.2709ZM1.80758 20.5933L2.05737 20.582L2.05707 20.5773L1.80758 20.5933ZM5.53416 45.0861L5.29446 45.1571L5.29452 45.1573L5.53416 45.0861ZM8.63964 49.3527L8.5079 49.5652L8.50827 49.5654L8.63964 49.3527ZM14.4185 49.3797L14.2823 49.1701L14.2814 49.1707L14.4185 49.3797ZM16.7679 45.8152L16.5256 45.7536L16.5249 45.7564L16.7679 45.8152ZM16.2278 39.1182L16.4737 39.073L16.4735 39.0721L16.2278 39.1182ZM15.7687 36.4987L16.016 36.4613L16.0147 36.454L15.7687 36.4987ZM15.6607 35.9047L15.414 35.9451L15.4148 35.9494L15.6607 35.9047ZM15.9038 28.0464L15.6586 27.9974L15.6586 27.9977L15.9038 28.0464ZM18.2801 21.3224L18.5063 21.4288L18.5071 21.4272L18.2801 21.3224ZM19.5493 18.2979L19.7872 18.3751L19.7884 18.3711L19.5493 18.2979ZM19.9004 14.7064L19.6521 14.7359L19.6522 14.7366L19.9004 14.7064ZM18.9822 11.3038L19.2172 11.2184L19.2166 11.2169L18.9822 11.3038ZM18.5232 8.30636L18.7683 8.35539L18.9303 7.54573L18.3464 8.12959L18.5232 8.30636ZM17.335 8.98147L17.2888 8.73539L17.2756 8.73862L17.335 8.98147ZM14.3105 7.60426L14.1718 7.39625L13.9625 7.53579L14.1034 7.74423L14.3105 7.60426ZM14.7156 7.33422L14.9204 7.19086L14.7802 6.99065L14.5769 7.12621L14.7156 7.33422ZM17.227 8.4954L17.1702 8.25194L17.1694 8.25213L17.227 8.4954ZM18.7932 5.01185L18.5443 5.03556L18.5449 5.04106L18.7932 5.01185ZM18.3341 3.3916L18.1105 3.50343L18.1129 3.50803L18.3341 3.3916ZM15.5797 1.85237L15.637 2.09573L15.6379 2.09552L15.5797 1.85237ZM14.2835 2.55448L14.1134 2.37126L14.1113 2.37323L14.2835 2.55448ZM13.2304 4.74181L12.9821 4.7126L12.9804 4.72715V4.74181H13.2304ZM13.2304 4.82283H12.9804V4.85361L12.9878 4.88347L13.2304 4.82283ZM13.3114 5.11987L13.0688 5.18051L13.3114 5.11987ZM13.3384 6.57811L13.0911 6.54102L13.0747 6.65063L13.1449 6.73642L13.3384 6.57811ZM13.5544 10.0887L13.6405 10.3234L13.6414 10.323L13.5544 10.0887ZM12.6093 7.8743H12.3589L12.3596 7.88817L12.6093 7.8743ZM12.6093 7.79329H12.8593V7.32617L12.4706 7.58528L12.6093 7.79329ZM10.5299 7.8743L10.2958 7.78652L10.2227 7.98153L10.4013 8.08868L10.5299 7.8743ZM10.692 7.44223L10.7892 7.21192L10.5493 7.11063L10.4579 7.35445L10.692 7.44223ZM12.6903 6.57811L12.447 6.51972L12.4451 6.52908L12.6903 6.57811ZM12.1232 4.28275L12.3047 4.11075L12.3 4.10597L12.1232 4.28275ZM11.232 3.74267L11.3112 3.5053L11.3014 3.50249L11.232 3.74267ZM9.26074 5.55193L9.02202 5.6262L9.05035 5.71725L9.13211 5.76631L9.26074 5.55193ZM10.0709 9.60256L9.85099 9.48357L9.81575 9.54869L9.82166 9.6225L10.0709 9.60256ZM10.2059 10.7908L10.3384 11.0028L10.4925 10.9064L10.4484 10.7301L10.2059 10.7908ZM9.77382 11.0608L9.52534 11.0884L9.56924 11.4835L9.90632 11.2728L9.77382 11.0608ZM9.6658 10.0616L9.90833 10.001L9.8265 9.67367L9.53717 9.84726L9.6658 10.0616ZM8.82867 10.4127L8.86977 10.6593L8.88225 10.6572L8.89445 10.6539L8.82867 10.4127ZM7.82951 10.3587L7.59377 10.2755L7.50909 10.5154L7.75046 10.5959L7.82951 10.3587ZM7.99154 9.89962L8.0706 9.66245L7.83755 9.58477L7.75579 9.81641L7.99154 9.89962ZM8.72065 9.95363L8.74826 10.2021L8.75904 10.2009L8.76968 10.1988L8.72065 9.95363ZM9.15272 9.81861L9.24557 10.0507L9.27397 10.0394L9.29879 10.0215L9.15272 9.81861ZM9.90884 7.73928L10.1578 7.71594L10.1571 7.71007L9.90884 7.73928ZM8.34259 6.06502L8.35979 5.81561L8.35819 5.81551L8.34259 6.06502ZM6.69534 7.68527H6.94534V7.6777L6.94488 7.67015L6.69534 7.68527ZM7.04639 8.84645L6.8361 8.98164L6.85062 9.00423L6.86962 9.02322L7.04639 8.84645ZM7.64048 10.1156L7.3915 10.1405L7.393 10.151L7.64048 10.1156ZM7.45146 11.4118L7.22017 11.3166L7.21737 11.3241L7.45146 11.4118ZM7.1274 12.06L6.91541 11.9275L6.85743 12.0202L6.88621 12.1257L7.1274 12.06ZM7.28943 12.654L7.44291 12.8514L7.57447 12.7491L7.53062 12.5883L7.28943 12.654ZM6.74935 13.1941L6.50275 13.2352L6.58261 13.7144L6.92612 13.3709L6.74935 13.1941ZM6.61432 12.681L6.84411 12.5826L6.75007 12.3631L6.52654 12.447L6.61432 12.681ZM5.85821 12.8701L5.81711 13.1167L5.84995 13.1222L5.88308 13.1188L5.85821 12.8701ZM13.0683 7.49624L13.3028 7.40941L13.298 7.39663L13.2919 7.38444L13.0683 7.49624ZM13.0413 7.44223L13.2649 7.33042L12.9211 6.64279L12.7947 7.40113L13.0413 7.44223ZM13.0143 7.84729H12.7643V7.85561L12.7649 7.86392L13.0143 7.84729ZM13.3654 9.62958L13.1672 9.782L13.4695 10.175L13.6058 9.69826L13.3654 9.62958ZM3.04977 17.0287L2.91657 17.2403L3.09 17.3495L3.2311 17.2008L3.04977 17.0287ZM5.96622 13.4642L6.13479 13.6488L6.13485 13.6487L5.96622 13.4642ZM17.092 9.98062L17.2076 9.75895L17.2044 9.75735L17.092 9.98062ZM17.389 10.7097L17.2993 10.9431L17.4817 11.0132L17.5938 10.8531L17.389 10.7097ZM18.7856 3.12535C19.0666 3.68731 19.2227 4.3062 19.3013 4.93485L19.7974 4.87283C19.714 4.20529 19.546 3.52798 19.2329 2.90175L18.7856 3.12535ZM19.3014 4.93618C19.3789 5.53036 19.3538 6.15721 19.3004 6.74449L19.7983 6.78976C19.8529 6.18885 19.8818 5.51952 19.7972 4.87151L19.3014 4.93618ZM19.3003 6.74547C19.2466 7.36293 19.1448 7.75037 19.0858 8.163L19.5808 8.23371C19.6299 7.89023 19.7441 7.41351 19.7984 6.78878L19.3003 6.74547ZM19.0882 8.14933C19.0079 8.5506 18.9387 8.87552 18.9798 9.30888C19.0202 9.73557 19.1656 10.2544 19.4779 11.0693L19.9448 10.8903C19.6361 10.0849 19.5113 9.6181 19.4775 9.26167C19.4444 8.91191 19.4967 8.65624 19.5784 8.24739L19.0882 8.14933ZM19.4775 11.0681C19.9348 12.2787 20.3036 13.416 20.435 14.5989L20.932 14.5437C20.7934 13.2963 20.406 12.1113 19.9452 10.8914L19.4775 11.0681ZM20.435 14.5989C20.5664 15.7816 20.4881 17.0168 20.0661 18.4147L20.5448 18.5592C20.9869 17.0947 21.0706 15.7915 20.932 14.5437L20.435 14.5989ZM20.0665 18.4134C19.7484 19.4474 19.2719 20.4266 18.7813 21.5168L19.2372 21.722C19.7188 20.6519 20.2144 19.6328 20.5444 18.5605L20.0665 18.4134ZM18.783 21.5131C17.9453 23.2966 16.9877 25.3469 16.4682 28.1082L16.9596 28.2007C17.4663 25.5071 18.399 23.5068 19.2355 21.7257L18.783 21.5131ZM16.4686 28.106C16.0638 30.157 15.8771 31.3247 15.8563 32.3587C15.8356 33.3949 15.9819 34.2892 16.2241 35.7826L16.7176 35.7026C16.4737 34.1986 16.3365 33.3511 16.3562 32.3687C16.376 31.3842 16.5538 30.2565 16.9592 28.2029L16.4686 28.106ZM16.2249 35.7874L16.3329 36.3814L16.8248 36.292L16.7168 35.6979L16.2249 35.7874ZM16.3319 36.3753C16.4675 37.2434 16.6301 38.1377 16.7925 38.9766L17.2834 38.8816C17.1217 38.0463 16.9603 37.1583 16.8259 36.2981L16.3319 36.3753ZM16.7923 38.9753C17.0493 40.3419 17.297 41.6478 17.424 42.8342C17.5512 44.0228 17.5542 45.0674 17.3359 45.9149L17.8201 46.0396C18.0609 45.1048 18.0504 43.989 17.9211 42.781C17.7916 41.5708 17.5396 40.2437 17.2836 38.8829L16.7923 38.9753ZM17.3359 45.915C16.8637 47.7514 15.9249 49.0206 14.7379 49.8205L15.0173 50.2352C16.3147 49.3609 17.3202 47.9837 17.8202 46.0395L17.3359 45.915ZM14.7389 49.8198C13.81 50.4391 12.7246 50.75 11.6101 50.75V51.25C12.818 51.25 14.0009 50.9128 15.0163 50.2359L14.7389 49.8198ZM11.6101 50.75C10.4997 50.75 9.38342 50.4143 8.3656 49.7879L8.10355 50.2138C9.19206 50.8836 10.3981 51.25 11.6101 51.25V50.75ZM8.36708 49.7888C6.90729 48.8765 5.64901 47.3609 5.01797 45.2049L4.53811 45.3453C5.20327 47.618 6.5374 49.2349 8.10208 50.2128L8.36708 49.7888ZM5.01763 45.2037C4.03766 41.9148 3.22284 37.1644 2.65248 33.2191C2.36761 31.2486 2.14425 29.4828 1.99211 28.2063C1.91605 27.5681 1.8578 27.0523 1.81859 26.6946C1.79899 26.5157 1.78415 26.3764 1.77423 26.2812C1.76926 26.2335 1.76555 26.1971 1.76309 26.1723C1.76186 26.1598 1.76098 26.1507 1.76042 26.1447C1.75897 26.129 1.76053 26.142 1.76053 26.1561H1.26053C1.26057 26.1603 1.26075 26.1666 1.26085 26.1689C1.26093 26.1705 1.26108 26.1729 1.26116 26.1741C1.26131 26.1764 1.26148 26.1786 1.26161 26.1801C1.26187 26.1833 1.26219 26.1869 1.26254 26.1907C1.26325 26.1983 1.26425 26.2087 1.26553 26.2216C1.2681 26.2475 1.27191 26.2849 1.27692 26.333C1.28695 26.4293 1.30188 26.5694 1.32157 26.749C1.36094 27.1083 1.41937 27.6256 1.49562 28.2655C1.64813 29.5451 1.87202 31.3151 2.15762 33.2906C2.72818 37.2373 3.54711 42.0194 4.53845 45.3465L5.01763 45.2037ZM1.51053 26.1561C1.75895 26.1281 1.75895 26.1281 1.75895 26.128C1.75895 26.128 1.75894 26.128 1.75894 26.1279C1.75893 26.1279 1.75891 26.1277 1.75889 26.1275C1.75885 26.1272 1.75879 26.1266 1.75871 26.1259C1.75854 26.1244 1.75829 26.1222 1.75796 26.1193C1.7573 26.1134 1.75631 26.1046 1.75502 26.093C1.75243 26.0697 1.7486 26.0353 1.74369 25.9906C1.73385 25.9012 1.71964 25.7707 1.70217 25.6065C1.66721 25.278 1.61919 24.8147 1.56696 24.2755C1.46244 23.1966 1.3413 21.8165 1.27407 20.6064L0.774843 20.6342C0.842635 21.8544 0.964534 23.2423 1.06929 24.3237C1.1217 24.8647 1.16989 25.3297 1.20498 25.6594C1.22252 25.8243 1.23679 25.9554 1.24668 26.0453C1.25163 26.0903 1.25548 26.1249 1.2581 26.1484C1.25941 26.1601 1.26041 26.1691 1.26109 26.1751C1.26142 26.1781 1.26168 26.1803 1.26185 26.1819C1.26194 26.1826 1.262 26.1832 1.26205 26.1836C1.26207 26.1838 1.26209 26.184 1.2621 26.1841C1.2621 26.1841 1.26211 26.1842 1.26211 26.1842C1.26211 26.1842 1.26212 26.1842 1.51053 26.1561ZM1.27401 20.6053C1.19486 19.2861 1.32551 18.7435 1.45778 18.135L0.969192 18.0288C0.831424 18.6625 0.692035 19.2541 0.774906 20.6353L1.27401 20.6053ZM1.45602 18.1425C1.5671 17.6982 1.65252 17.1908 1.65252 16.7047H1.15252C1.15252 17.1367 1.07591 17.6014 0.970951 18.0213L1.45602 18.1425ZM1.65252 16.7047C1.65252 16.3617 1.5639 15.9608 1.4816 15.5756C1.3965 15.1774 1.31397 14.7803 1.30132 14.401L0.8016 14.4177C0.815961 14.8485 0.908951 15.2885 0.992635 15.6801C1.07911 16.0848 1.15252 16.4265 1.15252 16.7047H1.65252ZM1.3013 14.4004C1.27531 13.6725 1.37982 12.9271 1.65976 12.2654L1.19928 12.0705C0.88513 12.8131 0.773608 13.6339 0.801621 14.4182L1.3013 14.4004ZM1.66164 12.2608C1.78073 11.9631 2.01949 11.6236 2.32002 11.3602C2.62294 11.0948 2.95801 10.9327 3.26581 10.9327V10.4327C2.79048 10.4327 2.34243 10.6758 1.9905 10.9842C1.63618 11.2946 1.34836 11.6977 1.1974 12.0751L1.66164 12.2608ZM3.51581 10.6827C3.51581 10.5131 3.51657 10.2938 3.53941 10.1567L3.04621 10.0745C3.01504 10.2616 3.01581 10.5283 3.01581 10.6827H3.51581ZM3.53999 10.1531C3.66383 9.33573 4.17887 8.61987 4.95856 8.3836L4.81356 7.90509C3.81097 8.2089 3.19183 9.11329 3.04563 10.0782L3.53999 10.1531ZM4.95958 8.38329C5.27581 8.28599 5.58876 8.26236 5.90121 8.31043L5.97723 7.81624C5.58757 7.7563 5.19841 7.78667 4.81254 7.9054L4.95958 8.38329ZM6.18582 8.02224C6.16266 7.8833 6.16222 7.76773 6.16222 7.60426H5.66222C5.66222 7.76484 5.66177 7.91932 5.69262 8.10444L6.18582 8.02224ZM6.16222 7.60426C6.16222 7.1736 6.30609 6.76076 6.52757 6.41624L6.10698 6.14586C5.84239 6.55745 5.66222 7.06277 5.66222 7.60426H6.16222ZM6.52529 6.41973C6.9571 5.77201 7.62368 5.48255 8.38051 5.53137L8.4127 5.03241C7.49527 4.97322 6.64961 5.33186 6.10927 6.14238L6.52529 6.41973ZM8.64647 5.27383C8.59843 3.78448 9.98695 2.81164 11.3766 3.22611L11.5195 2.74696C9.83072 2.24328 8.08676 3.43078 8.14673 5.28995L8.64647 5.27383ZM11.3775 3.22638C11.801 3.35093 12.1913 3.57289 12.4796 3.88522L12.847 3.54608C12.4872 3.1563 12.0133 2.89218 11.5186 2.74669L11.3775 3.22638ZM12.8985 3.80033C13.1299 3.15739 13.4879 2.5982 13.9148 2.19644L13.5721 1.83234C13.0808 2.29472 12.6827 2.9237 12.428 3.63097L12.8985 3.80033ZM13.9151 2.19614C14.3735 1.76324 14.9009 1.46443 15.4708 1.34054L15.3646 0.851948C14.6923 0.998097 14.0856 1.3474 13.5718 1.83264L13.9151 2.19614ZM15.4813 1.33801C16.8667 0.973429 18.0899 1.78555 18.7874 3.12875L19.2311 2.89835C18.4703 1.43312 17.0471 0.40893 15.3541 0.854474L15.4813 1.33801ZM3.92593 11.3148C4.10459 11.4488 4.27083 11.6586 4.39241 11.9017L4.83962 11.6781C4.69116 11.3812 4.47934 11.1049 4.22593 10.9148L3.92593 11.3148ZM4.39748 11.9113C4.51939 12.1308 4.62096 12.4071 4.69887 12.6928L5.18126 12.5613C5.09715 12.2529 4.98269 11.9351 4.83456 11.6685L4.39748 11.9113ZM5.18366 12.6833L5.26468 12.3322L4.77748 12.2198L4.69647 12.5708L5.18366 12.6833ZM4.96486 12.5196C5.54986 12.6546 6.04004 12.5605 6.42117 12.3091C6.79651 12.0616 7.04112 11.6781 7.17555 11.2749L6.70121 11.1168C6.59259 11.4426 6.40514 11.7208 6.14588 11.8918C5.89241 12.0589 5.54546 12.1404 5.07729 12.0324L4.96486 12.5196ZM7.1705 11.2887C7.34914 10.842 7.37944 10.4237 7.34937 10.093L6.85143 10.1383C6.87537 10.4017 6.85166 10.7395 6.70626 11.103L7.1705 11.2887ZM7.34903 10.0895C7.28852 9.51467 7.01345 9.0371 6.61798 8.77346L6.34063 9.18948C6.59326 9.3579 6.80426 9.69046 6.85177 10.1418L7.34903 10.0895ZM6.59978 8.76242C5.96936 8.41568 5.34593 8.54666 4.99603 8.66329L5.15414 9.13763C5.45235 9.03823 5.90908 8.95316 6.35882 9.20052L6.59978 8.76242ZM4.99889 8.66235C4.19643 8.91914 3.80217 9.68145 3.77214 10.4023L4.27171 10.4231C4.29568 9.84772 4.60353 9.31385 5.15128 9.13857L4.99889 8.66235ZM3.77345 10.3851C3.74236 10.6649 3.80503 10.9405 3.82746 11.1424L4.3244 11.0872C4.29283 10.803 4.24747 10.6466 4.27039 10.4403L3.77345 10.3851ZM4.72148 12.7818C4.82061 13.3022 4.77081 13.8726 4.54825 14.3919L5.00783 14.5888C5.27135 13.9739 5.32956 13.3021 5.21265 12.6883L4.72148 12.7818ZM4.5329 14.5394C4.54037 14.5767 4.54154 14.6483 4.54154 14.757C4.54154 14.8046 4.5415 14.858 4.54343 14.9065C4.54521 14.9516 4.54913 15.0105 4.56251 15.064L5.04758 14.9428C5.04804 14.9446 5.04707 14.9411 5.04586 14.9296C5.04472 14.9189 5.04375 14.9047 5.04303 14.8868C5.04158 14.8501 5.04154 14.8072 5.04154 14.757C5.04154 14.6699 5.04271 14.5389 5.02319 14.4413L4.5329 14.5394ZM4.62827 14.8266C4.56911 14.8858 4.51568 14.9205 4.44832 14.9603C4.38119 15 4.28608 15.0519 4.18593 15.1354L4.50602 15.5195C4.56789 15.4679 4.6213 15.4389 4.70269 15.3908C4.78386 15.3428 4.87896 15.283 4.98182 15.1802L4.62827 14.8266ZM4.58492 15.401C4.64822 15.1952 4.66314 15.0148 4.66679 14.8538C4.67072 14.6813 4.66335 14.5706 4.67596 14.432L4.17801 14.3867C4.16361 14.5451 4.16975 14.7179 4.16692 14.8425C4.16383 14.9785 4.15175 15.1086 4.10703 15.2539L4.58492 15.401ZM4.67358 14.4504C4.69849 14.301 4.75529 14.0415 4.81008 13.6032L4.31394 13.5412C4.26071 13.967 4.20948 14.1936 4.18039 14.3682L4.67358 14.4504ZM4.81077 13.5971C4.87017 13.003 4.72266 12.3847 4.45585 11.9104L4.02006 12.1555C4.23933 12.5453 4.36186 13.0612 4.31325 13.5473L4.81077 13.5971ZM4.4565 11.9115C4.30559 11.6399 4.08329 11.3845 3.79549 11.247C3.49457 11.1033 3.1447 11.1005 2.79072 11.3028L3.03879 11.7369C3.25189 11.6152 3.4286 11.6259 3.58 11.6982C3.74453 11.7768 3.90028 11.9399 4.01942 12.1544L4.4565 11.9115ZM2.78878 11.3039C2.58809 11.421 2.40326 11.6104 2.25599 11.7971C2.10685 11.9863 1.98094 12.1924 1.90404 12.3616L2.35922 12.5685C2.41734 12.4406 2.52096 12.2686 2.64862 12.1067C2.77815 11.9424 2.91736 11.8078 3.04072 11.7358L2.78878 11.3039ZM1.90024 12.3704C1.64255 13.0003 1.52941 13.7115 1.5578 14.3927L2.05736 14.3719C2.03174 13.7569 2.13464 13.1179 2.36302 12.5597L1.90024 12.3704ZM1.55789 14.3948C1.58565 14.9499 1.66902 15.5909 1.86463 16.2616L2.34463 16.1216C2.16218 15.496 2.08352 14.8949 2.05727 14.3698L1.55789 14.3948ZM1.86424 16.2603C1.91121 16.4246 1.90781 16.4976 1.93757 16.7357L2.43371 16.6737C2.40946 16.4797 2.40606 16.3366 2.34501 16.1229L1.86424 16.2603ZM1.93564 16.7047C1.93564 17.1879 1.83359 17.7035 1.72497 18.2194L2.21424 18.3224C2.32166 17.8122 2.43564 17.2476 2.43564 16.7047H1.93564ZM1.72707 18.2103C1.58616 18.7739 1.47534 19.3128 1.55809 20.6092L2.05707 20.5773C1.97779 19.3353 2.08301 18.8481 2.21214 18.3316L1.72707 18.2103ZM1.55783 20.6045C1.61215 21.8131 1.73421 23.1889 1.84238 24.2639C1.89651 24.8018 1.94725 25.2653 1.98446 25.5959C2.00307 25.7612 2.01829 25.8934 2.02884 25.9849C2.03414 26.0308 2.03821 26.0661 2.04098 26.0904C2.04237 26.1027 2.04336 26.1116 2.044 26.1175C2.04586 26.1348 2.04365 26.1187 2.04365 26.1021H2.54365C2.54365 26.0947 2.54331 26.0888 2.54322 26.0872C2.54307 26.0847 2.54291 26.0826 2.54281 26.0813C2.54261 26.0787 2.54239 26.0763 2.54224 26.0748C2.54192 26.0715 2.54153 26.0677 2.54114 26.0641C2.54033 26.0566 2.53919 26.0464 2.53779 26.034C2.53496 26.0091 2.53081 25.9732 2.52555 25.9276C2.51501 25.8362 2.49985 25.7046 2.48133 25.54C2.44427 25.2107 2.39375 24.7493 2.33987 24.2138C2.23201 23.142 2.11103 21.7768 2.05733 20.582L1.55783 20.6045ZM2.04365 26.1021C2.04373 26.1084 2.04408 26.1169 2.04423 26.1192C2.04432 26.1205 2.04447 26.1225 2.04455 26.1235C2.04469 26.1252 2.04484 26.1268 2.04495 26.128C2.04518 26.1305 2.04547 26.1336 2.04581 26.1369C2.04649 26.1438 2.04747 26.1535 2.04874 26.1659C2.05129 26.1907 2.05508 26.227 2.06008 26.2741C2.07009 26.3684 2.08501 26.5065 2.10467 26.684C2.14398 27.039 2.2023 27.5518 2.27834 28.1867C2.43042 29.4566 2.65346 31.2156 2.93736 33.1792C3.50454 37.1022 4.3167 41.8572 5.29446 45.1571L5.77386 45.0151C4.80731 41.753 3.99922 37.0295 3.43222 33.1077C3.14903 31.149 2.92651 29.3941 2.77479 28.1273C2.69894 27.4939 2.64079 26.9826 2.60163 26.6289C2.58205 26.4521 2.56721 26.3148 2.55729 26.2213C2.55232 26.1745 2.5486 26.1389 2.54612 26.1148C2.54488 26.1027 2.54398 26.0938 2.54339 26.0878C2.5431 26.0848 2.54292 26.083 2.54283 26.0821C2.54185 26.0714 2.54365 26.0874 2.54365 26.1021H2.04365ZM5.29452 45.1573C5.90508 47.211 7.10276 48.694 8.5079 49.5652L8.77137 49.1403C7.4761 48.3372 6.35142 46.9578 5.77379 45.0148L5.29452 45.1573ZM8.50827 49.5654C9.46352 50.1554 10.5348 50.4669 11.5831 50.4669V49.9669C10.6331 49.9669 9.65205 49.6842 8.77101 49.14L8.50827 49.5654ZM11.5831 50.4669C12.6284 50.4669 13.6487 50.184 14.5557 49.5888L14.2814 49.1707C13.4601 49.7097 12.5361 49.9669 11.5831 49.9669V50.4669ZM14.5548 49.5894C15.6947 48.8484 16.5927 47.6027 17.0109 45.874L16.5249 45.7564C16.133 47.3763 15.3027 48.5069 14.2823 49.1701L14.5548 49.5894ZM17.0102 45.8768C17.2241 45.0354 17.2063 43.9861 17.0806 42.8345C16.9545 41.6792 16.7162 40.3934 16.4737 39.073L15.9819 39.1633C16.2255 40.4893 16.4598 41.7554 16.5835 42.8887C16.7076 44.0257 16.7168 45.0018 16.5256 45.7536L17.0102 45.8768ZM16.4735 39.0721C16.3114 38.2073 16.1502 37.3474 16.0159 36.4613L15.5216 36.5362C15.6573 37.4324 15.8202 38.3007 15.9821 39.1642L16.4735 39.0721ZM16.0147 36.454L15.9067 35.8599L15.4148 35.9494L15.5228 36.5435L16.0147 36.454ZM15.9074 35.8642C15.6501 34.2928 15.5061 33.4049 15.5259 32.3854C15.5456 31.364 15.7302 30.2028 16.149 28.0952L15.6586 27.9977C15.2403 30.1028 15.0467 31.3044 15.026 32.3758C15.0052 33.4492 15.1583 34.384 15.414 35.9451L15.9074 35.8642ZM16.1489 28.0955C16.7097 25.2916 17.6436 23.2623 18.5063 21.4288L18.0539 21.2159C17.1884 23.0551 16.232 25.1304 15.6586 27.9974L16.1489 28.0955ZM18.5071 21.4272C18.991 20.3788 19.4575 19.3915 19.7871 18.375L19.3115 18.2208C18.9931 19.2027 18.5414 20.1597 18.0531 21.2176L18.5071 21.4272ZM19.7884 18.3711C20.2034 17.0153 20.2879 15.8189 20.1485 14.6761L19.6522 14.7366C19.7829 15.8081 19.7054 16.9341 19.3103 18.2247L19.7884 18.3711ZM20.1486 14.6768C20.01 13.512 19.6501 12.4089 19.2172 11.2184L18.7473 11.3893C19.1785 12.5752 19.5208 13.6323 19.6521 14.7359L20.1486 14.6768ZM19.2166 11.2169C18.9077 10.3842 18.7606 9.85871 18.7069 9.44864C18.6545 9.0476 18.69 8.74675 18.7683 8.35539L18.278 8.25734C18.1943 8.67611 18.1488 9.03686 18.2111 9.51347C18.2723 9.98103 18.4357 10.5493 18.7479 11.3908L19.2166 11.2169ZM18.3464 8.12959C18.0212 8.4548 17.6594 8.66628 17.2889 8.73575L17.3811 9.22719C17.8747 9.13463 18.3231 8.86003 18.7 8.48314L18.3464 8.12959ZM17.2756 8.73862C16.1952 9.00272 15.156 8.40899 14.5177 7.4643L14.1034 7.74423C14.8153 8.79785 16.0444 9.55431 17.3944 9.22432L17.2756 8.73862ZM14.4492 7.81227L14.8543 7.54223L14.5769 7.12621L14.1718 7.39625L14.4492 7.81227ZM14.5108 7.47759C15.1094 8.33273 16.1194 9.01462 17.2846 8.73867L17.1694 8.25213C16.2822 8.46224 15.456 7.95596 14.9204 7.19086L14.5108 7.47759ZM17.2838 8.73886C18.195 8.52623 18.6856 7.92342 18.9165 7.20477C19.1422 6.50199 19.1239 5.68287 19.0415 4.98264L18.5449 5.04106C18.6246 5.71804 18.6332 6.45167 18.4404 7.05184C18.2527 7.63615 17.8791 8.08651 17.1702 8.25194L17.2838 8.73886ZM19.0421 4.98815C18.9857 4.39625 18.8438 3.82313 18.5554 3.27516L18.1129 3.50803C18.3646 3.98623 18.4927 4.49327 18.5443 5.03555L19.0421 4.98815ZM18.5578 3.27979C17.9893 2.14289 16.9211 1.27455 15.5216 1.60923L15.6379 2.09552C16.7227 1.8361 17.5988 2.47997 18.1105 3.5034L18.5578 3.27979ZM15.5225 1.60902C15.0198 1.72729 14.5222 1.99172 14.1134 2.37128L14.4536 2.73767C14.801 2.41512 15.2215 2.19349 15.637 2.09573L15.5225 1.60902ZM14.1113 2.37323C13.5278 2.92753 13.0967 3.73789 12.9821 4.7126L13.4786 4.77102C13.58 3.90944 13.959 3.20758 14.4557 2.73572L14.1113 2.37323ZM12.9804 4.74181V4.82283H13.4804V4.74181H12.9804ZM12.9878 4.88347C13.0025 4.94206 13.0171 4.99307 13.0305 5.04004C13.0441 5.08758 13.0565 5.13108 13.0688 5.18051L13.5539 5.05924C13.5393 5.00065 13.5247 4.94964 13.5112 4.90267C13.4977 4.85513 13.4852 4.81163 13.4729 4.7622L12.9878 4.88347ZM13.0688 5.18051C13.0894 5.26275 13.1157 5.47138 13.1257 5.73684C13.1355 5.99793 13.1285 6.29172 13.0911 6.54102L13.5856 6.61519C13.6292 6.32441 13.6358 5.9971 13.6253 5.7181C13.615 5.44347 13.5873 5.19303 13.5539 5.05924L13.0688 5.18051ZM13.1449 6.73642C13.1445 6.73593 13.1532 6.74747 13.1704 6.77988C13.1863 6.80971 13.2053 6.84953 13.2268 6.89921C13.2698 6.99843 13.3194 7.12899 13.3705 7.28183C13.4727 7.58762 13.5774 7.97234 13.6458 8.35693C13.7149 8.74523 13.7438 9.1158 13.7058 9.40072C13.6663 9.69655 13.5691 9.8165 13.4674 9.85429L13.6414 10.323C14.0123 10.1853 14.1548 9.81578 14.2014 9.46688C14.2494 9.10708 14.2108 8.67765 14.1381 8.26932C14.0648 7.85729 13.9534 7.44876 13.8447 7.12333C13.7903 6.96056 13.7357 6.81601 13.6856 6.70046C13.6395 6.59397 13.5868 6.48694 13.5319 6.4198L13.1449 6.73642ZM13.4683 9.85393C13.414 9.87387 13.3833 9.86915 13.3641 9.8625C13.3408 9.85443 13.3064 9.83323 13.264 9.78022C13.1744 9.66811 13.0944 9.47118 13.0308 9.21488C12.9057 8.71127 12.8725 8.10647 12.8589 7.86044L12.3596 7.88817C12.373 8.12821 12.4073 8.77911 12.5455 9.33542C12.6135 9.60908 12.7142 9.89316 12.8735 10.0924C12.9556 10.1951 13.0627 10.2872 13.2005 10.335C13.3423 10.3841 13.4923 10.3777 13.6405 10.3234L13.4683 9.85393ZM12.8593 7.8743C12.8593 7.87425 12.8593 7.8742 12.8593 7.87415C12.8593 7.87409 12.8593 7.87404 12.8593 7.87399C12.8593 7.87394 12.8593 7.87388 12.8593 7.87383C12.8593 7.87378 12.8593 7.87372 12.8593 7.87367C12.8593 7.87362 12.8593 7.87357 12.8593 7.87351C12.8593 7.87346 12.8593 7.87341 12.8593 7.87335C12.8593 7.8733 12.8593 7.87325 12.8593 7.8732C12.8593 7.87314 12.8593 7.87309 12.8593 7.87304C12.8593 7.87299 12.8593 7.87293 12.8593 7.87288C12.8593 7.87283 12.8593 7.87277 12.8593 7.87272C12.8593 7.87267 12.8593 7.87262 12.8593 7.87256C12.8593 7.87251 12.8593 7.87246 12.8593 7.87241C12.8593 7.87235 12.8593 7.8723 12.8593 7.87225C12.8593 7.87219 12.8593 7.87214 12.8593 7.87209C12.8593 7.87204 12.8593 7.87198 12.8593 7.87193C12.8593 7.87188 12.8593 7.87183 12.8593 7.87177C12.8593 7.87172 12.8593 7.87167 12.8593 7.87161C12.8593 7.87156 12.8593 7.87151 12.8593 7.87146C12.8593 7.8714 12.8593 7.87135 12.8593 7.8713C12.8593 7.87124 12.8593 7.87119 12.8593 7.87114C12.8593 7.87109 12.8593 7.87103 12.8593 7.87098C12.8593 7.87093 12.8593 7.87088 12.8593 7.87082C12.8593 7.87077 12.8593 7.87072 12.8593 7.87067C12.8593 7.87061 12.8593 7.87056 12.8593 7.87051C12.8593 7.87045 12.8593 7.8704 12.8593 7.87035C12.8593 7.8703 12.8593 7.87024 12.8593 7.87019C12.8593 7.87014 12.8593 7.87008 12.8593 7.87003C12.8593 7.86998 12.8593 7.86993 12.8593 7.86987C12.8593 7.86982 12.8593 7.86977 12.8593 7.86972C12.8593 7.86966 12.8593 7.86961 12.8593 7.86956C12.8593 7.8695 12.8593 7.86945 12.8593 7.8694C12.8593 7.86935 12.8593 7.86929 12.8593 7.86924C12.8593 7.86919 12.8593 7.86914 12.8593 7.86908C12.8593 7.86903 12.8593 7.86898 12.8593 7.86892C12.8593 7.86887 12.8593 7.86882 12.8593 7.86877C12.8593 7.86871 12.8593 7.86866 12.8593 7.86861C12.8593 7.86856 12.8593 7.8685 12.8593 7.86845C12.8593 7.8684 12.8593 7.86834 12.8593 7.86829C12.8593 7.86824 12.8593 7.86819 12.8593 7.86813C12.8593 7.86808 12.8593 7.86803 12.8593 7.86798C12.8593 7.86792 12.8593 7.86787 12.8593 7.86782C12.8593 7.86776 12.8593 7.86771 12.8593 7.86766C12.8593 7.86761 12.8593 7.86755 12.8593 7.8675C12.8593 7.86745 12.8593 7.86739 12.8593 7.86734C12.8593 7.86729 12.8593 7.86724 12.8593 7.86718C12.8593 7.86713 12.8593 7.86708 12.8593 7.86703C12.8593 7.86697 12.8593 7.86692 12.8593 7.86687C12.8593 7.86681 12.8593 7.86676 12.8593 7.86671C12.8593 7.86666 12.8593 7.8666 12.8593 7.86655C12.8593 7.8665 12.8593 7.86645 12.8593 7.86639C12.8593 7.86634 12.8593 7.86629 12.8593 7.86623C12.8593 7.86618 12.8593 7.86613 12.8593 7.86608C12.8593 7.86602 12.8593 7.86597 12.8593 7.86592C12.8593 7.86587 12.8593 7.86581 12.8593 7.86576C12.8593 7.86571 12.8593 7.86565 12.8593 7.8656C12.8593 7.86555 12.8593 7.8655 12.8593 7.86544C12.8593 7.86539 12.8593 7.86534 12.8593 7.86529C12.8593 7.86523 12.8593 7.86518 12.8593 7.86513C12.8593 7.86507 12.8593 7.86502 12.8593 7.86497C12.8593 7.86492 12.8593 7.86486 12.8593 7.86481C12.8593 7.86476 12.8593 7.86471 12.8593 7.86465C12.8593 7.8646 12.8593 7.86455 12.8593 7.86449C12.8593 7.86444 12.8593 7.86439 12.8593 7.86434C12.8593 7.86428 12.8593 7.86423 12.8593 7.86418C12.8593 7.86413 12.8593 7.86407 12.8593 7.86402C12.8593 7.86397 12.8593 7.86391 12.8593 7.86386C12.8593 7.86381 12.8593 7.86376 12.8593 7.8637C12.8593 7.86365 12.8593 7.8636 12.8593 7.86354C12.8593 7.86349 12.8593 7.86344 12.8593 7.86339C12.8593 7.86333 12.8593 7.86328 12.8593 7.86323C12.8593 7.86318 12.8593 7.86312 12.8593 7.86307C12.8593 7.86302 12.8593 7.86296 12.8593 7.86291C12.8593 7.86286 12.8593 7.86281 12.8593 7.86275C12.8593 7.8627 12.8593 7.86265 12.8593 7.8626C12.8593 7.86254 12.8593 7.86249 12.8593 7.86244C12.8593 7.86238 12.8593 7.86233 12.8593 7.86228C12.8593 7.86223 12.8593 7.86217 12.8593 7.86212C12.8593 7.86207 12.8593 7.86202 12.8593 7.86196C12.8593 7.86191 12.8593 7.86186 12.8593 7.8618C12.8593 7.86175 12.8593 7.8617 12.8593 7.86165C12.8593 7.86159 12.8593 7.86154 12.8593 7.86149C12.8593 7.86144 12.8593 7.86138 12.8593 7.86133C12.8593 7.86128 12.8593 7.86122 12.8593 7.86117C12.8593 7.86112 12.8593 7.86107 12.8593 7.86101C12.8593 7.86096 12.8593 7.86091 12.8593 7.86086C12.8593 7.8608 12.8593 7.86075 12.8593 7.8607C12.8593 7.86064 12.8593 7.86059 12.8593 7.86054C12.8593 7.86049 12.8593 7.86043 12.8593 7.86038C12.8593 7.86033 12.8593 7.86027 12.8593 7.86022C12.8593 7.86017 12.8593 7.86012 12.8593 7.86006C12.8593 7.86001 12.8593 7.85996 12.8593 7.85991C12.8593 7.85985 12.8593 7.8598 12.8593 7.85975C12.8593 7.85969 12.8593 7.85964 12.8593 7.85959C12.8593 7.85954 12.8593 7.85948 12.8593 7.85943C12.8593 7.85938 12.8593 7.85933 12.8593 7.85927C12.8593 7.85922 12.8593 7.85917 12.8593 7.85911C12.8593 7.85906 12.8593 7.85901 12.8593 7.85896C12.8593 7.8589 12.8593 7.85885 12.8593 7.8588C12.8593 7.85875 12.8593 7.85869 12.8593 7.85864C12.8593 7.85859 12.8593 7.85853 12.8593 7.85848C12.8593 7.85843 12.8593 7.85838 12.8593 7.85832C12.8593 7.85827 12.8593 7.85822 12.8593 7.85817C12.8593 7.85811 12.8593 7.85806 12.8593 7.85801C12.8593 7.85795 12.8593 7.8579 12.8593 7.85785C12.8593 7.8578 12.8593 7.85774 12.8593 7.85769C12.8593 7.85764 12.8593 7.85758 12.8593 7.85753C12.8593 7.85748 12.8593 7.85743 12.8593 7.85737C12.8593 7.85732 12.8593 7.85727 12.8593 7.85722C12.8593 7.85716 12.8593 7.85711 12.8593 7.85706C12.8593 7.85701 12.8593 7.85695 12.8593 7.8569C12.8593 7.85685 12.8593 7.85679 12.8593 7.85674C12.8593 7.85669 12.8593 7.85664 12.8593 7.85658C12.8593 7.85653 12.8593 7.85648 12.8593 7.85642C12.8593 7.85637 12.8593 7.85632 12.8593 7.85627C12.8593 7.85621 12.8593 7.85616 12.8593 7.85611C12.8593 7.85606 12.8593 7.856 12.8593 7.85595C12.8593 7.8559 12.8593 7.85584 12.8593 7.85579C12.8593 7.85574 12.8593 7.85569 12.8593 7.85563C12.8593 7.85558 12.8593 7.85553 12.8593 7.85548C12.8593 7.85542 12.8593 7.85537 12.8593 7.85532C12.8593 7.85526 12.8593 7.85521 12.8593 7.85516C12.8593 7.85511 12.8593 7.85505 12.8593 7.855C12.8593 7.85495 12.8593 7.8549 12.8593 7.85484C12.8593 7.85479 12.8593 7.85474 12.8593 7.85468C12.8593 7.85463 12.8593 7.85458 12.8593 7.85453C12.8593 7.85447 12.8593 7.85442 12.8593 7.85437C12.8593 7.85432 12.8593 7.85426 12.8593 7.85421C12.8593 7.85416 12.8593 7.8541 12.8593 7.85405C12.8593 7.854 12.8593 7.85395 12.8593 7.85389C12.8593 7.85384 12.8593 7.85379 12.8593 7.85373C12.8593 7.85368 12.8593 7.85363 12.8593 7.85358C12.8593 7.85352 12.8593 7.85347 12.8593 7.85342C12.8593 7.85337 12.8593 7.85331 12.8593 7.85326C12.8593 7.85321 12.8593 7.85316 12.8593 7.8531C12.8593 7.85305 12.8593 7.853 12.8593 7.85294C12.8593 7.85289 12.8593 7.85284 12.8593 7.85279C12.8593 7.85273 12.8593 7.85268 12.8593 7.85263C12.8593 7.85257 12.8593 7.85252 12.8593 7.85247C12.8593 7.85242 12.8593 7.85236 12.8593 7.85231C12.8593 7.85226 12.8593 7.85221 12.8593 7.85215C12.8593 7.8521 12.8593 7.85205 12.8593 7.85199C12.8593 7.85194 12.8593 7.85189 12.8593 7.85184C12.8593 7.85178 12.8593 7.85173 12.8593 7.85168C12.8593 7.85163 12.8593 7.85157 12.8593 7.85152C12.8593 7.85147 12.8593 7.85141 12.8593 7.85136C12.8593 7.85131 12.8593 7.85126 12.8593 7.8512C12.8593 7.85115 12.8593 7.8511 12.8593 7.85105C12.8593 7.85099 12.8593 7.85094 12.8593 7.85089C12.8593 7.85083 12.8593 7.85078 12.8593 7.85073C12.8593 7.85068 12.8593 7.85062 12.8593 7.85057C12.8593 7.85052 12.8593 7.85047 12.8593 7.85041C12.8593 7.85036 12.8593 7.85031 12.8593 7.85025C12.8593 7.8502 12.8593 7.85015 12.8593 7.8501C12.8593 7.85004 12.8593 7.84999 12.8593 7.84994C12.8593 7.84988 12.8593 7.84983 12.8593 7.84978C12.8593 7.84973 12.8593 7.84967 12.8593 7.84962C12.8593 7.84957 12.8593 7.84952 12.8593 7.84946C12.8593 7.84941 12.8593 7.84936 12.8593 7.84931C12.8593 7.84925 12.8593 7.8492 12.8593 7.84915C12.8593 7.84909 12.8593 7.84904 12.8593 7.84899C12.8593 7.84894 12.8593 7.84888 12.8593 7.84883C12.8593 7.84878 12.8593 7.84872 12.8593 7.84867C12.8593 7.84862 12.8593 7.84857 12.8593 7.84851C12.8593 7.84846 12.8593 7.84841 12.8593 7.84836C12.8593 7.8483 12.8593 7.84825 12.8593 7.8482C12.8593 7.84814 12.8593 7.84809 12.8593 7.84804C12.8593 7.84799 12.8593 7.84793 12.8593 7.84788C12.8593 7.84783 12.8593 7.84778 12.8593 7.84772C12.8593 7.84767 12.8593 7.84762 12.8593 7.84756C12.8593 7.84751 12.8593 7.84746 12.8593 7.84741C12.8593 7.84735 12.8593 7.8473 12.8593 7.84725C12.8593 7.8472 12.8593 7.84714 12.8593 7.84709C12.8593 7.84704 12.8593 7.84698 12.8593 7.84693C12.8593 7.84688 12.8593 7.84683 12.8593 7.84677C12.8593 7.84672 12.8593 7.84667 12.8593 7.84662C12.8593 7.84656 12.8593 7.84651 12.8593 7.84646C12.8593 7.8464 12.8593 7.84635 12.8593 7.8463C12.8593 7.84625 12.8593 7.84619 12.8593 7.84614C12.8593 7.84609 12.8593 7.84604 12.8593 7.84598C12.8593 7.84593 12.8593 7.84588 12.8593 7.84582C12.8593 7.84577 12.8593 7.84572 12.8593 7.84567C12.8593 7.84561 12.8593 7.84556 12.8593 7.84551C12.8593 7.84546 12.8593 7.8454 12.8593 7.84535C12.8593 7.8453 12.8593 7.84524 12.8593 7.84519C12.8593 7.84514 12.8593 7.84509 12.8593 7.84503C12.8593 7.84498 12.8593 7.84493 12.8593 7.84487C12.8593 7.84482 12.8593 7.84477 12.8593 7.84472C12.8593 7.84466 12.8593 7.84461 12.8593 7.84456C12.8593 7.84451 12.8593 7.84445 12.8593 7.8444C12.8593 7.84435 12.8593 7.84429 12.8593 7.84424C12.8593 7.84419 12.8593 7.84414 12.8593 7.84408C12.8593 7.84403 12.8593 7.84398 12.8593 7.84393C12.8593 7.84387 12.8593 7.84382 12.8593 7.84377C12.8593 7.84371 12.8593 7.84366 12.8593 7.84361C12.8593 7.84356 12.8593 7.8435 12.8593 7.84345C12.8593 7.8434 12.8593 7.84335 12.8593 7.84329C12.8593 7.84324 12.8593 7.84319 12.8593 7.84313C12.8593 7.84308 12.8593 7.84303 12.8593 7.84298C12.8593 7.84292 12.8593 7.84287 12.8593 7.84282C12.8593 7.84277 12.8593 7.84271 12.8593 7.84266C12.8593 7.84261 12.8593 7.84255 12.8593 7.8425C12.8593 7.84245 12.8593 7.8424 12.8593 7.84234C12.8593 7.84229 12.8593 7.84224 12.8593 7.84219C12.8593 7.84213 12.8593 7.84208 12.8593 7.84203C12.8593 7.84197 12.8593 7.84192 12.8593 7.84187C12.8593 7.84182 12.8593 7.84176 12.8593 7.84171C12.8593 7.84166 12.8593 7.84161 12.8593 7.84155C12.8593 7.8415 12.8593 7.84145 12.8593 7.84139C12.8593 7.84134 12.8593 7.84129 12.8593 7.84124C12.8593 7.84118 12.8593 7.84113 12.8593 7.84108C12.8593 7.84102 12.8593 7.84097 12.8593 7.84092C12.8593 7.84087 12.8593 7.84081 12.8593 7.84076C12.8593 7.84071 12.8593 7.84066 12.8593 7.8406C12.8593 7.84055 12.8593 7.8405 12.8593 7.84044C12.8593 7.84039 12.8593 7.84034 12.8593 7.84029C12.8593 7.84023 12.8593 7.84018 12.8593 7.84013C12.8593 7.84008 12.8593 7.84002 12.8593 7.83997C12.8593 7.83992 12.8593 7.83986 12.8593 7.83981C12.8593 7.83976 12.8593 7.83971 12.8593 7.83965C12.8593 7.8396 12.8593 7.83955 12.8593 7.8395C12.8593 7.83944 12.8593 7.83939 12.8593 7.83934C12.8593 7.83928 12.8593 7.83923 12.8593 7.83918C12.8593 7.83913 12.8593 7.83907 12.8593 7.83902C12.8593 7.83897 12.8593 7.83892 12.8593 7.83886C12.8593 7.83881 12.8593 7.83876 12.8593 7.8387C12.8593 7.83865 12.8593 7.8386 12.8593 7.83855C12.8593 7.83849 12.8593 7.83844 12.8593 7.83839C12.8593 7.83834 12.8593 7.83828 12.8593 7.83823C12.8593 7.83818 12.8593 7.83812 12.8593 7.83807C12.8593 7.83802 12.8593 7.83797 12.8593 7.83791C12.8593 7.83786 12.8593 7.83781 12.8593 7.83776C12.8593 7.8377 12.8593 7.83765 12.8593 7.8376C12.8593 7.83754 12.8593 7.83749 12.8593 7.83744C12.8593 7.83739 12.8593 7.83733 12.8593 7.83728C12.8593 7.83723 12.8593 7.83717 12.8593 7.83712C12.8593 7.83707 12.8593 7.83702 12.8593 7.83696C12.8593 7.83691 12.8593 7.83686 12.8593 7.83681C12.8593 7.83675 12.8593 7.8367 12.8593 7.83665C12.8593 7.83659 12.8593 7.83654 12.8593 7.83649C12.8593 7.83644 12.8593 7.83638 12.8593 7.83633C12.8593 7.83628 12.8593 7.83623 12.8593 7.83617C12.8593 7.83612 12.8593 7.83607 12.8593 7.83601C12.8593 7.83596 12.8593 7.83591 12.8593 7.83586C12.8593 7.8358 12.8593 7.83575 12.8593 7.8357C12.8593 7.83565 12.8593 7.83559 12.8593 7.83554C12.8593 7.83549 12.8593 7.83543 12.8593 7.83538C12.8593 7.83533 12.8593 7.83528 12.8593 7.83522C12.8593 7.83517 12.8593 7.83512 12.8593 7.83507C12.8593 7.83501 12.8593 7.83496 12.8593 7.83491C12.8593 7.83485 12.8593 7.8348 12.8593 7.83475C12.8593 7.8347 12.8593 7.83464 12.8593 7.83459C12.8593 7.83454 12.8593 7.83449 12.8593 7.83443C12.8593 7.83438 12.8593 7.83433 12.8593 7.83427C12.8593 7.83422 12.8593 7.83417 12.8593 7.83412C12.8593 7.83406 12.8593 7.83401 12.8593 7.83396C12.8593 7.83391 12.8593 7.83385 12.8593 7.8338C12.8593 7.83375 12.8593 7.83369 12.8593 7.83364C12.8593 7.83359 12.8593 7.83354 12.8593 7.83348C12.8593 7.83343 12.8593 7.83338 12.8593 7.83332C12.8593 7.83327 12.8593 7.83322 12.8593 7.83317C12.8593 7.83311 12.8593 7.83306 12.8593 7.83301C12.8593 7.83296 12.8593 7.8329 12.8593 7.83285C12.8593 7.8328 12.8593 7.83274 12.8593 7.83269C12.8593 7.83264 12.8593 7.83259 12.8593 7.83253C12.8593 7.83248 12.8593 7.83243 12.8593 7.83238C12.8593 7.83232 12.8593 7.83227 12.8593 7.83222C12.8593 7.83216 12.8593 7.83211 12.8593 7.83206C12.8593 7.83201 12.8593 7.83195 12.8593 7.8319C12.8593 7.83185 12.8593 7.8318 12.8593 7.83174C12.8593 7.83169 12.8593 7.83164 12.8593 7.83158C12.8593 7.83153 12.8593 7.83148 12.8593 7.83143C12.8593 7.83137 12.8593 7.83132 12.8593 7.83127C12.8593 7.83122 12.8593 7.83116 12.8593 7.83111C12.8593 7.83106 12.8593 7.831 12.8593 7.83095C12.8593 7.8309 12.8593 7.83085 12.8593 7.83079C12.8593 7.83074 12.8593 7.83069 12.8593 7.83064C12.8593 7.83058 12.8593 7.83053 12.8593 7.83048C12.8593 7.83042 12.8593 7.83037 12.8593 7.83032C12.8593 7.83027 12.8593 7.83021 12.8593 7.83016C12.8593 7.83011 12.8593 7.83006 12.8593 7.83C12.8593 7.82995 12.8593 7.8299 12.8593 7.82984C12.8593 7.82979 12.8593 7.82974 12.8593 7.82969C12.8593 7.82963 12.8593 7.82958 12.8593 7.82953C12.8593 7.82947 12.8593 7.82942 12.8593 7.82937C12.8593 7.82932 12.8593 7.82926 12.8593 7.82921C12.8593 7.82916 12.8593 7.82911 12.8593 7.82905C12.8593 7.829 12.8593 7.82895 12.8593 7.82889C12.8593 7.82884 12.8593 7.82879 12.8593 7.82874C12.8593 7.82868 12.8593 7.82863 12.8593 7.82858C12.8593 7.82853 12.8593 7.82847 12.8593 7.82842C12.8593 7.82837 12.8593 7.82831 12.8593 7.82826C12.8593 7.82821 12.8593 7.82816 12.8593 7.8281C12.8593 7.82805 12.8593 7.828 12.8593 7.82795C12.8593 7.82789 12.8593 7.82784 12.8593 7.82779C12.8593 7.82773 12.8593 7.82768 12.8593 7.82763C12.8593 7.82758 12.8593 7.82752 12.8593 7.82747C12.8593 7.82742 12.8593 7.82737 12.8593 7.82731C12.8593 7.82726 12.8593 7.82721 12.8593 7.82715C12.8593 7.8271 12.8593 7.82705 12.8593 7.827C12.8593 7.82694 12.8593 7.82689 12.8593 7.82684C12.8593 7.82679 12.8593 7.82673 12.8593 7.82668C12.8593 7.82663 12.8593 7.82657 12.8593 7.82652C12.8593 7.82647 12.8593 7.82642 12.8593 7.82636C12.8593 7.82631 12.8593 7.82626 12.8593 7.82621C12.8593 7.82615 12.8593 7.8261 12.8593 7.82605C12.8593 7.82599 12.8593 7.82594 12.8593 7.82589C12.8593 7.82584 12.8593 7.82578 12.8593 7.82573C12.8593 7.82568 12.8593 7.82562 12.8593 7.82557C12.8593 7.82552 12.8593 7.82547 12.8593 7.82541C12.8593 7.82536 12.8593 7.82531 12.8593 7.82526C12.8593 7.8252 12.8593 7.82515 12.8593 7.8251C12.8593 7.82504 12.8593 7.82499 12.8593 7.82494C12.8593 7.82489 12.8593 7.82483 12.8593 7.82478C12.8593 7.82473 12.8593 7.82468 12.8593 7.82462C12.8593 7.82457 12.8593 7.82452 12.8593 7.82446C12.8593 7.82441 12.8593 7.82436 12.8593 7.82431C12.8593 7.82425 12.8593 7.8242 12.8593 7.82415C12.8593 7.8241 12.8593 7.82404 12.8593 7.82399C12.8593 7.82394 12.8593 7.82388 12.8593 7.82383C12.8593 7.82378 12.8593 7.82373 12.8593 7.82367C12.8593 7.82362 12.8593 7.82357 12.8593 7.82352C12.8593 7.82346 12.8593 7.82341 12.8593 7.82336C12.8593 7.8233 12.8593 7.82325 12.8593 7.8232C12.8593 7.82315 12.8593 7.82309 12.8593 7.82304C12.8593 7.82299 12.8593 7.82294 12.8593 7.82288C12.8593 7.82283 12.8593 7.82278 12.8593 7.82272C12.8593 7.82267 12.8593 7.82262 12.8593 7.82257C12.8593 7.82251 12.8593 7.82246 12.8593 7.82241C12.8593 7.82236 12.8593 7.8223 12.8593 7.82225C12.8593 7.8222 12.8593 7.82214 12.8593 7.82209C12.8593 7.82204 12.8593 7.82199 12.8593 7.82193C12.8593 7.82188 12.8593 7.82183 12.8593 7.82177C12.8593 7.82172 12.8593 7.82167 12.8593 7.82162C12.8593 7.82156 12.8593 7.82151 12.8593 7.82146C12.8593 7.82141 12.8593 7.82135 12.8593 7.8213C12.8593 7.82125 12.8593 7.82119 12.8593 7.82114C12.8593 7.82109 12.8593 7.82104 12.8593 7.82098C12.8593 7.82093 12.8593 7.82088 12.8593 7.82083C12.8593 7.82077 12.8593 7.82072 12.8593 7.82067C12.8593 7.82061 12.8593 7.82056 12.8593 7.82051C12.8593 7.82046 12.8593 7.8204 12.8593 7.82035C12.8593 7.8203 12.8593 7.82025 12.8593 7.82019C12.8593 7.82014 12.8593 7.82009 12.8593 7.82003C12.8593 7.81998 12.8593 7.81993 12.8593 7.81988C12.8593 7.81982 12.8593 7.81977 12.8593 7.81972C12.8593 7.81967 12.8593 7.81961 12.8593 7.81956C12.8593 7.81951 12.8593 7.81945 12.8593 7.8194C12.8593 7.81935 12.8593 7.8193 12.8593 7.81924C12.8593 7.81919 12.8593 7.81914 12.8593 7.81909C12.8593 7.81903 12.8593 7.81898 12.8593 7.81893C12.8593 7.81887 12.8593 7.81882 12.8593 7.81877C12.8593 7.81872 12.8593 7.81866 12.8593 7.81861C12.8593 7.81856 12.8593 7.81851 12.8593 7.81845C12.8593 7.8184 12.8593 7.81835 12.8593 7.81829C12.8593 7.81824 12.8593 7.81819 12.8593 7.81814C12.8593 7.81808 12.8593 7.81803 12.8593 7.81798C12.8593 7.81792 12.8593 7.81787 12.8593 7.81782C12.8593 7.81777 12.8593 7.81771 12.8593 7.81766C12.8593 7.81761 12.8593 7.81756 12.8593 7.8175C12.8593 7.81745 12.8593 7.8174 12.8593 7.81734C12.8593 7.81729 12.8593 7.81724 12.8593 7.81719C12.8593 7.81713 12.8593 7.81708 12.8593 7.81703C12.8593 7.81698 12.8593 7.81692 12.8593 7.81687C12.8593 7.81682 12.8593 7.81676 12.8593 7.81671C12.8593 7.81666 12.8593 7.81661 12.8593 7.81655C12.8593 7.8165 12.8593 7.81645 12.8593 7.8164C12.8593 7.81634 12.8593 7.81629 12.8593 7.81624C12.8593 7.81618 12.8593 7.81613 12.8593 7.81608C12.8593 7.81603 12.8593 7.81597 12.8593 7.81592C12.8593 7.81587 12.8593 7.81582 12.8593 7.81576C12.8593 7.81571 12.8593 7.81566 12.8593 7.8156C12.8593 7.81555 12.8593 7.8155 12.8593 7.81545C12.8593 7.81539 12.8593 7.81534 12.8593 7.81529C12.8593 7.81524 12.8593 7.81518 12.8593 7.81513C12.8593 7.81508 12.8593 7.81502 12.8593 7.81497C12.8593 7.81492 12.8593 7.81487 12.8593 7.81481C12.8593 7.81476 12.8593 7.81471 12.8593 7.81466C12.8593 7.8146 12.8593 7.81455 12.8593 7.8145C12.8593 7.81444 12.8593 7.81439 12.8593 7.81434C12.8593 7.81429 12.8593 7.81423 12.8593 7.81418C12.8593 7.81413 12.8593 7.81407 12.8593 7.81402C12.8593 7.81397 12.8593 7.81392 12.8593 7.81386C12.8593 7.81381 12.8593 7.81376 12.8593 7.81371C12.8593 7.81365 12.8593 7.8136 12.8593 7.81355C12.8593 7.81349 12.8593 7.81344 12.8593 7.81339C12.8593 7.81334 12.8593 7.81328 12.8593 7.81323C12.8593 7.81318 12.8593 7.81313 12.8593 7.81307C12.8593 7.81302 12.8593 7.81297 12.8593 7.81291C12.8593 7.81286 12.8593 7.81281 12.8593 7.81276C12.8593 7.8127 12.8593 7.81265 12.8593 7.8126C12.8593 7.81255 12.8593 7.81249 12.8593 7.81244C12.8593 7.81239 12.8593 7.81233 12.8593 7.81228C12.8593 7.81223 12.8593 7.81218 12.8593 7.81212C12.8593 7.81207 12.8593 7.81202 12.8593 7.81197C12.8593 7.81191 12.8593 7.81186 12.8593 7.81181C12.8593 7.81175 12.8593 7.8117 12.8593 7.81165C12.8593 7.8116 12.8593 7.81154 12.8593 7.81149C12.8593 7.81144 12.8593 7.81139 12.8593 7.81133C12.8593 7.81128 12.8593 7.81123 12.8593 7.81117C12.8593 7.81112 12.8593 7.81107 12.8593 7.81102C12.8593 7.81096 12.8593 7.81091 12.8593 7.81086C12.8593 7.8108 12.8593 7.81075 12.8593 7.8107C12.8593 7.81065 12.8593 7.81059 12.8593 7.81054C12.8593 7.81049 12.8593 7.81044 12.8593 7.81038C12.8593 7.81033 12.8593 7.81028 12.8593 7.81023C12.8593 7.81017 12.8593 7.81012 12.8593 7.81007C12.8593 7.81001 12.8593 7.80996 12.8593 7.80991C12.8593 7.80986 12.8593 7.8098 12.8593 7.80975C12.8593 7.8097 12.8593 7.80964 12.8593 7.80959C12.8593 7.80954 12.8593 7.80949 12.8593 7.80943C12.8593 7.80938 12.8593 7.80933 12.8593 7.80928C12.8593 7.80922 12.8593 7.80917 12.8593 7.80912C12.8593 7.80906 12.8593 7.80901 12.8593 7.80896C12.8593 7.80891 12.8593 7.80885 12.8593 7.8088C12.8593 7.80875 12.8593 7.8087 12.8593 7.80864C12.8593 7.80859 12.8593 7.80854 12.8593 7.80848C12.8593 7.80843 12.8593 7.80838 12.8593 7.80833C12.8593 7.80827 12.8593 7.80822 12.8593 7.80817C12.8593 7.80812 12.8593 7.80806 12.8593 7.80801C12.8593 7.80796 12.8593 7.8079 12.8593 7.80785C12.8593 7.8078 12.8593 7.80775 12.8593 7.80769C12.8593 7.80764 12.8593 7.80759 12.8593 7.80754C12.8593 7.80748 12.8593 7.80743 12.8593 7.80738C12.8593 7.80732 12.8593 7.80727 12.8593 7.80722C12.8593 7.80717 12.8593 7.80711 12.8593 7.80706C12.8593 7.80701 12.8593 7.80695 12.8593 7.8069C12.8593 7.80685 12.8593 7.8068 12.8593 7.80674C12.8593 7.80669 12.8593 7.80664 12.8593 7.80659C12.8593 7.80653 12.8593 7.80648 12.8593 7.80643C12.8593 7.80638 12.8593 7.80632 12.8593 7.80627C12.8593 7.80622 12.8593 7.80616 12.8593 7.80611C12.8593 7.80606 12.8593 7.80601 12.8593 7.80595C12.8593 7.8059 12.8593 7.80585 12.8593 7.80579C12.8593 7.80574 12.8593 7.80569 12.8593 7.80564C12.8593 7.80558 12.8593 7.80553 12.8593 7.80548C12.8593 7.80543 12.8593 7.80537 12.8593 7.80532C12.8593 7.80527 12.8593 7.80521 12.8593 7.80516C12.8593 7.80511 12.8593 7.80506 12.8593 7.805C12.8593 7.80495 12.8593 7.8049 12.8593 7.80485C12.8593 7.80479 12.8593 7.80474 12.8593 7.80469C12.8593 7.80463 12.8593 7.80458 12.8593 7.80453C12.8593 7.80448 12.8593 7.80442 12.8593 7.80437C12.8593 7.80432 12.8593 7.80427 12.8593 7.80421C12.8593 7.80416 12.8593 7.80411 12.8593 7.80405C12.8593 7.804 12.8593 7.80395 12.8593 7.8039C12.8593 7.80384 12.8593 7.80379 12.8593 7.80374C12.8593 7.80369 12.8593 7.80363 12.8593 7.80358C12.8593 7.80353 12.8593 7.80347 12.8593 7.80342C12.8593 7.80337 12.8593 7.80332 12.8593 7.80326C12.8593 7.80321 12.8593 7.80316 12.8593 7.8031C12.8593 7.80305 12.8593 7.803 12.8593 7.80295C12.8593 7.80289 12.8593 7.80284 12.8593 7.80279C12.8593 7.80274 12.8593 7.80268 12.8593 7.80263C12.8593 7.80258 12.8593 7.80252 12.8593 7.80247C12.8593 7.80242 12.8593 7.80237 12.8593 7.80231C12.8593 7.80226 12.8593 7.80221 12.8593 7.80216C12.8593 7.8021 12.8593 7.80205 12.8593 7.802C12.8593 7.80194 12.8593 7.80189 12.8593 7.80184C12.8593 7.80179 12.8593 7.80173 12.8593 7.80168C12.8593 7.80163 12.8593 7.80158 12.8593 7.80152C12.8593 7.80147 12.8593 7.80142 12.8593 7.80136C12.8593 7.80131 12.8593 7.80126 12.8593 7.80121C12.8593 7.80115 12.8593 7.8011 12.8593 7.80105C12.8593 7.801 12.8593 7.80094 12.8593 7.80089C12.8593 7.80084 12.8593 7.80078 12.8593 7.80073C12.8593 7.80068 12.8593 7.80063 12.8593 7.80057C12.8593 7.80052 12.8593 7.80047 12.8593 7.80042C12.8593 7.80036 12.8593 7.80031 12.8593 7.80026C12.8593 7.8002 12.8593 7.80015 12.8593 7.8001C12.8593 7.80005 12.8593 7.79999 12.8593 7.79994C12.8593 7.79989 12.8593 7.79983 12.8593 7.79978C12.8593 7.79973 12.8593 7.79968 12.8593 7.79962C12.8593 7.79957 12.8593 7.79952 12.8593 7.79947C12.8593 7.79941 12.8593 7.79936 12.8593 7.79931C12.8593 7.79925 12.8593 7.7992 12.8593 7.79915C12.8593 7.7991 12.8593 7.79904 12.8593 7.79899C12.8593 7.79894 12.8593 7.79889 12.8593 7.79883C12.8593 7.79878 12.8593 7.79873 12.8593 7.79867C12.8593 7.79862 12.8593 7.79857 12.8593 7.79852C12.8593 7.79846 12.8593 7.79841 12.8593 7.79836C12.8593 7.79831 12.8593 7.79825 12.8593 7.7982C12.8593 7.79815 12.8593 7.79809 12.8593 7.79804C12.8593 7.79799 12.8593 7.79794 12.8593 7.79788C12.8593 7.79783 12.8593 7.79778 12.8593 7.79773C12.8593 7.79767 12.8593 7.79762 12.8593 7.79757C12.8593 7.79751 12.8593 7.79746 12.8593 7.79741C12.8593 7.79736 12.8593 7.7973 12.8593 7.79725C12.8593 7.7972 12.8593 7.79714 12.8593 7.79709C12.8593 7.79704 12.8593 7.79699 12.8593 7.79693C12.8593 7.79688 12.8593 7.79683 12.8593 7.79678C12.8593 7.79672 12.8593 7.79667 12.8593 7.79662C12.8593 7.79657 12.8593 7.79651 12.8593 7.79646C12.8593 7.79641 12.8593 7.79635 12.8593 7.7963C12.8593 7.79625 12.8593 7.7962 12.8593 7.79614C12.8593 7.79609 12.8593 7.79604 12.8593 7.79598C12.8593 7.79593 12.8593 7.79588 12.8593 7.79583C12.8593 7.79577 12.8593 7.79572 12.8593 7.79567C12.8593 7.79562 12.8593 7.79556 12.8593 7.79551C12.8593 7.79546 12.8593 7.7954 12.8593 7.79535C12.8593 7.7953 12.8593 7.79525 12.8593 7.79519C12.8593 7.79514 12.8593 7.79509 12.8593 7.79504C12.8593 7.79498 12.8593 7.79493 12.8593 7.79488C12.8593 7.79482 12.8593 7.79477 12.8593 7.79472C12.8593 7.79467 12.8593 7.79461 12.8593 7.79456C12.8593 7.79451 12.8593 7.79446 12.8593 7.7944C12.8593 7.79435 12.8593 7.7943 12.8593 7.79424C12.8593 7.79419 12.8593 7.79414 12.8593 7.79409C12.8593 7.79403 12.8593 7.79398 12.8593 7.79393C12.8593 7.79388 12.8593 7.79382 12.8593 7.79377C12.8593 7.79372 12.8593 7.79366 12.8593 7.79361C12.8593 7.79356 12.8593 7.79351 12.8593 7.79345C12.8593 7.7934 12.8593 7.79335 12.8593 7.79329H12.3593C12.3593 7.79335 12.3593 7.7934 12.3593 7.79345C12.3593 7.79351 12.3593 7.79356 12.3593 7.79361C12.3593 7.79366 12.3593 7.79372 12.3593 7.79377C12.3593 7.79382 12.3593 7.79388 12.3593 7.79393C12.3593 7.79398 12.3593 7.79403 12.3593 7.79409C12.3593 7.79414 12.3593 7.79419 12.3593 7.79424C12.3593 7.7943 12.3593 7.79435 12.3593 7.7944C12.3593 7.79446 12.3593 7.79451 12.3593 7.79456C12.3593 7.79461 12.3593 7.79467 12.3593 7.79472C12.3593 7.79477 12.3593 7.79482 12.3593 7.79488C12.3593 7.79493 12.3593 7.79498 12.3593 7.79504C12.3593 7.79509 12.3593 7.79514 12.3593 7.79519C12.3593 7.79525 12.3593 7.7953 12.3593 7.79535C12.3593 7.7954 12.3593 7.79546 12.3593 7.79551C12.3593 7.79556 12.3593 7.79562 12.3593 7.79567C12.3593 7.79572 12.3593 7.79577 12.3593 7.79583C12.3593 7.79588 12.3593 7.79593 12.3593 7.79598C12.3593 7.79604 12.3593 7.79609 12.3593 7.79614C12.3593 7.7962 12.3593 7.79625 12.3593 7.7963C12.3593 7.79635 12.3593 7.79641 12.3593 7.79646C12.3593 7.79651 12.3593 7.79657 12.3593 7.79662C12.3593 7.79667 12.3593 7.79672 12.3593 7.79678C12.3593 7.79683 12.3593 7.79688 12.3593 7.79693C12.3593 7.79699 12.3593 7.79704 12.3593 7.79709C12.3593 7.79714 12.3593 7.7972 12.3593 7.79725C12.3593 7.7973 12.3593 7.79736 12.3593 7.79741C12.3593 7.79746 12.3593 7.79751 12.3593 7.79757C12.3593 7.79762 12.3593 7.79767 12.3593 7.79773C12.3593 7.79778 12.3593 7.79783 12.3593 7.79788C12.3593 7.79794 12.3593 7.79799 12.3593 7.79804C12.3593 7.79809 12.3593 7.79815 12.3593 7.7982C12.3593 7.79825 12.3593 7.79831 12.3593 7.79836C12.3593 7.79841 12.3593 7.79846 12.3593 7.79852C12.3593 7.79857 12.3593 7.79862 12.3593 7.79867C12.3593 7.79873 12.3593 7.79878 12.3593 7.79883C12.3593 7.79889 12.3593 7.79894 12.3593 7.79899C12.3593 7.79904 12.3593 7.7991 12.3593 7.79915C12.3593 7.7992 12.3593 7.79925 12.3593 7.79931C12.3593 7.79936 12.3593 7.79941 12.3593 7.79947C12.3593 7.79952 12.3593 7.79957 12.3593 7.79962C12.3593 7.79968 12.3593 7.79973 12.3593 7.79978C12.3593 7.79983 12.3593 7.79989 12.3593 7.79994C12.3593 7.79999 12.3593 7.80005 12.3593 7.8001C12.3593 7.80015 12.3593 7.8002 12.3593 7.80026C12.3593 7.80031 12.3593 7.80036 12.3593 7.80042C12.3593 7.80047 12.3593 7.80052 12.3593 7.80057C12.3593 7.80063 12.3593 7.80068 12.3593 7.80073C12.3593 7.80078 12.3593 7.80084 12.3593 7.80089C12.3593 7.80094 12.3593 7.801 12.3593 7.80105C12.3593 7.8011 12.3593 7.80115 12.3593 7.80121C12.3593 7.80126 12.3593 7.80131 12.3593 7.80136C12.3593 7.80142 12.3593 7.80147 12.3593 7.80152C12.3593 7.80158 12.3593 7.80163 12.3593 7.80168C12.3593 7.80173 12.3593 7.80179 12.3593 7.80184C12.3593 7.80189 12.3593 7.80194 12.3593 7.802C12.3593 7.80205 12.3593 7.8021 12.3593 7.80216C12.3593 7.80221 12.3593 7.80226 12.3593 7.80231C12.3593 7.80237 12.3593 7.80242 12.3593 7.80247C12.3593 7.80252 12.3593 7.80258 12.3593 7.80263C12.3593 7.80268 12.3593 7.80274 12.3593 7.80279C12.3593 7.80284 12.3593 7.80289 12.3593 7.80295C12.3593 7.803 12.3593 7.80305 12.3593 7.8031C12.3593 7.80316 12.3593 7.80321 12.3593 7.80326C12.3593 7.80332 12.3593 7.80337 12.3593 7.80342C12.3593 7.80347 12.3593 7.80353 12.3593 7.80358C12.3593 7.80363 12.3593 7.80369 12.3593 7.80374C12.3593 7.80379 12.3593 7.80384 12.3593 7.8039C12.3593 7.80395 12.3593 7.804 12.3593 7.80405C12.3593 7.80411 12.3593 7.80416 12.3593 7.80421C12.3593 7.80427 12.3593 7.80432 12.3593 7.80437C12.3593 7.80442 12.3593 7.80448 12.3593 7.80453C12.3593 7.80458 12.3593 7.80463 12.3593 7.80469C12.3593 7.80474 12.3593 7.80479 12.3593 7.80485C12.3593 7.8049 12.3593 7.80495 12.3593 7.805C12.3593 7.80506 12.3593 7.80511 12.3593 7.80516C12.3593 7.80521 12.3593 7.80527 12.3593 7.80532C12.3593 7.80537 12.3593 7.80543 12.3593 7.80548C12.3593 7.80553 12.3593 7.80558 12.3593 7.80564C12.3593 7.80569 12.3593 7.80574 12.3593 7.80579C12.3593 7.80585 12.3593 7.8059 12.3593 7.80595C12.3593 7.80601 12.3593 7.80606 12.3593 7.80611C12.3593 7.80616 12.3593 7.80622 12.3593 7.80627C12.3593 7.80632 12.3593 7.80638 12.3593 7.80643C12.3593 7.80648 12.3593 7.80653 12.3593 7.80659C12.3593 7.80664 12.3593 7.80669 12.3593 7.80674C12.3593 7.8068 12.3593 7.80685 12.3593 7.8069C12.3593 7.80695 12.3593 7.80701 12.3593 7.80706C12.3593 7.80711 12.3593 7.80717 12.3593 7.80722C12.3593 7.80727 12.3593 7.80732 12.3593 7.80738C12.3593 7.80743 12.3593 7.80748 12.3593 7.80754C12.3593 7.80759 12.3593 7.80764 12.3593 7.80769C12.3593 7.80775 12.3593 7.8078 12.3593 7.80785C12.3593 7.8079 12.3593 7.80796 12.3593 7.80801C12.3593 7.80806 12.3593 7.80812 12.3593 7.80817C12.3593 7.80822 12.3593 7.80827 12.3593 7.80833C12.3593 7.80838 12.3593 7.80843 12.3593 7.80848C12.3593 7.80854 12.3593 7.80859 12.3593 7.80864C12.3593 7.8087 12.3593 7.80875 12.3593 7.8088C12.3593 7.80885 12.3593 7.80891 12.3593 7.80896C12.3593 7.80901 12.3593 7.80906 12.3593 7.80912C12.3593 7.80917 12.3593 7.80922 12.3593 7.80928C12.3593 7.80933 12.3593 7.80938 12.3593 7.80943C12.3593 7.80949 12.3593 7.80954 12.3593 7.80959C12.3593 7.80964 12.3593 7.8097 12.3593 7.80975C12.3593 7.8098 12.3593 7.80986 12.3593 7.80991C12.3593 7.80996 12.3593 7.81001 12.3593 7.81007C12.3593 7.81012 12.3593 7.81017 12.3593 7.81023C12.3593 7.81028 12.3593 7.81033 12.3593 7.81038C12.3593 7.81044 12.3593 7.81049 12.3593 7.81054C12.3593 7.81059 12.3593 7.81065 12.3593 7.8107C12.3593 7.81075 12.3593 7.8108 12.3593 7.81086C12.3593 7.81091 12.3593 7.81096 12.3593 7.81102C12.3593 7.81107 12.3593 7.81112 12.3593 7.81117C12.3593 7.81123 12.3593 7.81128 12.3593 7.81133C12.3593 7.81139 12.3593 7.81144 12.3593 7.81149C12.3593 7.81154 12.3593 7.8116 12.3593 7.81165C12.3593 7.8117 12.3593 7.81175 12.3593 7.81181C12.3593 7.81186 12.3593 7.81191 12.3593 7.81197C12.3593 7.81202 12.3593 7.81207 12.3593 7.81212C12.3593 7.81218 12.3593 7.81223 12.3593 7.81228C12.3593 7.81233 12.3593 7.81239 12.3593 7.81244C12.3593 7.81249 12.3593 7.81255 12.3593 7.8126C12.3593 7.81265 12.3593 7.8127 12.3593 7.81276C12.3593 7.81281 12.3593 7.81286 12.3593 7.81291C12.3593 7.81297 12.3593 7.81302 12.3593 7.81307C12.3593 7.81313 12.3593 7.81318 12.3593 7.81323C12.3593 7.81328 12.3593 7.81334 12.3593 7.81339C12.3593 7.81344 12.3593 7.81349 12.3593 7.81355C12.3593 7.8136 12.3593 7.81365 12.3593 7.81371C12.3593 7.81376 12.3593 7.81381 12.3593 7.81386C12.3593 7.81392 12.3593 7.81397 12.3593 7.81402C12.3593 7.81407 12.3593 7.81413 12.3593 7.81418C12.3593 7.81423 12.3593 7.81429 12.3593 7.81434C12.3593 7.81439 12.3593 7.81444 12.3593 7.8145C12.3593 7.81455 12.3593 7.8146 12.3593 7.81466C12.3593 7.81471 12.3593 7.81476 12.3593 7.81481C12.3593 7.81487 12.3593 7.81492 12.3593 7.81497C12.3593 7.81502 12.3593 7.81508 12.3593 7.81513C12.3593 7.81518 12.3593 7.81524 12.3593 7.81529C12.3593 7.81534 12.3593 7.81539 12.3593 7.81545C12.3593 7.8155 12.3593 7.81555 12.3593 7.8156C12.3593 7.81566 12.3593 7.81571 12.3593 7.81576C12.3593 7.81582 12.3593 7.81587 12.3593 7.81592C12.3593 7.81597 12.3593 7.81603 12.3593 7.81608C12.3593 7.81613 12.3593 7.81618 12.3593 7.81624C12.3593 7.81629 12.3593 7.81634 12.3593 7.8164C12.3593 7.81645 12.3593 7.8165 12.3593 7.81655C12.3593 7.81661 12.3593 7.81666 12.3593 7.81671C12.3593 7.81676 12.3593 7.81682 12.3593 7.81687C12.3593 7.81692 12.3593 7.81698 12.3593 7.81703C12.3593 7.81708 12.3593 7.81713 12.3593 7.81719C12.3593 7.81724 12.3593 7.81729 12.3593 7.81734C12.3593 7.8174 12.3593 7.81745 12.3593 7.8175C12.3593 7.81756 12.3593 7.81761 12.3593 7.81766C12.3593 7.81771 12.3593 7.81777 12.3593 7.81782C12.3593 7.81787 12.3593 7.81792 12.3593 7.81798C12.3593 7.81803 12.3593 7.81808 12.3593 7.81814C12.3593 7.81819 12.3593 7.81824 12.3593 7.81829C12.3593 7.81835 12.3593 7.8184 12.3593 7.81845C12.3593 7.81851 12.3593 7.81856 12.3593 7.81861C12.3593 7.81866 12.3593 7.81872 12.3593 7.81877C12.3593 7.81882 12.3593 7.81887 12.3593 7.81893C12.3593 7.81898 12.3593 7.81903 12.3593 7.81909C12.3593 7.81914 12.3593 7.81919 12.3593 7.81924C12.3593 7.8193 12.3593 7.81935 12.3593 7.8194C12.3593 7.81945 12.3593 7.81951 12.3593 7.81956C12.3593 7.81961 12.3593 7.81967 12.3593 7.81972C12.3593 7.81977 12.3593 7.81982 12.3593 7.81988C12.3593 7.81993 12.3593 7.81998 12.3593 7.82003C12.3593 7.82009 12.3593 7.82014 12.3593 7.82019C12.3593 7.82025 12.3593 7.8203 12.3593 7.82035C12.3593 7.8204 12.3593 7.82046 12.3593 7.82051C12.3593 7.82056 12.3593 7.82061 12.3593 7.82067C12.3593 7.82072 12.3593 7.82077 12.3593 7.82083C12.3593 7.82088 12.3593 7.82093 12.3593 7.82098C12.3593 7.82104 12.3593 7.82109 12.3593 7.82114C12.3593 7.82119 12.3593 7.82125 12.3593 7.8213C12.3593 7.82135 12.3593 7.82141 12.3593 7.82146C12.3593 7.82151 12.3593 7.82156 12.3593 7.82162C12.3593 7.82167 12.3593 7.82172 12.3593 7.82177C12.3593 7.82183 12.3593 7.82188 12.3593 7.82193C12.3593 7.82199 12.3593 7.82204 12.3593 7.82209C12.3593 7.82214 12.3593 7.8222 12.3593 7.82225C12.3593 7.8223 12.3593 7.82236 12.3593 7.82241C12.3593 7.82246 12.3593 7.82251 12.3593 7.82257C12.3593 7.82262 12.3593 7.82267 12.3593 7.82272C12.3593 7.82278 12.3593 7.82283 12.3593 7.82288C12.3593 7.82294 12.3593 7.82299 12.3593 7.82304C12.3593 7.82309 12.3593 7.82315 12.3593 7.8232C12.3593 7.82325 12.3593 7.8233 12.3593 7.82336C12.3593 7.82341 12.3593 7.82346 12.3593 7.82352C12.3593 7.82357 12.3593 7.82362 12.3593 7.82367C12.3593 7.82373 12.3593 7.82378 12.3593 7.82383C12.3593 7.82388 12.3593 7.82394 12.3593 7.82399C12.3593 7.82404 12.3593 7.8241 12.3593 7.82415C12.3593 7.8242 12.3593 7.82425 12.3593 7.82431C12.3593 7.82436 12.3593 7.82441 12.3593 7.82446C12.3593 7.82452 12.3593 7.82457 12.3593 7.82462C12.3593 7.82468 12.3593 7.82473 12.3593 7.82478C12.3593 7.82483 12.3593 7.82489 12.3593 7.82494C12.3593 7.82499 12.3593 7.82504 12.3593 7.8251C12.3593 7.82515 12.3593 7.8252 12.3593 7.82526C12.3593 7.82531 12.3593 7.82536 12.3593 7.82541C12.3593 7.82547 12.3593 7.82552 12.3593 7.82557C12.3593 7.82562 12.3593 7.82568 12.3593 7.82573C12.3593 7.82578 12.3593 7.82584 12.3593 7.82589C12.3593 7.82594 12.3593 7.82599 12.3593 7.82605C12.3593 7.8261 12.3593 7.82615 12.3593 7.82621C12.3593 7.82626 12.3593 7.82631 12.3593 7.82636C12.3593 7.82642 12.3593 7.82647 12.3593 7.82652C12.3593 7.82657 12.3593 7.82663 12.3593 7.82668C12.3593 7.82673 12.3593 7.82679 12.3593 7.82684C12.3593 7.82689 12.3593 7.82694 12.3593 7.827C12.3593 7.82705 12.3593 7.8271 12.3593 7.82715C12.3593 7.82721 12.3593 7.82726 12.3593 7.82731C12.3593 7.82737 12.3593 7.82742 12.3593 7.82747C12.3593 7.82752 12.3593 7.82758 12.3593 7.82763C12.3593 7.82768 12.3593 7.82773 12.3593 7.82779C12.3593 7.82784 12.3593 7.82789 12.3593 7.82795C12.3593 7.828 12.3593 7.82805 12.3593 7.8281C12.3593 7.82816 12.3593 7.82821 12.3593 7.82826C12.3593 7.82831 12.3593 7.82837 12.3593 7.82842C12.3593 7.82847 12.3593 7.82853 12.3593 7.82858C12.3593 7.82863 12.3593 7.82868 12.3593 7.82874C12.3593 7.82879 12.3593 7.82884 12.3593 7.82889C12.3593 7.82895 12.3593 7.829 12.3593 7.82905C12.3593 7.82911 12.3593 7.82916 12.3593 7.82921C12.3593 7.82926 12.3593 7.82932 12.3593 7.82937C12.3593 7.82942 12.3593 7.82947 12.3593 7.82953C12.3593 7.82958 12.3593 7.82963 12.3593 7.82969C12.3593 7.82974 12.3593 7.82979 12.3593 7.82984C12.3593 7.8299 12.3593 7.82995 12.3593 7.83C12.3593 7.83006 12.3593 7.83011 12.3593 7.83016C12.3593 7.83021 12.3593 7.83027 12.3593 7.83032C12.3593 7.83037 12.3593 7.83042 12.3593 7.83048C12.3593 7.83053 12.3593 7.83058 12.3593 7.83064C12.3593 7.83069 12.3593 7.83074 12.3593 7.83079C12.3593 7.83085 12.3593 7.8309 12.3593 7.83095C12.3593 7.831 12.3593 7.83106 12.3593 7.83111C12.3593 7.83116 12.3593 7.83122 12.3593 7.83127C12.3593 7.83132 12.3593 7.83137 12.3593 7.83143C12.3593 7.83148 12.3593 7.83153 12.3593 7.83158C12.3593 7.83164 12.3593 7.83169 12.3593 7.83174C12.3593 7.8318 12.3593 7.83185 12.3593 7.8319C12.3593 7.83195 12.3593 7.83201 12.3593 7.83206C12.3593 7.83211 12.3593 7.83216 12.3593 7.83222C12.3593 7.83227 12.3593 7.83232 12.3593 7.83238C12.3593 7.83243 12.3593 7.83248 12.3593 7.83253C12.3593 7.83259 12.3593 7.83264 12.3593 7.83269C12.3593 7.83274 12.3593 7.8328 12.3593 7.83285C12.3593 7.8329 12.3593 7.83296 12.3593 7.83301C12.3593 7.83306 12.3593 7.83311 12.3593 7.83317C12.3593 7.83322 12.3593 7.83327 12.3593 7.83332C12.3593 7.83338 12.3593 7.83343 12.3593 7.83348C12.3593 7.83354 12.3593 7.83359 12.3593 7.83364C12.3593 7.83369 12.3593 7.83375 12.3593 7.8338C12.3593 7.83385 12.3593 7.83391 12.3593 7.83396C12.3593 7.83401 12.3593 7.83406 12.3593 7.83412C12.3593 7.83417 12.3593 7.83422 12.3593 7.83427C12.3593 7.83433 12.3593 7.83438 12.3593 7.83443C12.3593 7.83449 12.3593 7.83454 12.3593 7.83459C12.3593 7.83464 12.3593 7.8347 12.3593 7.83475C12.3593 7.8348 12.3593 7.83485 12.3593 7.83491C12.3593 7.83496 12.3593 7.83501 12.3593 7.83507C12.3593 7.83512 12.3593 7.83517 12.3593 7.83522C12.3593 7.83528 12.3593 7.83533 12.3593 7.83538C12.3593 7.83543 12.3593 7.83549 12.3593 7.83554C12.3593 7.83559 12.3593 7.83565 12.3593 7.8357C12.3593 7.83575 12.3593 7.8358 12.3593 7.83586C12.3593 7.83591 12.3593 7.83596 12.3593 7.83601C12.3593 7.83607 12.3593 7.83612 12.3593 7.83617C12.3593 7.83623 12.3593 7.83628 12.3593 7.83633C12.3593 7.83638 12.3593 7.83644 12.3593 7.83649C12.3593 7.83654 12.3593 7.83659 12.3593 7.83665C12.3593 7.8367 12.3593 7.83675 12.3593 7.83681C12.3593 7.83686 12.3593 7.83691 12.3593 7.83696C12.3593 7.83702 12.3593 7.83707 12.3593 7.83712C12.3593 7.83717 12.3593 7.83723 12.3593 7.83728C12.3593 7.83733 12.3593 7.83739 12.3593 7.83744C12.3593 7.83749 12.3593 7.83754 12.3593 7.8376C12.3593 7.83765 12.3593 7.8377 12.3593 7.83776C12.3593 7.83781 12.3593 7.83786 12.3593 7.83791C12.3593 7.83797 12.3593 7.83802 12.3593 7.83807C12.3593 7.83812 12.3593 7.83818 12.3593 7.83823C12.3593 7.83828 12.3593 7.83834 12.3593 7.83839C12.3593 7.83844 12.3593 7.83849 12.3593 7.83855C12.3593 7.8386 12.3593 7.83865 12.3593 7.8387C12.3593 7.83876 12.3593 7.83881 12.3593 7.83886C12.3593 7.83892 12.3593 7.83897 12.3593 7.83902C12.3593 7.83907 12.3593 7.83913 12.3593 7.83918C12.3593 7.83923 12.3593 7.83928 12.3593 7.83934C12.3593 7.83939 12.3593 7.83944 12.3593 7.8395C12.3593 7.83955 12.3593 7.8396 12.3593 7.83965C12.3593 7.83971 12.3593 7.83976 12.3593 7.83981C12.3593 7.83986 12.3593 7.83992 12.3593 7.83997C12.3593 7.84002 12.3593 7.84008 12.3593 7.84013C12.3593 7.84018 12.3593 7.84023 12.3593 7.84029C12.3593 7.84034 12.3593 7.84039 12.3593 7.84044C12.3593 7.8405 12.3593 7.84055 12.3593 7.8406C12.3593 7.84066 12.3593 7.84071 12.3593 7.84076C12.3593 7.84081 12.3593 7.84087 12.3593 7.84092C12.3593 7.84097 12.3593 7.84102 12.3593 7.84108C12.3593 7.84113 12.3593 7.84118 12.3593 7.84124C12.3593 7.84129 12.3593 7.84134 12.3593 7.84139C12.3593 7.84145 12.3593 7.8415 12.3593 7.84155C12.3593 7.84161 12.3593 7.84166 12.3593 7.84171C12.3593 7.84176 12.3593 7.84182 12.3593 7.84187C12.3593 7.84192 12.3593 7.84197 12.3593 7.84203C12.3593 7.84208 12.3593 7.84213 12.3593 7.84219C12.3593 7.84224 12.3593 7.84229 12.3593 7.84234C12.3593 7.8424 12.3593 7.84245 12.3593 7.8425C12.3593 7.84255 12.3593 7.84261 12.3593 7.84266C12.3593 7.84271 12.3593 7.84277 12.3593 7.84282C12.3593 7.84287 12.3593 7.84292 12.3593 7.84298C12.3593 7.84303 12.3593 7.84308 12.3593 7.84313C12.3593 7.84319 12.3593 7.84324 12.3593 7.84329C12.3593 7.84335 12.3593 7.8434 12.3593 7.84345C12.3593 7.8435 12.3593 7.84356 12.3593 7.84361C12.3593 7.84366 12.3593 7.84371 12.3593 7.84377C12.3593 7.84382 12.3593 7.84387 12.3593 7.84393C12.3593 7.84398 12.3593 7.84403 12.3593 7.84408C12.3593 7.84414 12.3593 7.84419 12.3593 7.84424C12.3593 7.84429 12.3593 7.84435 12.3593 7.8444C12.3593 7.84445 12.3593 7.84451 12.3593 7.84456C12.3593 7.84461 12.3593 7.84466 12.3593 7.84472C12.3593 7.84477 12.3593 7.84482 12.3593 7.84487C12.3593 7.84493 12.3593 7.84498 12.3593 7.84503C12.3593 7.84509 12.3593 7.84514 12.3593 7.84519C12.3593 7.84524 12.3593 7.8453 12.3593 7.84535C12.3593 7.8454 12.3593 7.84546 12.3593 7.84551C12.3593 7.84556 12.3593 7.84561 12.3593 7.84567C12.3593 7.84572 12.3593 7.84577 12.3593 7.84582C12.3593 7.84588 12.3593 7.84593 12.3593 7.84598C12.3593 7.84604 12.3593 7.84609 12.3593 7.84614C12.3593 7.84619 12.3593 7.84625 12.3593 7.8463C12.3593 7.84635 12.3593 7.8464 12.3593 7.84646C12.3593 7.84651 12.3593 7.84656 12.3593 7.84662C12.3593 7.84667 12.3593 7.84672 12.3593 7.84677C12.3593 7.84683 12.3593 7.84688 12.3593 7.84693C12.3593 7.84698 12.3593 7.84704 12.3593 7.84709C12.3593 7.84714 12.3593 7.8472 12.3593 7.84725C12.3593 7.8473 12.3593 7.84735 12.3593 7.84741C12.3593 7.84746 12.3593 7.84751 12.3593 7.84756C12.3593 7.84762 12.3593 7.84767 12.3593 7.84772C12.3593 7.84778 12.3593 7.84783 12.3593 7.84788C12.3593 7.84793 12.3593 7.84799 12.3593 7.84804C12.3593 7.84809 12.3593 7.84814 12.3593 7.8482C12.3593 7.84825 12.3593 7.8483 12.3593 7.84836C12.3593 7.84841 12.3593 7.84846 12.3593 7.84851C12.3593 7.84857 12.3593 7.84862 12.3593 7.84867C12.3593 7.84872 12.3593 7.84878 12.3593 7.84883C12.3593 7.84888 12.3593 7.84894 12.3593 7.84899C12.3593 7.84904 12.3593 7.84909 12.3593 7.84915C12.3593 7.8492 12.3593 7.84925 12.3593 7.84931C12.3593 7.84936 12.3593 7.84941 12.3593 7.84946C12.3593 7.84952 12.3593 7.84957 12.3593 7.84962C12.3593 7.84967 12.3593 7.84973 12.3593 7.84978C12.3593 7.84983 12.3593 7.84988 12.3593 7.84994C12.3593 7.84999 12.3593 7.85004 12.3593 7.8501C12.3593 7.85015 12.3593 7.8502 12.3593 7.85025C12.3593 7.85031 12.3593 7.85036 12.3593 7.85041C12.3593 7.85047 12.3593 7.85052 12.3593 7.85057C12.3593 7.85062 12.3593 7.85068 12.3593 7.85073C12.3593 7.85078 12.3593 7.85083 12.3593 7.85089C12.3593 7.85094 12.3593 7.85099 12.3593 7.85105C12.3593 7.8511 12.3593 7.85115 12.3593 7.8512C12.3593 7.85126 12.3593 7.85131 12.3593 7.85136C12.3593 7.85141 12.3593 7.85147 12.3593 7.85152C12.3593 7.85157 12.3593 7.85163 12.3593 7.85168C12.3593 7.85173 12.3593 7.85178 12.3593 7.85184C12.3593 7.85189 12.3593 7.85194 12.3593 7.85199C12.3593 7.85205 12.3593 7.8521 12.3593 7.85215C12.3593 7.85221 12.3593 7.85226 12.3593 7.85231C12.3593 7.85236 12.3593 7.85242 12.3593 7.85247C12.3593 7.85252 12.3593 7.85257 12.3593 7.85263C12.3593 7.85268 12.3593 7.85273 12.3593 7.85279C12.3593 7.85284 12.3593 7.85289 12.3593 7.85294C12.3593 7.853 12.3593 7.85305 12.3593 7.8531C12.3593 7.85316 12.3593 7.85321 12.3593 7.85326C12.3593 7.85331 12.3593 7.85337 12.3593 7.85342C12.3593 7.85347 12.3593 7.85352 12.3593 7.85358C12.3593 7.85363 12.3593 7.85368 12.3593 7.85373C12.3593 7.85379 12.3593 7.85384 12.3593 7.85389C12.3593 7.85395 12.3593 7.854 12.3593 7.85405C12.3593 7.8541 12.3593 7.85416 12.3593 7.85421C12.3593 7.85426 12.3593 7.85432 12.3593 7.85437C12.3593 7.85442 12.3593 7.85447 12.3593 7.85453C12.3593 7.85458 12.3593 7.85463 12.3593 7.85468C12.3593 7.85474 12.3593 7.85479 12.3593 7.85484C12.3593 7.8549 12.3593 7.85495 12.3593 7.855C12.3593 7.85505 12.3593 7.85511 12.3593 7.85516C12.3593 7.85521 12.3593 7.85526 12.3593 7.85532C12.3593 7.85537 12.3593 7.85542 12.3593 7.85548C12.3593 7.85553 12.3593 7.85558 12.3593 7.85563C12.3593 7.85569 12.3593 7.85574 12.3593 7.85579C12.3593 7.85584 12.3593 7.8559 12.3593 7.85595C12.3593 7.856 12.3593 7.85606 12.3593 7.85611C12.3593 7.85616 12.3593 7.85621 12.3593 7.85627C12.3593 7.85632 12.3593 7.85637 12.3593 7.85642C12.3593 7.85648 12.3593 7.85653 12.3593 7.85658C12.3593 7.85664 12.3593 7.85669 12.3593 7.85674C12.3593 7.85679 12.3593 7.85685 12.3593 7.8569C12.3593 7.85695 12.3593 7.85701 12.3593 7.85706C12.3593 7.85711 12.3593 7.85716 12.3593 7.85722C12.3593 7.85727 12.3593 7.85732 12.3593 7.85737C12.3593 7.85743 12.3593 7.85748 12.3593 7.85753C12.3593 7.85758 12.3593 7.85764 12.3593 7.85769C12.3593 7.85774 12.3593 7.8578 12.3593 7.85785C12.3593 7.8579 12.3593 7.85795 12.3593 7.85801C12.3593 7.85806 12.3593 7.85811 12.3593 7.85817C12.3593 7.85822 12.3593 7.85827 12.3593 7.85832C12.3593 7.85838 12.3593 7.85843 12.3593 7.85848C12.3593 7.85853 12.3593 7.85859 12.3593 7.85864C12.3593 7.85869 12.3593 7.85875 12.3593 7.8588C12.3593 7.85885 12.3593 7.8589 12.3593 7.85896C12.3593 7.85901 12.3593 7.85906 12.3593 7.85911C12.3593 7.85917 12.3593 7.85922 12.3593 7.85927C12.3593 7.85933 12.3593 7.85938 12.3593 7.85943C12.3593 7.85948 12.3593 7.85954 12.3593 7.85959C12.3593 7.85964 12.3593 7.85969 12.3593 7.85975C12.3593 7.8598 12.3593 7.85985 12.3593 7.85991C12.3593 7.85996 12.3593 7.86001 12.3593 7.86006C12.3593 7.86012 12.3593 7.86017 12.3593 7.86022C12.3593 7.86027 12.3593 7.86033 12.3593 7.86038C12.3593 7.86043 12.3593 7.86049 12.3593 7.86054C12.3593 7.86059 12.3593 7.86064 12.3593 7.8607C12.3593 7.86075 12.3593 7.8608 12.3593 7.86086C12.3593 7.86091 12.3593 7.86096 12.3593 7.86101C12.3593 7.86107 12.3593 7.86112 12.3593 7.86117C12.3593 7.86122 12.3593 7.86128 12.3593 7.86133C12.3593 7.86138 12.3593 7.86144 12.3593 7.86149C12.3593 7.86154 12.3593 7.86159 12.3593 7.86165C12.3593 7.8617 12.3593 7.86175 12.3593 7.8618C12.3593 7.86186 12.3593 7.86191 12.3593 7.86196C12.3593 7.86202 12.3593 7.86207 12.3593 7.86212C12.3593 7.86217 12.3593 7.86223 12.3593 7.86228C12.3593 7.86233 12.3593 7.86238 12.3593 7.86244C12.3593 7.86249 12.3593 7.86254 12.3593 7.8626C12.3593 7.86265 12.3593 7.8627 12.3593 7.86275C12.3593 7.86281 12.3593 7.86286 12.3593 7.86291C12.3593 7.86296 12.3593 7.86302 12.3593 7.86307C12.3593 7.86312 12.3593 7.86318 12.3593 7.86323C12.3593 7.86328 12.3593 7.86333 12.3593 7.86339C12.3593 7.86344 12.3593 7.86349 12.3593 7.86354C12.3593 7.8636 12.3593 7.86365 12.3593 7.8637C12.3593 7.86376 12.3593 7.86381 12.3593 7.86386C12.3593 7.86391 12.3593 7.86397 12.3593 7.86402C12.3593 7.86407 12.3593 7.86413 12.3593 7.86418C12.3593 7.86423 12.3593 7.86428 12.3593 7.86434C12.3593 7.86439 12.3593 7.86444 12.3593 7.86449C12.3593 7.86455 12.3593 7.8646 12.3593 7.86465C12.3593 7.86471 12.3593 7.86476 12.3593 7.86481C12.3593 7.86486 12.3593 7.86492 12.3593 7.86497C12.3593 7.86502 12.3593 7.86507 12.3593 7.86513C12.3593 7.86518 12.3593 7.86523 12.3593 7.86529C12.3593 7.86534 12.3593 7.86539 12.3593 7.86544C12.3593 7.8655 12.3593 7.86555 12.3593 7.8656C12.3593 7.86565 12.3593 7.86571 12.3593 7.86576C12.3593 7.86581 12.3593 7.86587 12.3593 7.86592C12.3593 7.86597 12.3593 7.86602 12.3593 7.86608C12.3593 7.86613 12.3593 7.86618 12.3593 7.86623C12.3593 7.86629 12.3593 7.86634 12.3593 7.86639C12.3593 7.86645 12.3593 7.8665 12.3593 7.86655C12.3593 7.8666 12.3593 7.86666 12.3593 7.86671C12.3593 7.86676 12.3593 7.86681 12.3593 7.86687C12.3593 7.86692 12.3593 7.86697 12.3593 7.86703C12.3593 7.86708 12.3593 7.86713 12.3593 7.86718C12.3593 7.86724 12.3593 7.86729 12.3593 7.86734C12.3593 7.86739 12.3593 7.86745 12.3593 7.8675C12.3593 7.86755 12.3593 7.86761 12.3593 7.86766C12.3593 7.86771 12.3593 7.86776 12.3593 7.86782C12.3593 7.86787 12.3593 7.86792 12.3593 7.86798C12.3593 7.86803 12.3593 7.86808 12.3593 7.86813C12.3593 7.86819 12.3593 7.86824 12.3593 7.86829C12.3593 7.86834 12.3593 7.8684 12.3593 7.86845C12.3593 7.8685 12.3593 7.86856 12.3593 7.86861C12.3593 7.86866 12.3593 7.86871 12.3593 7.86877C12.3593 7.86882 12.3593 7.86887 12.3593 7.86892C12.3593 7.86898 12.3593 7.86903 12.3593 7.86908C12.3593 7.86914 12.3593 7.86919 12.3593 7.86924C12.3593 7.86929 12.3593 7.86935 12.3593 7.8694C12.3593 7.86945 12.3593 7.8695 12.3593 7.86956C12.3593 7.86961 12.3593 7.86966 12.3593 7.86972C12.3593 7.86977 12.3593 7.86982 12.3593 7.86987C12.3593 7.86993 12.3593 7.86998 12.3593 7.87003C12.3593 7.87008 12.3593 7.87014 12.3593 7.87019C12.3593 7.87024 12.3593 7.8703 12.3593 7.87035C12.3593 7.8704 12.3593 7.87045 12.3593 7.87051C12.3593 7.87056 12.3593 7.87061 12.3593 7.87067C12.3593 7.87072 12.3593 7.87077 12.3593 7.87082C12.3593 7.87088 12.3593 7.87093 12.3593 7.87098C12.3593 7.87103 12.3593 7.87109 12.3593 7.87114C12.3593 7.87119 12.3593 7.87124 12.3593 7.8713C12.3593 7.87135 12.3593 7.8714 12.3593 7.87146C12.3593 7.87151 12.3593 7.87156 12.3593 7.87161C12.3593 7.87167 12.3593 7.87172 12.3593 7.87177C12.3593 7.87183 12.3593 7.87188 12.3593 7.87193C12.3593 7.87198 12.3593 7.87204 12.3593 7.87209C12.3593 7.87214 12.3593 7.87219 12.3593 7.87225C12.3593 7.8723 12.3593 7.87235 12.3593 7.87241C12.3593 7.87246 12.3593 7.87251 12.3593 7.87256C12.3593 7.87262 12.3593 7.87267 12.3593 7.87272C12.3593 7.87277 12.3593 7.87283 12.3593 7.87288C12.3593 7.87293 12.3593 7.87299 12.3593 7.87304C12.3593 7.87309 12.3593 7.87314 12.3593 7.8732C12.3593 7.87325 12.3593 7.8733 12.3593 7.87335C12.3593 7.87341 12.3593 7.87346 12.3593 7.87351C12.3593 7.87357 12.3593 7.87362 12.3593 7.87367C12.3593 7.87372 12.3593 7.87378 12.3593 7.87383C12.3593 7.87388 12.3593 7.87394 12.3593 7.87399C12.3593 7.87404 12.3593 7.87409 12.3593 7.87415C12.3593 7.8742 12.3593 7.87425 12.3593 7.8743H12.8593ZM12.4706 7.58528C11.97 7.91899 11.2374 8.00725 10.6586 7.65993L10.4013 8.08868C11.1727 8.55148 12.1143 8.42371 12.7479 8.00131L12.4706 7.58528ZM10.764 7.96208L10.926 7.53001L10.4579 7.35445L10.2958 7.78652L10.764 7.96208ZM10.5947 7.67254C11.244 7.94668 11.7884 7.95387 12.2059 7.72576C12.6199 7.49956 12.8456 7.07642 12.9354 6.62714L12.4451 6.52908C12.373 6.88992 12.207 7.15538 11.9662 7.28698C11.7288 7.41667 11.3551 7.45085 10.7892 7.21192L10.5947 7.67254ZM12.9334 6.63645C13.0263 6.24915 13.0001 5.76177 12.893 5.31176C12.7861 4.86302 12.5892 4.41114 12.3047 4.11081L11.9417 4.45469C12.1432 4.66744 12.3109 5.02568 12.4066 5.42757C12.5019 5.8282 12.5162 6.23196 12.4472 6.51976L12.9334 6.63645ZM12.3 4.10597C12.0264 3.83239 11.6676 3.62432 11.3111 3.5055L11.153 3.97984C11.4446 4.07704 11.7339 4.24703 11.9464 4.45953L12.3 4.10597ZM11.3014 3.50249C10.6155 3.30432 9.93838 3.46906 9.48303 3.87293C9.0228 4.28113 8.80322 4.92289 9.02202 5.6262L9.49945 5.47767C9.3402 4.96579 9.49867 4.52739 9.81481 4.24699C10.1358 3.96226 10.6334 3.82996 11.1627 3.98284L11.3014 3.50249ZM9.13211 5.76631C9.12477 5.7619 9.15293 5.78093 9.21579 5.83889C9.27242 5.8911 9.34738 5.96584 9.43111 6.06119C9.59895 6.25234 9.79817 6.52192 9.95656 6.85439C10.2699 7.51217 10.4271 8.41896 9.85099 9.48357L10.2907 9.72155C10.9568 8.49081 10.7764 7.4128 10.4079 6.63934C10.2254 6.2562 9.99762 5.94857 9.80682 5.73128C9.71122 5.62242 9.62395 5.53513 9.55473 5.4713C9.49175 5.41323 9.43046 5.36222 9.38936 5.33756L9.13211 5.76631ZM9.82166 9.6225C9.87527 10.2926 9.93037 10.7195 9.96335 10.8514L10.4484 10.7301C10.4274 10.646 10.3745 10.2627 10.3201 9.58263L9.82166 9.6225ZM10.0734 10.5788L9.64132 10.8488L9.90632 11.2728L10.3384 11.0028L10.0734 10.5788ZM10.0223 11.0332C10.0091 10.9149 9.99661 10.7303 9.97898 10.5292C9.96253 10.3417 9.94104 10.1318 9.90833 10.001L9.42326 10.1223C9.44456 10.2075 9.46358 10.3756 9.48089 10.5729C9.49701 10.7567 9.51148 10.9636 9.52534 11.0884L10.0223 11.0332ZM9.53717 9.84726C9.28961 9.9958 9.04132 10.0956 8.76289 10.1715L8.89445 10.6539C9.21011 10.5678 9.5019 10.4515 9.79442 10.276L9.53717 9.84726ZM8.78757 10.1661C8.48975 10.2157 8.18241 10.2128 7.90857 10.1215L7.75046 10.5959C8.12472 10.7206 8.51949 10.7177 8.86977 10.6593L8.78757 10.1661ZM8.06526 10.4419L8.22729 9.98282L7.75579 9.81641L7.59377 10.2755L8.06526 10.4419ZM7.91248 10.1368C8.20419 10.234 8.48817 10.231 8.74826 10.2021L8.69304 9.70516C8.46706 9.73027 8.26497 9.72724 8.0706 9.66245L7.91248 10.1368ZM8.76968 10.1988C8.92529 10.1677 9.10292 10.1078 9.24557 10.0507L9.05987 9.58649C8.93247 9.63745 8.78605 9.6856 8.67162 9.70848L8.76968 10.1988ZM9.29879 10.0215C10.077 9.4612 10.2427 8.62206 10.1577 7.71595L9.65993 7.76262C9.73701 8.58477 9.57867 9.20387 9.00664 9.61573L9.29879 10.0215ZM10.1571 7.71007C10.0378 6.69619 9.28518 5.87943 8.35979 5.81561L8.32539 6.31443C8.96625 6.35862 9.5638 6.9461 9.66055 7.76849L10.1571 7.71007ZM8.35819 5.81551C7.35202 5.75262 6.38223 6.6515 6.4458 7.7004L6.94488 7.67015C6.90043 6.93677 7.6049 6.2694 8.327 6.31453L8.35819 5.81551ZM6.44534 7.68527C6.44534 7.96005 6.47433 8.18289 6.54167 8.39285C6.60863 8.6016 6.70944 8.78462 6.8361 8.98164L7.25669 8.71126C7.14031 8.53022 7.06559 8.38919 7.01778 8.24014C6.97036 8.09229 6.94534 7.92357 6.94534 7.68527H6.44534ZM6.86962 9.02322C7.12962 9.28323 7.34397 9.66295 7.39173 10.1405L7.88924 10.0908C7.82898 9.48818 7.55726 9.00376 7.22317 8.66967L6.86962 9.02322ZM7.393 10.151C7.44006 10.4805 7.3941 10.8945 7.22029 11.3167L7.68263 11.507C7.88687 11.011 7.94892 10.507 7.88797 10.0803L7.393 10.151ZM7.21737 11.3241C7.14278 11.523 7.0425 11.7241 6.91541 11.9275L7.3394 12.1925C7.48236 11.9637 7.5981 11.7328 7.68554 11.4996L7.21737 11.3241ZM6.88621 12.1257L7.04824 12.7198L7.53062 12.5883L7.3686 11.9942L6.88621 12.1257ZM7.13594 12.4567C7.00134 12.5614 6.92354 12.639 6.84489 12.7251C6.7689 12.8084 6.70224 12.8877 6.57257 13.0174L6.92612 13.3709C7.0665 13.2305 7.14836 13.1343 7.21414 13.0623C7.27726 12.9931 7.33448 12.9357 7.44291 12.8514L7.13594 12.4567ZM6.99594 13.153C6.96894 12.991 6.9382 12.8021 6.84411 12.5826L6.38454 12.7795C6.45247 12.938 6.47574 13.0732 6.50275 13.2352L6.99594 13.153ZM6.52654 12.447C6.32095 12.5241 6.07347 12.5973 5.83333 12.6213L5.88308 13.1188C6.18303 13.0888 6.47563 13.0001 6.70211 12.9151L6.52654 12.447ZM5.89931 12.6235C5.73267 12.5957 5.57274 12.5748 5.42616 12.5549C5.27759 12.5346 5.14272 12.5152 5.0161 12.4899L4.91804 12.9802C5.06146 13.0089 5.21013 13.03 5.35861 13.0503C5.50908 13.0708 5.65969 13.0904 5.81711 13.1167L5.89931 12.6235ZM13.2919 7.38444L13.2649 7.33042L12.8177 7.55403L12.8447 7.60804L13.2919 7.38444ZM12.7947 7.40113C12.764 7.58537 12.7643 7.73856 12.7643 7.84729H13.2643C13.2643 7.73999 13.2646 7.62313 13.2879 7.48333L12.7947 7.40113ZM12.7649 7.86392C12.7781 8.06307 12.799 8.43172 12.8513 8.79437C12.8774 8.97591 12.9123 9.1619 12.96 9.32872C13.0064 9.49079 13.0709 9.65679 13.1672 9.782L13.5635 9.47715C13.5248 9.42684 13.4813 9.33292 13.4407 9.19119C13.4016 9.05422 13.3706 8.89252 13.3461 8.723C13.2972 8.38353 13.2775 8.03658 13.2638 7.83066L12.7649 7.86392ZM13.6058 9.69826C13.8477 8.85152 13.5683 8.12627 13.3028 7.40941L12.8339 7.58307C13.1085 8.32444 13.3151 8.8954 13.125 9.5609L13.6058 9.69826ZM3.18297 16.8171C3.17843 16.8143 3.18398 16.8173 3.18736 16.8256C3.1895 16.8309 3.18504 16.8248 3.18839 16.7976C3.19592 16.7367 3.23425 16.6345 3.32372 16.4884C3.49909 16.2021 3.81167 15.8405 4.18081 15.4613C4.91668 14.7054 5.81438 13.9413 6.13479 13.6488L5.79766 13.2795C5.49697 13.5541 4.57189 14.3428 3.82253 15.1126C3.44906 15.4962 3.10341 15.8908 2.89734 16.2273C2.7961 16.3926 2.71291 16.5684 2.69216 16.7364C2.68138 16.8237 2.6861 16.9197 2.72374 17.0129C2.76261 17.1091 2.82998 17.1857 2.91657 17.2403L3.18297 16.8171ZM6.13485 13.6487C7.20879 12.6676 9.08116 11.3679 11.1173 10.5361C13.1634 9.70028 15.31 9.36277 16.9795 10.2039L17.2044 9.75735C15.3364 8.8162 13.0138 9.2213 10.9282 10.0732C8.83272 10.9292 6.911 12.2624 5.7976 13.2796L6.13485 13.6487ZM16.9763 10.2023C17.125 10.2798 17.2129 10.3384 17.2628 10.3818C17.3128 10.4253 17.3029 10.4348 17.2986 10.4115C17.2938 10.3861 17.306 10.378 17.2888 10.4103C17.2687 10.4482 17.2388 10.4884 17.1842 10.5664L17.5938 10.8531C17.6338 10.796 17.6916 10.7181 17.7305 10.6446C17.7724 10.5656 17.815 10.4528 17.79 10.3194C17.7654 10.188 17.6846 10.0861 17.5911 10.0047C17.4976 9.92328 17.3695 9.84343 17.2076 9.75897L16.9763 10.2023ZM17.4787 10.4764C14.9167 9.491 12.0032 10.3173 9.39057 11.7461C6.76906 13.1797 4.39281 15.2506 2.86844 16.8566L3.2311 17.2008C4.7312 15.6203 7.06719 13.5866 9.63048 12.1848C12.2026 10.7781 14.9465 10.0382 17.2993 10.9431L17.4787 10.4764Z" fill="url(#paint2_linear)"/>
<defs>
<linearGradient id="paint0_linear" x1="-9.52232" y1="51" x2="20.8421" y2="51" gradientUnits="userSpaceOnUse">
<stop stop-color="#3E65E4"/>
<stop offset="1" stop-color="#2D8DE4"/>
</linearGradient>
<linearGradient id="paint1_linear" x1="-9.52232" y1="51" x2="20.8421" y2="51" gradientUnits="userSpaceOnUse">
<stop stop-color="#3E65E4"/>
<stop offset="1" stop-color="#2D8DE4"/>
</linearGradient>
<linearGradient id="paint2_linear" x1="-9.52232" y1="51" x2="20.8421" y2="51" gradientUnits="userSpaceOnUse">
<stop stop-color="#3E65E4"/>
<stop offset="1" stop-color="#2D8DE4"/>
</linearGradient>
</defs>
</svg>
