<svg width="31" height="50" viewBox="0 0 31 50" fill="none" xmlns="http://www.w3.org/2000/svg">
<path fill-rule="evenodd" clip-rule="evenodd" d="M10.1599 36.0841C10.2979 34.8969 10.5464 33.765 10.7672 32.6054C11.0433 31.1146 11.1262 29.6237 11.0157 28.1605C10.7672 24.3781 9.80095 22.556 8.42053 19.1602C7.23338 16.2613 5.99101 13.39 4.61059 10.574C3.23018 7.78554 1.71172 5.05232 0 2.45714L0.690208 2.01541C2.42953 4.6658 3.9756 7.39903 5.35602 10.2151C6.73643 13.0311 8.00642 15.9024 9.19358 18.8289C10.6292 22.3075 11.5955 24.1849 11.8716 28.0776C11.982 29.6237 11.8992 31.1698 11.5955 32.7435C11.3746 33.8754 11.1538 35.0073 11.0157 36.1393C10.8777 37.354 10.8225 38.5964 10.6844 39.8112C10.6016 40.6118 10.5188 42.0751 10.3531 42.7929C9.9666 44.3666 8.69662 44.9463 7.3162 45.4433C7.26099 45.6641 7.23338 45.8574 7.23338 46.0783C7.23338 46.2991 7.261 46.5476 7.34382 46.7961L6.87448 46.9341C6.79165 46.658 6.76404 46.382 6.76404 46.1059C6.76404 45.9678 6.76405 45.8022 6.79165 45.6641C6.2671 45.8298 5.71493 46.0231 5.6321 46.1887C5.65971 46.4096 5.74254 47.6519 5.32842 47.928C5.10755 48.0937 4.50016 48.1489 4.05842 48.1765C3.45104 48.2041 3.06452 48.0108 2.62279 47.7348C2.78844 49.1152 4.36213 49.3637 5.46646 49.336C6.68122 49.3084 7.9512 49.0047 8.31011 48.7839C9.08314 48.3421 11.347 48.5354 11.5403 48.563C11.5403 48.563 14.3287 48.7287 15.792 47.3206C17.5037 45.6641 17.973 43.4279 18.3871 41.4953C18.6632 40.2805 18.8841 39.1762 19.381 38.3203C20.0712 37.1884 21.4517 36.3049 23.191 35.173C25.2064 33.8754 28.6298 31.9428 29.4581 29.7065C29.817 28.7679 29.7894 27.6911 29.1544 26.5592C28.4366 25.2892 27.0285 24.1021 25.8966 23.1634C22.2523 20.1817 19.6019 13.2244 18.4976 8.75183C18.3871 8.25488 17.7245 5.52166 17.2276 3.23017C16.8963 1.76693 16.6202 0.49695 16.565 0.138042L17.3656 0C17.4208 0.3313 17.6969 1.57367 18.0282 3.03691C18.5528 5.3008 19.1878 8.03402 19.2982 8.53097C20.3749 12.8103 22.9425 19.6571 26.4212 22.5008C27.6359 23.4947 29.0992 24.737 29.8722 26.1175C30.6452 27.4979 30.6728 28.7679 30.2311 29.9274C29.2924 32.4398 25.8414 34.3723 23.6327 35.808C21.9762 36.8847 20.651 37.7129 20.0712 38.6792C19.6295 39.3971 19.4086 40.4462 19.1602 41.6057C18.7184 43.6487 18.2215 46.0231 16.3165 47.8452C14.5772 49.5017 11.4851 49.3084 11.4574 49.3084H11.4298C11.4298 49.3084 9.22118 49.0876 8.66902 49.4189C8.22728 49.6673 6.79166 49.971 5.46646 49.9986C4.11365 50.0263 2.3191 49.6397 1.90498 48.1213C1.73933 47.5691 1.82215 46.9341 2.07062 46.3267C2.15345 46.1335 2.34671 45.9402 2.62279 45.8022C2.76083 45.747 2.9541 45.6917 3.14735 45.6641C3.14735 45.4433 3.17497 45.2224 3.20257 45.0291C3.36822 44.2009 3.94799 44.0905 4.88667 43.9524C5.05232 43.9248 5.21797 43.8972 5.38362 43.8696V43.8144C5.43884 43.2898 5.49406 42.5996 7.06774 42.4064C7.15056 42.4064 7.20578 42.3788 7.2886 42.3511C7.64751 42.1579 7.92359 41.937 8.39293 41.9094L8.42053 41.8818C8.6414 41.4125 9.22118 41.1088 9.63531 40.9983C9.74574 40.9707 9.85617 40.9431 9.93899 40.9155C9.82856 39.9216 9.96661 37.7129 10.1599 36.0841ZM19.5191 22.9149L18.7184 22.8873C18.6356 24.599 18.3319 25.7862 17.8074 26.5592C17.3104 27.277 16.565 27.6359 15.5711 27.7187L15.6263 28.5194C16.8963 28.4089 17.835 27.9396 18.47 27.0009C19.0773 26.1175 19.4086 24.7647 19.5191 22.9149ZM9.91139 41.5229C9.82856 41.5505 9.77335 41.5781 9.69053 41.5781C9.44205 41.6333 9.08314 41.8542 8.88988 42.0475C9.16596 42.0475 9.52488 42.0198 9.88379 41.9922C9.88379 41.8818 9.88378 41.6333 9.91139 41.5229ZM9.80095 42.434C9.304 42.572 8.39294 42.4616 8.08925 42.572C7.84077 42.6548 7.53707 42.9033 7.37142 42.9861C7.37142 43.207 7.37143 43.3727 7.2886 43.5659C8.06163 43.4279 8.88988 43.2622 9.71813 42.8481C9.74574 42.7929 9.74575 42.7377 9.74575 42.7101C9.77335 42.7101 9.80095 42.4616 9.80095 42.434ZM9.46966 43.5107C8.72424 43.8144 7.97881 43.9524 7.261 44.0629C6.73644 44.1457 6.21188 44.2561 5.74254 44.3942C5.65972 44.8083 5.74253 45.0568 5.43884 45.3881C5.24558 45.5813 4.94189 45.7194 4.61059 45.8022C4.25168 45.885 3.86517 45.8574 3.6443 45.747C3.58908 45.7194 3.6167 45.8022 3.6167 45.8574V45.9126C3.75474 45.9126 3.92038 45.9126 4.05842 45.9402C4.44494 45.9678 4.85907 45.9678 5.16276 45.9126C5.41123 45.6089 6.07384 45.3881 6.65361 45.1948C7.59229 44.8635 9.00032 44.3113 9.46966 43.5107ZM6.98492 43.0137C6.43275 43.0966 6.10145 43.2898 5.9634 43.4831C5.9634 43.5107 5.88058 43.704 5.90818 43.7316C6.04623 43.8144 6.68122 43.6487 6.79165 43.5659C6.9573 43.4831 6.98492 43.1518 6.98492 43.0137ZM5.21798 44.5046C5.10754 44.5322 5.02473 44.5322 4.91429 44.5598C4.38973 44.6426 4.00321 44.6978 3.78234 44.9739C3.72712 45.112 3.69952 45.25 3.69952 45.3328C3.69952 45.4433 4.38973 45.3881 4.52777 45.3605C4.74864 45.3052 4.94189 45.2224 5.02472 45.112C5.21797 44.8911 5.19037 44.6979 5.21798 44.5046ZM5.05233 46.4096C4.77625 46.4372 4.33451 46.382 3.9756 46.382C3.69952 46.382 3.14735 46.2991 2.87127 46.4372C2.6228 46.5476 2.53997 46.9893 2.65041 47.2378C2.92649 47.6243 3.45105 47.7624 3.948 47.7348C4.33452 47.7072 4.80385 47.6795 4.94189 47.5691C5.10754 47.4311 5.07994 46.7409 5.05233 46.4096Z" fill="white"/>
</svg>
