<svg width="32" height="52" viewBox="0 0 32 52" fill="none" xmlns="http://www.w3.org/2000/svg">
<path fill-rule="evenodd" clip-rule="evenodd" d="M11.1599 37.0841C11.2979 35.8969 11.5464 34.765 11.7672 33.6054C12.0433 32.1146 12.1262 30.6237 12.0157 29.1605C11.7672 25.3781 10.8009 23.556 9.42053 20.1602C8.23338 17.2613 6.99101 14.39 5.61059 11.574C4.23018 8.78554 2.71172 6.05232 1 3.45714L1.69021 3.01541C3.42953 5.6658 4.9756 8.39903 6.35602 11.2151C7.73643 14.0311 9.00642 16.9024 10.1936 19.8289C11.6292 23.3075 12.5955 25.1849 12.8716 29.0776C12.982 30.6237 12.8992 32.1698 12.5955 33.7435C12.3746 34.8754 12.1538 36.0073 12.0157 37.1393C11.8777 38.354 11.8225 39.5964 11.6844 40.8112C11.6016 41.6118 11.5188 43.0751 11.3531 43.7929C10.9666 45.3666 9.69662 45.9463 8.3162 46.4433C8.26098 46.6641 8.23338 46.8574 8.23338 47.0783C8.23338 47.2991 8.261 47.5476 8.34382 47.7961L7.87448 47.9341C7.79165 47.658 7.76404 47.382 7.76404 47.1059C7.76404 46.9678 7.76405 46.8022 7.79165 46.6641C7.2671 46.8298 6.71493 47.0231 6.6321 47.1887C6.65971 47.4096 6.74254 48.6519 6.32842 48.928C6.10755 49.0937 5.50016 49.1489 5.05842 49.1765C4.45104 49.2041 4.06452 49.0108 3.62279 48.7348C3.78844 50.1152 5.36213 50.3637 6.46646 50.336C7.68122 50.3084 8.9512 50.0047 9.31011 49.7839C10.0831 49.3421 12.347 49.5354 12.5403 49.563C12.5403 49.563 15.3287 49.7287 16.792 48.3206C18.5037 46.6641 18.973 44.4279 19.3871 42.4953C19.6632 41.2805 19.8841 40.1762 20.381 39.3203C21.0712 38.1884 22.4517 37.3049 24.191 36.173C26.2064 34.8754 29.6298 32.9428 30.4581 30.7065C30.817 29.7679 30.7894 28.6911 30.1544 27.5592C29.4366 26.2892 28.0285 25.1021 26.8966 24.1634C23.2523 21.1817 20.6019 14.2244 19.4976 9.75183C19.3871 9.25488 18.7245 6.52166 18.2276 4.23017C17.8963 2.76693 17.6202 1.49695 17.565 1.13804L18.3656 1C18.4208 1.3313 18.6969 2.57367 19.0282 4.03691C19.5528 6.3008 20.1878 9.03402 20.2982 9.53097C21.3749 13.8103 23.9425 20.6571 27.4212 23.5008C28.6359 24.4947 30.0992 25.737 30.8722 27.1175C31.6452 28.4979 31.6728 29.7679 31.2311 30.9274C30.2924 33.4398 26.8414 35.3723 24.6327 36.808C22.9762 37.8847 21.651 38.7129 21.0712 39.6792C20.6295 40.3971 20.4086 41.4462 20.1602 42.6057C19.7184 44.6487 19.2215 47.0231 17.3165 48.8452C15.5772 50.5017 12.4851 50.3084 12.4574 50.3084H12.4298C12.4298 50.3084 10.2212 50.0876 9.66902 50.4189C9.22728 50.6673 7.79166 50.971 6.46646 50.9986C5.11365 51.0263 3.3191 50.6397 2.90498 49.1213C2.73933 48.5691 2.82215 47.9341 3.07062 47.3267C3.15345 47.1335 3.34671 46.9402 3.62279 46.8022C3.76083 46.747 3.9541 46.6917 4.14735 46.6641C4.14735 46.4433 4.17497 46.2224 4.20257 46.0291C4.36822 45.2009 4.94799 45.0905 5.88667 44.9524C6.05232 44.9248 6.21797 44.8972 6.38362 44.8696V44.8144C6.43884 44.2898 6.49406 43.5996 8.06774 43.4064C8.15056 43.4064 8.20578 43.3787 8.2886 43.3511C8.64751 43.1579 8.92359 42.937 9.39293 42.9094L9.42053 42.8818C9.6414 42.4125 10.2212 42.1088 10.6353 41.9983C10.7457 41.9707 10.8562 41.9431 10.939 41.9155C10.8286 40.9216 10.9666 38.7129 11.1599 37.0841ZM20.5191 23.9149L19.7184 23.8873C19.6356 25.599 19.3319 26.7862 18.8074 27.5592C18.3104 28.277 17.565 28.6359 16.5711 28.7187L16.6263 29.5194C17.8963 29.409 18.835 28.9396 19.47 28.0009C20.0773 27.1175 20.4086 25.7647 20.5191 23.9149ZM10.9114 42.5229C10.8286 42.5505 10.7734 42.5781 10.6905 42.5781C10.4421 42.6333 10.0831 42.8542 9.88988 43.0475C10.166 43.0475 10.5249 43.0198 10.8838 42.9922C10.8838 42.8818 10.8838 42.6333 10.9114 42.5229ZM10.8009 43.434C10.304 43.572 9.39294 43.4616 9.08925 43.572C8.84077 43.6548 8.53707 43.9033 8.37142 43.9861C8.37142 44.207 8.37143 44.3727 8.2886 44.5659C9.06163 44.4279 9.88988 44.2622 10.7181 43.8481C10.7457 43.7929 10.7457 43.7377 10.7457 43.7101C10.7734 43.7101 10.8009 43.4616 10.8009 43.434ZM10.4697 44.5107C9.72424 44.8144 8.97881 44.9524 8.261 45.0629C7.73644 45.1457 7.21188 45.2561 6.74254 45.3942C6.65972 45.8083 6.74253 46.0568 6.43884 46.3881C6.24558 46.5813 5.94189 46.7194 5.61059 46.8022C5.25168 46.885 4.86517 46.8574 4.6443 46.747C4.58908 46.7194 4.6167 46.8022 4.6167 46.8574V46.9126C4.75474 46.9126 4.92038 46.9126 5.05842 46.9402C5.44494 46.9678 5.85907 46.9678 6.16276 46.9126C6.41123 46.6089 7.07384 46.3881 7.65361 46.1948C8.59229 45.8635 10.0003 45.3113 10.4697 44.5107ZM7.98492 44.0137C7.43275 44.0966 7.10145 44.2898 6.9634 44.4831C6.9634 44.5107 6.88058 44.7039 6.90818 44.7316C7.04623 44.8144 7.68122 44.6487 7.79165 44.5659C7.9573 44.4831 7.98492 44.1518 7.98492 44.0137ZM6.21798 45.5046C6.10754 45.5322 6.02473 45.5322 5.91429 45.5598C5.38973 45.6426 5.00321 45.6978 4.78234 45.9739C4.72712 46.112 4.69952 46.25 4.69952 46.3328C4.69952 46.4433 5.38973 46.3881 5.52777 46.3605C5.74864 46.3052 5.94189 46.2224 6.02472 46.112C6.21797 45.8911 6.19037 45.6978 6.21798 45.5046ZM6.05233 47.4096C5.77625 47.4372 5.33451 47.382 4.9756 47.382C4.69952 47.382 4.14735 47.2991 3.87127 47.4372C3.6228 47.5476 3.53997 47.9893 3.65041 48.2378C3.92649 48.6243 4.45105 48.7624 4.948 48.7348C5.33452 48.7072 5.80385 48.6796 5.94189 48.5691C6.10754 48.4311 6.07994 47.7409 6.05233 47.4096Z" fill="url(#paint0_linear)" stroke="url(#paint1_linear)" stroke-width="0.5"/>
<defs>
<linearGradient id="paint0_linear" x1="-15.2653" y1="51" x2="31.6717" y2="51" gradientUnits="userSpaceOnUse">
<stop stop-color="#3E65E4"/>
<stop offset="1" stop-color="#2D8DE4"/>
</linearGradient>
<linearGradient id="paint1_linear" x1="-15.2653" y1="51" x2="31.6717" y2="51" gradientUnits="userSpaceOnUse">
<stop stop-color="#3E65E4"/>
<stop offset="1" stop-color="#2D8DE4"/>
</linearGradient>
</defs>
</svg>
