<svg width="25" height="50" viewBox="0 0 25 50" fill="none" xmlns="http://www.w3.org/2000/svg">
<path fill-rule="evenodd" clip-rule="evenodd" d="M11.858 47.3707C11.4993 48.7778 10.5061 49.4399 9.0715 49.4675C8.0231 49.4951 6.9747 48.9709 6.83676 47.8122C6.28497 47.9777 5.62283 47.9777 5.09864 47.7018C4.29855 47.288 3.93989 46.2396 3.96748 45.3843C3.664 45.4947 3.3881 45.5499 3.02944 45.5223C1.76034 45.4671 0.960256 44.3635 1.20856 43.1772C-0.170903 43.0668 -0.0605564 40.3631 0.0773899 39.3974C0.132568 38.9836 0.242929 38.5698 0.408464 38.1559C0.711946 37.3834 1.01543 36.9696 1.37409 36.5006C1.62239 36.1695 1.89828 35.8108 2.20177 35.2315C2.31212 35.0383 2.42248 34.8452 2.53284 34.6521C2.97427 33.852 3.55364 32.8036 3.85712 32.3622C4.02266 32.1415 4.27096 31.7828 4.54685 31.369C7.16783 27.6996 11.8856 21.1058 11.251 17.5192C10.8648 16.388 10.9751 15.3948 11.0855 14.3188C11.1959 13.4084 11.3062 12.4152 11.0855 11.2012C10.7544 9.32517 10.3406 7.55945 9.84399 5.76615C9.34738 3.97285 8.76801 2.17955 8.13345 0.275892L8.29898 0.220711L8.768 0.0551734L8.93355 0C9.5681 1.90366 10.1475 3.72455 10.6717 5.54544C11.1683 7.36633 11.6097 9.18722 11.9408 11.0633C12.1615 12.3876 12.0511 13.436 11.9408 14.4016C11.8304 15.3948 11.7201 16.3052 12.0787 17.2709V17.326C12.8236 21.2437 7.96792 28.0307 5.23658 31.8104C5.01587 32.1415 4.79516 32.4174 4.54685 32.776C4.27096 33.1899 3.69158 34.2107 3.25015 34.9832C3.11221 35.2039 3.00185 35.4246 2.91908 35.5625C2.56042 36.1695 2.28453 36.5558 2.00864 36.9144C1.70516 37.3283 1.42927 37.6869 1.15338 38.3766C0.739539 39.425 0.242935 41.9081 1.34651 42.5426C1.45686 41.8529 1.73275 41.1356 2.06382 40.3355C2.42248 39.4526 2.91909 38.5146 3.58123 37.4386L3.99507 37.6869C3.36051 38.7353 2.8639 39.6457 2.50524 40.501C2.28453 41.0528 2.119 41.5494 1.98105 42.0184C1.8707 42.515 1.62239 43.5358 1.73274 43.9221C1.89828 44.5015 2.47766 44.7222 3.02944 44.7498C3.3881 44.7773 3.71917 44.6946 3.99507 44.5842C4.10542 43.8945 4.32614 43.1772 4.65722 42.3771C5.01588 41.4942 5.51248 40.5562 6.17462 39.4802L6.58846 39.7285C5.95391 40.7769 5.4573 41.6874 5.09864 42.5426C4.71239 43.4531 4.60204 43.8393 4.51927 44.6946C4.4365 45.5774 4.57445 46.1568 4.79516 46.5155C4.93311 46.7086 5.09863 46.8465 5.26417 46.9569C5.65042 47.15 6.5057 47.1776 6.86436 46.9569C6.94712 46.2396 7.14024 45.4947 7.44372 44.667C7.77479 43.7841 8.21622 42.8461 8.82319 41.7701L9.23702 42.0184C8.65765 43.0668 8.18863 43.9773 7.88514 44.8325C7.66443 45.4395 7.08507 47.2052 7.36096 47.8398C7.63685 48.4743 8.29899 48.7226 8.96113 48.7226C10.0923 48.695 10.6717 48.3364 11.1131 47.3707C11.3062 46.9569 11.389 46.4603 11.4717 45.9913C11.5269 45.6602 11.5821 45.3567 11.6649 45.0532H11.6373C11.8304 44.5842 11.9959 44.06 12.1339 43.5358C12.2718 43.0116 12.3822 42.4599 12.4374 41.8529L12.934 41.9081C12.8512 42.515 12.7409 43.0944 12.6029 43.6462C12.5477 43.8393 12.4925 44.0048 12.4374 44.198H12.7133C12.796 44.06 12.8788 43.9221 12.9616 43.7841C13.2926 43.2599 13.5134 42.9289 13.5409 42.2943L14.0376 42.3219C14.01 43.0944 13.7617 43.4807 13.4306 44.0049L13.3754 44.0876C12.9616 44.7498 12.465 45.5774 12.2994 46.3223C12.1615 46.9293 12.2167 47.4535 12.4098 47.8673C12.6029 48.2812 12.9064 48.6398 13.265 48.8881C14.3134 49.5779 15.7481 49.3848 16.8241 48.8054C17.5138 48.4467 18.038 47.8122 18.2311 46.9293C18.2311 46.9017 18.2311 46.8741 18.2587 46.819C18.3967 46.074 18.5898 45.2464 18.8933 44.3083C19.1692 43.3703 19.5278 42.3495 19.9692 41.2183C20.5762 39.6182 20.5762 38.5974 20.5762 37.2455C20.5762 36.1695 20.5762 34.8728 20.8797 32.9416C21.4039 29.2998 22.8109 25.9615 22.9213 25.658C22.9765 25.4373 23.4731 23.7268 23.2248 22.3197V22.2645C23.1696 21.023 23.142 19.6711 23.1696 18.402C23.1972 17.2985 23.3075 16.2777 23.4455 15.4224C23.8869 13.0497 23.5007 12.1117 22.9765 10.9253C22.6178 10.0977 22.2316 9.15963 21.9833 7.64222C21.5142 4.71776 21.5142 1.51741 21.5142 1.48982V0.0827644H22.3419V1.48982C22.3419 1.48982 22.3695 4.66258 22.8109 7.50427C23.0317 8.93891 23.4179 9.82177 23.749 10.5943C24.3007 11.891 24.7422 12.9394 24.2456 15.5603C24.08 16.388 23.9973 17.3536 23.9697 18.4296C23.9145 19.6711 23.9421 20.9954 24.0249 22.2093C24.3007 23.9199 23.6938 25.9339 23.6938 25.9339V25.9891C23.6938 25.9891 22.2316 29.3825 21.6798 33.0795C21.4039 34.9556 21.4039 36.2247 21.4039 37.2455C21.4039 38.6801 21.4039 39.7561 20.7417 41.4942C20.3003 42.6254 19.9692 43.6462 19.6934 44.529C19.4175 45.4119 19.2243 46.212 19.0864 46.9293C19.0864 46.9569 19.0588 47.0121 19.0588 47.0673C18.6174 49.1089 16.8241 50.1021 14.8652 49.9917C13.3478 49.9917 11.8856 49.3296 11.858 47.3707ZM12.1339 45.6326C12.2443 45.3567 12.3822 45.0808 12.5477 44.8049H12.4374C12.2994 45.0257 12.2167 45.3291 12.1339 45.6326Z" fill="white"/>
<path fill-rule="evenodd" clip-rule="evenodd" d="M1.56722 40.5562C1.70517 40.5562 1.8431 40.5838 1.95346 40.6114C2.09141 40.639 2.20178 40.6941 2.31213 40.7493L2.47766 40.8597L2.42248 41.0528L2.09141 42.1288L2.03624 42.2943H1.67757C1.53962 42.2943 1.48445 42.2943 1.42927 42.2943C1.29133 42.2943 1.18097 42.2943 1.07062 42.2943C0.62919 42.2667 0.491237 42.1012 0.546415 41.4942C0.574005 41.2735 0.684358 41.0252 0.905072 40.8321C1.01543 40.6666 1.26374 40.5562 1.56722 40.5562ZM1.84311 41.0804C1.76035 41.0528 1.67758 41.0528 1.56722 41.0528C1.40169 41.0528 1.26373 41.108 1.18096 41.1907C1.07061 41.2735 1.01544 41.4115 1.01544 41.5218C0.987847 41.7425 1.01543 41.7977 1.0982 41.7977C1.18097 41.7977 1.29132 41.7977 1.40168 41.7977C1.51203 41.7977 1.6224 41.7977 1.64999 41.7977L1.8707 41.0804H1.84311ZM15.2791 45.1084C15.8309 45.1084 16.1619 45.1912 16.3827 45.3015C16.631 45.4395 16.7413 45.605 16.8517 45.7982C16.962 46.0189 16.962 46.5706 16.9344 46.9845C16.9344 47.1224 16.9344 47.2604 16.9344 47.3707C16.9344 47.3983 16.9344 47.4259 16.9344 47.4535C16.9068 47.5363 16.8793 47.619 16.8241 47.6742C16.7689 47.7294 16.6585 47.7846 16.5482 47.7846C16.5206 47.7846 16.493 47.7846 16.4654 47.7846L16.3551 47.757C15.5274 47.619 14.8101 47.4811 13.6513 47.5639C13.541 47.5639 13.4306 47.5087 13.3754 47.4535C13.3202 47.3707 13.2926 47.288 13.2651 47.2052C13.2375 46.9845 13.3202 46.6534 13.4582 46.3223C13.5961 45.9913 13.8168 45.6326 13.9824 45.4671C14.1479 45.3015 14.2859 45.2188 14.5066 45.1636C14.6721 45.1084 14.9204 45.1084 15.2791 45.1084ZM16.1343 45.743C15.9688 45.6602 15.7205 45.605 15.2515 45.605C14.948 45.605 14.7273 45.605 14.5894 45.6602C14.4514 45.6878 14.3686 45.743 14.2859 45.8533C14.1479 45.9913 13.9824 46.2672 13.872 46.5706C13.7893 46.7638 13.7065 46.9845 13.7065 47.1224C14.8652 47.0673 15.5826 47.2052 16.4102 47.3432H16.4378C16.4378 47.2604 16.4378 47.15 16.4378 47.0121C16.4378 46.6534 16.4654 46.1844 16.3827 46.0465C16.3275 45.9085 16.2723 45.7982 16.1343 45.743ZM9.20945 46.2396H9.29221C9.67846 46.2672 9.95435 46.3775 10.1475 46.5155C10.3682 46.681 10.451 46.9017 10.451 47.1224C10.451 47.1776 10.451 47.2328 10.451 47.288C10.451 47.5363 10.4785 47.757 10.2027 47.8949C9.98194 48.0053 9.67845 48.0053 9.31979 48.0053H9.20945C8.63007 48.0053 7.85757 48.0053 7.85757 47.5639V47.5087C7.85757 47.2052 7.82997 46.819 8.07828 46.5706C8.18863 46.4603 8.38176 46.3499 8.57488 46.2948C8.74042 46.2396 8.96114 46.212 9.20945 46.2396ZM9.26461 46.7086H9.18185C8.98872 46.7086 8.85077 46.7086 8.71283 46.7638C8.57488 46.7914 8.46453 46.8465 8.40935 46.9293C8.29899 47.0397 8.32659 47.3156 8.32659 47.5087V47.5639C8.32659 47.5915 8.8232 47.5363 9.20945 47.5363H9.31979C9.59569 47.5363 9.87158 47.5363 9.95434 47.4811C9.95434 47.4811 9.95434 47.3983 9.95434 47.3156C9.95434 47.2328 9.95434 47.1776 9.95434 47.0948C9.95434 47.0397 9.92676 46.9569 9.844 46.9017C9.70605 46.819 9.5405 46.7362 9.26461 46.7086ZM5.59524 44.7222H5.67801C6.06426 44.7498 6.34015 44.8601 6.50569 44.9981C6.69881 45.1636 6.78158 45.3843 6.78158 45.605V45.6326C6.78158 45.6878 6.78158 45.743 6.78158 45.7982C6.78158 46.0189 6.80918 46.2396 6.58847 46.4051C6.47811 46.4603 6.34016 46.5155 6.17463 46.5431C6.00909 46.5706 5.84355 46.5982 5.65043 46.5982C5.37453 46.5982 5.15382 46.5982 4.9607 46.5431C4.6848 46.4879 4.51927 46.3499 4.51927 46.074C4.51927 46.0189 4.51927 45.9913 4.51927 45.9637C4.51927 45.7982 4.51927 45.5499 4.51927 45.3843C4.54686 45.1912 4.62962 45.0257 4.82275 44.8877C4.98828 44.7773 5.23658 44.7222 5.59524 44.7222ZM5.65043 45.2188H5.56766C5.31936 45.2188 5.18141 45.2464 5.09864 45.3015C5.04346 45.3567 5.01588 45.4119 5.01588 45.4671C4.98829 45.605 5.01588 45.8257 5.01588 45.9637V46.074C5.01588 46.1016 5.04346 46.0465 5.09864 46.0465C5.23659 46.074 5.4573 46.074 5.67801 46.074C5.84354 46.074 5.98149 46.074 6.09185 46.0465C6.2022 46.0189 6.28498 45.9913 6.34016 45.9637C6.34016 45.9637 6.31258 45.8809 6.31258 45.7982C6.31258 45.7154 6.31258 45.6326 6.31258 45.5774C6.31258 45.5223 6.28498 45.4395 6.20221 45.3843C6.09185 45.3015 5.92632 45.2464 5.65043 45.2188ZM2.64319 42.7082C2.78114 42.7082 2.91909 42.7357 3.02945 42.7633C3.27775 42.8185 3.47087 42.9289 3.60882 43.0668C3.77435 43.2048 3.85713 43.3979 3.85713 43.5634C3.85713 43.591 3.85713 43.6462 3.82954 43.6738C3.82954 43.6738 3.82954 43.7014 3.82954 43.7566C3.82954 43.8393 3.82953 43.9221 3.80194 44.0049C3.74676 44.1428 3.664 44.2532 3.44329 44.3083C3.30534 44.3635 3.08463 44.3911 2.72597 44.3635C2.64321 44.3635 2.56043 44.3635 2.47766 44.3635H2.31213C1.78794 44.3635 1.56721 44.2807 1.5948 43.7566V43.6738C1.5948 43.591 1.5948 43.5082 1.5948 43.4807C1.62239 43.2875 1.73275 43.0392 1.95346 42.9013C2.119 42.7909 2.33971 42.7082 2.64319 42.7082ZM2.91908 43.2323C2.83632 43.2048 2.72596 43.2048 2.64319 43.2048C2.45007 43.2048 2.31212 43.2324 2.22935 43.3151C2.119 43.3979 2.06382 43.4807 2.06382 43.5358C2.06382 43.5358 2.06382 43.6186 2.06382 43.6738C2.06382 43.729 2.06382 43.7565 2.06382 43.7841C2.06382 43.8945 2.1466 43.8945 2.31213 43.8945H2.47766C2.56043 43.8945 2.64321 43.8945 2.72597 43.8945C3.02945 43.8945 3.19498 43.8945 3.30534 43.8393C3.33293 43.8393 3.36052 43.8393 3.36052 43.8117C3.36052 43.8117 3.36052 43.7841 3.36052 43.729C3.36052 43.6462 3.36052 43.591 3.3881 43.5358C3.3881 43.5082 3.36052 43.4531 3.30534 43.3979C3.19498 43.3427 3.08462 43.2599 2.91908 43.2323Z" fill="white"/>
</svg>
