<svg width="18" height="50" viewBox="0 0 18 50" fill="none" xmlns="http://www.w3.org/2000/svg">
<path fill-rule="evenodd" clip-rule="evenodd" d="M11.8297 1.41876C12.445 0.535947 13.4883 -0.0258366 14.3978 0.000915163C15.2004 0.0276669 15.8157 0.509205 16.2437 1.178C16.7787 1.98055 17.0463 3.07737 17.1265 3.96018C17.18 4.54871 17.0998 5.16401 17.0195 5.8328C16.9125 6.52835 16.8322 7.25065 16.8857 7.9997C16.9928 9.23029 17.0998 10.2469 17.2068 11.0762C17.5278 14.1794 17.5813 14.5271 17.0998 16.694C16.6182 18.9412 15.5214 21.3756 14.5316 23.5425C13.6488 25.4954 12.873 27.261 12.7125 28.4381C12.5787 29.4279 12.7125 30.3374 12.873 31.354C13.0602 32.6381 13.2475 34.0292 12.98 35.8216C12.8997 36.3833 12.766 36.8916 12.5787 37.3732H12.659C12.6322 39.54 12.659 41.9745 12.7927 44.3286C12.8997 46.2815 13.0602 48.1809 13.3278 49.786L12.552 49.9197C12.2844 48.2879 12.1239 46.3618 12.0169 44.3821C11.9099 42.4827 11.8832 40.5299 11.8832 38.7107C10.3583 40.8509 7.49587 41.6802 5.14172 40.3961C4.63343 40.1018 4.1519 39.7273 3.75062 39.2725C3.85763 39.7006 3.93788 40.1821 3.96463 40.7439C4.15189 43.5261 3.10858 47.3248 2.27927 50L1.53023 49.7592C2.30603 47.1911 3.37609 43.4726 3.18883 40.7974C3.10858 39.6471 2.81431 38.791 2.54679 38.0152C2.17227 36.9184 1.85125 35.9821 2.19902 34.6445C2.11877 33.4941 2.17227 32.3438 2.14551 31.1935C2.14551 30.2572 2.09201 29.3744 2.03851 28.5451C1.985 27.6623 1.90474 26.8865 1.82449 26.1909C1.74423 25.4954 1.63723 24.8801 1.50347 24.345C1.39647 23.7832 1.26271 23.3285 1.12895 22.9539L1.1022 22.9272V22.8737C0.995189 22.1514 0.834677 21.3756 0.674166 20.5463C0.13913 18.0049 -0.476159 15.1157 0.567161 12.494C0.807927 11.9055 0.807923 11.1029 0.647413 10.2736C0.112377 8.93602 0.139134 6.58185 2.19902 6.68886C1.98501 5.7793 2.33278 4.06719 3.53661 3.71942C3.88438 3.63916 4.25891 3.66591 4.74044 3.93343C4.90095 2.94361 5.35573 1.84679 6.47931 1.65953C7.06784 1.55252 7.52262 1.76653 7.87039 2.22131C8.0309 1.20474 8.99397 0.37544 9.95704 0.402192C10.2781 0.402192 10.6258 0.509205 10.8933 0.642964C11.2679 0.776723 11.6692 1.07098 11.8297 1.41876ZM1.28945 10.0596C1.44996 10.9691 1.61048 11.959 1.31621 12.7348C0.379895 15.1424 0.968436 17.8979 1.47672 20.3323C1.63723 21.1616 1.82449 21.9374 1.90475 22.6597C2.03851 23.061 2.17227 23.5425 2.30603 24.1043C2.41303 24.666 2.52004 25.3081 2.62704 26.0304C2.7073 26.7527 2.78756 27.5552 2.84106 28.4381C2.89457 29.2674 2.92132 30.1502 2.94807 31.14C2.97482 32.7451 2.89456 34.484 3.16208 36.0356C3.45635 37.8547 4.39267 39.0585 5.51624 39.7006C7.60288 40.8509 10.1443 40.0216 11.3749 38.0419C11.7762 37.3999 12.0704 36.6241 12.2042 35.7413C12.445 34.0559 12.2577 32.7183 12.0972 31.4878C11.9367 30.4444 11.8029 29.4546 11.9367 28.3578C12.0972 27.047 12.9265 25.2278 13.836 23.2215C14.7991 21.0813 15.8692 18.7272 16.3507 16.5335C16.8055 14.5004 16.752 14.1259 16.431 11.1564C16.3507 10.3806 16.2437 9.39079 16.1099 8.07996C16.0297 7.25065 16.1367 6.47485 16.2437 5.75255C16.324 5.13726 16.4042 4.57547 16.3507 4.06719C16.2705 3.26464 16.0297 2.32831 15.5749 1.63277C14.9596 0.669703 14.0501 0.562709 13.1405 1.178C12.766 1.44552 12.4182 1.82004 12.2042 2.27482C11.5621 3.63916 11.8029 5.7793 13.194 6.63535C13.622 6.90287 14.1571 6.98313 14.7456 6.95638L14.7724 7.43791C14.0768 7.46466 13.4615 7.35765 12.9532 7.03663C12.6857 6.87612 12.4717 6.68886 12.2577 6.42134V6.44809C12.3914 6.95637 12.4985 7.3844 12.4985 7.70542C13.2208 7.43791 13.4883 7.46466 14.2106 7.57167C14.3978 7.59842 14.6118 7.62517 14.9061 7.65192L14.8526 8.13346C14.5851 8.10671 14.3443 8.07995 14.1571 8.02645C13.408 7.91944 13.2207 7.89269 12.2577 8.29397C11.8564 8.58824 11.4819 8.50798 11.2411 8.07996C11.1074 7.81244 11.0271 7.41115 11.0004 7.11688C10.9201 6.5551 10.9201 5.88631 10.9468 5.32453C10.8933 5.37803 10.8666 5.40478 10.8131 5.45829C10.3851 5.80606 9.87678 5.83281 9.28824 5.7258L9.3685 5.27102C9.82328 5.35127 10.2245 5.32452 10.5188 5.08375C11.3481 4.65573 11.5621 2.83661 11.4284 2.06081C11.3481 1.63278 11.0806 1.31176 10.7596 1.12449C10.5456 0.990734 10.2781 0.937227 10.0373 0.937227C9.79652 0.937227 9.52901 0.990734 9.28824 1.12449C8.91372 1.33851 8.59269 1.73979 8.45894 2.38183C8.29842 3.21114 8.45893 4.25444 8.56594 5.1105C8.61945 5.48502 8.83346 6.92963 8.80671 7.35766C8.7532 8.16021 8.00415 8.64175 7.73663 7.73219C7.68313 7.57168 7.65638 7.41116 7.62963 7.2239C7.57613 6.82262 7.57613 6.5016 7.62963 6.12708C7.65638 5.99332 7.65638 5.85955 7.70988 5.69904C7.36211 5.96656 6.90733 6.02006 6.39905 5.91305L6.47931 5.45829C6.85383 5.53854 7.17485 5.51179 7.41562 5.32453C7.79014 5.03026 7.95065 4.28121 7.89715 3.58566C7.84364 2.86336 7.46912 2.03404 6.55956 2.1678C5.59649 2.32831 5.32898 3.4519 5.22197 4.2812C5.62325 4.70923 5.94427 5.32453 5.89076 5.99332C5.83726 6.55511 5.56975 7.00989 5.14172 7.33091C4.71369 7.62518 4.1519 7.78569 3.4831 7.73219L3.50986 7.25064C4.04489 7.27739 4.52642 7.1704 4.84745 6.92963C5.16847 6.68887 5.38248 6.36784 5.40923 5.93981C5.43599 5.69905 5.32898 5.45829 5.22197 5.19077C4.9277 4.62898 4.36591 4.01369 3.64362 4.20095C3.13533 4.33471 2.89456 4.92324 2.78756 5.37802C2.52004 6.90287 3.05508 6.90287 3.53661 7.91944C3.96464 8.80224 3.80412 9.95258 2.92131 10.3539C2.62704 10.4876 2.27928 10.5411 1.79774 10.5144L1.82449 10.0328C2.19901 10.0596 2.49329 10.0061 2.7073 9.89907C3.24234 9.65831 3.32259 9.09651 3.21559 8.58823C3.13533 8.18695 2.94806 7.67868 2.62704 7.41116C1.77099 6.74237 0.968434 7.43791 0.91493 8.34747C0.995186 8.98952 1.2092 9.52454 1.28945 10.0596ZM11.4284 4.92325C11.4284 5.0035 11.4284 5.057 11.4016 5.16401C11.3749 5.75254 11.3749 6.50159 11.4551 7.11688C11.4819 7.27739 11.5889 8.02644 11.8029 8.05319C12.0972 8.07995 12.0437 7.70543 12.0169 7.54492C11.9634 7.30415 11.8832 6.98313 11.8029 6.60861C11.6691 6.07357 11.5354 5.51179 11.4284 4.92325ZM8.21817 7.49141C8.32518 6.98313 8.24492 6.31434 8.16466 5.80606C8.05766 6.28759 8.03091 6.71561 8.08441 7.2239C8.19142 7.86594 8.19142 7.49141 8.21817 7.49141Z" fill="white"/>
</svg>
