<svg width="19" height="52" viewBox="0 0 19 52" fill="none" xmlns="http://www.w3.org/2000/svg">
<path fill-rule="evenodd" clip-rule="evenodd" d="M12.8297 2.41876C13.445 1.53595 14.4883 0.974163 15.3978 1.00092C16.2004 1.02767 16.8157 1.50921 17.2437 2.178C17.7787 2.98055 18.0463 4.07737 18.1265 4.96018C18.18 5.54871 18.0998 6.16401 18.0195 6.8328C17.9125 7.52835 17.8322 8.25065 17.8857 8.9997C17.9928 10.2303 18.0998 11.2469 18.2068 12.0762C18.5278 15.1794 18.5813 15.5271 18.0998 17.694C17.6182 19.9412 16.5214 22.3756 15.5316 24.5425C14.6488 26.4954 13.873 28.261 13.7125 29.4381C13.5787 30.4279 13.7125 31.3374 13.873 32.354C14.0602 33.6381 14.2475 35.0292 13.98 36.8216C13.8997 37.3833 13.766 37.8916 13.5787 38.3732H13.659C13.6322 40.5401 13.659 42.9745 13.7927 45.3286C13.8997 47.2815 14.0602 49.1809 14.3278 50.786L13.552 50.9197C13.2844 49.2879 13.1239 47.3618 13.0169 45.3821C12.9099 43.4827 12.8832 41.5299 12.8832 39.7107C11.3583 41.8509 8.49587 42.6802 6.14172 41.3961C5.63343 41.1018 5.1519 40.7273 4.75062 40.2725C4.85763 40.7006 4.93788 41.1821 4.96463 41.7439C5.15189 44.5261 4.10858 48.3248 3.27927 51L2.53023 50.7592C3.30603 48.1911 4.37609 44.4726 4.18883 41.7974C4.10858 40.6471 3.81431 39.791 3.54679 39.0152C3.17227 37.9184 2.85125 36.9821 3.19902 35.6445C3.11877 34.4941 3.17227 33.3438 3.14551 32.1935C3.14551 31.2572 3.09201 30.3744 3.03851 29.5451C2.985 28.6623 2.90474 27.8865 2.82449 27.1909C2.74423 26.4954 2.63723 25.8801 2.50347 25.345C2.39647 24.7832 2.26271 24.3285 2.12895 23.9539L2.1022 23.9272V23.8737C1.99519 23.1514 1.83468 22.3756 1.67417 21.5463C1.13913 19.0049 0.523841 16.1157 1.56716 13.494C1.80793 12.9055 1.80792 12.1029 1.64741 11.2736C1.11238 9.93602 1.13913 7.58185 3.19902 7.68886C2.98501 6.7793 3.33278 5.06719 4.53661 4.71942C4.88438 4.63916 5.25891 4.66591 5.74044 4.93343C5.90095 3.94361 6.35573 2.84679 7.47931 2.65953C8.06784 2.55252 8.52262 2.76653 8.87039 3.22131C9.0309 2.20474 9.99397 1.37544 10.957 1.40219C11.2781 1.40219 11.6258 1.50921 11.8933 1.64296C12.2679 1.77672 12.6692 2.07098 12.8297 2.41876ZM2.28945 11.0596C2.44996 11.9691 2.61048 12.959 2.31621 13.7348C1.37989 16.1424 1.96844 18.8979 2.47672 21.3323C2.63723 22.1616 2.82449 22.9374 2.90475 23.6597C3.03851 24.061 3.17227 24.5425 3.30603 25.1043C3.41303 25.666 3.52004 26.3081 3.62704 27.0304C3.7073 27.7527 3.78756 28.5552 3.84106 29.4381C3.89457 30.2674 3.92132 31.1502 3.94807 32.14C3.97482 33.7451 3.89456 35.484 4.16208 37.0356C4.45635 38.8547 5.39266 40.0585 6.51624 40.7006C8.60288 41.8509 11.1443 41.0216 12.3749 39.042C12.7762 38.3999 13.0704 37.6241 13.2042 36.7413C13.445 35.0559 13.2577 33.7183 13.0972 32.4878C12.9367 31.4444 12.8029 30.4546 12.9367 29.3578C13.0972 28.047 13.9265 26.2278 14.836 24.2215C15.7991 22.0813 16.8692 19.7272 17.3507 17.5335C17.8055 15.5004 17.752 15.1259 17.431 12.1564C17.3507 11.3806 17.2437 10.3908 17.1099 9.07996C17.0297 8.25065 17.1367 7.47485 17.2437 6.75255C17.324 6.13726 17.4042 5.57547 17.3507 5.06719C17.2705 4.26464 17.0297 3.32831 16.5749 2.63277C15.9596 1.6697 15.0501 1.56271 14.1405 2.178C13.766 2.44552 13.4182 2.82004 13.2042 3.27482C12.5621 4.63916 12.8029 6.7793 14.194 7.63535C14.622 7.90287 15.1571 7.98313 15.7456 7.95638L15.7724 8.43791C15.0768 8.46466 14.4615 8.35765 13.9532 8.03663C13.6857 7.87612 13.4717 7.68886 13.2577 7.42134V7.44809C13.3914 7.95637 13.4985 8.3844 13.4985 8.70542C14.2208 8.43791 14.4883 8.46466 15.2106 8.57167C15.3978 8.59842 15.6118 8.62517 15.9061 8.65192L15.8526 9.13346C15.5851 9.10671 15.3443 9.07995 15.1571 9.02645C14.408 8.91944 14.2207 8.89269 13.2577 9.29397C12.8564 9.58824 12.4819 9.50799 12.2411 9.07996C12.1074 8.81244 12.0271 8.41115 12.0004 8.11688C11.9201 7.5551 11.9201 6.88631 11.9468 6.32453C11.8933 6.37803 11.8666 6.40478 11.8131 6.45829C11.3851 6.80606 10.8768 6.83281 10.2882 6.7258L10.3685 6.27102C10.8233 6.35127 11.2245 6.32452 11.5188 6.08375C12.3481 5.65573 12.5621 3.83661 12.4284 3.06081C12.3481 2.63278 12.0806 2.31176 11.7596 2.12449C11.5456 1.99073 11.2781 1.93723 11.0373 1.93723C10.7965 1.93723 10.529 1.99073 10.2882 2.12449C9.91372 2.33851 9.59269 2.73979 9.45894 3.38183C9.29842 4.21114 9.45893 5.25444 9.56594 6.1105C9.61944 6.48502 9.83346 7.92963 9.80671 8.35766C9.7532 9.16021 9.00415 9.64175 8.73663 8.73219C8.68313 8.57168 8.65638 8.41116 8.62963 8.2239C8.57613 7.82262 8.57613 7.5016 8.62963 7.12708C8.65638 6.99332 8.65638 6.85955 8.70988 6.69904C8.36211 6.96656 7.90733 7.02006 7.39905 6.91305L7.47931 6.45829C7.85383 6.53854 8.17485 6.51179 8.41562 6.32453C8.79014 6.03026 8.95065 5.28121 8.89715 4.58566C8.84364 3.86336 8.46912 3.03404 7.55956 3.1678C6.59649 3.32831 6.32898 4.45189 6.22197 5.2812C6.62325 5.70923 6.94427 6.32453 6.89076 6.99332C6.83726 7.55511 6.56975 8.00989 6.14172 8.33091C5.71369 8.62518 5.1519 8.78569 4.4831 8.73219L4.50986 8.25064C5.04489 8.27739 5.52642 8.1704 5.84745 7.92963C6.16847 7.68887 6.38248 7.36784 6.40923 6.93981C6.43599 6.69905 6.32898 6.45829 6.22197 6.19077C5.9277 5.62898 5.36591 5.01369 4.64362 5.20095C4.13533 5.33471 3.89456 5.92324 3.78756 6.37802C3.52004 7.90287 4.05508 7.90287 4.53661 8.91944C4.96464 9.80224 4.80412 10.9526 3.92131 11.3539C3.62704 11.4876 3.27928 11.5411 2.79774 11.5144L2.82449 11.0328C3.19901 11.0596 3.49329 11.0061 3.7073 10.8991C4.24234 10.6583 4.32259 10.0965 4.21559 9.58823C4.13533 9.18695 3.94806 8.67868 3.62704 8.41116C2.77099 7.74237 1.96843 8.43791 1.91493 9.34747C1.99519 9.98952 2.2092 10.5245 2.28945 11.0596ZM12.4284 5.92325C12.4284 6.0035 12.4284 6.057 12.4016 6.16401C12.3749 6.75254 12.3749 7.50159 12.4551 8.11688C12.4819 8.27739 12.5889 9.02644 12.8029 9.05319C13.0972 9.07995 13.0437 8.70543 13.0169 8.54492C12.9634 8.30415 12.8832 7.98313 12.8029 7.60861C12.6691 7.07357 12.5354 6.51179 12.4284 5.92325ZM9.21817 8.49141C9.32518 7.98313 9.24492 7.31434 9.16466 6.80606C9.05766 7.28759 9.03091 7.71561 9.08441 8.2239C9.19142 8.86594 9.19142 8.49141 9.21817 8.49141Z" fill="url(#paint0_linear)" stroke="url(#paint1_linear)" stroke-width="0.5"/>
<defs>
<linearGradient id="paint0_linear" x1="-8.30257" y1="51" x2="18.542" y2="51" gradientUnits="userSpaceOnUse">
<stop stop-color="#3E65E4"/>
<stop offset="1" stop-color="#2D8DE4"/>
</linearGradient>
<linearGradient id="paint1_linear" x1="-8.30257" y1="51" x2="18.542" y2="51" gradientUnits="userSpaceOnUse">
<stop stop-color="#3E65E4"/>
<stop offset="1" stop-color="#2D8DE4"/>
</linearGradient>
</defs>
</svg>
