<svg width="50" height="35" viewBox="0 0 50 35" fill="none" xmlns="http://www.w3.org/2000/svg">
<path fill-rule="evenodd" clip-rule="evenodd" d="M4.87583 30.3603C4.54281 30.8321 4.23755 31.2206 3.93228 31.3871C3.57151 31.5814 1.26811 31.5536 0.935091 31.2483C0.879588 31.6369 1.18486 32.1086 1.54563 32.4972C2.26717 33.2742 3.09972 33.7182 4.18204 33.8015C5.3476 33.9125 6.65194 33.5795 7.90076 33.2742C8.6223 33.08 8.45579 33.0522 9.09408 33.191C10.3152 33.4685 11.3142 33.6627 12.2023 33.8015C15.5325 34.3288 16.92 33.9403 20.1392 32.8302C21.3603 32.4139 22.9421 31.8589 25.079 31.1928C28.7145 30.0828 31.4619 29.9995 35.0141 31.3316C36.3184 31.8034 38.1223 32.4139 40.0094 32.6914C41.8688 32.9689 43.8114 32.9134 45.421 32.0809C47.6411 30.9431 48.0574 27.8071 47.6689 25.587C47.3913 23.9774 46.6976 21.8683 46.6698 20.2864C46.6421 17.2338 47.2803 12.96 47.8909 8.96378C48.3349 5.99435 48.8067 2.99718 49.1952 0L50 0.111006C49.6115 3.10818 49.1674 6.10536 48.6957 9.07478C48.0851 13.0433 47.4468 17.2893 47.4746 20.2587C47.5023 21.7295 48.1961 23.8664 48.4459 25.4205C48.8899 28.0014 48.3349 31.4426 45.754 32.7747C43.9779 33.6905 41.8688 33.746 39.8707 33.4685C37.9003 33.191 36.0409 32.5527 34.7088 32.0531C31.3231 30.8043 28.7422 30.8598 25.301 31.9421C23.1642 32.6082 21.6101 33.1355 20.389 33.5795C17.0311 34.745 15.5325 35.1336 12.0635 34.5785C11.0922 34.412 9.98213 34.19 8.6778 33.9125L8.09503 34.0513C6.7907 34.3843 5.4031 34.7173 4.12653 34.6063C2.84995 34.4953 1.6844 33.8847 0.824095 32.9689C0.213559 32.3307 -0.202726 31.5259 0.102542 30.6933C0.269052 30.277 0.57433 29.833 1.10161 29.4445C1.82315 28.945 2.51694 28.9172 3.54375 29.0005C5.79163 29.2225 5.54187 28.2789 7.56774 27.8071C8.78881 27.5019 10.1764 27.4741 11.2587 27.1689C13.7286 26.4751 16.0875 24.0607 17.9469 22.3678C20.0005 20.5085 22.0263 18.5381 24.3297 16.7897C25.9393 15.5687 28.1317 14.3753 29.547 12.9878C30.0188 12.516 30.4073 12.0442 30.6848 11.5447C31.9892 9.26905 32.572 3.08043 33.127 0.0277512L33.9318 0.166509C33.349 3.35795 32.794 9.51881 31.3786 11.9332C31.0456 12.4882 30.6293 13.0155 30.1298 13.5428C28.659 15.0136 26.4944 16.1515 24.8293 17.428C22.5814 19.1486 20.5555 21.119 18.5019 22.9506C16.5038 24.7545 14.0339 27.2799 11.3697 27.9459C10.2597 28.2234 8.98308 28.2789 7.762 28.5564C7.20697 28.6952 6.79069 28.8617 6.48542 29.0005C5.87488 29.389 5.26435 29.7775 4.87583 30.3603ZM4.5428 29.8608C3.82126 29.833 2.98872 29.8053 2.23942 29.8053C1.82315 29.8053 1.18486 30.277 1.0461 30.6933C1.07386 30.9986 3.26624 30.8876 3.59926 30.8043C4.01553 30.6933 4.37629 30.1938 4.5428 29.8608ZM44.5329 12.627L43.7281 12.4882C42.9788 16.9563 42.396 19.3151 41.5635 19.9812C40.842 20.564 39.7041 19.6759 37.7338 17.761L37.151 18.3438C39.4544 20.5917 40.8975 21.563 42.063 20.6195C43.1176 19.8147 43.7559 17.317 44.5329 12.627Z" fill="white"/>
<path fill-rule="evenodd" clip-rule="evenodd" d="M8.73331 27.9459C7.87301 28.6397 7.37349 29.4445 6.98496 30.4435L6.29117 30.3603C6.54094 29.611 7.37347 28.2789 8.01176 27.9459H8.73331Z" fill="white"/>
</svg>
