<svg width="52" height="37" viewBox="0 0 52 37" fill="none" xmlns="http://www.w3.org/2000/svg">
<path fill-rule="evenodd" clip-rule="evenodd" d="M5.87583 31.3603C5.54281 31.8321 5.23755 32.2206 4.93228 32.3871C4.57151 32.5814 2.26811 32.5536 1.93509 32.2483C1.87959 32.6369 2.18486 33.1086 2.54563 33.4972C3.26717 34.2742 4.09972 34.7182 5.18204 34.8015C6.3476 34.9125 7.65194 34.5795 8.90076 34.2742C9.6223 34.08 9.45579 34.0522 10.0941 34.191C11.3152 34.4685 12.3142 34.6627 13.2023 34.8015C16.5325 35.3288 17.92 34.9403 21.1392 33.8302C22.3603 33.4139 23.9421 32.8589 26.079 32.1928C29.7145 31.0828 32.4619 30.9995 36.0141 32.3316C37.3184 32.8034 39.1223 33.4139 41.0094 33.6914C42.8688 33.9689 44.8114 33.9134 46.421 33.0809C48.6411 31.9431 49.0574 28.8071 48.6689 26.587C48.3913 24.9774 47.6976 22.8683 47.6698 21.2864C47.6421 18.2338 48.2803 13.96 48.8909 9.96378C49.3349 6.99435 49.8067 3.99718 50.1952 1L51 1.11101C50.6115 4.10818 50.1674 7.10536 49.6957 10.0748C49.0851 14.0433 48.4468 18.2893 48.4746 21.2587C48.5023 22.7295 49.1961 24.8664 49.4459 26.4205C49.8899 29.0014 49.3349 32.4426 46.754 33.7747C44.9779 34.6905 42.8688 34.746 40.8707 34.4685C38.9003 34.191 37.0409 33.5527 35.7088 33.0531C32.3231 31.8043 29.7422 31.8598 26.301 32.9421C24.1642 33.6082 22.6101 34.1355 21.389 34.5795C18.031 35.745 16.5325 36.1336 13.0635 35.5785C12.0922 35.412 10.9821 35.19 9.6778 34.9125L9.09503 35.0513C7.7907 35.3843 6.4031 35.7173 5.12653 35.6063C3.84995 35.4953 2.6844 34.8847 1.82409 33.9689C1.21356 33.3307 0.797274 32.5259 1.10254 31.6933C1.26905 31.277 1.57433 30.833 2.10161 30.4445C2.82315 29.945 3.51694 29.9172 4.54375 30.0005C6.79163 30.2225 6.54187 29.2789 8.56774 28.8071C9.78881 28.5019 11.1764 28.4741 12.2587 28.1689C14.7286 27.4751 17.0875 25.0607 18.9469 23.3678C21.0005 21.5085 23.0263 19.5381 25.3297 17.7897C26.9393 16.5687 29.1317 15.3753 30.547 13.9878C31.0188 13.516 31.4073 13.0442 31.6848 12.5447C32.9892 10.269 33.572 4.08043 34.127 1.02775L34.9318 1.16651C34.349 4.35795 33.794 10.5188 32.3786 12.9332C32.0456 13.4882 31.6293 14.0155 31.1298 14.5428C29.659 16.0136 27.4944 17.1515 25.8293 18.428C23.5814 20.1486 21.5555 22.119 19.5019 23.9506C17.5038 25.7545 15.0339 28.2799 12.3697 28.9459C11.2597 29.2234 9.98308 29.2789 8.762 29.5564C8.20697 29.6952 7.79069 29.8617 7.48542 30.0005C6.87488 30.389 6.26435 30.7775 5.87583 31.3603ZM5.5428 30.8608C4.82126 30.833 3.98872 30.8053 3.23942 30.8053C2.82315 30.8053 2.18486 31.277 2.0461 31.6933C2.07386 31.9986 4.26624 31.8876 4.59926 31.8043C5.01553 31.6933 5.37629 31.1938 5.5428 30.8608ZM45.5329 13.627L44.7281 13.4882C43.9788 17.9562 43.396 20.3151 42.5635 20.9812C41.842 21.564 40.7041 20.6759 38.7338 18.761L38.151 19.3438C40.4544 21.5917 41.8975 22.563 43.063 21.6195C44.1176 20.8147 44.7559 18.317 45.5329 13.627Z" fill="url(#paint0_linear)"/>
<path fill-rule="evenodd" clip-rule="evenodd" d="M9.73331 28.9459C8.87301 29.6397 8.37349 30.4445 7.98496 31.4435L7.29117 31.3603C7.54094 30.611 8.37347 29.2789 9.01176 28.9459H9.73331Z" fill="url(#paint1_linear)"/>
<path d="M5.87583 31.3603L6.08014 31.5045L6.08384 31.499L5.87583 31.3603ZM4.93228 32.3871L5.05081 32.6072L5.05199 32.6066L4.93228 32.3871ZM1.93509 32.2483L2.10402 32.0641L1.75463 31.7438L1.6876 32.213L1.93509 32.2483ZM5.18204 34.8015L5.20574 34.5526L5.20121 34.5522L5.18204 34.8015ZM8.90076 34.2742L8.96014 34.5171L8.96576 34.5156L8.90076 34.2742ZM10.0941 34.191L10.1495 33.9472L10.1472 33.9467L10.0941 34.191ZM13.2023 34.8015L13.2414 34.5546L13.2409 34.5545L13.2023 34.8015ZM21.1392 33.8302L21.0586 33.5936L21.0577 33.5938L21.1392 33.8302ZM26.079 32.1928L26.006 31.9537L26.0046 31.9542L26.079 32.1928ZM36.0141 32.3316L35.9263 32.5657L35.9291 32.5667L36.0141 32.3316ZM41.0094 33.6914L41.0463 33.4442L41.0458 33.4441L41.0094 33.6914ZM46.421 33.0809L46.307 32.8584L46.3061 32.8588L46.421 33.0809ZM48.6689 26.587L48.4225 26.6295L48.4226 26.6301L48.6689 26.587ZM47.6698 21.2864L47.4198 21.2887L47.4198 21.2908L47.6698 21.2864ZM48.8909 9.96378L49.138 10.0015L49.1381 10.0007L48.8909 9.96378ZM50.1952 1L50.2294 0.752345L49.9797 0.717906L49.9473 0.967861L50.1952 1ZM51 1.11101L51.2479 1.14314L51.2798 0.897232L51.0342 0.863351L51 1.11101ZM49.6957 10.0748L49.4488 10.0356L49.4486 10.0368L49.6957 10.0748ZM48.4746 21.2587L48.2246 21.261L48.2246 21.2634L48.4746 21.2587ZM49.4459 26.4205L49.1991 26.4602L49.1995 26.4629L49.4459 26.4205ZM46.754 33.7747L46.8686 33.9969L46.8686 33.9968L46.754 33.7747ZM40.8707 34.4685L40.8358 34.716L40.8363 34.7161L40.8707 34.4685ZM35.7088 33.0531L35.7966 32.8191L35.7954 32.8186L35.7088 33.0531ZM26.301 32.9421L26.3754 33.1808L26.376 33.1806L26.301 32.9421ZM21.389 34.5795L21.471 34.8157L21.4744 34.8144L21.389 34.5795ZM13.0635 35.5785L13.0213 35.825L13.024 35.8254L13.0635 35.5785ZM9.6778 34.9125L9.72983 34.668L9.67472 34.6562L9.6199 34.6693L9.6778 34.9125ZM9.09503 35.0513L9.03711 34.808L9.03318 34.809L9.09503 35.0513ZM1.82409 33.9689L2.00631 33.7978L2.00476 33.7961L1.82409 33.9689ZM1.10254 31.6933L0.870325 31.6004L0.867823 31.6072L1.10254 31.6933ZM2.10161 30.4445L1.95925 30.2388L1.95331 30.2432L2.10161 30.4445ZM4.54375 30.0005L4.56833 29.7516L4.56396 29.7513L4.54375 30.0005ZM8.56774 28.8071L8.62445 29.0507L8.62837 29.0497L8.56774 28.8071ZM12.2587 28.1689L12.1911 27.9282L12.1908 27.9282L12.2587 28.1689ZM18.9469 23.3678L18.7791 23.1825L18.7786 23.183L18.9469 23.3678ZM25.3297 17.7897L25.1786 17.5906L25.1786 17.5906L25.3297 17.7897ZM30.547 13.9878L30.7221 14.1663L30.7238 14.1645L30.547 13.9878ZM31.6848 12.5447L31.4679 12.4204L31.4663 12.4233L31.6848 12.5447ZM34.127 1.02775L34.1695 0.781386L33.9253 0.739295L33.881 0.98303L34.127 1.02775ZM34.9318 1.16651L35.1777 1.21142L35.2231 0.963043L34.9743 0.920144L34.9318 1.16651ZM32.3786 12.9332L32.593 13.0618L32.5943 13.0596L32.3786 12.9332ZM31.1298 14.5428L31.3067 14.7196L31.3113 14.7147L31.1298 14.5428ZM25.8293 18.428L25.9812 18.6265L25.9814 18.6264L25.8293 18.428ZM19.5019 23.9506L19.3355 23.764L19.3344 23.765L19.5019 23.9506ZM8.762 29.5564L8.70659 29.3126L8.70137 29.3139L8.762 29.5564ZM7.48542 30.0005L7.38197 29.7729L7.366 29.7801L7.3512 29.7895L7.48542 30.0005ZM5.5428 30.8608L5.76641 30.9726L5.93977 30.6258L5.55241 30.6109L5.5428 30.8608ZM2.0461 31.6933L1.80893 31.6143L1.7924 31.6639L1.79713 31.7159L2.0461 31.6933ZM4.59926 31.8043L4.6599 32.0469L4.66367 32.0459L4.59926 31.8043ZM45.5329 13.627L45.7796 13.6679L45.8202 13.4228L45.5754 13.3806L45.5329 13.627ZM44.7281 13.4882L44.7706 13.2419L44.5231 13.1992L44.4816 13.4469L44.7281 13.4882ZM42.5635 20.9812L42.4073 20.786L42.4064 20.7867L42.5635 20.9812ZM38.7338 18.761L38.908 18.5818L38.7313 18.41L38.557 18.5843L38.7338 18.761ZM38.151 19.3438L37.9742 19.1671L37.7953 19.346L37.9764 19.5228L38.151 19.3438ZM43.063 21.6195L42.9113 21.4206L42.9057 21.4252L43.063 21.6195ZM9.73331 28.9459L9.89025 29.1405L10.4416 28.6959H9.73331V28.9459ZM7.98496 31.4435L7.95518 31.6918L8.14769 31.7149L8.21796 31.5342L7.98496 31.4435ZM7.29117 31.3603L7.054 31.2812L6.95708 31.572L7.26139 31.6085L7.29117 31.3603ZM9.01176 28.9459V28.6959H8.95046L8.89612 28.7243L9.01176 28.9459ZM5.67159 31.2161C5.50621 31.4504 5.35298 31.6564 5.20619 31.8228C5.0578 31.9909 4.92784 32.1047 4.81257 32.1676L5.05199 32.6066C5.24199 32.5029 5.41729 32.3392 5.58111 32.1536C5.74651 31.9661 5.91242 31.742 6.08007 31.5045L5.67159 31.2161ZM4.81376 32.167C4.81454 32.1666 4.81196 32.168 4.8047 32.1707C4.79766 32.1734 4.78784 32.1767 4.77483 32.1803C4.74853 32.1878 4.71384 32.1956 4.67034 32.2032C4.58324 32.2185 4.47132 32.2314 4.34031 32.241C4.07877 32.2602 3.75551 32.2654 3.43113 32.2552C3.10625 32.245 2.78697 32.2195 2.53225 32.1792C2.40455 32.159 2.29862 32.1359 2.21865 32.1111C2.13049 32.0838 2.10294 32.0631 2.10402 32.0641L1.76616 32.4326C1.8505 32.5099 1.96778 32.5568 2.07073 32.5887C2.18189 32.6232 2.31336 32.6508 2.45407 32.673C2.73618 32.7177 3.07773 32.7443 3.41543 32.7549C3.75362 32.7655 4.09468 32.7603 4.37689 32.7396C4.51776 32.7293 4.64758 32.7148 4.75681 32.6957C4.85838 32.6778 4.96796 32.6518 5.05081 32.6072L4.81376 32.167ZM1.6876 32.213C1.64913 32.4823 1.7376 32.7536 1.86357 32.9902C1.99158 33.2307 2.17317 33.4635 2.36243 33.6673L2.72883 33.3271C2.55732 33.1424 2.40589 32.9449 2.30494 32.7553C2.20196 32.5618 2.16555 32.4029 2.18258 32.2837L1.6876 32.213ZM2.36243 33.6673C3.12246 34.4858 4.01185 34.9622 5.16286 35.0508L5.20121 34.5522C4.1876 34.4743 3.41189 34.0627 2.72883 33.3271L2.36243 33.6673ZM5.15833 35.0504C6.37499 35.1662 7.7252 34.8189 8.96013 34.5171L8.8414 34.0314C7.57867 34.34 6.32022 34.6588 5.20574 34.5526L5.15833 35.0504ZM8.96576 34.5156C9.14918 34.4662 9.27895 34.4266 9.3714 34.3999C9.46782 34.3719 9.51553 34.3606 9.55551 34.3563C9.63303 34.3479 9.70075 34.3613 10.041 34.4352L10.1472 33.9467C9.84912 33.8819 9.68095 33.8398 9.50177 33.8591C9.4134 33.8687 9.32756 33.892 9.23232 33.9196C9.13311 33.9483 9.01312 33.9851 8.83577 34.0328L8.96576 34.5156ZM10.0387 34.4347C11.2638 34.7132 12.2687 34.9086 13.1637 35.0485L13.2409 34.5545C12.3598 34.4168 11.3665 34.2238 10.1495 33.9472L10.0387 34.4347ZM13.1632 35.0484C14.844 35.3146 16.0502 35.352 17.2485 35.1772C18.4406 35.0034 19.6136 34.6207 21.2207 34.0665L21.0577 33.5938C19.4457 34.1497 18.3152 34.5164 17.1763 34.6825C16.0434 34.8477 14.8907 34.8157 13.2414 34.5546L13.1632 35.0484ZM21.2199 34.0668C22.4427 33.65 24.0205 33.0963 26.1534 32.4315L26.0046 31.9542C23.8638 32.6214 22.2779 33.1779 21.0586 33.5936L21.2199 34.0668ZM26.152 32.4319C29.7442 31.3351 32.4342 31.2561 35.9263 32.5657L36.1019 32.0975C32.4896 30.7429 29.6848 30.8305 26.006 31.9537L26.152 32.4319ZM35.9291 32.5667C37.236 33.0394 39.0596 33.6574 40.973 33.9388L41.0458 33.4441C39.185 33.1704 37.4009 32.5673 36.0991 32.0965L35.9291 32.5667ZM40.9725 33.9387C42.8552 34.2197 44.8591 34.1702 46.5358 33.3029L46.3061 32.8588C44.7636 33.6567 42.8824 33.7182 41.0463 33.4442L40.9725 33.9387ZM46.535 33.3034C47.7278 32.6921 48.4196 31.5517 48.7641 30.3065C49.1086 29.0614 49.1147 27.6843 48.9151 26.5439L48.4226 26.6301C48.6116 27.7099 48.6038 29.0108 48.2822 30.1732C47.9607 31.3354 47.3343 32.3319 46.307 32.8584L46.535 33.3034ZM48.9152 26.5445C48.775 25.731 48.5284 24.7853 48.3194 23.8706C48.1079 22.9448 47.9331 22.0445 47.9198 21.2821L47.4198 21.2908C47.4342 22.1103 47.6203 23.0555 47.8319 23.982C48.0462 24.9198 48.2852 25.8334 48.4225 26.6295L48.9152 26.5445ZM47.9198 21.2842C47.8923 18.2561 48.5264 14.0048 49.138 10.0015L48.6437 9.92602C48.0343 13.9152 47.3918 18.2115 47.4198 21.2887L47.9198 21.2842ZM49.1381 10.0007C49.5818 7.03389 50.0542 4.03252 50.4431 1.03214L49.9473 0.967861C49.5592 3.96183 49.088 6.95482 48.6436 9.92681L49.1381 10.0007ZM50.161 1.24766L50.9658 1.35866L51.0342 0.863351L50.2294 0.752345L50.161 1.24766ZM50.7521 1.07887C50.3639 4.07309 49.9203 7.06782 49.4488 10.0356L49.9426 10.114C50.4146 7.1429 50.859 4.14328 51.2479 1.14314L50.7521 1.07887ZM49.4486 10.0368C48.8392 13.9979 48.1966 18.2668 48.2246 21.261L48.7246 21.2564C48.6971 18.3118 49.3311 14.0886 49.9428 10.1128L49.4486 10.0368ZM48.2246 21.2634C48.2391 22.0279 48.4255 22.9532 48.6333 23.864C48.8437 24.7866 49.0759 25.6938 49.1991 26.4602L49.6927 26.3808C49.5661 25.5931 49.3265 24.6548 49.1207 23.7528C48.9122 22.8389 48.7379 21.9604 48.7245 21.254L48.2246 21.2634ZM49.1995 26.4629C49.4161 27.7217 49.3878 29.1874 48.9949 30.4939C48.6024 31.7988 47.853 32.9261 46.6393 33.5525L46.8686 33.9968C48.2359 33.2912 49.0544 32.0318 49.4737 30.6379C49.8925 29.2456 49.9197 27.7002 49.6923 26.3781L49.1995 26.4629ZM46.6394 33.5525C44.9298 34.434 42.8813 34.4953 40.905 34.2209L40.8363 34.7161C42.8562 34.9966 45.0259 34.947 46.8686 33.9969L46.6394 33.5525ZM40.9055 34.2209C38.963 33.9473 37.1244 33.317 35.7966 32.8191L35.6211 33.2872C36.9574 33.7884 38.8375 34.4346 40.8358 34.716L40.9055 34.2209ZM35.7954 32.8186C32.3514 31.5483 29.7132 31.6069 26.226 32.7037L26.376 33.1806C29.7713 32.1128 32.2949 32.0604 35.6223 33.2877L35.7954 32.8186ZM26.2267 32.7035C24.0869 33.3704 22.529 33.8989 21.3036 34.3445L21.4744 34.8144C22.6911 34.372 24.2415 33.8459 26.3754 33.1808L26.2267 32.7035ZM21.307 34.3433C19.6269 34.9265 18.4339 35.3071 17.2329 35.4767C16.0373 35.6456 14.8219 35.6067 13.103 35.3317L13.024 35.8254C14.774 36.1054 16.0424 36.1498 17.3028 35.9718C18.5579 35.7945 19.7932 35.398 21.471 34.8157L21.307 34.3433ZM13.1057 35.3321C12.1392 35.1664 11.0329 34.9452 9.72983 34.668L9.62578 35.157C10.9314 35.4348 12.0452 35.6576 13.0213 35.8249L13.1057 35.3321ZM9.6199 34.6693L9.03712 34.8081L9.15293 35.2945L9.73571 35.1557L9.6199 34.6693ZM9.03318 34.809C7.72246 35.1437 6.37569 35.464 5.14819 35.3572L5.10487 35.8554C6.43052 35.9706 7.85894 35.6249 9.15687 35.2935L9.03318 34.809ZM5.14819 35.3572C3.93793 35.252 2.82809 34.6726 2.00631 33.7978L1.64188 34.1401C2.5407 35.0969 3.76198 35.7386 5.10487 35.8554L5.14819 35.3572ZM2.00476 33.7961C1.41535 33.1799 1.08239 32.4745 1.33726 31.7794L0.867823 31.6072C0.512162 32.5772 1.01176 33.4814 1.64343 34.1418L2.00476 33.7961ZM1.33466 31.7862C1.48409 31.4126 1.76058 31.0063 2.24991 30.6458L1.95331 30.2432C1.38808 30.6597 1.05402 31.1415 0.870423 31.6005L1.33466 31.7862ZM2.24391 30.65C2.89033 30.2025 3.50824 30.1673 4.52355 30.2496L4.56396 29.7513C3.52564 29.6671 2.75597 29.6874 1.95931 30.2389L2.24391 30.65ZM4.51918 30.2492C5.09724 30.3063 5.52917 30.29 5.88478 30.2192C6.24355 30.1477 6.51191 30.0232 6.76217 29.8815C7.25247 29.6039 7.65615 29.2761 8.62444 29.0506L8.51104 28.5637C7.45346 28.8099 6.96909 29.1898 6.51583 29.4464C6.29431 29.5718 6.07702 29.6711 5.7871 29.7288C5.49401 29.7872 5.11421 29.8056 4.56832 29.7517L4.51918 30.2492ZM8.62837 29.0497C9.22229 28.9012 9.8593 28.8196 10.4978 28.7359C11.129 28.6531 11.7649 28.5679 12.3266 28.4095L12.1908 27.9282C11.6702 28.0751 11.0711 28.1564 10.4327 28.2401C9.80157 28.3229 9.13426 28.4078 8.50711 28.5646L8.62837 29.0497ZM12.3263 28.4095C13.6094 28.0491 14.8478 27.2475 15.9876 26.3384C17.127 25.4297 18.1939 24.3914 19.1152 23.5527L18.7786 23.183C17.8405 24.0371 16.7982 25.0524 15.6759 25.9475C14.5539 26.8424 13.3779 27.5948 12.1911 27.9282L12.3263 28.4095ZM19.1147 23.5531C21.1769 21.686 23.1889 19.7285 25.4809 17.9889L25.1786 17.5906C22.8638 19.3476 20.824 21.331 18.7791 23.1825L19.1147 23.5531ZM25.4808 17.9889C26.2782 17.384 27.2164 16.7886 28.151 16.1585C29.0781 15.5334 29.9967 14.8774 30.7221 14.1663L30.372 13.8092C29.682 14.4857 28.7967 15.1201 27.8715 15.7439C26.9537 16.3627 25.9908 16.9744 25.1786 17.5906L25.4808 17.9889ZM30.7238 14.1645C31.2051 13.6833 31.6106 13.193 31.9034 12.6661L31.4663 12.4233C31.204 12.8954 30.8326 13.3487 30.3703 13.811L30.7238 14.1645ZM31.9017 12.669C32.2447 12.0707 32.5323 11.2313 32.7806 10.2774C33.0299 9.31958 33.2438 8.22937 33.4333 7.11971C33.623 6.0097 33.789 4.87589 33.942 3.83134C34.0953 2.78483 34.2351 1.83048 34.373 1.07247L33.881 0.98303C33.7413 1.75137 33.6002 2.71534 33.4473 3.75888C33.2942 4.80437 33.1289 5.93232 32.9405 7.03551C32.7519 8.13904 32.5409 9.21345 32.2967 10.1514C32.0515 11.0933 31.7772 11.8809 31.468 12.4204L31.9017 12.669ZM34.0845 1.27412L34.8893 1.41287L34.9743 0.920144L34.1695 0.781386L34.0845 1.27412ZM34.6859 1.1216C34.5392 1.92471 34.3946 2.91306 34.2387 3.97563C34.0825 5.04019 33.9147 6.18178 33.7211 7.29854C33.3314 9.54648 32.8441 11.6449 32.163 12.8068L32.5943 13.0596C33.3285 11.8071 33.8264 9.6179 34.2137 7.38396C34.4087 6.25977 34.5773 5.11185 34.7334 4.04821C34.8897 2.98258 35.033 2.00403 35.1777 1.21142L34.6859 1.1216ZM32.1643 12.8046C31.8426 13.3406 31.4384 13.8535 30.9483 14.3709L31.3113 14.7147C31.8203 14.1775 32.2486 13.6359 32.593 13.0618L32.1643 12.8046ZM30.953 14.366C30.2359 15.0832 29.3444 15.7241 28.4128 16.3508C27.4886 16.9728 26.5179 17.5851 25.6772 18.2296L25.9814 18.6264C26.8057 17.9944 27.7499 17.3995 28.6919 16.7657C29.6267 16.1367 30.5529 15.4733 31.3066 14.7196L30.953 14.366ZM25.6773 18.2295C23.4195 19.9577 21.3783 21.942 19.3355 23.764L19.6683 24.1372C21.7327 22.296 23.7432 20.3396 25.9812 18.6265L25.6773 18.2295ZM19.3344 23.765C18.3264 24.675 17.2225 25.7452 16.0314 26.6781C14.8412 27.6103 13.5906 28.383 12.3091 28.7034L12.4304 29.1884C13.813 28.8428 15.1294 28.0197 16.3397 27.0717C17.5492 26.1245 18.6793 25.03 19.6694 24.1362L19.3344 23.765ZM12.3091 28.7034C11.7695 28.8383 11.1863 28.9199 10.5737 29.0035C9.96574 29.0864 9.32988 29.171 8.7066 29.3127L8.81741 29.8002C9.4152 29.6644 10.0282 29.5825 10.6413 29.4989C11.2497 29.4159 11.8599 29.3311 12.4304 29.1884L12.3091 28.7034ZM8.70137 29.3139C8.12848 29.4571 7.6977 29.6294 7.38197 29.7729L7.58887 30.2281C7.88367 30.094 8.28546 29.9333 8.82264 29.799L8.70137 29.3139ZM7.3512 29.7895C6.75008 30.1721 6.09076 30.5872 5.66781 31.2216L6.08384 31.499C6.43794 30.9678 6.99968 30.6059 7.61964 30.2114L7.3512 29.7895ZM5.55241 30.6109C4.83057 30.5832 3.9939 30.5553 3.23942 30.5553V31.0553C3.98354 31.0553 4.81195 31.0828 5.5332 31.1106L5.55241 30.6109ZM3.23942 30.5553C2.9532 30.5553 2.6368 30.709 2.38967 30.8925C2.14103 31.077 1.90131 31.3371 1.80893 31.6143L2.28328 31.7724C2.32966 31.6332 2.47846 31.4493 2.68772 31.2939C2.89849 31.1374 3.10937 31.0553 3.23942 31.0553V30.5553ZM1.79713 31.7159C1.80618 31.8154 1.85905 31.887 1.90823 31.9314C1.95538 31.9739 2.00937 32.0016 2.05502 32.0203C2.14668 32.058 2.25981 32.0819 2.37393 32.0985C2.60645 32.1324 2.90766 32.1445 3.20821 32.1445C3.51102 32.1445 3.82289 32.1321 4.08085 32.1144C4.33002 32.0973 4.55164 32.0739 4.65989 32.0469L4.53862 31.5618C4.48037 31.5763 4.30306 31.598 4.04663 31.6156C3.79899 31.6326 3.49858 31.6445 3.20821 31.6445C2.91556 31.6445 2.64266 31.6324 2.4459 31.6038C2.34537 31.5891 2.28006 31.5723 2.24522 31.5579C2.22761 31.5507 2.23133 31.5495 2.24316 31.5602C2.25701 31.5727 2.2895 31.6093 2.29508 31.6707L1.79713 31.7159ZM4.66367 32.0459C4.93935 31.9724 5.1732 31.7792 5.35016 31.5834C5.53061 31.3838 5.67463 31.1561 5.76641 30.9726L5.3192 30.749C5.24447 30.8984 5.12486 31.087 4.97922 31.2482C4.83011 31.4131 4.67544 31.5253 4.53484 31.5628L4.66367 32.0459ZM45.5754 13.3806L44.7706 13.2419L44.6856 13.7346L45.4904 13.8734L45.5754 13.3806ZM44.4816 13.4469C44.107 15.6803 43.7758 17.3756 43.4362 18.5933C43.2665 19.202 43.0967 19.6837 42.9219 20.0501C42.7459 20.4193 42.5733 20.6532 42.4073 20.786L42.7197 21.1764C42.97 20.9761 43.1824 20.6654 43.3732 20.2653C43.5653 19.8625 43.7442 19.3504 43.9178 18.7276C44.2651 17.4823 44.5999 15.7642 44.9747 13.5296L44.4816 13.4469ZM42.4064 20.7867C42.2831 20.8863 42.1464 20.9246 41.9702 20.9015C41.7824 20.877 41.5466 20.7816 41.2495 20.5958C40.6545 20.2235 39.8955 19.5415 38.908 18.5818L38.5595 18.9403C39.5424 19.8955 40.3375 20.6149 40.9843 21.0197C41.3083 21.2223 41.6153 21.3594 41.9054 21.3973C42.207 21.4367 42.4831 21.3675 42.7206 21.1757L42.4064 20.7867ZM38.557 18.5843L37.9742 19.1671L38.3278 19.5206L38.9105 18.9378L38.557 18.5843ZM37.9764 19.5228C39.1269 20.6456 40.0878 21.4759 40.9199 21.9011C41.3393 22.1153 41.7425 22.2356 42.1326 22.228C42.5284 22.2203 42.8898 22.0813 43.2203 21.8138L42.9057 21.4252C42.6535 21.6294 42.3974 21.7228 42.1229 21.7281C41.8425 21.7336 41.5224 21.6474 41.1474 21.4558C40.3908 21.0692 39.4784 20.29 38.3256 19.1649L37.9764 19.5228ZM43.2147 21.8182C43.8115 21.3627 44.2524 20.4652 44.6417 19.1512C45.035 17.8238 45.3909 16.0136 45.7796 13.6679L45.2863 13.5861C44.8979 15.9305 44.5461 17.714 44.1623 19.0092C43.7746 20.3177 43.3691 21.0714 42.9114 21.4207L43.2147 21.8182ZM9.57638 28.7513C8.67355 29.4794 8.15181 30.3247 7.75196 31.3529L8.21796 31.5342C8.59516 30.5642 9.07247 29.8 9.89025 29.1405L9.57638 28.7513ZM8.01475 31.1953L7.32096 31.1121L7.26139 31.6085L7.95518 31.6918L8.01475 31.1953ZM7.52834 31.4393C7.64378 31.093 7.90173 30.5936 8.21236 30.1378C8.36669 29.9113 8.53048 29.7009 8.69127 29.5291C8.85446 29.3548 9.00373 29.2321 9.1274 29.1675L8.89612 28.7243C8.70065 28.8262 8.5065 28.9949 8.32626 29.1874C8.14362 29.3825 7.96399 29.6144 7.79918 29.8562C7.47153 30.337 7.18833 30.8783 7.054 31.2812L7.52834 31.4393ZM9.01176 29.1959H9.73331V28.6959H9.01176V29.1959Z" fill="url(#paint2_linear)"/>
<defs>
<linearGradient id="paint0_linear" x1="-25.648" y1="35.8278" x2="51.2505" y2="35.8278" gradientUnits="userSpaceOnUse">
<stop stop-color="#3E65E4"/>
<stop offset="1" stop-color="#2D8DE4"/>
</linearGradient>
<linearGradient id="paint1_linear" x1="-25.648" y1="35.8278" x2="51.2505" y2="35.8278" gradientUnits="userSpaceOnUse">
<stop stop-color="#3E65E4"/>
<stop offset="1" stop-color="#2D8DE4"/>
</linearGradient>
<linearGradient id="paint2_linear" x1="-25.648" y1="35.8278" x2="51.2505" y2="35.8278" gradientUnits="userSpaceOnUse">
<stop stop-color="#3E65E4"/>
<stop offset="1" stop-color="#2D8DE4"/>
</linearGradient>
</defs>
</svg>
