<svg width="50" height="35" viewBox="0 0 50 35" fill="none" xmlns="http://www.w3.org/2000/svg">
<path fill-rule="evenodd" clip-rule="evenodd" d="M26.2487 0.249747C26.2487 0.277495 26.7759 6.16026 25.888 8.49116C25.3885 9.85086 25.444 13.042 25.4995 15.4839C25.5272 16.9268 25.555 18.1478 25.444 18.6472C25.1942 19.8959 25.777 23.2258 25.777 23.2258V23.3368L25.6105 26.0285C25.555 27.0274 25.5827 28.6368 25.888 30.052C26.4429 32.6327 27.4419 33.6316 30.4388 33.3819C31.8817 33.2709 33.5467 32.6604 33.7409 31.051C33.7686 30.718 33.7686 30.3573 33.7131 29.9688C33.6021 29.2751 33.5189 28.5536 33.4356 27.8876C33.2692 26.4724 33.1027 25.2792 32.8529 24.6132C32.3257 23.2536 32.3257 21.5609 32.5199 20.7007C32.5754 20.3954 32.6864 20.1457 32.7974 20.0347C33.0472 19.7849 33.2692 19.8404 33.4356 20.2567C33.5744 20.5897 33.6854 21.4221 33.7409 22.8651L33.7964 25.0572C33.8519 25.529 34.1849 29.6913 34.6011 31.4117C34.8508 32.4939 35.7111 32.8269 36.821 32.7714C37.4037 32.7437 37.9587 32.5217 38.375 32.0499C38.6524 31.717 38.7357 31.5227 38.7634 31.0787C38.7912 30.8567 38.7912 30.607 38.7634 30.3295C38.7912 28.8588 38.1807 25.4457 38.0697 24.8352C37.8477 23.5588 37.6535 22.5321 37.7367 21.5331C37.82 21.3944 38.1252 21.3389 38.264 21.5331C38.5137 22.5043 38.4859 22.8373 38.4027 23.8085C38.4027 23.8085 38.5414 24.641 38.5692 24.7243C38.7912 25.973 39.0687 27.4991 39.1797 29.4416C39.1797 29.6635 39.2074 29.9688 39.3739 30.1353C39.5127 30.274 39.7624 30.385 40.0399 30.4405C40.3451 30.496 40.6781 30.496 41.0111 30.4128C42.4818 30.1908 42.454 29.0531 42.454 27.8599C42.3985 27.8599 42.2875 25.6122 42.2598 25.3347C42.1488 24.3635 42.0101 23.5311 41.8713 22.7818C41.6493 21.5609 41.4828 20.5897 41.6216 19.7017C41.7603 19.5075 41.9823 19.4797 42.1211 19.7017C42.3708 20.6729 42.343 21.0059 42.2598 21.9771C42.2321 21.9771 42.343 22.6153 42.3708 22.6986C42.565 23.8918 42.8148 25.307 42.898 27.1384L42.9258 27.1939C43.009 27.3326 43.1755 27.4436 43.3975 27.5269C43.6472 27.6101 43.9247 27.6656 44.23 27.6656C44.7294 27.6379 45.1179 27.4436 45.3677 27.1106C44.4797 27.3326 43.9802 27.2494 43.1755 27.1106C43.0645 26.7222 43.0368 26.3337 43.0645 25.9452C43.0923 25.5845 43.12 25.085 43.5085 24.9462C43.7582 24.863 44.1467 24.8075 44.2577 24.7798C44.6184 24.752 45.0069 24.8075 45.2567 24.9462C45.3677 25.0017 45.4509 25.085 45.5064 25.1682C45.6174 25.3625 45.7007 25.7232 45.7284 26.0839C45.7284 26.1949 45.7284 26.3337 45.7284 26.4447C45.7839 26.3059 45.8117 26.1672 45.8672 26.0285C46.0614 25.1682 46.0336 24.1415 45.9504 23.309C45.5342 20.2289 45.1734 18.8692 44.4519 16.5106C44.7572 16.4551 44.9792 16.5661 45.2012 17.3708C45.7007 19.119 46.1446 21.1446 46.2556 22.8096C46.6719 23.2258 46.9771 23.3091 47.5876 23.2258C47.9761 23.1703 48.3646 22.9761 48.642 22.6986C48.1703 22.9483 47.3933 22.8928 46.8384 22.7541C46.6164 22.6986 46.5331 22.5876 46.5331 22.3656C46.5331 22.0326 46.5331 21.6996 46.5609 21.3666C46.5886 21.1724 46.6164 20.9781 46.6719 20.8672C46.7274 20.7562 46.8106 20.7007 46.9216 20.6452C47.3101 20.4787 48.1426 20.4787 48.531 20.6452C48.9195 20.8117 48.9473 21.2001 48.975 21.5609C49.308 20.2289 49.1138 18.12 48.6975 16.8713C48.2258 15.5394 48.5588 13.5137 48.5033 12.043C48.4755 11.0996 48.3645 10.2393 48.198 9.37913C47.9483 8.15818 47.5876 6.93723 47.2546 5.71628C46.6719 3.74611 46.2279 2.21992 46.1446 0.027759H46.3111L46.8106 0H46.9771C47.0604 2.08117 47.5043 3.55187 48.0593 5.49429C48.42 6.71524 48.7808 7.96393 49.0305 9.21263C49.197 10.1006 49.3358 11.0163 49.3635 11.9875C49.419 13.3195 49.1138 15.4284 49.5022 16.5938C50.0017 18.0368 50.196 20.4232 49.752 21.9494C49.4745 22.9483 48.7253 23.6975 47.6431 23.864C47.2268 23.9195 46.8106 23.864 46.4221 23.6975C46.5054 24.53 46.5054 25.307 46.3111 26.1394C45.9504 27.6656 44.9792 28.7478 42.9535 28.0264C42.9535 28.9143 43.009 29.497 42.565 30.163C41.9546 31.0787 40.3174 31.3007 39.4017 30.829C39.4017 32.2442 38.264 33.2709 36.8488 33.3541C35.6556 33.4374 34.4901 32.9657 34.1294 31.8002C33.6576 33.2432 31.8817 33.8814 30.522 33.9924C27.5529 34.2421 25.7215 33.2154 25.1387 30.163C24.8335 28.6646 24.778 26.9442 24.8613 25.9174L25.0277 23.2813C24.9445 22.8373 24.445 19.7294 24.6948 18.453C24.778 18.009 24.7503 16.8436 24.7225 15.4561C24.667 12.931 24.5838 9.65661 25.1387 8.15817C25.9435 5.96601 25.444 0.277495 25.444 0.249747L25.6105 0.222004L26.11 0.166503L26.2487 0.249747ZM32.9917 20.8117C32.8252 21.5886 32.8252 23.0871 33.2692 24.308L33.2414 22.8651C33.2137 21.7274 33.1304 21.0336 33.0472 20.6452C33.0194 20.7284 33.0194 20.7562 32.9917 20.8117ZM43.564 26.7499C43.8415 26.8054 44.3964 26.8887 45.2289 26.6944C45.2289 26.6112 45.2289 26.4169 45.2289 26.1949C45.2012 25.9174 45.1457 25.6122 45.0902 25.5012C44.9237 25.2515 43.897 25.3347 43.675 25.4735C43.5085 25.751 43.5085 26.4447 43.564 26.7499ZM27.5251 30.3018C27.5806 31.2452 27.3586 31.939 28.5796 31.9945C28.8848 32.0222 29.5508 32.0222 30.3833 31.9945C31.3267 31.9667 32.3257 31.8557 32.6032 31.606C32.7697 31.4672 32.8529 31.273 32.8529 30.9955C32.8529 30.5238 32.7974 29.7468 32.6864 29.0531C32.6032 28.5258 32.4644 27.9709 32.298 27.7211C32.187 27.5546 32.0482 27.4436 31.8817 27.3326C31.3545 27.0551 30.5498 26.9996 29.7728 27.0551C28.9958 27.1106 28.2744 27.3049 27.9414 27.5269C27.8304 27.5824 27.7749 27.6656 27.7194 27.7489C27.4419 28.2761 27.4974 29.3861 27.5251 30.3018ZM28.0246 30.274C28.0524 31.0232 27.8026 31.4672 28.6074 31.495C28.8848 31.5227 29.5231 31.5227 30.3555 31.495C31.2435 31.4672 32.1315 31.384 32.3257 31.2175C32.3812 31.1897 32.3812 31.1065 32.3812 30.9955C32.3812 30.5515 32.3257 29.8023 32.2147 29.1363C32.1315 28.6646 32.0205 28.2484 31.9095 28.0541C31.854 27.9709 31.7707 27.8876 31.6597 27.8321C31.2435 27.6101 30.4943 27.5546 29.8283 27.6101C27.6639 27.8044 27.9414 28.2761 28.0246 30.274ZM35.5168 29.6358C35.3226 29.7468 35.2671 29.941 35.2116 30.1353C35.1006 30.607 35.1561 31.2452 35.1838 31.6337C35.2393 31.828 35.2671 31.939 35.3226 31.9945C35.5168 32.161 36.4325 32.1887 36.5713 32.1887C36.9043 32.1887 37.2927 32.1609 37.7367 32.0499C37.8477 32.0222 37.9865 32.0222 38.0975 31.939C38.2362 31.8002 38.264 31.3562 38.2362 30.8845C38.1807 30.4683 38.0975 29.9965 37.9587 29.7745C37.9032 29.6636 37.82 29.608 37.709 29.5248C37.4315 29.3583 36.9598 29.3028 36.5435 29.3583C36.0995 29.4138 35.7111 29.4971 35.5168 29.6358ZM35.6556 30.5515C35.6556 30.6903 35.6278 31.495 35.7388 31.606C35.8776 31.7725 36.2938 31.6892 36.599 31.6892C36.932 31.6892 37.3205 31.6615 37.7922 31.5505C37.7922 31.4672 37.7922 31.2175 37.7645 30.94C37.7367 30.5793 37.6535 30.1908 37.5425 30.052C37.5147 30.0243 37.487 29.9965 37.4592 29.9688C37.265 29.8578 36.932 29.83 36.599 29.8578C36.266 29.8855 35.9608 29.9688 35.8221 30.052C35.7111 30.163 35.6556 30.3295 35.6556 30.5515ZM39.3184 28.4148C39.2907 28.7756 39.3184 29.1086 39.3462 29.4693C39.3462 29.4693 39.3739 29.6081 39.3739 29.6358C39.4849 30.1075 40.5394 30.052 40.8169 30.0243C41.1498 29.9965 41.7048 29.9688 41.9823 29.7745C42.0933 29.6358 42.121 29.2196 42.0933 28.7756C42.0655 28.3871 41.9546 27.9431 41.8436 27.7211C41.7881 27.6101 41.6771 27.4991 41.5383 27.4436C41.2886 27.3049 40.9001 27.2771 40.5394 27.3049C40.2896 27.3326 39.6236 27.4159 39.4572 27.7211C39.4017 27.8876 39.3462 28.1374 39.3184 28.4148ZM39.8179 28.4426C39.7901 28.7478 39.8179 29.0808 39.8456 29.3028C39.8734 29.6358 40.5394 29.5248 40.8169 29.4971C41.0666 29.4971 41.3441 29.4416 41.6493 29.3583C41.6493 29.2751 41.6493 29.0253 41.6216 28.7756C41.5938 28.4426 41.5106 28.0819 41.4273 27.9154C41.3441 27.7766 40.7336 27.7489 40.5949 27.7489C40.3174 27.7766 40.0399 27.8321 39.9011 27.9154C39.7901 28.0264 39.8179 28.3871 39.8179 28.4426ZM47.0326 22.3656C47.0326 22.4211 48.1426 22.6153 48.4478 22.3101C48.5033 22.2268 48.531 22.0604 48.531 21.8661C48.531 21.6164 48.5033 21.3666 48.4478 21.2001C48.4478 21.2001 48.42 21.2001 48.3923 21.1724C48.1148 21.0614 47.4211 21.0614 47.1436 21.1724C47.0603 21.1724 47.0326 22.2824 47.0326 22.3656Z" fill="url(#paint0_linear)"/>
<path fill-rule="evenodd" clip-rule="evenodd" d="M23.7513 0.249747C23.7513 0.277495 23.2241 6.16026 24.112 8.49116C24.6115 9.85086 24.556 13.042 24.5005 15.4839C24.4728 16.9268 24.445 18.1478 24.556 18.6472C24.8057 19.8959 24.223 23.2258 24.223 23.2258V23.3368L24.3895 26.0285C24.445 27.0274 24.4173 28.6368 24.112 30.052C23.5571 32.6327 22.5581 33.6316 19.5612 33.3819C18.1183 33.2709 16.4533 32.6604 16.2591 31.051C16.2314 30.718 16.2313 30.3573 16.2868 29.9688C16.3978 29.2751 16.4811 28.5536 16.5643 27.8876C16.7308 26.4724 16.8973 25.2792 17.1471 24.6132C17.6743 23.2536 17.6743 21.5609 17.48 20.7007C17.4245 20.3954 17.3135 20.1457 17.2026 20.0347C16.9528 19.7849 16.7308 19.8404 16.5643 20.2567C16.4256 20.5897 16.3146 21.4221 16.2591 22.8651L16.2036 25.0572C16.1481 25.529 15.8151 29.6913 15.3989 31.4117C15.1491 32.4939 14.2889 32.8269 13.179 32.7714C12.5962 32.7437 12.0413 32.5217 11.625 32.0499C11.3475 31.717 11.2643 31.5227 11.2365 31.0787C11.2088 30.8567 11.2088 30.607 11.2365 30.3295C11.2088 28.8588 11.8193 25.4457 11.9303 24.8352C12.1523 23.5588 12.3465 22.5321 12.2633 21.5331C12.18 21.3944 11.8748 21.3389 11.736 21.5331C11.4863 22.5043 11.514 22.8373 11.5973 23.8085C11.5973 23.8085 11.4585 24.641 11.4308 24.7243C11.2088 25.973 10.9313 27.4991 10.8203 29.4416C10.8203 29.6635 10.7926 29.9688 10.6261 30.1353C10.4873 30.274 10.2376 30.385 9.96011 30.4405C9.65487 30.496 9.32188 30.496 8.9889 30.4128C7.51821 30.1908 7.54595 29.0531 7.54595 27.8599C7.60145 27.8599 7.71245 25.6122 7.7402 25.3347C7.85119 24.3635 7.98994 23.5311 8.12869 22.7818C8.35068 21.5609 8.51716 20.5897 8.37842 19.7017C8.23967 19.5075 8.01769 19.4797 7.87894 19.7017C7.6292 20.6729 7.65695 21.0059 7.7402 21.9771C7.76795 21.9771 7.65694 22.6153 7.62919 22.6986C7.43495 23.8918 7.18522 25.307 7.10198 27.1384L7.07422 27.1939C6.99097 27.3326 6.82449 27.4436 6.6025 27.5269C6.35276 27.6101 6.07527 27.6656 5.77003 27.6656C5.27055 27.6379 4.88206 27.4436 4.63232 27.1106C5.52028 27.3326 6.01977 27.2494 6.82449 27.1106C6.93548 26.7222 6.96322 26.3337 6.93547 25.9452C6.90772 25.5845 6.87998 25.085 6.4915 24.9462C6.24176 24.863 5.85327 24.8075 5.74227 24.7798C5.38154 24.752 4.99306 24.8075 4.74332 24.9462C4.63233 25.0017 4.54907 25.085 4.49358 25.1682C4.38258 25.3625 4.29934 25.7232 4.27159 26.0839C4.27159 26.1949 4.27159 26.3337 4.27159 26.4447C4.21609 26.3059 4.18834 26.1672 4.13284 26.0285C3.9386 25.1682 3.96635 24.1415 4.0496 23.309C4.46583 20.2289 4.82656 18.8692 5.54803 16.5106C5.24279 16.4551 5.02081 16.5661 4.79882 17.3708C4.29934 19.119 3.85535 21.1446 3.74435 22.8096C3.32812 23.2258 3.02289 23.3091 2.41241 23.2258C2.02393 23.1703 1.63545 22.9761 1.35796 22.6986C1.82969 22.9483 2.60666 22.8928 3.16163 22.7541C3.38362 22.6986 3.46686 22.5876 3.46686 22.3656C3.46686 22.0326 3.46687 21.6996 3.43912 21.3666C3.41137 21.1724 3.38362 20.9781 3.32812 20.8672C3.27262 20.7562 3.18939 20.7007 3.07839 20.6452C2.68991 20.4787 1.85744 20.4787 1.46896 20.6452C1.08048 20.8117 1.05272 21.2001 1.02497 21.5609C0.691981 20.2289 0.886223 18.12 1.30246 16.8713C1.77419 15.5394 1.4412 13.5137 1.4967 12.043C1.52445 11.0996 1.63544 10.2393 1.80193 9.37913C2.05167 8.15818 2.41241 6.93723 2.7454 5.71628C3.32813 3.74611 3.77211 2.21992 3.85536 0.027759H3.68887L3.18938 0H3.02289C2.93964 2.08117 2.49565 3.55187 1.94068 5.49429C1.57994 6.71524 1.21921 7.96393 0.969466 9.21263C0.802973 10.1006 0.664242 11.0163 0.636493 11.9875C0.580996 13.3195 0.886233 15.4284 0.497749 16.5938C-0.00173067 18.0368 -0.19598 20.4232 0.248002 21.9494C0.525491 22.9483 1.2747 23.6975 2.35691 23.864C2.77314 23.9195 3.18938 23.864 3.57787 23.6975C3.49462 24.53 3.49463 25.307 3.68887 26.1394C4.0496 27.6656 5.02081 28.7478 7.04647 28.0264C7.04647 28.9143 6.99098 29.497 7.43497 30.163C8.04544 31.0787 9.68261 31.3007 10.5983 30.829C10.5983 32.2442 11.736 33.2709 13.1512 33.3541C14.3444 33.4374 15.5099 32.9657 15.8706 31.8002C16.3423 33.2432 18.1183 33.8814 19.478 33.9924C22.4471 34.2421 24.2785 33.2154 24.8613 30.163C25.1665 28.6646 25.1942 26.9442 25.1387 25.9174L24.9722 23.2813C25.0555 22.8373 25.555 19.7294 25.3052 18.453C25.222 18.009 25.2497 16.8436 25.2775 15.4561C25.333 12.931 25.4162 9.65661 24.8335 8.15817C24.0288 5.96601 24.5283 0.277495 24.5283 0.249747L24.3618 0.222004L23.8623 0.166503L23.7513 0.249747ZM17.0083 20.8117C17.1748 21.5886 17.1748 23.0871 16.7308 24.308L16.7586 22.8651C16.7863 21.7274 16.8696 21.0336 16.9528 20.6452C16.9806 20.7284 16.9806 20.7562 17.0083 20.8117ZM6.436 26.7499C6.15851 26.8054 5.60353 26.8887 4.77106 26.6944C4.77106 26.6112 4.77106 26.4169 4.77106 26.1949C4.79881 25.9174 4.85431 25.6122 4.90981 25.5012C5.0763 25.2515 6.10302 25.3347 6.32501 25.4735C6.4915 25.751 6.49149 26.4447 6.436 26.7499ZM22.4748 30.3018C22.4193 31.2452 22.6413 31.939 21.4204 31.9945C21.1151 32.0222 20.4492 32.0222 19.6167 31.9945C18.6732 31.9667 17.6743 31.8557 17.3968 31.606C17.2303 31.4672 17.1471 31.273 17.1471 30.9955C17.1471 30.5238 17.2026 29.7468 17.3136 29.0531C17.4246 28.4426 17.5356 27.6379 18.1183 27.3049C18.6455 27.0274 19.4502 26.9719 20.2272 27.0274C22.6691 27.2494 22.5858 27.9431 22.4748 30.3018ZM21.9754 30.274C21.9476 31.0232 22.1974 31.4672 21.3926 31.495C21.1152 31.5227 20.4769 31.5227 19.6445 31.495C18.7565 31.4672 17.8685 31.384 17.6743 31.2175C17.6188 31.1897 17.6188 31.1065 17.6188 30.9955C17.6188 30.5515 17.6743 29.8023 17.7853 29.1363C17.8685 28.7201 17.924 28.0819 18.3403 27.8321C18.7565 27.6101 19.5057 27.5546 20.1717 27.6101C22.3361 27.8044 22.0864 28.1929 21.9754 30.274ZM14.4832 29.6358C14.6774 29.7468 14.7329 29.941 14.7884 30.1353C14.8994 30.607 14.8439 31.2452 14.8162 31.6337C14.7607 31.828 14.7329 31.939 14.6774 31.9945C14.4832 32.161 13.5675 32.1887 13.4287 32.1887C13.0957 32.1887 12.7072 32.1609 12.2633 32.0499C12.1523 32.0222 12.0135 32.0222 11.9025 31.939C11.7638 31.8002 11.736 31.3562 11.7638 30.8845C11.8193 30.4683 11.9025 29.9965 12.0413 29.7745C12.3188 29.3583 13.0125 29.3306 13.4565 29.3583C13.9004 29.4138 14.2889 29.4971 14.4832 29.6358ZM14.3444 30.5515C14.3444 30.6903 14.3722 31.495 14.2612 31.606C14.1224 31.7725 13.6785 31.6892 13.401 31.6892C13.068 31.6892 12.6795 31.6615 12.2078 31.5505C12.2078 31.4672 12.2078 31.2175 12.2355 30.94C12.2633 30.5793 12.3465 30.1908 12.4575 30.052C12.5962 29.83 13.2067 29.8578 13.401 29.8578C13.734 29.8855 14.0392 29.9688 14.1779 30.052C14.2889 30.163 14.3444 30.3295 14.3444 30.5515ZM10.6816 28.4148C10.7093 28.7756 10.6816 29.1086 10.6538 29.4693C10.6538 29.4693 10.6261 29.6081 10.6261 29.6358C10.5151 30.1075 9.46063 30.052 9.18314 30.0243C8.85015 29.9965 8.29517 29.9688 8.01769 29.7745C7.90669 29.6358 7.87893 29.2196 7.90668 28.7756C7.93443 28.3871 8.04543 27.9431 8.15643 27.7211C8.18418 27.6934 8.46166 27.4436 8.46166 27.4436C8.7114 27.3049 9.09989 27.2771 9.46063 27.3049C9.71037 27.3326 10.3763 27.4159 10.5428 27.7211C10.5983 27.8876 10.6538 28.1374 10.6816 28.4148ZM10.1821 28.4426C10.2098 28.7478 10.1821 29.0808 10.1544 29.3028C10.1266 29.6358 9.46063 29.5248 9.18314 29.4971C8.9334 29.4971 8.65591 29.4416 8.35067 29.3583C8.35067 29.2751 8.35067 29.0253 8.37842 28.7756C8.40617 28.4426 8.48942 28.0819 8.57266 27.9154C8.65591 27.7766 9.26638 27.7489 9.40513 27.7489C9.68262 27.7766 9.96011 27.8321 10.0989 27.9154C10.2098 28.0264 10.1821 28.3871 10.1821 28.4426ZM2.96739 22.3656C2.96739 22.4211 1.85744 22.6153 1.5522 22.3101C1.4967 22.2268 1.46896 22.0604 1.46896 21.8661C1.46896 21.6164 1.4967 21.3666 1.5522 21.2001C1.5522 21.2001 1.57995 21.2001 1.6077 21.1724C1.88519 21.0614 2.57891 21.0614 2.8564 21.1724C2.93965 21.1724 2.96739 22.2824 2.96739 22.3656Z" fill="url(#paint1_linear)"/>
<defs>
<linearGradient id="paint0_linear" x1="-26.648" y1="34.0283" x2="50.2505" y2="34.0283" gradientUnits="userSpaceOnUse">
<stop stop-color="#3E65E4"/>
<stop offset="1" stop-color="#2D8DE4"/>
</linearGradient>
<linearGradient id="paint1_linear" x1="-26.648" y1="34.0283" x2="50.2505" y2="34.0283" gradientUnits="userSpaceOnUse">
<stop stop-color="#3E65E4"/>
<stop offset="1" stop-color="#2D8DE4"/>
</linearGradient>
</defs>
</svg>
