<svg width="50" height="18" viewBox="0 0 50 18" fill="none" xmlns="http://www.w3.org/2000/svg">
<path fill-rule="evenodd" clip-rule="evenodd" d="M37.0329 12.3508C34.2854 12.1454 31.0758 11.7346 29.4838 14.5591C28.9702 15.4578 28.3283 16.4335 27.558 17.0755C26.7363 17.7944 25.7605 18.1539 24.6564 17.8201C22.6279 17.1782 21.5495 15.7659 20.3169 14.1482C19.3155 12.8387 18.6993 11.9143 16.9532 11.7603C15.8234 11.6575 14.899 12.017 13.8462 12.3508C12.3056 12.8387 11.4326 13.1212 10.5852 13.1468C9.50676 13.1725 8.50533 12.9157 7.58095 12.4792C6.73359 12.0684 5.9376 11.5035 5.24431 10.8872L4.31992 10.9386C3.49824 10.9899 2.77929 10.6818 2.086 10.1169C1.44406 9.57767 0.853475 8.80735 0.31425 7.8316C0.00612083 7.31806 -0.0452277 6.80451 0.0318045 6.39367C0.0831593 6.16257 0.160191 5.98283 0.288578 5.80309C0.673739 5.28954 1.34135 5.08413 1.98328 5.21252C2.4198 5.31522 2.85632 5.49496 3.24148 5.70038C4.19154 5.59767 5.32134 5.9058 6.55385 6.26528C6.88766 6.36799 7.24714 6.44503 7.58095 6.49638C9.32701 6.31664 11.0217 6.11122 12.6908 5.54632C15.1301 4.72464 17.1586 3.72323 19.7777 3.15832C22.0116 2.69613 24.7335 2.69613 27.2498 2.69613C31.2812 2.69613 36.1856 2.56774 40.1399 2.00284C43.2212 1.56633 46.9187 0.641935 50 0L49.923 0.744643C46.6876 1.43793 43.3239 2.31097 40.0372 2.77316C36.0829 3.31239 31.2555 3.44077 27.2498 3.44077C24.8875 3.44077 22.2427 3.4151 19.9318 3.90297C17.4154 4.41651 15.3098 5.44361 12.9475 6.26528C11.2785 6.83018 9.45541 7.08696 7.73502 7.21535C7.24715 7.39509 6.11734 7.62619 5.3727 7.4978C4.8078 7.42077 4.37127 7.13832 3.67798 6.72748C3.57527 7.11264 3.11309 7.62618 2.7536 7.80593C2.57386 7.88296 2.39412 7.93432 2.24005 7.88296C1.9576 7.80593 1.49542 7.52347 1.18729 7.16399C1.00755 6.95857 0.853472 6.65045 0.776439 6.368C0.648053 6.72748 0.699404 6.98425 0.981856 7.4978C1.39269 8.24245 1.9576 8.98709 2.62521 9.52631C3.11309 9.93715 3.67798 10.1939 4.31992 10.1682L5.55244 10.0912L5.78353 10.2966C6.42547 10.8872 7.17012 11.4008 7.94044 11.7859C8.76211 12.1711 9.66082 12.4022 10.5852 12.3765C11.5353 12.3508 12.7421 11.9143 13.6408 11.6319C14.822 11.2467 15.7977 10.8872 17.0559 11.0156C19.0587 11.221 19.8034 12.1968 20.9589 13.7117C22.0887 15.1753 23.0901 16.5362 24.9389 17.1268C25.7862 17.3836 26.4795 17.1011 27.1471 16.5362C27.8661 15.92 28.4567 15.0213 28.9189 14.2253C30.6906 11.067 34.08 11.4008 37.187 11.6319C40.9616 11.9143 44.9159 11.863 48.6905 11.94L48.5877 12.7617C44.6848 12.6076 40.8588 12.6333 37.0329 12.3508ZM3.75503 6.16257C4.60238 6.85586 5.86056 7.164 6.81063 6.88155C5.88624 6.67613 4.67941 6.21393 3.75503 6.16257ZM1.03321 5.85445C0.853472 6.05987 1.29 6.72748 1.44406 6.88155C1.70083 7.164 2.06032 7.39509 2.29141 7.47212C2.31709 7.47212 2.39412 7.47212 2.47116 7.42076C2.70225 7.29238 3.11309 6.77883 3.19012 6.52206C3.24148 6.29096 1.46973 5.36658 1.03321 5.85445Z" fill="white"/>
</svg>
