<svg width="52" height="20" viewBox="0 0 52 20" fill="none" xmlns="http://www.w3.org/2000/svg">
<path fill-rule="evenodd" clip-rule="evenodd" d="M38.0329 13.3508C35.2854 13.1454 32.0758 12.7346 30.4838 15.5591C29.9702 16.4578 29.3283 17.4335 28.558 18.0755C27.7363 18.7944 26.7605 19.1539 25.6564 18.8201C23.6279 18.1782 22.5495 16.7659 21.3169 15.1482C20.3155 13.8387 19.6993 12.9143 17.9532 12.7603C16.8234 12.6575 15.899 13.017 14.8462 13.3508C13.3056 13.8387 12.4326 14.1212 11.5852 14.1468C10.5068 14.1725 9.50533 13.9157 8.58095 13.4792C7.73359 13.0684 6.9376 12.5035 6.24431 11.8872L5.31992 11.9386C4.49824 11.9899 3.77929 11.6818 3.086 11.1169C2.44406 10.5777 1.85347 9.80735 1.31425 8.8316C1.00612 8.31806 0.954772 7.80451 1.0318 7.39367C1.08316 7.16257 1.16019 6.98283 1.28858 6.80309C1.67374 6.28954 2.34135 6.08413 2.98328 6.21252C3.4198 6.31522 3.85632 6.49497 4.24148 6.70038C5.19154 6.59767 6.32134 6.9058 7.55385 7.26528C7.88766 7.36799 8.24714 7.44503 8.58095 7.49638C10.327 7.31664 12.0217 7.11122 13.6908 6.54632C16.1301 5.72464 18.1586 4.72323 20.7777 4.15832C23.0116 3.69613 25.7335 3.69613 28.2498 3.69613C32.2812 3.69613 37.1856 3.56774 41.1399 3.00284C44.2212 2.56633 47.9187 1.64193 51 1L50.923 1.74464C47.6876 2.43793 44.3239 3.31097 41.0372 3.77316C37.0829 4.31239 32.2555 4.44077 28.2498 4.44077C25.8875 4.44077 23.2427 4.4151 20.9318 4.90297C18.4154 5.41651 16.3098 6.44361 13.9475 7.26528C12.2785 7.83018 10.4554 8.08696 8.73502 8.21535C8.24715 8.39509 7.11734 8.62619 6.3727 8.4978C5.8078 8.42077 5.37127 8.13832 4.67798 7.72748C4.57527 8.11264 4.11309 8.62618 3.7536 8.80593C3.57386 8.88296 3.39412 8.93432 3.24005 8.88296C2.9576 8.80593 2.49542 8.52347 2.18729 8.16399C2.00755 7.95857 1.85347 7.65045 1.77644 7.368C1.64805 7.72748 1.6994 7.98425 1.98186 8.4978C2.39269 9.24245 2.9576 9.98709 3.62521 10.5263C4.11309 10.9372 4.67798 11.1939 5.31992 11.1682L6.55244 11.0912L6.78353 11.2966C7.42547 11.8872 8.17012 12.4008 8.94044 12.7859C9.76211 13.1711 10.6608 13.4022 11.5852 13.3765C12.5353 13.3508 13.7421 12.9143 14.6408 12.6319C15.822 12.2467 16.7977 11.8872 18.0559 12.0156C20.0587 12.221 20.8034 13.1968 21.9589 14.7117C23.0887 16.1753 24.0901 17.5362 25.9389 18.1268C26.7862 18.3836 27.4795 18.1011 28.1471 17.5362C28.8661 16.92 29.4567 16.0213 29.9189 15.2253C31.6906 12.067 35.08 12.4008 38.187 12.6319C41.9616 12.9143 45.9159 12.863 49.6905 12.94L49.5877 13.7617C45.6848 13.6076 41.8588 13.6333 38.0329 13.3508ZM4.75503 7.16257C5.60238 7.85586 6.86056 8.164 7.81063 7.88155C6.88624 7.67613 5.67941 7.21393 4.75503 7.16257ZM2.03321 6.85445C1.85347 7.05987 2.29 7.72748 2.44406 7.88155C2.70083 8.164 3.06032 8.39509 3.29141 8.47212C3.31709 8.47212 3.39412 8.47212 3.47116 8.42076C3.70225 8.29238 4.11309 7.77883 4.19012 7.52206C4.24148 7.29096 2.46973 6.36658 2.03321 6.85445Z" fill="url(#paint0_linear)" stroke="url(#paint1_linear)" stroke-width="0.5"/>
<defs>
<linearGradient id="paint0_linear" x1="-25.648" y1="18.9458" x2="51.2505" y2="18.9458" gradientUnits="userSpaceOnUse">
<stop stop-color="#3E65E4"/>
<stop offset="1" stop-color="#2D8DE4"/>
</linearGradient>
<linearGradient id="paint1_linear" x1="-25.648" y1="18.9458" x2="51.2505" y2="18.9458" gradientUnits="userSpaceOnUse">
<stop stop-color="#3E65E4"/>
<stop offset="1" stop-color="#2D8DE4"/>
</linearGradient>
</defs>
</svg>
