<svg width="33" height="50" viewBox="0 0 33 50" fill="none" xmlns="http://www.w3.org/2000/svg">
<path fill-rule="evenodd" clip-rule="evenodd" d="M2.04081 43.6426C2.09578 43.3403 2.26068 42.983 2.48054 42.8731C3.6623 42.2135 4.26692 41.8837 5.22881 41.0317C6.60295 39.8225 8.63667 36.4146 8.63667 36.4146L8.74661 36.1673C8.69164 34.6008 8.69164 33.0068 9.26878 30.5608C9.81843 28.3622 10.478 26.9606 11.275 25.3666C11.9071 24.0749 12.6217 22.6183 13.3912 20.4746C14.1332 18.3859 14.5455 16.1873 15.2325 14.0712C15.8371 12.2023 16.7166 9.83882 17.706 7.44782C18.8602 4.67207 20.1794 1.92379 21.3612 0L22.0482 0.412241C20.894 2.30855 19.6023 5.02934 18.448 7.75013C17.4311 10.1686 16.5517 12.5871 15.9471 14.4559C15.2875 16.5171 14.8753 18.6608 14.1607 20.6945C13.3912 22.8931 12.6766 24.3497 12.0171 25.6689C11.2475 27.2354 10.5879 28.582 10.0658 30.6982C9.43367 33.3091 9.51612 35.3153 9.57109 36.9093C9.62605 38.5308 9.65354 40.2347 8.85654 41.7188C8.60919 42.186 8.2794 42.5158 7.86716 42.7906C7.09764 43.3403 6.0533 43.6701 5.17385 43.9449C4.84406 44.0548 4.51426 44.1648 4.26692 44.2472C4.15699 44.3022 3.96461 44.3846 3.71726 44.522C4.2944 44.6045 4.48678 44.6869 4.98147 45.0167C5.83343 45.5664 6.24568 46.0336 6.24568 46.3909C6.21819 46.7756 5.75099 47.0779 5.14637 47.3802C4.4593 47.71 3.63481 47.9849 2.89278 48.1772C2.61795 48.2872 2.15075 47.9849 1.73851 47.6551C1.38123 47.3802 0.968989 46.968 0.831575 46.6107C0.776609 46.7481 0.804092 46.968 0.831575 47.1054C0.859058 47.3802 1.02396 47.6551 1.2713 47.9299C1.62858 48.2872 2.12326 48.617 2.64544 48.8368C3.00271 48.9742 3.33251 49.0842 3.6623 49.1391C4.07454 49.1941 4.87153 49.1391 5.75098 48.9467C6.85029 48.7269 7.50988 48.1497 8.49926 48.2047C9.07639 48.2322 9.59857 48.3146 10.1207 48.3971C10.8353 48.507 11.4949 48.5895 12.072 48.562C12.9515 48.5345 13.9408 48.2597 14.8203 47.8474C15.5898 47.4627 16.2769 46.9405 16.6891 46.3084C17.3762 45.2641 17.7884 43.1479 18.2282 41.0042C18.7503 38.3384 19.2725 35.6451 20.4542 34.5183C21.4711 33.5289 22.7353 33.0342 24.1644 32.4846C26.2806 31.6601 28.754 30.6982 30.9801 27.7576C32.5192 25.7513 32.2443 23.0855 30.4305 21.3541C29.8533 20.8044 29.2487 20.5571 28.6441 20.1174C25.0713 17.5889 27.8471 10.5259 30.5129 3.8201C30.9252 2.77576 31.3099 1.7589 31.6947 0.797L32.4642 1.07183C32.0794 2.08869 31.6947 3.07807 31.2824 4.12241C28.754 10.5534 26.0882 17.3141 29.1388 19.4578C29.7984 19.925 30.403 20.1723 31.0351 20.7769C33.1513 22.7832 33.4536 25.8887 31.6672 28.2523C29.3037 31.3853 26.7203 32.3747 24.4942 33.2541C23.1476 33.7763 21.9383 34.2435 21.0589 35.1229C20.0695 36.0848 19.5748 38.6682 19.0801 41.1966C18.6404 43.4227 18.2281 45.5939 17.4311 46.7756C16.909 47.5451 16.1395 48.1497 15.26 48.5895C14.2706 49.0842 13.1713 49.359 12.1819 49.3865C11.5498 49.414 10.8628 49.3315 10.0933 49.2216C9.62605 49.1666 9.15884 49.0842 8.69164 49.0567C7.89464 49.0017 6.93274 49.5514 6.02581 49.7712C5.06391 49.9911 4.12951 50.0461 3.63482 49.9636C3.25006 49.9086 2.83781 49.7712 2.45305 49.6063C1.84843 49.359 1.07892 48.9467 0.639201 48.507C-0.295212 47.2978 -0.0203881 46.2534 0.309405 45.6213C0.611715 44.6594 1.24381 44.2747 2.04081 43.6426ZM8.80157 38.6407C8.80157 38.3384 8.80157 38.0361 8.80157 37.7063C8.08702 38.8331 6.76785 40.7844 5.77847 41.6638C5.42119 41.9936 5.00895 42.3234 4.4593 42.5708C4.92651 42.4883 5.25629 42.4333 5.33874 42.4883C5.39371 42.5158 5.36623 42.5982 5.28378 42.7082C4.76161 42.7631 3.74475 43.1479 3.11265 43.5052C2.83782 43.6426 2.67292 43.8075 2.75537 43.9724C2.45306 44.1648 2.15075 44.3571 1.82096 44.632C4.01957 43.5052 6.71288 42.6807 7.42743 42.1585C8.49926 41.4165 8.7466 39.8774 8.80157 38.6407ZM1.29878 45.8687C0.996475 46.1435 1.07892 46.3084 1.29878 46.5832C1.57361 46.9405 2.50802 47.765 2.94775 47.6276C3.44244 47.4902 4.26692 47.2153 4.95398 46.913C5.39371 46.7206 5.66854 46.5557 5.69602 46.4183C5.69602 46.2534 5.42119 45.9786 4.73413 45.5389C4.37685 45.319 4.07454 45.1541 3.74475 45.0717C3.27754 44.9892 2.64544 45.0442 2.15075 45.319C1.79348 45.4564 1.49116 45.6763 1.29878 45.8687ZM24.6041 10.2511C24.2743 10.7457 23.8896 14.4559 22.9002 16.9843C22.1307 18.9631 20.9764 20.2823 19.9596 21.464C19.3 22.2335 15.9746 26.1361 18.2831 26.2735C18.393 24.5146 19.4099 23.3603 20.5642 22.0137C22.5429 19.7051 24.9339 16.9568 24.6041 10.2511Z" fill="white"/>
</svg>
