<svg width="35" height="52" viewBox="0 0 35 52" fill="none" xmlns="http://www.w3.org/2000/svg">
<path fill-rule="evenodd" clip-rule="evenodd" d="M3.04081 44.6426C3.09578 44.3403 3.26068 43.983 3.48054 43.8731C4.6623 43.2135 5.26692 42.8837 6.22881 42.0317C7.60295 40.8225 9.63667 37.4146 9.63667 37.4146L9.74661 37.1673C9.69164 35.6008 9.69164 34.0068 10.2688 31.5608C10.8184 29.3622 11.478 27.9606 12.275 26.3666C12.9071 25.0749 13.6217 23.6183 14.3912 21.4746C15.1332 19.3859 15.5455 17.1873 16.2325 15.0712C16.8371 13.2023 17.7166 10.8388 18.706 8.44782C19.8602 5.67207 21.1794 2.92379 22.3612 1L23.0482 1.41224C21.894 3.30855 20.6023 6.02934 19.448 8.75013C18.4311 11.1686 17.5517 13.5871 16.9471 15.4559C16.2875 17.5171 15.8753 19.6608 15.1607 21.6945C14.3912 23.8931 13.6766 25.3497 13.0171 26.6689C12.2475 28.2354 11.5879 29.582 11.0658 31.6982C10.4337 34.3091 10.5161 36.3153 10.5711 37.9093C10.6261 39.5308 10.6535 41.2347 9.85654 42.7188C9.60919 43.186 9.2794 43.5158 8.86716 43.7906C8.09764 44.3403 7.0533 44.6701 6.17385 44.9449C5.84406 45.0548 5.51426 45.1648 5.26692 45.2472C5.15699 45.3022 4.96461 45.3846 4.71726 45.522C5.2944 45.6045 5.48678 45.6869 5.98147 46.0167C6.83343 46.5664 7.24568 47.0336 7.24568 47.3909C7.21819 47.7756 6.75099 48.0779 6.14637 48.3802C5.4593 48.71 4.63481 48.9849 3.89278 49.1772C3.61795 49.2872 3.15075 48.9849 2.73851 48.6551C2.38123 48.3802 1.96899 47.968 1.83157 47.6107C1.77661 47.7481 1.80409 47.968 1.83157 48.1054C1.85906 48.3802 2.02396 48.6551 2.2713 48.9299C2.62858 49.2872 3.12327 49.617 3.64544 49.8368C4.00271 49.9742 4.33251 50.0842 4.6623 50.1391C5.07454 50.1941 5.87153 50.1391 6.75098 49.9467C7.85029 49.7269 8.50988 49.1497 9.49926 49.2047C10.0764 49.2322 10.5986 49.3146 11.1207 49.3971C11.8353 49.507 12.4949 49.5895 13.072 49.562C13.9515 49.5345 14.9408 49.2597 15.8203 48.8474C16.5898 48.4627 17.2769 47.9405 17.6891 47.3084C18.3762 46.2641 18.7884 44.1479 19.2282 42.0042C19.7503 39.3384 20.2725 36.6451 21.4542 35.5183C22.4711 34.5289 23.7353 34.0342 25.1644 33.4846C27.2806 32.6601 29.754 31.6982 31.9801 28.7576C33.5192 26.7513 33.2443 24.0855 31.4305 22.3541C30.8533 21.8044 30.2487 21.5571 29.6441 21.1174C26.0714 18.5889 28.8471 11.5259 31.5129 4.8201C31.9252 3.77576 32.3099 2.7589 32.6947 1.797L33.4642 2.07183C33.0794 3.08869 32.6947 4.07807 32.2824 5.12241C29.754 11.5534 27.0882 18.3141 30.1388 20.4578C30.7984 20.925 31.403 21.1723 32.0351 21.7769C34.1513 23.7832 34.4536 26.8887 32.6672 29.2523C30.3037 32.3853 27.7203 33.3747 25.4942 34.2541C24.1476 34.7763 22.9383 35.2435 22.0589 36.1229C21.0695 37.0848 20.5748 39.6682 20.0801 42.1966C19.6404 44.4227 19.2281 46.5939 18.4311 47.7756C17.909 48.5451 17.1395 49.1497 16.26 49.5895C15.2706 50.0842 14.1713 50.359 13.1819 50.3865C12.5498 50.414 11.8628 50.3315 11.0933 50.2216C10.6261 50.1666 10.1588 50.0842 9.69164 50.0567C8.89464 50.0017 7.93274 50.5514 7.02581 50.7712C6.06391 50.9911 5.12951 51.0461 4.63482 50.9636C4.25006 50.9086 3.83781 50.7712 3.45305 50.6063C2.84843 50.359 2.07892 49.9467 1.6392 49.507C0.704788 48.2978 0.979612 47.2534 1.3094 46.6213C1.61171 45.6594 2.24381 45.2747 3.04081 44.6426ZM9.80157 39.6407C9.80157 39.3384 9.80157 39.0361 9.80157 38.7063C9.08702 39.8331 7.76785 41.7844 6.77847 42.6638C6.42119 42.9936 6.00895 43.3234 5.4593 43.5708C5.92651 43.4883 6.25629 43.4333 6.33874 43.4883C6.39371 43.5158 6.36623 43.5982 6.28378 43.7082C5.76161 43.7631 4.74475 44.1479 4.11265 44.5052C3.83782 44.6426 3.67292 44.8075 3.75537 44.9724C3.45306 45.1648 3.15075 45.3571 2.82096 45.632C5.01957 44.5052 7.71288 43.6807 8.42743 43.1585C9.49926 42.4165 9.7466 40.8774 9.80157 39.6407ZM2.29878 46.8687C1.99647 47.1435 2.07892 47.3084 2.29878 47.5832C2.57361 47.9405 3.50802 48.765 3.94775 48.6276C4.44244 48.4902 5.26692 48.2153 5.95398 47.913C6.39371 47.7206 6.66854 47.5557 6.69602 47.4183C6.69602 47.2534 6.42119 46.9786 5.73413 46.5389C5.37685 46.319 5.07454 46.1541 4.74475 46.0717C4.27754 45.9892 3.64544 46.0442 3.15075 46.319C2.79348 46.4564 2.49116 46.6763 2.29878 46.8687ZM25.6041 11.2511C25.2743 11.7457 24.8896 15.4559 23.9002 17.9843C23.1307 19.9631 21.9764 21.2823 20.9596 22.464C20.3 23.2335 16.9746 27.1361 19.2831 27.2735C19.393 25.5146 20.4099 24.3603 21.5642 23.0137C23.5429 20.7051 25.9339 17.9568 25.6041 11.2511Z" fill="url(#paint0_linear)" stroke="url(#paint1_linear)" stroke-width="0.5"/>
<defs>
<linearGradient id="paint0_linear" x1="-16.5" y1="51" x2="34" y2="51" gradientUnits="userSpaceOnUse">
<stop stop-color="#3E65E4"/>
<stop offset="1" stop-color="#2D8DE4"/>
</linearGradient>
<linearGradient id="paint1_linear" x1="-16.5" y1="51" x2="34" y2="51" gradientUnits="userSpaceOnUse">
<stop stop-color="#3E65E4"/>
<stop offset="1" stop-color="#2D8DE4"/>
</linearGradient>
</defs>
</svg>
