<svg width="18" height="50" viewBox="0 0 18 50" fill="none" xmlns="http://www.w3.org/2000/svg">
<path fill-rule="evenodd" clip-rule="evenodd" d="M14.4657 49.8695L14.3613 49.504C13.7348 47.0239 12.4555 41.881 13.2126 39.9491C14.1786 37.469 14.1002 37.2079 13.4476 35.0933C13.3693 34.8062 13.3432 34.7278 13.3171 34.4146C13.1604 32.5349 14.2308 28.7234 14.9879 26.0083C15.1967 25.2513 15.3795 24.5725 15.5361 24.0243C16.3976 20.5783 16.2932 18.7769 16.1888 17.1583C16.1626 16.6623 16.1365 16.1663 16.1104 15.6181C16.1104 14.8088 16.2671 14.1822 16.4498 13.5557C16.5281 13.2424 16.6325 12.9291 16.6848 12.5897C16.7631 12.0937 16.8414 11.5977 16.8153 11.1278C16.7892 10.7884 16.737 10.449 16.6064 10.1357C16.5281 10.2663 16.3976 10.3185 16.2671 10.3446C16.0582 10.3707 15.7711 10.3446 15.5361 10.2924C15.3011 10.2402 15.0923 10.1619 14.9618 10.0574H14.9356C14.8312 10.5273 14.7268 11.0234 14.6746 11.4672C14.6224 11.7804 14.5702 12.1198 14.4918 12.407C14.4135 12.6942 14.3352 12.9552 14.2569 13.1641C14.2569 13.1641 14.1002 13.6862 13.8392 13.6601C13.7348 13.6601 13.7086 13.5296 13.7348 13.2946C13.7348 13.2163 13.7609 13.1119 13.787 12.9813C13.9958 11.8849 14.3613 10.7623 14.5179 9.66584C14.6485 8.85655 14.9617 8.33442 14.8051 7.18575C14.8051 6.76805 14.4918 5.90653 14.0219 5.85432C13.6825 5.776 13.4476 5.77601 13.3171 5.80212C13.1082 5.82822 13.0299 5.98486 12.9516 6.27203C12.8994 6.45477 12.9255 6.63751 13.1082 6.74194C13.317 6.87247 13.7086 6.95078 13.9958 6.95078C14.2047 6.95078 14.3613 6.89857 14.4396 6.76804C14.3874 7.23795 14.2308 7.42069 13.4737 7.29016C12.9516 7.21184 12.4816 6.9769 12.5078 6.45477C12.3511 7.26407 11.829 9.74415 11.9073 10.945L11.5157 10.9712C11.4635 10.0574 11.6724 8.6999 11.8551 7.68175C11.9856 7.0291 12.5078 5.61937 12.6122 4.57512C12.6644 3.89636 12.1684 2.72157 11.333 2.8521C11.1502 2.8782 10.9153 3.00874 10.7586 3.16538C10.6542 3.2698 10.4976 3.81804 10.6542 3.97468C10.7325 4.07911 10.8892 4.15741 11.0719 4.20963C11.2547 4.26184 11.4374 4.28794 11.6202 4.28794C11.8812 4.26184 12.064 4.20963 12.1684 3.94856C12.1945 4.54901 12.0117 4.67954 11.4635 4.67954C10.837 4.70564 10.2104 4.41847 10.2104 3.89635C10.0016 4.34015 9.68828 5.85432 9.63606 6.76804C9.63606 6.89857 9.60997 7.05522 9.60997 7.23796C9.58386 7.62956 9.55775 7.96892 9.50553 8.33441C9.45332 8.6999 9.375 9.1176 9.24447 9.69194L8.87899 9.61362C9.00952 9.06539 9.08784 8.6477 9.14006 8.28221C9.19227 7.91672 9.21836 7.60344 9.24447 7.21185C9.27058 7.003 9.27059 6.87247 9.27059 6.74194C9.34891 5.54105 9.7927 4.31406 9.84491 3.13928C9.87102 2.64326 9.89714 1.80785 9.27059 1.41626C9.08784 1.23351 8.59182 1.20741 8.35687 1.25962C7.96527 1.33794 7.62589 1.65122 7.57368 2.14724C7.49536 2.43441 7.96526 2.66936 8.20022 2.74768C8.59181 2.85211 9.00952 2.90432 9.3489 2.66937C9.42722 2.61716 9.47944 2.56494 9.53165 2.48662C9.53165 2.95653 9.45333 3.2437 8.61793 3.21759C8.14802 3.19149 7.7042 3.03485 7.49535 2.74768C7.46924 2.72158 7.41703 3.06096 7.41703 3.08706C7.36482 3.32202 7.31261 3.60918 7.2865 3.89635C7.20818 4.73175 7.07766 5.56716 6.99934 6.40256C6.99934 6.53309 6.92102 7.65566 6.73827 8.43884C6.68606 8.6738 6.60775 8.90876 6.52943 9.0654C6.37279 9.35257 6.13782 9.5092 5.85065 9.40478C5.74623 9.37867 5.66792 9.30035 5.56349 9.22203C5.38075 9.01318 5.40684 8.49106 5.53738 7.89062C5.69401 7.15964 5.98118 6.21981 6.19003 5.51494C6.4772 4.62733 6.92102 3.73972 6.65996 2.35609C6.63385 2.64326 6.63384 3.16538 6.37278 3.55697C6.11172 3.92246 5.51128 4.18353 4.85862 4.18353C4.33649 4.20963 3.73605 4.13131 3.24003 3.94856C2.7179 3.76582 2.2741 3.58308 2.16968 3.21759C2.11746 3.06096 2.16968 2.72157 2.22189 2.4605C2.22189 2.4605 1.41258 4.05299 1.4909 6.24591C1.4909 6.53308 1.51701 6.74194 1.54312 6.92468C1.59533 7.26406 1.62145 7.55124 1.56923 8.15168C1.54313 8.59549 1.51701 9.01318 1.4909 9.35256C1.4648 9.77026 1.43869 10.1619 1.41259 10.5273C1.38648 11.1017 1.22985 11.8588 1.07321 12.5897C0.916571 13.3729 0.75993 14.13 0.75993 14.5216C0.838249 15.4353 1.15153 16.7667 1.4648 18.307C1.96082 20.5782 2.53516 23.2672 2.7179 25.6951C2.79622 26.8698 2.97897 27.9924 3.13561 29.0628C3.37057 30.6292 3.60552 32.0911 3.47499 33.4225C3.39667 34.4146 3.24003 35.2761 3.10949 36.0854C2.79622 37.965 2.56127 39.4531 3.29224 40.9411C4.02322 42.4553 4.46702 43.4995 4.72809 44.3349C5.06747 45.3531 5.06747 46.7628 4.98915 47.9115C4.93694 48.4858 4.88472 49.1646 4.88472 50L4.12765 49.9739C4.15375 49.0863 4.20596 48.4075 4.23206 47.8593C4.3887 45.7447 4.44092 45.1442 2.61349 41.2805C1.80419 39.5836 2.06525 37.9911 2.37852 35.9548C2.50905 35.1717 2.63958 34.3101 2.7179 33.3442C2.82233 32.1172 2.61348 30.7075 2.37852 29.1672C2.22188 28.0969 2.03915 26.9482 1.96083 25.7473C1.80419 23.3716 1.22985 20.7088 0.73383 18.4636C0.394448 16.9234 0.107282 15.5397 0.00285718 14.5738V14.5477C-0.0232491 14.0778 0.133376 13.2685 0.31612 12.407C0.472757 11.7021 0.629408 10.9712 0.655514 10.449C0.68162 10.0574 0.707724 9.66584 0.73383 9.27425C0.759936 8.83044 0.786039 8.43884 0.812145 8.04725C0.838252 7.52512 0.812152 7.29017 0.786046 6.9769C0.759939 6.79416 0.73383 6.55919 0.73383 6.24591C0.681617 4.88839 0.994893 3.2176 1.64755 1.9645C2.22189 0.868033 3.05728 0.0587395 4.10153 0.00652703C4.59755 -0.0195792 5.04137 0.0326269 5.43296 0.163158C6.05951 0.372008 6.52941 0.737499 6.84269 1.25962C6.92101 1.39016 6.99934 1.5468 7.05155 1.70343C7.31262 1.1552 7.75642 0.815814 8.22634 0.685283C8.5135 0.606964 8.85289 0.580865 9.14006 0.659183C9.45333 0.711396 9.74049 0.868027 9.97544 1.07688C10.3148 1.39015 10.5498 1.86007 10.5759 2.48662C10.837 2.30388 11.1241 2.22555 11.4113 2.19944C11.594 2.17334 11.8029 2.19946 12.0117 2.27777C12.2989 2.3822 12.6122 2.56494 12.8471 2.87821C13.0821 3.19149 13.2387 3.60919 13.2909 4.18353C13.3171 4.4968 13.3171 4.83618 13.2648 5.25388C13.552 5.14945 13.8653 5.14946 14.2047 5.22778C14.779 5.35831 15.2228 5.85432 15.4056 6.61141C15.5361 7.08132 15.5622 7.68176 15.4839 8.36053C16.2149 8.36053 16.6848 8.54327 17.1286 9.27425C17.1547 9.32646 17.2069 9.37866 17.233 9.43088C17.5202 9.953 17.6507 10.5012 17.6768 11.0495C17.7029 11.5977 17.6246 12.1198 17.5463 12.6681C17.4679 13.0335 17.3896 13.3729 17.3113 13.7123C17.1547 14.2866 16.998 14.861 16.998 15.592C16.998 16.088 17.0241 16.584 17.0764 17.08C17.1808 18.7508 17.3113 20.6044 16.3976 24.1809C16.2671 24.703 16.0843 25.3818 15.8494 26.1911C15.0662 29.0367 13.9175 33.057 14.2308 34.5973L14.3091 34.8323C15.0401 37.1818 15.1184 37.469 14.0741 40.2102C13.3954 41.9332 14.6485 46.9195 15.2489 49.2951L15.3533 49.6606L14.4657 49.8695ZM4.96305 41.2283C4.93694 41.6199 4.64977 43.7345 4.98915 44.2827C5.30243 43.2124 5.45906 41.1239 5.38074 40.3407C5.32853 40.0013 5.19799 39.7141 5.01525 39.3748C4.75419 38.8526 4.41481 38.2 4.41481 36.9208C4.41481 36.6336 4.49314 36.2942 4.57146 35.9026C4.70199 35.3283 5.25021 33.7619 4.46702 33.7358C4.46702 34.5973 4.31039 35.2761 4.20596 35.7982C4.12764 36.2159 3.99711 37.1035 3.99711 37.4429C3.99711 38.8004 4.3626 39.5053 4.64977 40.0535C4.83252 40.4973 5.01526 40.7845 4.96305 41.2283ZM16.3454 9.22203C16.2149 8.98707 15.8494 8.90876 15.5883 8.93487C15.3011 8.96097 15.1445 9.32646 15.1445 9.74416C15.2489 9.84858 15.4578 9.9008 15.5883 9.9269C15.7449 9.95301 16.006 10.0313 16.1888 9.953C16.3715 9.90079 16.4498 9.37867 16.3454 9.22203ZM5.1719 0.89413C4.88473 0.789705 4.41482 0.737492 3.99711 0.763599C2.82233 0.815811 2.66568 1.99059 2.53515 2.8521C2.48294 3.11316 2.82234 3.34812 3.26614 3.50475C3.70995 3.66139 4.25817 3.73972 4.75419 3.71362C5.2241 3.68751 5.64181 3.60918 5.82455 3.42644C6.0073 3.2437 6.11171 2.04281 6.0595 1.83396C6.08561 1.33795 5.6157 1.05077 5.1719 0.89413Z" fill="white"/>
</svg>
