<svg width="19" height="52" viewBox="0 0 19 52" fill="none" xmlns="http://www.w3.org/2000/svg">
<path fill-rule="evenodd" clip-rule="evenodd" d="M15.4657 50.8695L15.3613 50.504C14.7348 48.0239 13.4555 42.881 14.2126 40.9491C15.1786 38.469 15.1002 38.2079 14.4476 36.0933C14.3693 35.8062 14.3432 35.7278 14.3171 35.4146C14.1604 33.5349 15.2308 29.7234 15.9879 27.0083C16.1967 26.2513 16.3795 25.5725 16.5361 25.0243C17.3976 21.5783 17.2932 19.7769 17.1888 18.1583C17.1626 17.6623 17.1365 17.1663 17.1104 16.6181C17.1104 15.8088 17.2671 15.1822 17.4498 14.5557C17.5281 14.2424 17.6325 13.9291 17.6848 13.5897C17.7631 13.0937 17.8414 12.5977 17.8153 12.1278C17.7892 11.7884 17.737 11.449 17.6064 11.1357C17.5281 11.2663 17.3976 11.3185 17.2671 11.3446C17.0582 11.3707 16.7711 11.3446 16.5361 11.2924C16.3011 11.2402 16.0923 11.1619 15.9618 11.0574H15.9356C15.8312 11.5273 15.7268 12.0234 15.6746 12.4672C15.6224 12.7804 15.5702 13.1198 15.4918 13.407C15.4135 13.6942 15.3352 13.9552 15.2569 14.1641C15.2569 14.1641 15.1002 14.6862 14.8392 14.6601C14.7348 14.6601 14.7086 14.5296 14.7348 14.2946C14.7348 14.2163 14.7609 14.1119 14.787 13.9813C14.9958 12.8849 15.3613 11.7623 15.5179 10.6658C15.6485 9.85655 15.9617 9.33442 15.8051 8.18575C15.8051 7.76805 15.4918 6.90653 15.0219 6.85432C14.6825 6.776 14.4476 6.77601 14.3171 6.80212C14.1082 6.82822 14.0299 6.98486 13.9516 7.27203C13.8994 7.45477 13.9255 7.63751 14.1082 7.74194C14.317 7.87247 14.7086 7.95078 14.9958 7.95078C15.2047 7.95078 15.3613 7.89857 15.4396 7.76804C15.3874 8.23795 15.2308 8.42069 14.4737 8.29016C13.9516 8.21184 13.4816 7.9769 13.5078 7.45477C13.3511 8.26407 12.829 10.7441 12.9073 11.945L12.5157 11.9712C12.4635 11.0574 12.6724 9.6999 12.8551 8.68176C12.9856 8.0291 13.5078 6.61937 13.6122 5.57512C13.6644 4.89636 13.1684 3.72157 12.333 3.8521C12.1502 3.8782 11.9153 4.00874 11.7586 4.16538C11.6542 4.2698 11.4976 4.81804 11.6542 4.97468C11.7325 5.07911 11.8892 5.15741 12.0719 5.20963C12.2547 5.26184 12.4374 5.28794 12.6202 5.28794C12.8812 5.26184 13.064 5.20963 13.1684 4.94856C13.1945 5.54901 13.0117 5.67954 12.4635 5.67954C11.837 5.70564 11.2104 5.41847 11.2104 4.89635C11.0016 5.34016 10.6883 6.85432 10.6361 7.76804C10.6361 7.89857 10.61 8.05522 10.61 8.23796C10.5839 8.62956 10.5577 8.96892 10.5055 9.33441C10.4533 9.6999 10.375 10.1176 10.2445 10.6919L9.87899 10.6136C10.0095 10.0654 10.0878 9.6477 10.1401 9.28221C10.1923 8.91672 10.2184 8.60344 10.2445 8.21185C10.2706 8.003 10.2706 7.87247 10.2706 7.74194C10.3489 6.54105 10.7927 5.31406 10.8449 4.13928C10.871 3.64326 10.8971 2.80785 10.2706 2.41625C10.0878 2.23351 9.59182 2.20741 9.35687 2.25962C8.96527 2.33794 8.62589 2.65122 8.57368 3.14724C8.49536 3.43441 8.96526 3.66936 9.20022 3.74768C9.59181 3.85211 10.0095 3.90432 10.3489 3.66937C10.4272 3.61716 10.4794 3.56494 10.5316 3.48662C10.5316 3.95653 10.4533 4.2437 9.61793 4.21759C9.14802 4.19149 8.7042 4.03485 8.49535 3.74768C8.46924 3.72158 8.41703 4.06096 8.41703 4.08706C8.36482 4.32202 8.31261 4.60918 8.2865 4.89635C8.20818 5.73175 8.07766 6.56716 7.99934 7.40256C7.99934 7.53309 7.92102 8.65565 7.73827 9.43884C7.68606 9.6738 7.60775 9.90876 7.52943 10.0654C7.37279 10.3526 7.13782 10.5092 6.85065 10.4048C6.74623 10.3787 6.66792 10.3003 6.56349 10.222C6.38075 10.0132 6.40684 9.49106 6.53738 8.89062C6.69401 8.15964 6.98118 7.21981 7.19003 6.51494C7.4772 5.62733 7.92102 4.73972 7.65996 3.35609C7.63385 3.64326 7.63384 4.16538 7.37278 4.55697C7.11172 4.92246 6.51128 5.18353 5.85862 5.18353C5.33649 5.20963 4.73605 5.13131 4.24003 4.94856C3.7179 4.76582 3.2741 4.58308 3.16968 4.21759C3.11746 4.06096 3.16968 3.72157 3.22189 3.46051C3.22189 3.46051 2.41258 5.05299 2.4909 7.24591C2.4909 7.53308 2.51701 7.74194 2.54312 7.92468C2.59533 8.26406 2.62145 8.55124 2.56923 9.15168C2.54313 9.59549 2.51701 10.0132 2.4909 10.3526C2.4648 10.7703 2.43869 11.1619 2.41259 11.5273C2.38648 12.1017 2.22985 12.8588 2.07321 13.5897C1.91657 14.3729 1.75993 15.13 1.75993 15.5216C1.83825 16.4353 2.15153 17.7667 2.4648 19.307C2.96082 21.5782 3.53516 24.2672 3.7179 26.6951C3.79622 27.8698 3.97897 28.9924 4.13561 30.0628C4.37057 31.6292 4.60552 33.0911 4.47499 34.4225C4.39667 35.4146 4.24003 36.2761 4.10949 37.0854C3.79622 38.965 3.56127 40.4531 4.29224 41.9411C5.02322 43.4553 5.46702 44.4995 5.72809 45.3349C6.06747 46.3531 6.06747 47.7628 5.98915 48.9115C5.93694 49.4858 5.88472 50.1646 5.88472 51L5.12765 50.9739C5.15375 50.0863 5.20596 49.4075 5.23206 48.8593C5.3887 46.7447 5.44092 46.1442 3.61349 42.2805C2.80419 40.5836 3.06525 38.9911 3.37852 36.9548C3.50905 36.1716 3.63958 35.3101 3.7179 34.3442C3.82233 33.1172 3.61348 31.7075 3.37852 30.1672C3.22188 29.0969 3.03915 27.9482 2.96083 26.7473C2.80419 24.3716 2.22985 21.7088 1.73383 19.4636C1.39445 17.9234 1.10728 16.5397 1.00286 15.5738V15.5477C0.976751 15.0778 1.13338 14.2685 1.31612 13.407C1.47276 12.7021 1.62941 11.9712 1.65551 11.449C1.68162 11.0574 1.70772 10.6658 1.73383 10.2742C1.75994 9.83044 1.78604 9.43884 1.81215 9.04725C1.83825 8.52512 1.81215 8.29017 1.78605 7.9769C1.75994 7.79416 1.73383 7.55919 1.73383 7.24591C1.68162 5.88839 1.99489 4.2176 2.64755 2.9645C3.22189 1.86803 4.05728 1.05874 5.10153 1.00653C5.59755 0.980421 6.04137 1.03263 6.43296 1.16316C7.05951 1.37201 7.52941 1.7375 7.84269 2.25962C7.92101 2.39016 7.99934 2.5468 8.05155 2.70343C8.31262 2.1552 8.75642 1.81581 9.22634 1.68528C9.5135 1.60696 9.85289 1.58086 10.1401 1.65918C10.4533 1.7114 10.7405 1.86803 10.9754 2.07688C11.3148 2.39015 11.5498 2.86007 11.5759 3.48662C11.837 3.30388 12.1241 3.22555 12.4113 3.19944C12.594 3.17334 12.8029 3.19946 13.0117 3.27777C13.2989 3.3822 13.6122 3.56494 13.8471 3.87821C14.0821 4.19149 14.2387 4.60919 14.2909 5.18353C14.317 5.4968 14.3171 5.83618 14.2648 6.25388C14.552 6.14945 14.8653 6.14946 15.2047 6.22778C15.779 6.35831 16.2228 6.85432 16.4056 7.6114C16.5361 8.08132 16.5622 8.68176 16.4839 9.36053C17.2149 9.36053 17.6848 9.54327 18.1286 10.2742C18.1547 10.3265 18.2069 10.3787 18.233 10.4309C18.5202 10.953 18.6507 11.5012 18.6768 12.0495C18.7029 12.5977 18.6246 13.1198 18.5463 13.6681C18.4679 14.0335 18.3896 14.3729 18.3113 14.7123C18.1547 15.2866 17.998 15.861 17.998 16.592C17.998 17.088 18.0241 17.584 18.0764 18.08C18.1808 19.7508 18.3113 21.6044 17.3976 25.1809C17.2671 25.703 17.0843 26.3818 16.8494 27.1911C16.0662 30.0367 14.9175 34.057 15.2308 35.5973L15.3091 35.8323C16.0401 38.1818 16.1184 38.469 15.0741 41.2102C14.3954 42.9332 15.6485 47.9195 16.2489 50.2951L16.3533 50.6606L15.4657 50.8695ZM5.96305 42.2283C5.93694 42.6199 5.64977 44.7345 5.98915 45.2827C6.30243 44.2124 6.45906 42.1239 6.38074 41.3407C6.32853 41.0013 6.19799 40.7141 6.01525 40.3748C5.75419 39.8526 5.41481 39.2 5.41481 37.9208C5.41481 37.6336 5.49314 37.2942 5.57146 36.9026C5.70199 36.3283 6.25021 34.7619 5.46702 34.7358C5.46702 35.5973 5.31039 36.2761 5.20596 36.7982C5.12764 37.2159 4.99711 38.1035 4.99711 38.4429C4.99711 39.8004 5.3626 40.5053 5.64977 41.0535C5.83252 41.4973 6.01526 41.7845 5.96305 42.2283ZM17.3454 10.222C17.2149 9.98707 16.8494 9.90876 16.5883 9.93487C16.3011 9.96097 16.1445 10.3265 16.1445 10.7442C16.2489 10.8486 16.4578 10.9008 16.5883 10.9269C16.7449 10.953 17.006 11.0313 17.1888 10.953C17.3715 10.9008 17.4498 10.3787 17.3454 10.222ZM6.1719 1.89413C5.88473 1.7897 5.41482 1.73749 4.99711 1.7636C3.82233 1.81581 3.66568 2.99059 3.53515 3.8521C3.48294 4.11316 3.82234 4.34812 4.26614 4.50476C4.70995 4.66139 5.25817 4.73972 5.75419 4.71362C6.2241 4.68751 6.64181 4.60918 6.82455 4.42644C7.0073 4.2437 7.11171 3.04281 7.0595 2.83396C7.08561 2.33795 6.6157 2.05077 6.1719 1.89413Z" fill="url(#paint0_linear)" stroke="url(#paint1_linear)" stroke-width="0.5"/>
<defs>
<linearGradient id="paint0_linear" x1="-8.42374" y1="51" x2="18.7705" y2="51" gradientUnits="userSpaceOnUse">
<stop stop-color="#3E65E4"/>
<stop offset="1" stop-color="#2D8DE4"/>
</linearGradient>
<linearGradient id="paint1_linear" x1="-8.42374" y1="51" x2="18.7705" y2="51" gradientUnits="userSpaceOnUse">
<stop stop-color="#3E65E4"/>
<stop offset="1" stop-color="#2D8DE4"/>
</linearGradient>
</defs>
</svg>
