<svg width="100" height="100" viewBox="0 0 100 100" fill="none" xmlns="http://www.w3.org/2000/svg">
<path d="M85.3555 14.6447C75.9115 5.20078 63.3555 0 50 0C36.6445 0 24.0885 5.20078 14.6445 14.6447C5.20098 24.0885 0 36.6445 0 50C0 63.3555 5.20098 75.9115 14.6445 85.3553C24.0885 94.7992 36.6445 100 50 100C63.3555 100 75.9115 94.7992 85.3555 85.3553C94.799 75.9115 100 63.3555 100 50C100 36.6445 94.799 24.0885 85.3555 14.6447ZM50 96.0938C24.5838 96.0938 3.90625 75.4162 3.90625 50C3.90625 24.5838 24.5838 3.90625 50 3.90625C75.4162 3.90625 96.0938 24.5838 96.0938 50C96.0938 75.4162 75.4162 96.0938 50 96.0938Z" fill="url(#paint0_linear)"/>
<path d="M91.4262 41.9832C88.7934 28.3025 79.5691 16.8209 66.7506 11.2697C65.7609 10.841 64.6109 11.2961 64.1822 12.2857C63.7537 13.2756 64.2086 14.4256 65.1984 14.8541C76.831 19.8918 85.2018 30.3094 87.5902 42.7213C87.7701 43.6559 88.5885 44.3057 89.5062 44.3057C89.6285 44.3057 89.7527 44.2941 89.8771 44.2701C90.9363 44.0664 91.6299 43.0424 91.4262 41.9832Z" fill="url(#paint1_linear)"/>
<path d="M59.0684 8.79004L59.0172 8.77891C57.9633 8.55156 56.9236 9.22227 56.6967 10.277C56.4695 11.3314 57.1402 12.3703 58.1947 12.5975L58.2176 12.6025C58.3609 12.6346 58.5039 12.6498 58.6449 12.6498C59.5395 12.6498 60.3465 12.0311 60.5492 11.1217C60.7842 10.0688 60.1211 9.025 59.0684 8.79004Z" fill="url(#paint2_linear)"/>
<path d="M35.2428 85.334C23.3703 80.3693 14.8346 69.8814 12.4094 57.2789C12.2057 56.2197 11.183 55.5252 10.1225 55.7301C9.06309 55.9338 8.36973 56.9578 8.57344 58.017C9.88809 64.8475 12.9227 71.3143 17.3498 76.718C21.7258 82.0594 27.392 86.2848 33.7357 88.9377C33.9818 89.0406 34.2373 89.0895 34.4885 89.0895C35.2523 89.0895 35.9779 88.6383 36.291 87.8893C36.7072 86.8941 36.2379 85.75 35.2428 85.334Z" fill="url(#paint3_linear)"/>
<path d="M41.8096 87.4037L41.6889 87.3772C40.6367 87.1434 39.5926 87.807 39.3586 88.86C39.1246 89.9129 39.7885 90.9563 40.8416 91.1902L40.9783 91.2203C41.1184 91.2508 41.2582 91.2654 41.3959 91.2654C42.2945 91.2654 43.1033 90.6414 43.3023 89.7277C43.5318 88.6736 42.8635 87.6332 41.8096 87.4037Z" fill="url(#paint4_linear)"/>
<path d="M89.7273 56.6979C88.6746 56.468 87.6332 57.1365 87.4033 58.1904C84.1422 73.1562 72.3176 84.6967 57.2787 87.5906C56.2193 87.7943 55.526 88.8184 55.7297 89.8775C55.9096 90.8121 56.7279 91.4619 57.6457 91.4619C57.768 91.4619 57.8924 91.4504 58.0168 91.4264C66.1227 89.8666 73.5445 85.977 79.4799 80.1781C85.4061 74.3881 89.4658 67.0725 91.2199 59.0219C91.4494 57.968 90.7812 56.9275 89.7273 56.6979Z" fill="url(#paint5_linear)"/>
<path d="M44.2699 10.1227C44.066 9.06348 43.0422 8.36895 41.9828 8.57383C33.877 10.1336 26.4551 14.0232 20.5197 19.8221C14.5936 25.6121 10.5338 32.9277 8.77969 40.9783C8.5502 42.0322 9.21836 43.0727 10.2723 43.3023C10.4123 43.3328 10.5523 43.3475 10.69 43.3475C11.5887 43.3475 12.3975 42.7236 12.5965 41.8098C15.8576 26.8438 27.6822 15.3035 42.7209 12.4096C43.7803 12.2059 44.4736 11.1818 44.2699 10.1227Z" fill="url(#paint6_linear)"/>
<path d="M50 43.3594C46.3383 43.3594 43.3594 46.3383 43.3594 50C43.3594 53.6617 46.3383 56.6406 50 56.6406C53.6617 56.6406 56.6406 53.6617 56.6406 50C56.6406 46.3383 53.6617 43.3594 50 43.3594ZM50 52.7344C48.4922 52.7344 47.2656 51.5078 47.2656 50C47.2656 48.4922 48.4922 47.2656 50 47.2656C51.5078 47.2656 52.7344 48.4922 52.7344 50C52.7344 51.5078 51.5078 52.7344 50 52.7344Z" fill="url(#paint7_linear)"/>
<path d="M50.0297 7.8125C48.9512 7.8125 48.0766 8.68691 48.0766 9.76562V14.1422C48.0766 15.2209 48.9512 16.0953 50.0297 16.0953C51.1084 16.0953 51.9828 15.2209 51.9828 14.1422V9.76562C51.9828 8.68691 51.1082 7.8125 50.0297 7.8125Z" fill="url(#paint8_linear)"/>
<path d="M49.9703 82.5125C48.8918 82.5125 48.0172 83.3869 48.0172 84.4656V90.2344C48.0172 91.3131 48.8918 92.1875 49.9703 92.1875C51.0488 92.1875 51.9234 91.3131 51.9234 90.2344V84.4656C51.9234 83.3869 51.0488 82.5125 49.9703 82.5125Z" fill="url(#paint9_linear)"/>
<path d="M90.2344 48.0766H84.9609C83.8824 48.0766 83.0078 48.951 83.0078 50.0297C83.0078 51.1084 83.8824 51.9828 84.9609 51.9828H90.2344C91.3129 51.9828 92.1875 51.1084 92.1875 50.0297C92.1875 48.951 91.3129 48.0766 90.2344 48.0766Z" fill="url(#paint10_linear)"/>
<path d="M15.4297 48.0172H9.76562C8.68711 48.0172 7.8125 48.8916 7.8125 49.9703C7.8125 51.049 8.68711 51.9234 9.76562 51.9234H15.4297C16.5082 51.9234 17.3828 51.049 17.3828 49.9703C17.3828 48.8916 16.5082 48.0172 15.4297 48.0172Z" fill="url(#paint11_linear)"/>
<path d="M45.3125 48.0469H36.3932C35.3146 48.0469 34.44 48.9213 34.44 50C34.44 51.0787 35.3146 51.9531 36.3932 51.9531H45.3125C46.391 51.9531 47.2656 51.0787 47.2656 50C47.2656 48.9213 46.391 48.0469 45.3125 48.0469Z" fill="url(#paint12_linear)"/>
<path d="M50 25.065C48.9215 25.065 48.0469 25.9395 48.0469 27.0182V45.3125C48.0469 46.3912 48.9215 47.2656 50 47.2656C51.0785 47.2656 51.9531 46.3912 51.9531 45.3125V27.0182C51.9531 25.9395 51.0785 25.065 50 25.065Z" fill="url(#paint13_linear)"/>
<defs>
<linearGradient id="paint0_linear" x1="-53.2959" y1="100" x2="100.501" y2="100" gradientUnits="userSpaceOnUse">
<stop stop-color="#3E65E4"/>
<stop offset="1" stop-color="#2D8DE4"/>
</linearGradient>
<linearGradient id="paint1_linear" x1="-53.2959" y1="100" x2="100.501" y2="100" gradientUnits="userSpaceOnUse">
<stop stop-color="#3E65E4"/>
<stop offset="1" stop-color="#2D8DE4"/>
</linearGradient>
<linearGradient id="paint2_linear" x1="-53.2959" y1="100" x2="100.501" y2="100" gradientUnits="userSpaceOnUse">
<stop stop-color="#3E65E4"/>
<stop offset="1" stop-color="#2D8DE4"/>
</linearGradient>
<linearGradient id="paint3_linear" x1="-53.2959" y1="100" x2="100.501" y2="100" gradientUnits="userSpaceOnUse">
<stop stop-color="#3E65E4"/>
<stop offset="1" stop-color="#2D8DE4"/>
</linearGradient>
<linearGradient id="paint4_linear" x1="-53.2959" y1="100" x2="100.501" y2="100" gradientUnits="userSpaceOnUse">
<stop stop-color="#3E65E4"/>
<stop offset="1" stop-color="#2D8DE4"/>
</linearGradient>
<linearGradient id="paint5_linear" x1="-53.2959" y1="100" x2="100.501" y2="100" gradientUnits="userSpaceOnUse">
<stop stop-color="#3E65E4"/>
<stop offset="1" stop-color="#2D8DE4"/>
</linearGradient>
<linearGradient id="paint6_linear" x1="-53.2959" y1="100" x2="100.501" y2="100" gradientUnits="userSpaceOnUse">
<stop stop-color="#3E65E4"/>
<stop offset="1" stop-color="#2D8DE4"/>
</linearGradient>
<linearGradient id="paint7_linear" x1="-53.2959" y1="100" x2="100.501" y2="100" gradientUnits="userSpaceOnUse">
<stop stop-color="#3E65E4"/>
<stop offset="1" stop-color="#2D8DE4"/>
</linearGradient>
<linearGradient id="paint8_linear" x1="-53.2959" y1="100" x2="100.501" y2="100" gradientUnits="userSpaceOnUse">
<stop stop-color="#3E65E4"/>
<stop offset="1" stop-color="#2D8DE4"/>
</linearGradient>
<linearGradient id="paint9_linear" x1="-53.2959" y1="100" x2="100.501" y2="100" gradientUnits="userSpaceOnUse">
<stop stop-color="#3E65E4"/>
<stop offset="1" stop-color="#2D8DE4"/>
</linearGradient>
<linearGradient id="paint10_linear" x1="-53.2959" y1="100" x2="100.501" y2="100" gradientUnits="userSpaceOnUse">
<stop stop-color="#3E65E4"/>
<stop offset="1" stop-color="#2D8DE4"/>
</linearGradient>
<linearGradient id="paint11_linear" x1="-53.2959" y1="100" x2="100.501" y2="100" gradientUnits="userSpaceOnUse">
<stop stop-color="#3E65E4"/>
<stop offset="1" stop-color="#2D8DE4"/>
</linearGradient>
<linearGradient id="paint12_linear" x1="-53.2959" y1="100" x2="100.501" y2="100" gradientUnits="userSpaceOnUse">
<stop stop-color="#3E65E4"/>
<stop offset="1" stop-color="#2D8DE4"/>
</linearGradient>
<linearGradient id="paint13_linear" x1="-53.2959" y1="100" x2="100.501" y2="100" gradientUnits="userSpaceOnUse">
<stop stop-color="#3E65E4"/>
<stop offset="1" stop-color="#2D8DE4"/>
</linearGradient>
</defs>
</svg>
