<svg width="100" height="100" viewBox="0 0 100 100" fill="none" xmlns="http://www.w3.org/2000/svg">
<path d="M87.5013 18.1641C88.58 18.1641 89.4545 17.2896 89.4545 16.2109V5.85938C89.4545 2.62852 86.8259 0 83.595 0H5.85946C2.62855 0 0 2.62852 0 5.85938V94.1406C0 97.3715 2.62855 100 5.85946 100H83.595C86.8259 100 89.4545 97.3715 89.4545 94.1406V88.6719C89.4545 87.5932 88.58 86.7188 87.5013 86.7188C86.4226 86.7188 85.5481 87.5932 85.5481 88.6719V94.1406C85.5481 95.2176 84.672 96.0938 83.595 96.0938H5.85946C4.78249 96.0938 3.90631 95.2176 3.90631 94.1406V5.85938C3.90631 4.78242 4.78249 3.90625 5.85946 3.90625H83.595C84.672 3.90625 85.5481 4.78242 85.5481 5.85938V16.2109C85.5481 17.2896 86.4226 18.1641 87.5013 18.1641Z" fill="url(#paint0_linear)"/>
<path d="M78.1273 9.375H11.3271C10.2484 9.375 9.37397 10.2494 9.37397 11.3281V52.1484C9.37397 53.2271 10.2484 54.1016 11.3271 54.1016C12.4058 54.1016 13.2803 53.2271 13.2803 52.1484V13.2812H76.1742V16.4062C76.1742 17.485 77.0488 18.3594 78.1273 18.3594C79.2061 18.3594 80.0805 17.485 80.0805 16.4062V11.3281C80.0805 10.2494 79.2061 9.375 78.1273 9.375Z" fill="url(#paint1_linear)"/>
<path d="M12.7072 57.9941C12.3439 57.6309 11.842 57.4219 11.3263 57.4219C10.8127 57.4219 10.3087 57.6309 9.94546 57.9941C9.58217 58.3574 9.37319 58.8613 9.37319 59.375C9.37319 59.8887 9.58217 60.3926 9.94546 60.7559C10.3087 61.1191 10.8127 61.3281 11.3263 61.3281C11.842 61.3281 12.3439 61.1191 12.7072 60.7559C13.0725 60.3926 13.2795 59.8887 13.2795 59.375C13.2795 58.8613 13.0725 58.3574 12.7072 57.9941Z" fill="url(#paint2_linear)"/>
<path d="M78.1273 82.4219C77.0486 82.4219 76.1742 83.2963 76.1742 84.375V86.7188H13.2803V66.8945C13.2803 65.8158 12.4058 64.9414 11.3271 64.9414C10.2484 64.9414 9.37397 65.8158 9.37397 66.8945V88.6719C9.37397 89.7506 10.2484 90.625 11.3271 90.625H78.1273C79.2061 90.625 80.0805 89.7506 80.0805 88.6719V84.375C80.0805 83.2963 79.2061 82.4219 78.1273 82.4219Z" fill="url(#paint3_linear)"/>
<path d="M60.529 69.0109C59.7663 68.248 58.5298 68.248 57.7669 69.0107L53.9067 72.8711L51.5072 70.4715C49.9922 68.9566 47.5275 68.9566 46.0124 70.4715L44.451 72.0328C43.6883 72.7955 43.6883 74.0322 44.451 74.7951C45.2138 75.5578 46.4505 75.5578 47.2134 74.7951L48.7599 73.2486L51.1594 75.6482C51.9168 76.4057 52.9117 76.7844 53.9067 76.7844C54.9016 76.7844 55.8965 76.4057 56.654 75.6482L60.529 71.7732C61.2917 71.0106 61.2917 69.7738 60.529 69.0109Z" fill="url(#paint4_linear)"/>
<path d="M99.1023 40.973C99.963 39.6303 100.22 37.9764 99.8072 36.4357C99.3943 34.8951 98.345 33.5914 96.928 32.859C96.3135 32.5414 95.9374 31.8898 95.9696 31.199C96.0436 29.6057 95.4393 28.0451 94.3116 26.9172C93.1838 25.7895 91.6236 25.1842 90.0297 25.2592C89.3355 25.2928 88.6873 24.915 88.3697 24.3008C87.6372 22.884 86.3335 21.8346 84.7929 21.4217C83.2516 21.0086 81.5983 21.2658 80.2557 22.1266C79.6735 22.5 78.9211 22.4998 78.3391 22.1266C76.9963 21.2656 75.3427 21.0088 73.8019 21.4217C72.2612 21.8346 70.9575 22.884 70.2251 24.3008C69.9075 24.9152 69.2542 25.2904 68.5651 25.2592C66.9711 25.1848 65.4111 25.7895 64.2834 26.9172C63.1554 28.0451 62.5511 29.6057 62.6252 31.1988C62.6574 31.8898 62.281 32.5414 61.6667 32.859C60.2499 33.5914 59.2005 34.8949 58.7876 36.4357C58.5905 37.1707 58.5477 37.9314 58.6487 38.6719H24.5662C23.4875 38.6719 22.613 39.5463 22.613 40.625C22.613 41.7037 23.4875 42.5781 24.5662 42.5781H59.6466C59.6046 42.6854 59.556 42.7906 59.4923 42.8898C58.6315 44.2326 58.3745 45.8865 58.7874 47.4271C58.844 47.6387 58.9138 47.8453 58.9938 48.0469H24.5656C23.4869 48.0469 22.6124 48.9213 22.6124 50C22.6124 51.0787 23.4869 51.9531 24.5656 51.9531H62.5085C62.5935 52.1764 62.6361 52.4172 62.6246 52.6639C62.5505 54.2572 63.1549 55.8178 64.2828 56.9457C65.4105 58.0734 66.9705 58.6789 68.5645 58.6037C69.2545 58.5699 69.9069 58.9477 70.2245 59.5621C70.4591 60.016 70.753 60.4314 71.0938 60.8012V79.042C71.0938 79.8311 71.5686 80.5426 72.2972 80.8455C73.0255 81.1484 73.865 80.9832 74.4245 80.4266L79.2971 75.5795L84.1696 80.4266C84.5431 80.798 85.0409 80.9951 85.5476 80.9951C85.7999 80.9951 86.0546 80.9461 86.297 80.8453C87.0255 80.5424 87.5003 79.8309 87.5003 79.0418V60.801C87.8411 60.4314 88.1351 60.0158 88.3697 59.5619C88.6873 58.9475 89.3396 58.5721 90.0297 58.6035C91.6246 58.6789 93.1836 58.0734 94.3114 56.9455C95.4393 55.8176 96.0436 54.257 95.9696 52.6637C95.9374 51.9729 96.3137 51.3213 96.928 51.0037C98.3448 50.2713 99.3943 48.9678 99.8072 47.427C100.22 45.8861 99.963 44.2324 99.1023 42.8895C98.7288 42.3076 98.7288 41.5553 99.1023 40.973ZM83.594 74.3441L80.6744 71.4398C79.9125 70.6818 78.6814 70.6818 77.9195 71.4398L75.0001 74.3441V62.627C76.1687 62.682 77.3398 62.3766 78.3389 61.7363C78.9211 61.3629 79.6734 61.3631 80.2555 61.7363C81.178 62.3277 82.2471 62.6342 83.3259 62.6342C83.4153 62.6342 83.5046 62.6297 83.594 62.6254V74.3441ZM96.0338 46.4162C95.903 46.9047 95.5833 47.3018 95.134 47.534C93.1684 48.5502 91.9645 50.635 92.0674 52.8455C92.091 53.3508 91.9068 53.826 91.5492 54.1838C91.1916 54.5414 90.7164 54.725 90.2111 54.702C87.9994 54.5996 85.9157 55.8027 84.8995 57.7686C84.6673 58.218 84.2702 58.5375 83.7815 58.6684C83.2932 58.799 82.7893 58.7211 82.3637 58.448C81.4321 57.8508 80.3647 57.5523 79.2969 57.5523C78.2295 57.5523 77.1617 57.851 76.2302 58.448C75.8044 58.7209 75.3007 58.799 74.8122 58.6684C74.3236 58.5375 73.9267 58.2178 73.6943 57.7686C72.678 55.8029 70.5948 54.5986 68.3827 54.702C67.8786 54.7252 67.4022 54.5414 67.0446 54.1838C66.6867 53.826 66.5027 53.3508 66.5264 52.8453C66.5988 51.2852 66.0182 49.7894 64.9805 48.6861C64.95 48.6527 64.9189 48.6199 64.8861 48.5887C64.474 48.1709 63.9965 47.8115 63.4597 47.534C63.0105 47.3018 62.691 46.9049 62.5601 46.4162C62.4293 45.9275 62.5074 45.4238 62.7804 44.9982C63.9748 43.1354 63.9748 40.7279 62.7804 38.865C62.5076 38.4393 62.4293 37.9355 62.5601 37.4469C62.691 36.9584 63.0107 36.5613 63.4599 36.3291C65.4256 35.3129 66.6293 33.2281 66.5266 31.0176C66.5029 30.5123 66.6871 30.0371 67.0447 29.6793C67.4024 29.3215 67.8785 29.1379 68.3829 29.1611C70.5948 29.2637 72.6784 28.0604 73.6945 26.0945C73.9267 25.6451 74.3238 25.3256 74.8124 25.1947C75.3009 25.0641 75.8046 25.142 76.2302 25.415C78.0933 26.6096 80.501 26.6096 82.3635 25.415C82.7893 25.1422 83.2928 25.0637 83.7815 25.1947C84.2702 25.3256 84.6671 25.6453 84.8995 26.0945C85.9157 28.0602 88.0003 29.2643 90.2111 29.1611C90.7166 29.1381 91.1916 29.3215 91.5492 29.6793C91.907 30.0371 92.091 30.5123 92.0674 31.0176C91.9646 33.2279 93.1682 35.3129 95.1342 36.3291C95.5835 36.5613 95.903 36.9582 96.0338 37.4469C96.1647 37.9355 96.0866 38.4393 95.8135 38.8648C94.6192 40.7277 94.6192 43.1352 95.8135 44.998C96.0866 45.4238 96.1649 45.9275 96.0338 46.4162Z" fill="url(#paint5_linear)"/>
<path d="M88.5857 36.6184C87.823 35.8557 86.5863 35.8557 85.8235 36.6184L79.3408 43.1012L76.7601 40.5205C75.9974 39.7578 74.7607 39.7578 73.9978 40.5205C73.2351 41.2832 73.2351 42.5199 73.9978 43.2828L77.9596 47.2445C78.341 47.626 78.8408 47.8166 79.3406 47.8166C79.8404 47.8166 80.3405 47.626 80.7217 47.2445L88.5857 39.3807C89.3484 38.618 89.3484 37.3812 88.5857 36.6184Z" fill="url(#paint6_linear)"/>
<path d="M23.8422 23.6191C23.4789 23.2559 22.975 23.0469 22.4613 23.0469C21.9476 23.0469 21.4437 23.2559 21.0804 23.6191C20.7171 23.9824 20.5081 24.4863 20.5081 25C20.5081 25.5137 20.7171 26.0176 21.0804 26.3809C21.4437 26.7441 21.9476 26.9531 22.4613 26.9531C22.975 26.9531 23.4789 26.7441 23.8422 26.3809C24.2054 26.0176 24.4144 25.5137 24.4144 25C24.4144 24.4863 24.2054 23.9824 23.8422 23.6191Z" fill="url(#paint7_linear)"/>
<path d="M39.257 23.0469H29.7516C28.6729 23.0469 27.7985 23.9213 27.7985 25C27.7985 26.0787 28.6729 26.9531 29.7516 26.9531H39.257C40.3358 26.9531 41.2102 26.0787 41.2102 25C41.2102 23.9213 40.3358 23.0469 39.257 23.0469Z" fill="url(#paint8_linear)"/>
<path d="M59.1481 57.4219H36.8193C35.7406 57.4219 34.8661 58.2963 34.8661 59.375C34.8661 60.4537 35.7406 61.3281 36.8193 61.3281H59.148C60.2267 61.3281 61.1011 60.4537 61.1011 59.375C61.1011 58.2963 60.2269 57.4219 59.1481 57.4219Z" fill="url(#paint9_linear)"/>
<defs>
<linearGradient id="paint0_linear" x1="-53.2959" y1="100" x2="100.501" y2="100" gradientUnits="userSpaceOnUse">
<stop stop-color="#3E65E4"/>
<stop offset="1" stop-color="#2D8DE4"/>
</linearGradient>
<linearGradient id="paint1_linear" x1="-53.2959" y1="100" x2="100.501" y2="100" gradientUnits="userSpaceOnUse">
<stop stop-color="#3E65E4"/>
<stop offset="1" stop-color="#2D8DE4"/>
</linearGradient>
<linearGradient id="paint2_linear" x1="-53.2959" y1="100" x2="100.501" y2="100" gradientUnits="userSpaceOnUse">
<stop stop-color="#3E65E4"/>
<stop offset="1" stop-color="#2D8DE4"/>
</linearGradient>
<linearGradient id="paint3_linear" x1="-53.2959" y1="100" x2="100.501" y2="100" gradientUnits="userSpaceOnUse">
<stop stop-color="#3E65E4"/>
<stop offset="1" stop-color="#2D8DE4"/>
</linearGradient>
<linearGradient id="paint4_linear" x1="-53.2959" y1="100" x2="100.501" y2="100" gradientUnits="userSpaceOnUse">
<stop stop-color="#3E65E4"/>
<stop offset="1" stop-color="#2D8DE4"/>
</linearGradient>
<linearGradient id="paint5_linear" x1="-53.2959" y1="100" x2="100.501" y2="100" gradientUnits="userSpaceOnUse">
<stop stop-color="#3E65E4"/>
<stop offset="1" stop-color="#2D8DE4"/>
</linearGradient>
<linearGradient id="paint6_linear" x1="-53.2959" y1="100" x2="100.501" y2="100" gradientUnits="userSpaceOnUse">
<stop stop-color="#3E65E4"/>
<stop offset="1" stop-color="#2D8DE4"/>
</linearGradient>
<linearGradient id="paint7_linear" x1="-53.2959" y1="100" x2="100.501" y2="100" gradientUnits="userSpaceOnUse">
<stop stop-color="#3E65E4"/>
<stop offset="1" stop-color="#2D8DE4"/>
</linearGradient>
<linearGradient id="paint8_linear" x1="-53.2959" y1="100" x2="100.501" y2="100" gradientUnits="userSpaceOnUse">
<stop stop-color="#3E65E4"/>
<stop offset="1" stop-color="#2D8DE4"/>
</linearGradient>
<linearGradient id="paint9_linear" x1="-53.2959" y1="100" x2="100.501" y2="100" gradientUnits="userSpaceOnUse">
<stop stop-color="#3E65E4"/>
<stop offset="1" stop-color="#2D8DE4"/>
</linearGradient>
</defs>
</svg>
