<svg width="99" height="99" viewBox="0 0 99 99" fill="none" xmlns="http://www.w3.org/2000/svg">
<path d="M29.0905 60.3287C30.536 59.5993 32.2708 60.144 33.0402 61.5687L38.5005 71.6795C38.9213 72.4585 39.8175 72.8518 40.6758 72.6353C41.5341 72.4183 42.1355 71.646 42.1355 70.7606V55.9975C42.1353 54.9297 41.2696 54.0641 40.2017 54.0641C39.1338 54.0641 38.2681 54.9299 38.2681 55.9977V63.1113L36.4428 59.7314C34.6712 56.4515 30.6762 55.1968 27.3485 56.8763C24.5005 58.3131 23.0338 61.4823 23.782 64.5832L27.3218 79.2555C28.1492 82.6853 29.6243 85.8688 31.706 88.7175L38.6407 98.207C39.0193 98.7252 39.6073 99 40.2034 99C40.5992 99 40.9987 98.8788 41.3427 98.6274C42.2049 97.9972 42.3932 96.7874 41.7631 95.9252L34.8284 86.4357C33.0491 84.0009 31.7884 81.2802 31.0813 78.3486L27.5414 63.6761C27.2164 62.3292 27.8535 60.9529 29.0905 60.3287Z" fill="url(#paint0_linear)"/>
<path d="M72.7468 52.0872C71.6058 52.0872 70.5317 52.3793 69.5951 52.8923C68.6463 50.4208 66.2496 48.661 63.448 48.661C62.2397 48.661 61.1074 48.9897 60.133 49.5601C59.0916 47.2943 56.802 45.7162 54.1493 45.7162C53.1811 45.7162 52.2621 45.9279 51.4336 46.3047V37.06C51.4336 33.4303 48.4806 30.4771 44.8506 30.4771C41.2207 30.4771 38.2677 33.4301 38.2677 37.06V40.4117C38.2677 41.4795 39.1334 42.3453 40.2013 42.3453C41.2692 42.3453 42.1349 41.4795 42.1349 40.4117V37.0602C42.1349 35.5628 43.3533 34.3445 44.8506 34.3445C46.348 34.3445 47.5664 35.5628 47.5664 37.0602V64.3446C47.5664 65.4123 48.432 66.2782 49.5 66.2782C50.5679 66.2782 51.4336 65.4123 51.4336 64.3446V52.2989C51.4336 50.8015 52.6517 49.5831 54.1493 49.5831C55.6469 49.5831 56.865 50.8015 56.865 52.2989V64.3446C56.865 65.4123 57.7307 66.2782 58.7986 66.2782C59.8666 66.2782 60.7322 65.4123 60.7322 64.3446V55.2439C60.7322 53.7464 61.9504 52.528 63.448 52.528C64.9455 52.528 66.1637 53.7464 66.1637 55.2439V64.3446C66.1637 65.4123 67.0294 66.2782 68.0973 66.2782C69.1652 66.2782 70.0309 65.4123 70.0309 64.3446V58.6697C70.0309 57.1723 71.2493 55.9539 72.7467 55.9539C74.244 55.9539 75.4624 57.1723 75.4624 58.6697V74.9852C75.4624 79.3326 74.8026 83.6407 73.5017 87.789L70.7742 96.4867C70.4548 97.5057 71.0217 98.5909 72.0407 98.9103C72.2333 98.9708 72.428 98.9994 72.6198 98.9994C73.4424 98.9992 74.2052 98.4702 74.4643 97.6438L77.1918 88.9461C78.6103 84.4226 79.3296 79.7254 79.3296 74.9852V58.6697C79.3298 55.0403 76.3768 52.0872 72.7468 52.0872Z" fill="url(#paint1_linear)"/>
<path d="M98.838 10.2537C98.4521 9.06662 97.4449 8.21797 96.2095 8.03872L90.2871 7.18001L87.6371 1.8139C87.0847 0.694933 85.9663 0 84.7185 0H84.7178C83.4694 0.000193359 82.351 0.6959 81.799 1.81545L79.1519 7.18272L73.2299 8.04491C71.9947 8.22473 70.9878 9.07397 70.6027 10.2614C70.2173 11.4486 70.5335 12.7271 71.4274 13.598L75.714 17.7742L74.7038 23.6728C74.4933 24.9031 74.9898 26.123 75.9997 26.8563C76.5701 27.2706 77.2374 27.4808 77.9092 27.4808C78.4268 27.4808 78.9471 27.3559 79.4278 27.1032L84.7241 24.3169L90.022 27.1005C91.1268 27.6813 92.4405 27.5858 93.4501 26.8516C94.4596 26.1176 94.9556 24.8977 94.744 23.6674L93.7308 17.7693L98.0151 13.591C98.9086 12.7194 99.224 11.4405 98.838 10.2537ZM90.8007 15.2253C90.0332 15.9734 89.6836 17.0508 89.8652 18.1069L90.7229 23.1001L86.2381 20.7438C85.2893 20.2449 84.1566 20.2455 83.2082 20.7444L78.7246 23.1032L79.5798 18.1093C79.7604 17.0531 79.4102 15.9763 78.6426 15.2284L75.0136 11.693L80.0274 10.9633C81.0876 10.8088 82.0037 10.1429 82.4777 9.18167L84.7187 4.63811L86.9621 9.18032C87.4366 10.1413 88.3529 10.8067 89.4137 10.9608L94.4275 11.688L90.8007 15.2253Z" fill="url(#paint2_linear)"/>
<path d="M63.6174 10.2537C63.2314 9.06662 62.2244 8.21777 60.989 8.03872L55.0666 7.18001L52.4166 1.8139C51.864 0.694933 50.7458 0 49.4978 0C49.4978 0 49.4973 0 49.4969 0C48.2487 0.000193359 47.1303 0.6959 46.5783 1.81545L43.9312 7.18272L38.0092 8.04491C36.774 8.22473 35.7672 9.07397 35.382 10.2614C34.9966 11.4486 35.3128 12.7271 36.2067 13.598L40.4931 17.774L39.483 23.6726C39.2724 24.9029 39.7689 26.1229 40.7789 26.8561C41.3493 27.2704 42.0166 27.4806 42.6883 27.4806C43.2059 27.4806 43.7262 27.3557 44.2069 27.103L49.5034 24.3169L54.8013 27.1003C55.9062 27.6811 57.2199 27.5856 58.2294 26.8514C59.2389 26.1174 59.7349 24.8975 59.5233 23.6672L58.5101 17.7691L62.7944 13.5908C63.6879 12.7194 64.0033 11.4407 63.6174 10.2537ZM55.5802 15.2253C54.8129 15.9732 54.4633 17.0504 54.6447 18.1069L55.5024 23.1001L51.0176 20.7438C50.0686 20.2451 48.9357 20.2453 47.9877 20.7444L43.5039 23.1032L44.3591 18.1093C44.5397 17.0529 44.1895 15.9761 43.4219 15.2284L39.7931 11.693L44.8067 10.9633C45.8669 10.8088 46.7831 10.1429 47.2572 9.18167L49.4982 4.63792L51.7416 9.18032C52.2159 10.1411 53.1322 10.8067 54.1932 10.9608L59.207 11.688L55.5802 15.2253Z" fill="url(#paint3_linear)"/>
<path d="M28.3969 10.2537C28.0109 9.06662 27.0037 8.21797 25.7683 8.03872L19.8459 7.18001L17.1961 1.8139C16.6435 0.694933 15.5253 0 14.2774 0C14.2774 0 14.2768 0 14.2764 0C13.0282 0.000193359 11.9099 0.6959 11.3578 1.81545L8.71072 7.18272L2.78868 8.04491C1.5535 8.22473 0.546871 9.07397 0.161505 10.2612C-0.223861 11.4484 0.0918956 12.7269 0.985991 13.598L5.27258 17.7742L4.26247 23.6728C4.0519 24.9031 4.54845 26.123 5.55837 26.8565C6.12898 27.2706 6.79607 27.481 7.46799 27.4808C7.98562 27.4808 8.50595 27.3559 8.98664 27.1032L14.2832 24.3171L19.581 27.1005C20.6861 27.6809 21.9996 27.5856 23.0091 26.8518C24.0186 26.1176 24.5144 24.8973 24.3031 23.6672L23.2899 17.7691L27.5741 13.5908C28.4674 12.7194 28.7828 11.4407 28.3969 10.2537ZM20.3597 15.2251C19.5922 15.973 19.2424 17.0504 19.424 18.1069L20.2818 23.1001L15.7972 20.7438C14.8483 20.2451 13.7154 20.2453 12.7672 20.7444L8.2832 23.1034L9.13823 18.1098C9.31922 17.0537 8.96904 15.9767 8.20121 15.2286L4.57262 11.693L9.58625 10.9633C10.6464 10.8088 11.5626 10.1429 12.0365 9.18167L14.2775 4.63792L16.5209 9.18032C16.9952 10.1411 17.9116 10.8067 18.9725 10.9608L23.9865 11.688L20.3597 15.2251Z" fill="url(#paint4_linear)"/>
<path d="M41.5687 47.0115C41.2091 46.6516 40.7104 46.4449 40.2017 46.4449C39.6931 46.4449 39.1943 46.6516 38.8346 47.0115C38.475 47.3713 38.2681 47.8698 38.2681 48.3785C38.2681 48.8871 38.475 49.3859 38.8346 49.7454C39.1943 50.105 39.6931 50.3121 40.2017 50.3121C40.7102 50.3121 41.2091 50.1052 41.5687 49.7454C41.9284 49.3859 42.1353 48.8871 42.1353 48.3785C42.1353 47.8696 41.9284 47.3709 41.5687 47.0115Z" fill="url(#paint5_linear)"/>
<defs>
<linearGradient id="paint0_linear" x1="-52.763" y1="99" x2="99.4959" y2="99" gradientUnits="userSpaceOnUse">
<stop stop-color="#3E65E4"/>
<stop offset="1" stop-color="#2D8DE4"/>
</linearGradient>
<linearGradient id="paint1_linear" x1="-52.763" y1="99" x2="99.4959" y2="99" gradientUnits="userSpaceOnUse">
<stop stop-color="#3E65E4"/>
<stop offset="1" stop-color="#2D8DE4"/>
</linearGradient>
<linearGradient id="paint2_linear" x1="-52.763" y1="99" x2="99.4959" y2="99" gradientUnits="userSpaceOnUse">
<stop stop-color="#3E65E4"/>
<stop offset="1" stop-color="#2D8DE4"/>
</linearGradient>
<linearGradient id="paint3_linear" x1="-52.763" y1="99" x2="99.4959" y2="99" gradientUnits="userSpaceOnUse">
<stop stop-color="#3E65E4"/>
<stop offset="1" stop-color="#2D8DE4"/>
</linearGradient>
<linearGradient id="paint4_linear" x1="-52.763" y1="99" x2="99.4959" y2="99" gradientUnits="userSpaceOnUse">
<stop stop-color="#3E65E4"/>
<stop offset="1" stop-color="#2D8DE4"/>
</linearGradient>
<linearGradient id="paint5_linear" x1="-52.763" y1="99" x2="99.4959" y2="99" gradientUnits="userSpaceOnUse">
<stop stop-color="#3E65E4"/>
<stop offset="1" stop-color="#2D8DE4"/>
</linearGradient>
</defs>
</svg>
