<svg width="78" height="99" viewBox="0 0 78 99" fill="none" xmlns="http://www.w3.org/2000/svg">
<path d="M76.0693 49.9064C77.1356 49.9064 78 49.0408 78 47.9728V17.4023C78 12.0714 73.6695 7.73438 68.3465 7.73438H55.2605C54.2967 6.49997 52.7975 5.7041 51.1151 5.7041H47.9746C46.438 2.2828 43.0046 0 39.1693 0H38.8305C34.9952 0 31.562 2.2828 30.0254 5.7041H26.8849C25.2025 5.7041 23.7033 6.49997 22.7395 7.73438H9.65347C4.33054 7.73438 0 12.0714 0 17.4023V89.332C0 94.6629 4.33054 99 9.65347 99H68.3465C73.6695 99 78 94.6629 78 89.332V64.1831C78 63.1152 77.1356 62.2495 76.0693 62.2495C75.003 62.2495 74.1386 63.1152 74.1386 64.1831V89.332C74.1386 92.5306 71.5403 95.1328 68.3465 95.1328H9.65347C6.45971 95.1328 3.86139 92.5306 3.86139 89.332V17.4023C3.86139 14.2038 6.45971 11.6016 9.65347 11.6016H21.6238V15.4688H11.5842C9.45499 15.4688 7.72277 17.2036 7.72277 19.3359V87.3984C7.72277 89.5308 9.45499 91.2656 11.5842 91.2656H66.4158C68.545 91.2656 70.2772 89.5308 70.2772 87.3984V19.3359C70.2772 17.2036 68.545 15.4688 66.4158 15.4688H56.3762V11.6016H68.3465C71.5403 11.6016 74.1386 14.2038 74.1386 17.4023V47.9728C74.1386 49.0408 75.003 49.9064 76.0693 49.9064ZM25.4851 10.9731C25.4851 10.2001 26.113 9.57129 26.8849 9.57129H31.3786C32.2501 9.57129 33.0135 8.98657 33.2419 8.1443C33.9244 5.62598 36.2225 3.86719 38.8307 3.86719H39.1695C41.7775 3.86719 44.0758 5.62598 44.7583 8.1443C44.9867 8.98657 45.7501 9.57129 46.6216 9.57129H51.1153C51.8872 9.57129 52.515 10.2001 52.515 10.9731V15.4688H25.4851V10.9731ZM66.4158 19.3359L66.4184 87.3984C66.4184 87.3984 66.4176 87.3984 66.4158 87.3984H11.5842V19.3359H66.4158Z" fill="url(#paint0_linear)"/>
<path d="M77.4343 54.8812C77.0752 54.5215 76.5771 54.3146 76.0693 54.3146C75.5615 54.3146 75.0634 54.5215 74.7043 54.8812C74.3452 55.2408 74.1386 55.7397 74.1386 56.2482C74.1386 56.7587 74.3452 57.2556 74.7043 57.6153C75.0634 57.9769 75.5615 58.1818 76.0693 58.1818C76.5771 58.1818 77.0752 57.9769 77.4343 57.6153C77.7934 57.2556 78 56.7587 78 56.2482C78 55.7397 77.7934 55.2428 77.4343 54.8812Z" fill="url(#paint1_linear)"/>
<path d="M41.7165 34.5978C41.3574 34.2381 40.8593 34.0312 40.3515 34.0312C39.8437 34.0312 39.3456 34.2381 38.9865 34.5978C38.6274 34.9574 38.4208 35.4563 38.4208 35.9648C38.4208 36.4734 38.6274 36.9722 38.9865 37.3319C39.3456 37.6915 39.8437 37.8984 40.3515 37.8984C40.8593 37.8984 41.3574 37.6915 41.7165 37.3319C42.0756 36.9722 42.2822 36.4734 42.2822 35.9648C42.2822 35.4563 42.0756 34.9574 41.7165 34.5978Z" fill="url(#paint2_linear)"/>
<path d="M60.3311 34.0312H48.8465C47.7802 34.0312 46.9158 34.8969 46.9158 35.9648C46.9158 37.0328 47.7802 37.8984 48.8465 37.8984H60.3311C61.3974 37.8984 62.2618 37.0328 62.2618 35.9648C62.2618 34.8969 61.3974 34.0312 60.3311 34.0312Z" fill="url(#paint3_linear)"/>
<path d="M60.3311 54.9141H40.3515C39.2852 54.9141 38.4208 55.7797 38.4208 56.8477C38.4208 57.9156 39.2852 58.7812 40.3515 58.7812H60.3311C61.3974 58.7812 62.2618 57.9156 62.2618 56.8477C62.2618 55.7797 61.3974 54.9141 60.3311 54.9141Z" fill="url(#paint4_linear)"/>
<path d="M60.3311 75.7969H40.3515C39.2852 75.7969 38.4208 76.6625 38.4208 77.7305C38.4208 78.7984 39.2852 79.6641 40.3515 79.6641H60.3311C61.3974 79.6641 62.2618 78.7984 62.2618 77.7305C62.2618 76.6625 61.3974 75.7969 60.3311 75.7969Z" fill="url(#paint5_linear)"/>
<path d="M28.1881 34.0312H20.8515V26.6836C20.8515 25.6157 19.9871 24.75 18.9208 24.75C17.8545 24.75 16.9901 25.6157 16.9901 26.6836V35.9648C16.9901 37.0328 17.8545 37.8984 18.9208 37.8984H28.1881C29.2544 37.8984 30.1188 37.0328 30.1188 35.9648C30.1188 34.8969 29.2544 34.0312 28.1881 34.0312Z" fill="url(#paint6_linear)"/>
<path d="M32.2474 24.6947C31.4937 23.9396 30.2711 23.9396 29.5172 24.6947L26.8552 27.3607L26.6295 27.1347C25.8755 26.3796 24.653 26.3796 23.8989 27.1347C23.1448 27.8898 23.145 29.1141 23.8989 29.8694L25.4898 31.4627C25.8668 31.8403 26.3609 32.029 26.855 32.029C27.349 32.029 27.8433 31.8403 28.2202 31.4627L32.2474 27.4294C33.0013 26.6743 33.0013 25.45 32.2474 24.6947Z" fill="url(#paint7_linear)"/>
<path d="M28.1881 54.8578H20.8515V47.5101C20.8515 46.4422 19.9871 45.5765 18.9208 45.5765C17.8545 45.5765 16.9901 46.4422 16.9901 47.5101V56.7914C16.9901 57.8593 17.8545 58.725 18.9208 58.725H28.1881C29.2544 58.725 30.1188 57.8593 30.1188 56.7914C30.1188 55.7235 29.2544 54.8578 28.1881 54.8578Z" fill="url(#paint8_linear)"/>
<path d="M32.2474 45.5212C31.4937 44.7662 30.2711 44.7662 29.5172 45.5212L26.8552 48.1873L26.6295 47.9612C25.8755 47.2062 24.653 47.2062 23.8989 47.9612C23.1448 48.7163 23.145 49.9407 23.8989 50.6959L25.4898 52.2892C25.8668 52.6668 26.3609 52.8556 26.855 52.8556C27.349 52.8556 27.8433 52.6668 28.2202 52.2892L32.2474 48.2559C33.0013 47.5009 33.0013 46.2765 32.2474 45.5212Z" fill="url(#paint9_linear)"/>
<path d="M28.1881 75.7969H20.8515V68.4492C20.8515 67.3813 19.9871 66.5156 18.9208 66.5156C17.8545 66.5156 16.9901 67.3813 16.9901 68.4492V77.7305C16.9901 78.7984 17.8545 79.6641 18.9208 79.6641H28.1881C29.2544 79.6641 30.1188 78.7984 30.1188 77.7305C30.1188 76.6625 29.2544 75.7969 28.1881 75.7969Z" fill="url(#paint10_linear)"/>
<path d="M32.2474 66.4603C31.4937 65.7053 30.2711 65.7053 29.5172 66.4603L26.8552 69.1264L26.6295 68.9003C25.8755 68.1453 24.653 68.1453 23.8989 68.9003C23.1448 69.6554 23.145 70.8797 23.8989 71.635L25.4898 73.2283C25.8668 73.6059 26.3609 73.7946 26.855 73.7946C27.349 73.7946 27.8433 73.6059 28.2202 73.2283L32.2474 69.195C33.0013 68.4399 33.0013 67.2156 32.2474 66.4603Z" fill="url(#paint11_linear)"/>
<defs>
<linearGradient id="paint0_linear" x1="-41.5708" y1="99" x2="78.3907" y2="99" gradientUnits="userSpaceOnUse">
<stop stop-color="#3E65E4"/>
<stop offset="1" stop-color="#2D8DE4"/>
</linearGradient>
<linearGradient id="paint1_linear" x1="-41.5708" y1="99" x2="78.3907" y2="99" gradientUnits="userSpaceOnUse">
<stop stop-color="#3E65E4"/>
<stop offset="1" stop-color="#2D8DE4"/>
</linearGradient>
<linearGradient id="paint2_linear" x1="-41.5708" y1="99" x2="78.3907" y2="99" gradientUnits="userSpaceOnUse">
<stop stop-color="#3E65E4"/>
<stop offset="1" stop-color="#2D8DE4"/>
</linearGradient>
<linearGradient id="paint3_linear" x1="-41.5708" y1="99" x2="78.3907" y2="99" gradientUnits="userSpaceOnUse">
<stop stop-color="#3E65E4"/>
<stop offset="1" stop-color="#2D8DE4"/>
</linearGradient>
<linearGradient id="paint4_linear" x1="-41.5708" y1="99" x2="78.3907" y2="99" gradientUnits="userSpaceOnUse">
<stop stop-color="#3E65E4"/>
<stop offset="1" stop-color="#2D8DE4"/>
</linearGradient>
<linearGradient id="paint5_linear" x1="-41.5708" y1="99" x2="78.3907" y2="99" gradientUnits="userSpaceOnUse">
<stop stop-color="#3E65E4"/>
<stop offset="1" stop-color="#2D8DE4"/>
</linearGradient>
<linearGradient id="paint6_linear" x1="-41.5708" y1="99" x2="78.3907" y2="99" gradientUnits="userSpaceOnUse">
<stop stop-color="#3E65E4"/>
<stop offset="1" stop-color="#2D8DE4"/>
</linearGradient>
<linearGradient id="paint7_linear" x1="-41.5708" y1="99" x2="78.3907" y2="99" gradientUnits="userSpaceOnUse">
<stop stop-color="#3E65E4"/>
<stop offset="1" stop-color="#2D8DE4"/>
</linearGradient>
<linearGradient id="paint8_linear" x1="-41.5708" y1="99" x2="78.3907" y2="99" gradientUnits="userSpaceOnUse">
<stop stop-color="#3E65E4"/>
<stop offset="1" stop-color="#2D8DE4"/>
</linearGradient>
<linearGradient id="paint9_linear" x1="-41.5708" y1="99" x2="78.3907" y2="99" gradientUnits="userSpaceOnUse">
<stop stop-color="#3E65E4"/>
<stop offset="1" stop-color="#2D8DE4"/>
</linearGradient>
<linearGradient id="paint10_linear" x1="-41.5708" y1="99" x2="78.3907" y2="99" gradientUnits="userSpaceOnUse">
<stop stop-color="#3E65E4"/>
<stop offset="1" stop-color="#2D8DE4"/>
</linearGradient>
<linearGradient id="paint11_linear" x1="-41.5708" y1="99" x2="78.3907" y2="99" gradientUnits="userSpaceOnUse">
<stop stop-color="#3E65E4"/>
<stop offset="1" stop-color="#2D8DE4"/>
</linearGradient>
</defs>
</svg>
