<svg width="100" height="100" viewBox="0 0 100 100" fill="none" xmlns="http://www.w3.org/2000/svg">
<path d="M98.0467 48.1075C99.1255 48.1075 99.9998 47.2329 99.9998 46.1546V33.6766C100 32.5982 99.1257 31.7238 98.0473 31.7236L65.6017 31.7158C65.6004 31.7158 65.5992 31.7158 65.5976 31.7158C61.6614 31.7158 57.8171 33.3217 55.0508 36.1217L51.9984 39.2109L47.3187 34.5307C45.5057 32.7178 43.0949 31.719 40.5306 31.7188L1.9531 31.7158C1.43508 31.7158 0.938362 31.9217 0.572119 32.2879C0.205682 32.6541 0 33.151 0 33.6687V72.3777C0 73.4562 0.874489 74.3306 1.9531 74.3306H19.3737C19.6783 75.4248 20.2582 76.4574 21.1167 77.3163C22.4478 78.6476 24.1966 79.3136 25.9456 79.3136C25.9679 79.3136 25.9899 79.3122 26.012 79.312C26.0118 79.3357 26.0102 79.3591 26.0102 79.3829C26.0101 81.2064 26.7199 82.921 28.0092 84.2106C29.2986 85.5003 31.0132 86.2108 32.837 86.2112C32.8374 86.2112 32.8376 86.2112 32.838 86.2112C32.8602 86.2112 32.8823 86.2098 32.9046 86.2096C32.9044 86.2323 32.903 86.2546 32.903 86.2772C32.9026 88.1009 33.6127 89.8153 34.902 91.1051C36.1914 92.395 37.9058 93.1053 39.7296 93.1055C39.73 93.1055 39.7304 93.1055 39.7308 93.1055C39.753 93.1055 39.7751 93.1041 39.7974 93.1039C39.7972 93.1266 39.7958 93.1491 39.7958 93.1717C39.7956 94.9953 40.5054 96.7098 41.7948 97.9994C43.0842 99.2891 44.7986 99.9996 46.6224 100C46.623 100 46.6231 100 46.6237 100C48.1498 100 49.5988 99.5008 50.787 98.5828C52.0066 99.5178 53.4712 99.9869 54.9366 99.9869C56.6846 99.9869 58.4326 99.3219 59.7637 97.9914C61.1121 96.6436 61.7766 94.8672 61.7596 93.0965C61.7832 93.0967 61.8067 93.0983 61.8305 93.0983C61.8309 93.0983 61.8313 93.0983 61.8319 93.0983C63.6551 93.0983 65.3693 92.3885 66.6589 91.0997C68.0072 89.7518 68.6717 87.9755 68.6545 86.2046C68.6782 86.2048 68.7018 86.2063 68.7254 86.2063C68.7258 86.2063 68.726 86.2063 68.7264 86.2063C70.5496 86.2063 72.264 85.4962 73.5536 84.2075C74.9019 82.8597 75.5665 81.0835 75.5493 79.3126C75.5729 79.3128 75.5965 79.3144 75.6202 79.3144C75.6206 79.3144 75.6208 79.3144 75.6211 79.3144C77.4444 79.3144 79.1588 78.6042 80.4483 77.3156C81.2912 76.473 81.8846 75.4484 82.1963 74.331H98.0465C99.1253 74.331 99.9996 73.4564 99.9996 72.3781V61.1274C99.9996 60.0491 99.1251 59.1745 98.0465 59.1745C96.9679 59.1745 96.0934 60.0491 96.0934 61.1274V70.4246H89.4528V36.1295C89.4528 35.9556 89.4278 35.7879 89.3852 35.6273L96.0934 35.6289V46.1544C96.0936 47.2329 96.9679 48.1075 98.0467 48.1075ZM25.9458 75.4105H25.9452C25.1647 75.4103 24.4314 75.1062 23.8794 74.5543C23.3276 74.0025 23.0239 73.2689 23.024 72.4886C23.0242 71.7084 23.3282 70.975 23.8802 70.4232L28.0173 66.2881C28.5868 65.7188 29.3346 65.4342 30.0827 65.4342C30.831 65.4342 31.5793 65.7191 32.1489 66.2887C33.2876 67.4279 33.2872 69.2812 32.1481 70.4199L28.0112 74.5552C27.4594 75.1068 26.7257 75.4105 25.9458 75.4105ZM32.8382 82.3048H32.8378C32.0573 82.3046 31.324 82.0005 30.7722 81.4485C30.2204 80.8968 29.9166 80.1634 29.9168 79.3829C29.917 78.6027 30.2212 77.8693 30.773 77.3175L34.9098 73.1822C35.4616 72.6306 36.1951 72.3269 36.9753 72.3269H36.9758C37.7564 72.3271 38.4896 72.6312 39.0416 73.183V73.1832C40.1806 74.3224 40.1802 76.1755 39.0411 77.3142L34.904 81.4493C34.352 82.0011 33.6183 82.3048 32.8382 82.3048ZM37.6646 88.3432C36.5256 87.204 36.5258 85.3505 37.6653 84.2118L41.8024 80.0767C42.3542 79.5251 43.0877 79.2214 43.8678 79.2214H43.8684C44.6488 79.2214 45.3822 79.5255 45.934 80.0773C47.0728 81.2165 47.0726 83.07 45.9334 84.2087L41.7964 88.3438C40.6572 89.4827 38.8037 89.4823 37.6646 88.3432ZM49.4076 94.52C49.4072 94.5203 49.4066 94.5207 49.4062 94.5211C49.4058 94.5215 49.4054 94.5221 49.4048 94.5225L48.6888 95.2383C48.137 95.7899 47.4037 96.0936 46.6235 96.0936H46.623C45.8424 96.0934 45.1092 95.7893 44.5572 95.2373C44.0053 94.6856 43.7016 93.952 43.7018 93.1717C43.702 92.3914 44.0059 91.6581 44.5579 91.1063L48.695 86.9712C49.2468 86.4196 49.9803 86.1157 50.7606 86.1157H50.7608C51.5415 86.1159 52.2748 86.42 52.8266 86.9717V86.972C53.3784 87.5237 53.6822 88.2571 53.682 89.0376C53.6818 89.8178 53.3776 90.5512 52.8258 91.103L49.4076 94.52ZM57.0022 95.2285C56.0999 96.1303 54.7512 96.3149 53.6632 95.7889L55.5874 93.8655C56.3199 93.1332 56.8648 92.2639 57.1996 91.3155C58.137 92.462 58.0712 94.16 57.0022 95.2285ZM77.687 74.5527C77.1353 75.104 76.4019 75.408 75.6215 75.408H75.6211C74.8406 75.4078 74.1071 75.1037 73.5551 74.5517L61.2049 62.201C60.4421 61.4381 59.2057 61.4383 58.4427 62.2008C58.0612 62.5821 57.8706 63.0819 57.8706 63.5817C57.8706 64.0815 58.0612 64.5813 58.4427 64.9625L70.7928 77.313C71.9318 78.4523 71.9314 80.3056 70.7922 81.4443C70.2404 81.9958 69.507 82.2997 68.7266 82.2997H68.7262C67.9457 82.2995 67.2124 81.9954 66.6604 81.4435L54.3099 69.0928C53.5472 68.3301 52.3107 68.3303 51.5478 69.0926C50.785 69.8553 50.7848 71.0916 51.5478 71.8545L63.8981 84.205C65.037 85.3442 65.0368 87.1977 63.8975 88.3364C63.3457 88.8879 62.6124 89.1917 61.8321 89.1917H61.8317C61.0511 89.1915 60.3177 88.8874 59.7659 88.3356L55.8398 84.4085C55.7466 84.3151 55.646 84.2337 55.5403 84.1632C54.2568 82.904 52.5631 82.2103 50.7622 82.2099C50.7618 82.2099 50.7616 82.2099 50.7612 82.2099C50.7378 82.2099 50.7147 82.2112 50.6915 82.2116C50.7092 80.4409 50.0453 78.6646 48.6974 77.3161V77.3159C47.408 76.0263 45.6934 75.316 43.8698 75.3158C43.8694 75.3158 43.869 75.3158 43.8686 75.3158C43.8454 75.3158 43.8223 75.3173 43.7991 75.3175C43.8169 73.5468 43.1529 71.7705 41.805 70.422C40.5156 69.1324 38.8012 68.4219 36.9774 68.4215C36.9768 68.4215 36.9766 68.4215 36.976 68.4215C36.9528 68.4215 36.9297 68.423 36.9065 68.4232C36.9243 66.6525 36.2603 64.8762 34.9124 63.5278V63.5276C32.2506 60.8655 27.919 60.8643 25.2565 63.526L21.1194 67.6611C20.3187 68.4615 19.7607 69.4133 19.4413 70.4248H14.4532V48.5308C14.4532 47.4523 13.5787 46.5779 12.5001 46.5779C11.4215 46.5779 10.547 47.4525 10.547 48.5308V70.4244H3.9062V35.6215L40.5304 35.6242C42.0513 35.6244 43.4813 36.2168 44.5566 37.292L49.2531 41.989L45.3207 45.9689C42.5818 48.7407 42.6082 53.2249 45.3793 55.9647C46.74 57.3098 48.537 58.0077 50.3518 58.0077C51.5988 58.0077 52.8543 57.678 53.9824 57.0026L60.4163 53.1501L77.6875 70.4213C78.161 70.8947 78.4503 71.5025 78.5232 72.1584C78.5152 72.2302 78.5101 72.3033 78.5101 72.3773C78.5101 72.4763 78.5198 72.5728 78.5341 72.6679C78.4905 73.3802 78.196 74.0439 77.687 74.5527ZM85.5468 36.1295V70.4244H82.1323C81.8066 69.3926 81.2369 68.4469 80.4501 67.6598L63.8715 51.0813L66.3954 49.5702H78.9964C80.0752 49.5702 80.9495 48.6956 80.9495 47.6173C80.9495 46.5388 80.0751 45.6644 78.9964 45.6644H65.8553C65.5017 45.6644 65.155 45.7603 64.8517 45.9419L51.9754 53.652C50.736 54.3944 49.1527 54.203 48.1256 53.1874C46.8857 51.9616 46.8738 49.9548 48.0994 48.7146L57.8298 38.8668C59.8675 36.8043 62.6986 35.6217 65.5978 35.6217C65.5986 35.6217 65.6 35.6217 65.6008 35.6217L85.6146 35.6265C85.5718 35.7873 85.5468 35.9553 85.5468 36.1295Z" fill="url(#paint0_linear)"/>
<path d="M99.4277 51.6417C99.0644 51.2784 98.5604 51.0694 98.0469 51.0694C97.5332 51.0694 97.0292 51.2782 96.6661 51.6417C96.3028 52.005 96.0938 52.5089 96.0938 53.0223C96.0938 53.538 96.3028 54.0399 96.6661 54.4028C97.0294 54.768 97.5334 54.9753 98.0469 54.9753C98.5606 54.9753 99.0646 54.768 99.4277 54.4028C99.791 54.0397 100 53.5376 100 53.0223C100 52.5089 99.791 52.005 99.4277 51.6417Z" fill="url(#paint1_linear)"/>
<path d="M13.8809 39.8263C13.5176 39.4631 13.0136 39.2541 12.5001 39.2541C11.9864 39.2541 11.4824 39.4629 11.1193 39.8263C10.756 40.1896 10.547 40.6935 10.547 41.207C10.547 41.7205 10.756 42.2246 11.1193 42.5874C11.4826 42.9507 11.9866 43.1599 12.5001 43.1599C13.0138 43.1599 13.5178 42.9509 13.8809 42.5874C14.2442 42.2244 14.4532 41.7205 14.4532 41.207C14.4532 40.6935 14.2442 40.1896 13.8809 39.8263Z" fill="url(#paint2_linear)"/>
<path d="M64.0625 0H35.9375C32.7065 0 30.0782 2.6283 30.0782 5.85875V20.3106C30.0782 23.5413 32.7067 26.1694 35.9375 26.1694H42.7457L48.6188 32.042C49.0003 32.4232 49.5002 32.6141 49.9998 32.6141C50.4995 32.6141 50.9997 32.4232 51.3808 32.042L57.2539 26.1694H64.0621C67.2931 26.1694 69.9214 23.5411 69.9214 20.3106V5.85875C69.9218 2.6283 67.2933 0 64.0625 0ZM66.0156 20.3106C66.0156 21.3874 65.1394 22.2635 64.0625 22.2635H56.4453C55.9273 22.2635 55.4304 22.4694 55.0643 22.8356L50 27.8994L44.9357 22.8356C44.5695 22.4694 44.0725 22.2635 43.5547 22.2635H35.9375C34.8604 22.2635 33.9844 21.3874 33.9844 20.3106V5.85875C33.9844 4.78181 34.8606 3.90584 35.9375 3.90584H64.0625C65.1394 3.90584 66.0156 4.782 66.0156 5.85875V20.3106Z" fill="url(#paint3_linear)"/>
<path d="M42.2011 11.6884C41.8378 11.3232 41.3338 11.1161 40.8203 11.1161C40.3046 11.1161 39.8026 11.3232 39.4395 11.6884C39.0762 12.0517 38.8672 12.5538 38.8672 13.0691C38.8672 13.5827 39.0762 14.0866 39.4395 14.4497C39.8028 14.813 40.3068 15.022 40.8203 15.022C41.3338 15.022 41.838 14.813 42.2011 14.4497C42.5644 14.0864 42.7734 13.5825 42.7734 13.0691C42.7734 12.5534 42.5644 12.0517 42.2011 11.6884Z" fill="url(#paint4_linear)"/>
<path d="M51.3808 11.6884C51.0175 11.3232 50.5135 11.1161 50 11.1161C49.4865 11.1161 48.9823 11.3232 48.6192 11.6884C48.2559 12.0517 48.0469 12.5538 48.0469 13.0691C48.0469 13.5827 48.2559 14.0866 48.6192 14.4497C48.9825 14.813 49.4865 15.022 50 15.022C50.5135 15.022 51.0177 14.813 51.3808 14.4497C51.7441 14.0864 51.9531 13.5825 51.9531 13.0691C51.9531 12.5534 51.7441 12.0517 51.3808 11.6884Z" fill="url(#paint5_linear)"/>
<path d="M60.5605 11.6884C60.1972 11.3232 59.6932 11.1161 59.1797 11.1161C58.666 11.1161 58.162 11.3232 57.7989 11.6884C57.4356 12.0517 57.2266 12.5538 57.2266 13.0691C57.2266 13.5827 57.4356 14.0866 57.7989 14.4497C58.1622 14.8128 58.6662 15.022 59.1797 15.022C59.6934 15.022 60.1974 14.813 60.5605 14.4497C60.9238 14.0864 61.1328 13.5825 61.1328 13.0691C61.1328 12.5534 60.9238 12.0517 60.5605 11.6884Z" fill="url(#paint6_linear)"/>
<defs>
<linearGradient id="paint0_linear" x1="-53.2959" y1="100" x2="100.501" y2="100" gradientUnits="userSpaceOnUse">
<stop stop-color="#3E65E4"/>
<stop offset="1" stop-color="#2D8DE4"/>
</linearGradient>
<linearGradient id="paint1_linear" x1="-53.2959" y1="100" x2="100.501" y2="100" gradientUnits="userSpaceOnUse">
<stop stop-color="#3E65E4"/>
<stop offset="1" stop-color="#2D8DE4"/>
</linearGradient>
<linearGradient id="paint2_linear" x1="-53.2959" y1="100" x2="100.501" y2="100" gradientUnits="userSpaceOnUse">
<stop stop-color="#3E65E4"/>
<stop offset="1" stop-color="#2D8DE4"/>
</linearGradient>
<linearGradient id="paint3_linear" x1="-53.2959" y1="100" x2="100.501" y2="100" gradientUnits="userSpaceOnUse">
<stop stop-color="#3E65E4"/>
<stop offset="1" stop-color="#2D8DE4"/>
</linearGradient>
<linearGradient id="paint4_linear" x1="-53.2959" y1="100" x2="100.501" y2="100" gradientUnits="userSpaceOnUse">
<stop stop-color="#3E65E4"/>
<stop offset="1" stop-color="#2D8DE4"/>
</linearGradient>
<linearGradient id="paint5_linear" x1="-53.2959" y1="100" x2="100.501" y2="100" gradientUnits="userSpaceOnUse">
<stop stop-color="#3E65E4"/>
<stop offset="1" stop-color="#2D8DE4"/>
</linearGradient>
<linearGradient id="paint6_linear" x1="-53.2959" y1="100" x2="100.501" y2="100" gradientUnits="userSpaceOnUse">
<stop stop-color="#3E65E4"/>
<stop offset="1" stop-color="#2D8DE4"/>
</linearGradient>
</defs>
</svg>
